<?xml version="1.0" encoding="utf-8"?>
<!-- Generator: Adobe Illustrator 15.1.0, SVG Export Plug-In . SVG Version: 6.00 Build 0)  -->
<!DOCTYPE svg PUBLIC "-//W3C//DTD SVG 1.1//EN" "http://www.w3.org/Graphics/SVG/1.1/DTD/svg11.dtd">
<svg version="1.1" id="Layer_1" xmlns="http://www.w3.org/2000/svg" xmlns:xlink="http://www.w3.org/1999/xlink" x="0px" y="0px"
	 width="275px" height="294px" viewBox="0 0 275 294" enable-background="new 0 0 275 294" xml:space="preserve">
<g>
	<g opacity="0.75">
		<circle cx="137.315" cy="154.469" r="115.65"/>
		<path fill-rule="evenodd" clip-rule="evenodd" d="M150.312,24.938c4.005-1.501,8.046-3.082,12.188-4.688
			c0.511-0.198,1.457-0.651,1.75-0.625c0.347,0.03,1.045,0.865,1.438,1.25c3.125,3.062,6.521,6.092,9.688,9.062
			c4.134-0.74,8.466-1.448,12.812-2.188c0.608-0.104,1.447-0.394,1.812-0.312c0.408,0.091,0.824,0.984,1.188,1.5
			c2.521,3.583,5.182,7.214,7.688,10.75c4.952,0.173,9.968,0.283,14.938,0.438c2.222,4.445,4.15,9.182,6.25,13.75
			c4.915,1.085,9.734,2.266,14.688,3.312c1.081,4.898,2.236,9.722,3.312,14.625c4.477,2.189,9.215,4.119,13.75,6.25
			c0.199,4.925,0.308,9.942,0.438,14.938c3.968,3.115,8.35,5.817,12.312,8.938c-0.783,4.122-1.437,8.479-2.188,12.812
			c-0.109,0.634-0.385,1.4-0.312,1.812c0.067,0.387,0.872,1.052,1.25,1.438c3.094,3.157,6.077,6.51,9.062,9.688
			c-1.829,4.608-3.522,9.353-5.375,13.938c2.621,4.316,5.355,8.52,8,12.812c-2.633,4.283-5.314,8.52-8,12.75
			c1.806,4.652,3.539,9.378,5.375,14c-2.896,3.283-6.002,6.379-9.062,9.75c-0.377,0.415-1.173,0.957-1.25,1.375
			c-0.076,0.416,0.205,1.217,0.312,1.875c0.685,4.19,1.436,8.637,2.188,12.75c-1.95,1.598-4.053,3.031-6.125,4.5
			c-2.063,1.463-4.154,2.893-6.188,4.375c-0.125,5-0.234,10.016-0.438,14.938c-4.433,2.234-9.169,4.164-13.75,6.25
			c-1.046,4.954-2.226,9.774-3.312,14.688c-4.891,1.089-9.717,2.242-14.625,3.312c-2.191,4.496-4.041,9.334-6.312,13.75
			c-4.905,0.199-9.9,0.308-14.875,0.438c-1.56,1.988-2.963,4.107-4.438,6.188c-1.469,2.072-2.901,4.18-4.5,6.125
			c-4.102-0.753-8.436-1.482-12.75-2.188c-0.65-0.106-1.391-0.377-1.812-0.312c-0.471,0.071-1.002,0.854-1.438,1.25
			c-3.308,3.012-6.452,6.148-9.75,9.062c-4.592-1.846-9.337-3.538-13.938-5.375c-4.271,2.646-8.508,5.325-12.75,8
			c-4.33-2.607-8.533-5.342-12.812-8c-4.642,1.816-9.367,3.55-14,5.375c-3.211-2.957-6.447-5.953-9.688-9.125
			c-0.374-0.365-1.096-1.128-1.438-1.188c-0.418-0.072-1.212,0.201-1.875,0.312c-4.256,0.717-8.684,1.46-12.875,2.188
			c-2.897-4.124-5.792-8.249-8.75-12.312c-4.997-0.129-10.01-0.24-14.938-0.438c-2.199-4.468-4.129-9.203-6.25-13.75
			c-4.942-1.058-9.763-2.237-14.688-3.312c-1.047-4.932-2.202-9.756-3.312-14.625c-4.507-2.139-9.144-4.148-13.75-6.188
			c-0.02-3.604-0.312-7.511-0.312-11.312c0-1.058,0.196-2.876-0.125-3.688c-0.149-0.378-1.106-0.905-1.5-1.188
			c-3.115-2.235-6.082-4.289-9.25-6.562c-0.485-0.348-1.412-0.81-1.5-1.125c-0.101-0.358,0.218-1.302,0.312-1.875
			c0.625-3.81,1.224-7.06,1.875-10.938c0.1-0.592,0.363-1.461,0.312-1.812c-0.06-0.412-0.886-1.073-1.25-1.438
			c-2.722-2.722-5.095-5.449-7.812-8.312c-0.451-0.476-1.206-1.054-1.25-1.375c-0.041-0.299,0.427-1.303,0.625-1.812
			c1.563-4.032,3.181-8.154,4.688-12.188c-2.614-4.303-5.294-8.539-8-12.75c2.636-4.302,5.371-8.505,8-12.812
			c-1.749-4.667-3.529-9.305-5.312-13.938c3.256-3.911,7.008-7.325,10.312-11.188c-0.714-4.124-1.476-8.415-2.188-12.75
			c-0.103-0.628-0.385-1.446-0.312-1.812s0.944-0.898,1.438-1.25c3.602-2.563,7.345-5.069,10.812-7.688
			c0.178-4.968,0.29-10.002,0.438-15c4.581-2.044,9.116-4.134,13.75-6.125c1.11-4.932,2.222-9.862,3.375-14.75
			c4.919-1.06,9.743-2.215,14.625-3.312c2.135-4.532,4.065-9.268,6.25-13.75c3.659-0.046,7.378-0.292,11.188-0.312
			c0.95-0.005,2.873,0.177,3.688-0.125c0.359-0.134,0.856-1.038,1.188-1.5c2.595-3.616,5.079-7.271,7.688-10.75
			c4.92,0.81,9.824,1.635,14.688,2.5c3.828-3.318,7.296-6.996,11.125-10.312c4.638,1.758,9.295,3.496,13.875,5.312
			c4.433-2.484,8.654-5.512,12.938-7.938C141.854,19.604,146,22.354,150.312,24.938z M122.812,45.438
			C98.84,48.778,80.693,58.4,65.875,71c-2.476,2.105-4.971,4.291-7.125,6.625C49.894,87.222,42.238,97.39,36.625,110.5
			c-2.673,6.243-5.032,13.14-6.688,20.812c-2.357,10.925-3.149,25.643-1.438,37.812c0.567,4.029,1.263,7.84,2.188,11.562
			c5.477,22.063,16.085,38.584,30,52.5c9.069,9.07,20.225,16.518,32.875,22.125c12.824,5.686,27.687,9.125,45.875,9.125
			c8.578,0,16.905-1.287,24.312-3.125c7.42-1.842,14.082-4.289,20.312-7.188c18.531-8.622,33.642-21.785,44.5-38
			c11.032-16.475,18.941-36.096,18.938-63.562c-0.001-8.631-1.326-16.911-3.125-24.375c-1.766-7.329-4.337-14.298-7.188-20.312
			c-8.904-18.787-21.582-33.196-38-44.5c-5.418-3.73-11.316-7.081-17.688-9.812c-6.279-2.693-13.142-5.089-20.812-6.688
			c-7.293-1.52-16.338-2.793-25.125-2.375C130.979,44.718,126.826,44.878,122.812,45.438z"/>
		<path fill-rule="evenodd" clip-rule="evenodd" d="M39.625,135.438c6.274,0.479,15.147-1.583,17.562,2.938
			c1.116,2.088,0.875,5.785,0.875,9.312c0,3.417,0.331,7.398-0.75,9.375c-0.468,0.855-1.21,1.484-2,2
			c0.801,0.592,1.514,1.066,2,1.875c1.35,2.245,0.938,6.67,0.938,10c0,3.498,0.192,7.557-1.125,9.75
			c-2.758,4.59-10.828,2.299-17.562,2.875c0-15.979,0-31.958,0-47.938C39.557,135.536,39.552,135.448,39.625,135.438z M47,142.625
			c0,4.396,0,8.792,0,13.188c1.037-0.163,2.729,0.324,3.438-0.312c0.48-0.432,0.375-1.801,0.375-2.938c0-2.483,0-4.328,0-6.625
			c0-1.095,0.133-2.688-0.25-3.125c-0.595-0.679-2.449-0.252-3.5-0.375C46.99,142.448,46.995,142.536,47,142.625z M47,162.875
			c0,4.562,0,9.125,0,13.688c1.045-0.183,2.812,0.363,3.5-0.312c0.462-0.454,0.312-2.1,0.312-3.188c0-2.646,0-4.537,0-7
			c0-1.191,0.109-2.701-0.375-3.125c-0.644-0.564-2.43-0.091-3.375-0.25C46.99,162.698,46.995,162.786,47,162.875z"/>
		<path fill-rule="evenodd" clip-rule="evenodd" d="M64,135.438c5.042,0,10.083,0,15.125,0c0,2.333,0,4.667,0,7
			c-2.562,0-5.125,0-7.688,0c-0.146,4.312-0.021,8.896-0.062,13.312c2.146,0.146,4.562,0.021,6.812,0.062
			c-0.042,2.271,0.083,4.708-0.062,6.875c-2.229,0-4.458,0-6.688,0c-0.146,4.5-0.021,9.271-0.062,13.875c2.583,0,5.167,0,7.75,0
			c0,2.334,0,4.666,0,7c-5.062,0-10.125,0-15.188,0c0-15.979,0-31.958,0-47.938C63.932,135.536,63.927,135.448,64,135.438z"/>
		<path fill-rule="evenodd" clip-rule="evenodd" d="M84.125,135.438c5.042,0,10.083,0,15.125,0c0,2.333,0,4.667,0,7
			c-2.562,0-5.125,0-7.688,0c-0.146,4.312-0.021,8.896-0.062,13.312c2.146,0.146,4.562,0.021,6.812,0.062
			c-0.042,2.271,0.083,4.708-0.062,6.875c-2.229,0-4.458,0-6.688,0c-0.146,4.5-0.021,9.271-0.062,13.875c2.583,0,5.167,0,7.75,0
			c0,2.334,0,4.666,0,7c-5.062,0-10.125,0-15.188,0c0-15.979,0-31.958,0-47.938C84.057,135.536,84.052,135.448,84.125,135.438z"/>
		<path fill-rule="evenodd" clip-rule="evenodd" d="M104.25,135.438c6.756,0.551,15.251-1.797,17.688,3.312
			c1.158,2.429,0.812,7.023,0.812,10.875c0,6.037,0.805,12.346-3.75,13.625c2.008,6.805,4.137,13.488,6.125,20.312
			c-2.625,0-5.25,0-7.875,0c-1.625-6.27-3.297-12.672-4.938-19c-0.075-0.29-0.096-0.96-0.5-1.062
			c-0.338,0.1-0.188,0.744-0.188,1.125c0,6.152,0,12.714,0,18.938c-2.479,0-4.958,0-7.438,0c0-15.979,0-31.958,0-47.938
			C104.182,135.536,104.177,135.448,104.25,135.438z M111.625,142.625c0,4.688,0,9.375,0,14.062c1.06-0.132,2.96,0.313,3.562-0.375
			c0.417-0.477,0.312-2.076,0.312-3.25c0-1.274,0-2.349,0-3.625c0-1.639,0.438-5.933-0.5-6.688
			c-0.703-0.565-2.309-0.208-3.312-0.312C111.615,142.448,111.62,142.536,111.625,142.625z"/>
		<path fill-rule="evenodd" clip-rule="evenodd" d="M137.438,135.438c2.458,0,4.917,0,7.375,0
			c0.771,11.75,1.495,23.547,2.188,35.375c1.325-11.676,2.377-23.622,3.625-35.375c2.604,0,5.208,0,7.812,0
			c1.21,11.77,2.374,23.584,3.562,35.375c0.832-11.709,1.44-23.643,2.25-35.375c2.479,0,4.958,0,7.438,0
			c-1.614,16.094-3.321,32.095-5,48.125c-3.021,0-6.041,0-9.062,0c-1.014-11.59-2.07-23.138-3.062-34.75
			c-1.128,11.497-2.068,23.183-3.125,34.75c-3,0-6,0-9,0c-1.692-15.975-3.393-31.941-5.062-47.938
			C137.37,135.536,137.365,135.448,137.438,135.438z"/>
		<path fill-rule="evenodd" clip-rule="evenodd" d="M176.062,135.438c5.041,0,10.084,0,15.125,0c0,2.333,0,4.667,0,7
			c-2.562,0-5.125,0-7.688,0c-0.146,4.312-0.021,8.896-0.062,13.312c2.146,0.146,4.562,0.021,6.812,0.062
			c-0.041,2.271,0.083,4.708-0.062,6.875c-2.229,0-4.459,0-6.688,0c-0.146,4.5-0.021,9.271-0.062,13.875c2.583,0,5.167,0,7.75,0
			c0,2.334,0,4.666,0,7c-5.062,0-10.125,0-15.188,0c0-15.979,0-31.958,0-47.938C175.994,135.536,175.99,135.448,176.062,135.438z"/>
		<path fill-rule="evenodd" clip-rule="evenodd" d="M196.188,135.438c5.041,0,10.084,0,15.125,0c0,2.333,0,4.667,0,7
			c-2.562,0-5.125,0-7.688,0c-0.146,4.312-0.021,8.896-0.062,13.312c2.146,0.146,4.562,0.021,6.812,0.062
			c-0.041,2.271,0.083,4.708-0.062,6.875c-2.229,0-4.459,0-6.688,0c-0.146,4.5-0.021,9.271-0.062,13.875c2.583,0,5.167,0,7.75,0
			c0,2.334,0,4.666,0,7c-5.062,0-10.125,0-15.188,0c0-15.979,0-31.958,0-47.938C196.119,135.536,196.115,135.448,196.188,135.438z"
			/>
		<path fill-rule="evenodd" clip-rule="evenodd" d="M216.312,135.438c2.459,0,4.916,0,7.375,0c-0.057,7.006-0.125,14-0.125,21.062
			c1.506-6.974,2.911-14.047,4.375-21.062c2.709,0,5.416,0,8.125,0c-2.233,7.913-4.371,15.921-6.625,23.812
			c2.328,8.109,4.71,16.165,7,24.312c-2.667,0-5.333,0-8,0c-1.621-7.191-3.258-14.367-4.812-21.625
			c-0.146,7.126,0.047,14.453,0.062,21.625c-2.479,0-4.959,0-7.438,0c0-15.979,0-31.958,0-47.938
			C216.244,135.536,216.24,135.448,216.312,135.438z"/>
		<path fill-rule="evenodd" clip-rule="evenodd" d="M220.25,130.625c-0.979,0-1.959,0-2.938,0
			c-5.527-17.561-15.219-30.893-28.25-41.125c-6.425-5.044-13.719-9.303-22.188-12.5c-8.422-3.18-18.215-5.312-29.375-5.312
			c-11.183,0-20.963,2.126-29.375,5.312c-8.461,3.205-15.753,7.516-22.188,12.5c-13.112,10.157-22.598,23.657-28.25,41.125
			c-0.958,0-1.917,0-2.875,0c5.506-18.289,15.429-32.225,28.75-42.812c10.051-7.989,21.694-14.075,36.5-17.125
			c2.492-0.513,5.007-0.96,7.688-1.25c2.671-0.289,5.457-0.361,8.438-0.5c5.766-0.268,12.07,0.484,17,1.375
			c15.296,2.765,27.528,9.074,37.625,16.938C204.604,97.991,214.592,112.201,220.25,130.625z"/>
		<path fill-rule="evenodd" clip-rule="evenodd" d="M57.812,186.688c0.979,0,1.958,0,2.938,0
			c6.484,14.687,15.951,26.326,28.438,35.188c6.142,4.359,13.144,7.972,21.062,10.75c7.926,2.78,16.941,4.562,27.25,4.562
			c20.478,0,36.088-6.756,48.312-15.312c12.538-8.776,21.967-20.512,28.438-35.188c1.021,0,2.042,0,3.062,0
			c-6.616,15.511-16.326,27.877-29.375,37.125c-6.431,4.559-13.615,8.452-21.875,11.375c-8.233,2.914-17.655,4.812-28.438,4.812
			c-21.458,0.001-37.715-7.117-50.375-16.125c-13.017-9.262-22.879-21.459-29.438-37C57.733,186.861,57.73,186.688,57.812,186.688z"
			/>
		<path fill-rule="evenodd" clip-rule="evenodd" d="M140.125,77.938c0.067,0.196-0.313,0.501-0.562,0.75
			c-3.648,3.647-7.684,7.605-11.312,11.125c-0.12-0.255-0.262-0.488-0.438-0.688c3.629-3.83,7.413-7.503,11.188-11.188
			C139.375,77.938,139.75,77.938,140.125,77.938z"/>
		<path fill-rule="evenodd" clip-rule="evenodd" d="M135.312,78c0.031,0.226-0.237,0.425-0.375,0.562
			c-2.756,2.756-5.859,5.64-8.562,8.5c-0.243-0.174-0.353-0.481-0.625-0.625c1.902-2.107,4.099-4.161,6.25-6.312
			c0.583-0.583,1.474-1.835,2.125-2.062C134.449,77.949,134.988,78.021,135.312,78z"/>
		<path fill-rule="evenodd" clip-rule="evenodd" d="M144.625,78.188c0.108,0.223-0.205,0.326-0.312,0.438
			c-4.171,4.364-8.683,8.683-13,13c-0.614,0.614-1.219,1.285-1.938,1.75c-0.026-0.328-0.111-0.597-0.188-0.875
			c4.669-4.914,9.596-9.571,14.375-14.375C143.961,78.102,144.201,78.236,144.625,78.188z"/>
		<path fill-rule="evenodd" clip-rule="evenodd" d="M130.125,78.375c0.098,0.236-0.365,0.49-0.625,0.75
			c-1.813,1.813-3.807,3.897-5.688,5.688c-0.297-0.12-0.498-0.336-0.75-0.5c1.911-1.963,3.849-3.901,5.812-5.812
			C129.321,78.488,129.655,78.363,130.125,78.375z"/>
		<path fill-rule="evenodd" clip-rule="evenodd" d="M147.875,78.562c0.361,0.014,0.69,0.06,1,0.125
			c0.045,0.279-0.288,0.413-0.438,0.562c-6.033,6.032-12.352,12.479-18.438,18.312c0.079-0.292-0.101-0.758,0-1.125
			c0.161-0.586,1.553-1.616,2.188-2.25C137.349,89.027,142.814,83.571,147.875,78.562z"/>
		<path fill-rule="evenodd" clip-rule="evenodd" d="M152,79.188c0.352,0.044,0.707,0.085,1,0.188
			c0.098,0.222-0.31,0.455-0.562,0.688c-3.776,3.471-7.447,7.385-11.125,11.062c-3.458,3.458-6.886,6.886-10.375,10.375
			c-0.456,0.456-0.983,1.241-1.812,1c0.007-0.799,0.709-1.209,1.188-1.688C137.475,93.651,144.764,86.37,152,79.188z"/>
		<path fill-rule="evenodd" clip-rule="evenodd" d="M155.938,80c0.355,0.04,0.617,0.175,1,0.188c-0.808,1.113-1.887,2.031-2.875,3
			c-6.457,6.329-12.925,12.862-19.375,19.312c-0.484,0.484-1.1,1.153-1.938,0.75c-0.116-0.218,0.325-0.45,0.562-0.688
			C140.743,95.132,148.458,87.443,155.938,80z"/>
		<path fill-rule="evenodd" clip-rule="evenodd" d="M118.688,80.438c-0.557,0.609-1.141,1.193-1.75,1.75
			c-0.368-0.07-0.743-0.132-1.125-0.188C116.387,81.096,117.41,80.639,118.688,80.438z"/>
		<path fill-rule="evenodd" clip-rule="evenodd" d="M159.75,81c0.316,0.059,0.574,0.175,0.875,0.25
			c0.087,0.177-0.271,0.459-0.5,0.688c-6.71,6.71-13.555,13.43-20.375,20.25c-0.694,0.694-1.157,1.715-2.25,1.125
			c-0.099-0.342,0.337-0.525,0.5-0.688C145.131,95.495,152.528,88.099,159.75,81z"/>
		<path fill-rule="evenodd" clip-rule="evenodd" d="M164.188,82.438c0.039,0.281-0.282,0.407-0.438,0.562
			c-5.359,5.359-10.781,10.718-16.25,16.188c-1.18,1.18-1.984,2.534-3.875,2.75c-0.043-0.283,0.288-0.413,0.438-0.562
			c3.027-3.027,6.152-6.152,9.25-9.25c3.338-3.337,6.863-6.899,10.062-9.938C163.691,82.226,163.924,82.347,164.188,82.438z"/>
		<path fill-rule="evenodd" clip-rule="evenodd" d="M111.312,92.938c-1.736,0.233-3.077,1.016-4.438,1.75
			c-0.419,0.227-0.986,0.567-1.5,0.5c-0.695-0.091-1.101-0.832-1-1.625c0.104-0.821,1.091-1.231,1.812-1.625
			c2.477-1.353,5.637-2.688,9.375-2.438c3.909,0.262,6.664,3.048,6.938,6.812c0.184,2.529-0.524,5.008-1.25,7
			c-0.774,2.126-1.72,3.838-2.688,5.562c-2.103,3.75-4.3,6.747-6.75,9.688c-2.398,2.878-5.165,5.867-8.5,8
			c-1.617,1.034-3.926,2.232-6.25,1.5c-2.442-0.77-3.662-3.261-3.438-6.875c0.2-3.225,1.407-6.32,2.625-8.938
			C99.867,104.477,105.358,98.321,111.312,92.938z M112.125,95.438c-0.545,0.6-1.078,1.104-1.5,1.562
			c-4.968,5.404-9.418,10.721-12.312,18.062c-0.508,1.29-1.082,2.936-1.312,4.75c-0.257,2.021-0.173,4.072,1.125,4.75
			c0.795,0.415,2.204,0.201,3.062-0.188c2.465-1.115,4.737-3.485,6.5-5.375c3.818-4.093,7.294-8.788,9.688-14.188
			c1.044-2.356,2.74-6.618,1.562-9.625c-0.784-2.001-2.785-2.9-5.875-2.625c-0.038,0.003-0.074,0.009-0.062,0.062
			C113.955,93.538,112.719,94.784,112.125,95.438z"/>
		<path fill-rule="evenodd" clip-rule="evenodd" d="M149.5,122.25c-0.787,0.957-4.441,3.555-5.875,1.438
			c-0.327-0.482-0.357-1.061-0.438-1.875c-1.185,0.781-2.519,3.014-4.812,2.875c-1.277-0.078-2.15-0.992-2.312-2.438
			c-0.417,0.188-0.717,0.636-1.062,1c-1.032,1.088-2.646,3.096-4.875,2.875c-1.304-0.129-2.242-1.396-2.375-2.625
			c-0.354-3.255,1.939-5.933,3.188-7.688c-2.401,1.52-4.347,3.912-6,6.625c-0.41,0.672-1.102,2.131-2.125,2.125
			c-2.333-0.014-0.211-4.094,0.188-5.062c0.622-1.513,1.21-2.623,1.75-3.812c-2.954,1.635-4.718,5.051-6.438,8.375
			c-0.42,0.812-0.809,2.394-1.438,2.562c-1.148,0.309-1.8-0.657-1.688-1.812c0.15-1.546,1.068-3.239,1.625-4.75
			c1.128-3.06,2.505-5.817,4.188-8.438c0.676-1.053,1.962-3.204,3.25-3.062c0.468,0.052,0.906,0.499,0.938,1.062
			c0.035,0.615-0.511,1.287-0.812,1.688c-1.03,1.368-2.128,3.044-2.812,4.562c1.574-1.32,3.473-3.348,5.562-4.812
			c0.626-0.438,2.861-1.924,3.25-0.375c0.293,1.167-1.151,2.327-1.625,3c-0.713,1.014-1.207,1.874-1.688,2.938
			c1.844-1.637,3.719-3.534,6.062-5.062c0.668-0.436,1.664-1.275,2.625-1.125c0.563,0.088,1.207,0.707,1.125,1.562
			c-0.075,0.788-1.101,1.589-1.75,2.312c-1.209,1.348-2.406,2.942-3.375,4.688c-0.301,0.542-1.946,3.446-0.312,3.75
			c0.783,0.146,1.656-0.759,2.25-1.312c1.294-1.207,2.317-2.298,3.25-3.75c1.396-2.173,2.406-4.352,4.375-6.188
			c1.187-1.107,2.799-2.419,4.438-2.562c3.279-0.286,3.58,3.332,2.125,5.438c0.057,0.34,0.512,0.515,0.5,1.062
			c-0.013,0.562-0.762,1.121-1.062,1.562c-0.333,0.489-0.61,1.122-0.938,1.75c-0.414,0.794-1.193,2.439,0,2.75
			c1.129,0.294,2.898-2.011,3.438-2.688c0.439-0.553,0.893-1.172,1.312-1.812c1.824-2.782,3.081-6.311,4.688-9.375
			c2.461-4.695,5.088-9.297,8.438-13.438c0.734-0.908,1.625-1.959,2.625-2.875c0.999-0.915,3.039-2.552,4.562-1.5
			c0.569,0.393,0.862,1.294,0.75,2.5c-0.199,2.144-1.516,4.398-2.625,6.062c-3.521,5.281-7.947,9.482-12.812,13.062
			c-0.466,1.034-0.973,2.027-1.438,3.062c2.141-1.028,4.021-3.858,6.438-4.938c0.92-0.411,2.213-0.28,2.375,0.75
			c0.166,1.054-0.732,1.761-1.25,2.438c-1.238,1.618-2.571,3.601-3.375,5.875c-0.234,0.665-0.675,2.08,0.375,2.25
			c1.295,0.21,2.621-1.957,3.312-2.875c1.91-2.537,3.123-4.768,5.5-6.875c1.071-0.95,2.467-2.054,4-2.188
			c3.152-0.275,3.654,3.309,2.125,5.438c0.099,0.391,0.512,0.521,0.5,1.062c-0.013,0.562-0.795,1.169-1.062,1.562
			c-0.328,0.481-0.611,1.123-0.938,1.75c-0.348,0.666-1.21,2.435,0,2.75c0.587,0.153,1.4-0.515,1.812-0.875
			c0.812-0.71,1.74-1.893,2.5-3c0.676-0.984,1.462-3.062,2.562-2.938c1.191,0.135,0.348,2.062-0.188,3
			c-0.594,1.042-1.341,1.969-1.875,2.625c-1.268,1.558-3.061,3.658-4.938,4.062c-2.002,0.432-3.086-0.597-3.062-2.562
			c-1.195,0.774-2.493,3.016-4.812,2.875c-1.424-0.086-2.322-1.198-2.375-2.938c-1.035,1.249-4.471,3.831-6,1.375
			c-0.223-0.357-0.381-0.835-0.438-1.312c-0.392-3.306,2.12-6.371,3.312-8.312c0.012-0.051,0.062-0.062,0.062-0.125
			c-3.156,1.805-5.614,5.187-7.438,8.812c-0.55,1.094-0.957,3.127-2.062,3.312C148.375,125.835,148.97,123.271,149.5,122.25z
			 M167.438,93.875c-3.758,3.609-6.347,8.548-8.75,13.375c0.006,0.07-0.091,0.097,0,0.125c0.004-0.038,0.01-0.074,0.062-0.062
			c2.43-1.649,4.539-3.969,6.438-6.312c1.389-1.714,2.821-3.658,3.812-5.75c0.325-0.687,0.895-1.539,0.438-2.375
			C168.631,92.771,167.947,93.385,167.438,93.875z M143.938,116.875c0.96-0.96,1.328-1.269,1.938-2.438
			c0.451-0.864,0.755-3.078-1-2.5c-2.364,0.779-4.473,4.007-5.562,6.5c-0.282,0.645-1.07,2.593-0.312,3.125
			c0.81,0.568,2.069-0.423,2.5-0.812c0.702-0.635,1.138-1.263,1.625-1.938C142.568,117.854,143.415,117.397,143.938,116.875z
			 M170.875,116.875c0.96-0.96,1.328-1.269,1.938-2.438c0.451-0.864,0.755-3.078-1-2.5c-2.364,0.779-4.473,4.008-5.562,6.5
			c-0.281,0.645-1.07,2.593-0.312,3.125c0.81,0.568,2.069-0.423,2.5-0.812c0.701-0.635,1.138-1.263,1.625-1.938
			C169.506,117.854,170.353,117.397,170.875,116.875z"/>
		<path fill-rule="evenodd" clip-rule="evenodd" d="M183,92.25c-1.318,1.474-2.88,3.036-4.25,4.25
			c0.105-0.562,0.273-1.061,0.375-1.625c1.047-0.995,2.068-2.016,3.062-3.062C182.574,91.843,182.67,92.163,183,92.25z"/>
		<path fill-rule="evenodd" clip-rule="evenodd" d="M185.75,94.312c-2.683,2.734-5.391,5.442-8.125,8.125
			c-0.331-0.086-0.632-0.201-1-0.25c2.721-2.862,5.586-5.58,8.375-8.375C185.306,93.923,185.438,94.207,185.75,94.312z"/>
		<path fill-rule="evenodd" clip-rule="evenodd" d="M66.062,128c0.394-0.546,0.409-1.341,0.75-1.938
			c0.344-0.603,1.273-1.236,1.938-1.875c4.445-4.271,8.89-8.89,13.188-13.188c5.134-5.134,10.294-10.206,15.25-15.25
			c0.053-0.012,0.059,0.024,0.062,0.062c0.589,1.008-0.856,2.044-1.625,2.812C86.062,108.188,76.554,117.696,67,127.25
			c-0.154,0.154-0.331,0.34-0.5,0.5C66.407,127.838,66.25,128.082,66.062,128z"/>
		<path fill-rule="evenodd" clip-rule="evenodd" d="M188.312,96.438c-2.526,2.766-5.297,5.287-7.875,8
			c-0.264-0.174-0.475-0.401-0.75-0.562c2.609-2.703,5.328-5.297,7.938-8C187.859,96.057,188.055,96.278,188.312,96.438z"/>
		<path fill-rule="evenodd" clip-rule="evenodd" d="M190.812,98.812c-2.901,2.766-5.609,5.724-8.562,8.438
			c-0.08-0.294-0.229-0.522-0.375-0.75c2.65-2.891,5.547-5.537,8.25-8.375C190.432,98.276,190.661,98.506,190.812,98.812z"/>
		<path fill-rule="evenodd" clip-rule="evenodd" d="M193.25,101.062c-2.672,2.683-5.287,5.422-8.062,8
			c-0.194-0.202-0.44-0.352-0.688-0.5c2.651-2.745,5.411-5.38,8.062-8.125C192.829,100.608,192.983,100.892,193.25,101.062z"/>
		<path fill-rule="evenodd" clip-rule="evenodd" d="M195.562,103.562c-2.766,2.651-5.367,5.467-8.188,8.062
			c-0.132-0.264-0.279-0.512-0.5-0.688c2.63-2.724,5.37-5.338,8-8.062C195.15,103.058,195.33,103.337,195.562,103.562z"/>
		<path fill-rule="evenodd" clip-rule="evenodd" d="M197.75,106.188c-3.152,2.993-6.303,6.322-9.375,9.188
			c-0.094-0.282-0.114-0.636-0.25-0.875c2.912-3.109,5.984-6.057,9-9.062C197.378,105.643,197.594,105.885,197.75,106.188z"/>
		<path fill-rule="evenodd" clip-rule="evenodd" d="M201.812,111.5c-6.082,6.251-12.344,12.323-18.5,18.5c-0.396,0-0.792,0-1.188,0
			c-0.043-0.289,0.296-0.421,0.438-0.562c2.928-2.928,5.946-5.946,8.938-8.938c3.244-3.244,6.676-6.708,9.812-9.625
			C201.515,111.048,201.602,111.336,201.812,111.5z"/>
		<path fill-rule="evenodd" clip-rule="evenodd" d="M203.688,114.375c-5.1,5.316-10.436,10.398-15.625,15.625
			c-0.375,0-0.75,0-1.125,0c-0.048-0.213,0.2-0.385,0.312-0.5c5.136-5.248,10.704-10.603,15.938-15.812
			C203.4,113.87,203.449,114.218,203.688,114.375z"/>
		<path fill-rule="evenodd" clip-rule="evenodd" d="M87.25,115.188c0.081,1.611-0.925,2.237-1.938,3.25
			c-3.829,3.829-7.864,7.831-11.625,11.562c-0.375,0-0.75,0-1.125,0c-0.034-0.299,0.438-0.562,0.75-0.875
			C77.859,124.578,82.636,119.724,87.25,115.188z"/>
		<path fill-rule="evenodd" clip-rule="evenodd" d="M205.438,117.375c-4.085,4.332-8.423,8.41-12.625,12.625
			c-0.375,0-0.75,0-1.125,0c-0.035-0.228,0.347-0.534,0.625-0.812c4.1-4.1,8.517-8.415,12.625-12.562
			c0.053-0.012,0.059,0.024,0.062,0.062C205.16,116.903,205.266,117.172,205.438,117.375z"/>
		<path fill-rule="evenodd" clip-rule="evenodd" d="M207.062,120.5c-3.077,3.256-6.271,6.396-9.5,9.5c-0.375,0-0.75,0-1.125,0
			c-0.115-0.15,0.238-0.426,0.438-0.625c3.136-3.136,6.587-6.468,9.75-9.625C206.801,119.97,206.933,120.234,207.062,120.5z"/>
		<path fill-rule="evenodd" clip-rule="evenodd" d="M86.062,121.062c-0.041,0.392,0.141,0.813,0,1.312
			c-0.16,0.564-1.372,1.46-1.875,1.938c-1.944,1.845-3.907,3.941-5.75,5.688c-0.375,0-0.75,0-1.125,0
			c-0.074-0.256,0.248-0.373,0.375-0.5C80.391,126.796,83.34,123.809,86.062,121.062z"/>
		<path fill-rule="evenodd" clip-rule="evenodd" d="M208.562,123.75c-1.975,2.172-4.109,4.183-6.188,6.25c-0.396,0-0.792,0-1.188,0
			c-0.062-0.272,0.41-0.535,0.688-0.812c1.996-1.996,4.277-4.238,6.312-6.25C208.316,123.204,208.472,123.445,208.562,123.75z"/>
		<path fill-rule="evenodd" clip-rule="evenodd" d="M86.5,125.375c0.207,0.23,0.155,0.72,0.312,1
			c-1.089,1.328-2.434,2.4-3.625,3.625c-0.375,0-0.75,0-1.125,0c-0.083-0.248,0.242-0.367,0.375-0.5
			C83.723,128.214,85.205,126.693,86.5,125.375z"/>
		<path fill-rule="evenodd" clip-rule="evenodd" d="M209.562,126.25c0.246,0.191,0.212,0.663,0.438,0.875
			c-0.932,0.984-1.891,1.943-2.875,2.875c-0.375,0-0.75,0-1.125,0c-0.1-0.169,0.152-0.335,0.25-0.438
			C207.243,128.518,208.585,127.357,209.562,126.25z"/>
		<path fill-rule="evenodd" clip-rule="evenodd" d="M87.562,129.062c0.241,0.238,0.402,0.556,0.562,0.875
			c-0.362,0.138-0.973,0.027-1.438,0.062C86.942,129.65,87.308,129.412,87.562,129.062z"/>
		<path fill-rule="evenodd" clip-rule="evenodd" d="M210.938,129.75c-0.006,0.089-0.01,0.177,0.062,0.188
			c-0.008,0.138-0.266,0.026-0.375,0.062C210.705,129.893,210.754,129.754,210.938,129.75z"/>
		<path fill-rule="evenodd" clip-rule="evenodd" d="M73.188,187.312c0.096,0.161-0.33,0.518-0.562,0.75
			c-0.691,0.691-1.597,1.506-2.25,2.25c-0.256-0.182-0.278-0.597-0.5-0.812c0.703-0.756,1.432-1.484,2.188-2.188
			C72.438,187.312,72.812,187.312,73.188,187.312z"/>
		<path fill-rule="evenodd" clip-rule="evenodd" d="M78,187.312c0.066,0.197-0.312,0.5-0.562,0.75
			c-1.698,1.698-3.674,3.574-5.438,5.25c-0.13-0.266-0.262-0.53-0.438-0.75c1.724-1.775,3.474-3.526,5.25-5.25
			C77.208,187.312,77.604,187.312,78,187.312z"/>
		<path fill-rule="evenodd" clip-rule="evenodd" d="M82.75,187.312c0.032,0.225-0.236,0.424-0.375,0.562
			c-2.734,2.734-5.713,5.703-8.562,8.375c-0.115-0.26-0.25-0.5-0.438-0.688c2.632-2.867,5.487-5.514,8.25-8.25
			C82,187.312,82.375,187.312,82.75,187.312z"/>
		<path fill-rule="evenodd" clip-rule="evenodd" d="M87.5,187.312c0.119,0.214-0.34,0.465-0.562,0.688
			c-3.62,3.62-7.39,7.568-11.188,11.062c-0.132-0.264-0.279-0.512-0.5-0.688c3.657-3.738,7.425-7.366,11.125-11.062
			C86.75,187.312,87.125,187.312,87.5,187.312z"/>
		<path fill-rule="evenodd" clip-rule="evenodd" d="M92.25,187.312c0.035,0.3-0.441,0.566-0.75,0.875
			c-3.896,3.896-7.93,7.93-11.875,11.875c-0.582,0.582-1.093,1.289-1.812,1.688c-0.156-0.219-0.323-0.427-0.5-0.625
			c4.53-4.678,9.213-9.203,13.812-13.812C91.5,187.312,91.875,187.312,92.25,187.312z"/>
		<path fill-rule="evenodd" clip-rule="evenodd" d="M97.062,187.312c0.067,0.257-0.243,0.368-0.375,0.5
			c-4.792,4.792-9.722,9.722-14.562,14.562c-0.697,0.697-1.385,1.451-2.188,2c-0.079-0.297-0.366-0.384-0.5-0.625
			c5.439-5.519,10.942-10.975,16.438-16.438C96.271,187.312,96.667,187.312,97.062,187.312z"/>
		<path fill-rule="evenodd" clip-rule="evenodd" d="M101.812,187.312c0.045,0.28-0.289,0.414-0.438,0.562
			c-6.266,6.267-12.756,12.784-19.125,19c-0.182-0.234-0.391-0.443-0.625-0.625c6.391-6.276,12.624-12.709,19.062-18.938
			C101.062,187.312,101.438,187.312,101.812,187.312z"/>
		<path fill-rule="evenodd" clip-rule="evenodd" d="M105.438,187.312c0.188,0,0.375,0,0.562,0c0.087,0.227-0.33,0.672-0.562,1
			c-1.559,2.199-3.793,4.043-5.812,6.062c-1.689,1.689-3.37,3.376-5,5c-1.724,1.63-3.338,3.37-5.062,5
			c-0.807,0.859-1.641,1.693-2.5,2.5c-0.807,0.777-1.641,1.857-2.5,2.375c-0.141-0.193-0.307-0.359-0.5-0.5
			c0.58-0.922,1.723-1.818,2.562-2.688c0.838-0.933,1.787-1.755,2.625-2.688c1.797-1.745,3.567-3.516,5.312-5.312
			C98.21,194.502,101.809,190.893,105.438,187.312z"/>
		<path fill-rule="evenodd" clip-rule="evenodd" d="M178.062,187.312c0.082,0.184-0.191,0.377-0.312,0.5
			c-1.133,1.158-2.523,2.517-3.75,3.625c-0.066-0.33-0.12-0.672-0.25-0.938c1.002-1.123,2.123-2.127,3.188-3.188
			C177.312,187.312,177.688,187.312,178.062,187.312z"/>
		<path fill-rule="evenodd" clip-rule="evenodd" d="M182.812,187.312c0.062,0.209-0.196,0.381-0.312,0.5
			c-2.463,2.517-5.348,5.319-7.812,7.688c0.081-0.297-0.104-0.809,0-1.188c0.116-0.424,1.233-1.296,1.688-1.75
			c1.746-1.746,3.711-3.671,5.312-5.25C182.062,187.312,182.438,187.312,182.812,187.312z"/>
		<path fill-rule="evenodd" clip-rule="evenodd" d="M187.562,187.312c0.062,0.271-0.411,0.536-0.688,0.812
			c-4.214,4.214-8.596,8.738-12.938,12.875c-0.03-1.564,0.741-2.014,1.75-2.938c1.553-1.421,3.079-3.142,4.5-4.562
			c2.227-2.227,4.277-4.236,6.25-6.188C186.812,187.312,187.188,187.312,187.562,187.312z"/>
		<path fill-rule="evenodd" clip-rule="evenodd" d="M192.375,187.312c0.045,0.28-0.289,0.414-0.438,0.562
			c-6.23,6.23-12.779,12.844-19.062,18.875c0.123-1.85,1.348-2.535,2.562-3.75c5.175-5.175,10.699-10.66,15.75-15.688
			C191.584,187.312,191.979,187.312,192.375,187.312z"/>
		<path fill-rule="evenodd" clip-rule="evenodd" d="M197.125,187.312c0.063,0.201-0.32,0.508-0.562,0.75
			c-7.843,7.844-16.074,16.009-23.938,23.688c-0.184-1.442,0.628-1.815,1.5-2.688c7.201-7.202,14.727-14.726,21.875-21.75
			C196.375,187.312,196.75,187.312,197.125,187.312z"/>
		<path fill-rule="evenodd" clip-rule="evenodd" d="M131.812,190.875c3.286-0.257,6.146,0.632,6.25,4.188
			c0.062,2.125-0.504,4.467-0.812,6.562c-0.597,4.052-1.204,8.807-1.812,12.938c-0.461,3.131-0.496,5.98-1.938,7.875
			c-0.859,1.129-2.471,1.918-4.125,2.125c-3.613,0.453-6.708-0.549-6.812-4.125c-0.065-2.244,0.563-4.407,0.875-6.688
			c0.567-4.149,1.18-8.899,1.812-13.25c0.572-3.934,0.695-7.292,3.438-8.812C129.466,191.256,130.618,190.969,131.812,190.875z
			 M129.938,198.375c-0.878,6.377-1.736,12.314-2.625,18.812c-0.146,1.065-0.512,2.387-0.062,3.062
			c0.382,0.575,1.783,0.647,2.438,0.188c0.646-0.454,0.798-1.705,0.938-2.688c0.494-3.477,0.87-6.064,1.375-9.688
			c0.555-3.98,0.835-6.098,1.312-9.688c0.245-1.841,0.709-3.939-1.562-3.562C130.094,195.088,130.178,196.627,129.938,198.375z"/>
		<path fill-rule="evenodd" clip-rule="evenodd" d="M111.062,219.938c2.438,0.146,5.146,0.021,7.688,0.062
			c-0.212,1.35-0.4,2.725-0.562,4.125c-4.021,0-8.042,0-12.062,0c0.445-2.915,0.692-6.086,1.562-8.688
			c0.812-2.43,2.165-4.512,3.875-6.375c1.565-1.705,3.43-3.253,4.562-5.688c0.515-1.106,0.783-2.486,1-4.125
			c0.163-1.229,0.845-3.477,0-4.188c-0.336-0.283-1.296-0.318-1.75-0.188c-1.791,0.52-1.163,3.699-1.75,5.562
			c-1.438,0-2.875,0-4.312,0c0.471-4.958,1.18-9.158,6.125-9.562c3.835-0.313,6.548,0.796,6.562,4.312
			c0.005,1.311-0.318,2.705-0.5,4c-0.59,4.197-1.77,6.859-4,9.375C114.616,211.815,111.289,214.483,111.062,219.938z"/>
		<path fill-rule="evenodd" clip-rule="evenodd" d="M163.312,207.438c1.123,0.744,1.982,1.572,1.875,3.562
			c-0.076,1.412-0.399,2.968-0.625,4.5c-0.223,1.509-0.359,3.055-0.688,4.375c-0.745,2.995-2.708,4.484-5.5,4.688
			c-1.937,0.141-4.236-0.059-5.375-1.25c-1.865-1.952-0.506-5.869-0.25-8.812c1.396,0,2.792,0,4.188,0
			c-0.032,0.871-0.181,1.785-0.312,2.75c-0.124,0.911-0.468,1.969-0.125,2.75c0.496,1.133,2.423,0.766,2.938-0.125
			c0.324-0.561,0.389-1.562,0.5-2.375c0.226-1.641,0.462-3.334,0.688-5c0.107-0.793,0.312-1.929,0-2.438
			c-0.441-0.719-1.891-0.463-2.938-0.5c0.044-1.229,0.385-2.697,0.5-4.062c1.127,0.013,2.773,0.197,3.312-0.688
			c0.518-0.849,0.623-3.295,0.812-4.625c0.109-0.771,0.183-1.494,0.312-2.375c0.118-0.803,0.318-1.811,0.062-2.375
			c-0.27-0.597-1.206-0.774-1.938-0.562c-1.785,0.518-1.167,3.699-1.75,5.562c-1.417,0-2.833,0-4.25,0
			c0.451-4.955,1.139-9.16,6.062-9.562c3.563-0.291,6.318,0.632,6.375,4.125c0.031,1.949-0.487,3.811-0.812,6.188
			C165.967,204.169,165.776,206.663,163.312,207.438z"/>
		<path fill-rule="evenodd" clip-rule="evenodd" d="M146.125,191.312c1.188,0,2.375,0,3.562,0
			c-1.386,9.531-2.676,19.158-4.062,28.688c0.959,0,1.917,0,2.875,0c-0.188,1.375-0.375,2.75-0.562,4.125c-3.354,0-6.708,0-10.062,0
			c0.158-1.404,0.357-2.768,0.562-4.125c0.938,0,1.875,0,2.812,0c1.11-7.473,2.163-15.004,3.188-22.562
			c-0.792-0.146-1.854-0.021-2.75-0.062c0.181-0.965,0.287-2.004,0.438-3C144.528,194.424,145.631,193.172,146.125,191.312z"/>
		<path fill-rule="evenodd" clip-rule="evenodd" d="M101.75,200.438c0.187,0.229,0.145,0.688,0.312,0.938
			c-4.061,4.21-8.244,8.297-12.438,12.375c-0.186-0.189-0.361-0.389-0.625-0.5C93.152,208.881,97.498,204.707,101.75,200.438z"/>
		<path fill-rule="evenodd" clip-rule="evenodd" d="M103.375,204.812c-3.555,3.779-7.353,7.314-11,11
			c-0.293-0.082-0.41-0.34-0.688-0.438c0.72-0.973,1.679-1.866,2.625-2.812c2.773-2.773,5.718-5.629,8.5-8.438
			C103.047,204.307,103.132,204.639,103.375,204.812z"/>
		<path fill-rule="evenodd" clip-rule="evenodd" d="M57.812,207.688c0.435,0.295,0.67,0.789,1,1.188
			c-0.935,1.356-2.065,2.519-3,3.875c1.52-0.605,2.942-1.308,4.438-1.938c0.476,0.212,0.587,0.787,1,1.062
			c-0.976,1.378-2.061,2.648-3.062,4c1.394-0.543,3.058-1.359,4.5-2.062c0.385,0.345,0.637,0.822,1,1.188
			c-2.23,1.02-4.53,1.97-6.812,2.938c-0.3-0.408-0.627-0.79-0.938-1.188c0.951-1.361,2.016-2.609,3-3.938
			c-1.43,0.508-3.019,1.397-4.562,2c-0.271-0.438-0.587-0.83-0.938-1.188C54.836,211.586,56.399,209.712,57.812,207.688z"/>
		<path fill-rule="evenodd" clip-rule="evenodd" d="M209.75,217.688c1.203,1.131,2.499,2.168,3.75,3.25
			c-0.296,0.392-0.634,0.741-0.938,1.125c-1.831-1.523-3.592-3.117-5.438-4.625c0.479-0.563,0.967-1.116,1.438-1.688
			c1.602,0.648,3.227,1.273,4.812,1.938c-0.867-1.486-1.759-2.949-2.688-4.375c0.43-0.591,0.979-1.063,1.375-1.688
			c1.886,1.489,3.715,3.035,5.438,4.688c-0.287,0.359-0.637,0.655-0.875,1.062c-1.292-1.062-2.535-2.173-3.812-3.25
			c0.831,1.544,1.706,3.044,2.625,4.5c-0.171,0.412-0.549,0.617-0.75,1C213.034,218.986,211.39,218.34,209.75,217.688z"/>
		<path fill-rule="evenodd" clip-rule="evenodd" d="M64.5,216c0.391,0.38,0.838,0.703,1.125,1.188
			c-0.926,1.303-1.733,2.726-2.625,4.062c1.339-0.641,2.878-1.622,4.25-2.438c0.403,0.326,0.774,0.684,1.062,1.125
			c-0.875,1.375-1.738,2.762-2.562,4.188c1.453-0.818,2.856-1.686,4.25-2.562c0.412,0.317,0.713,0.745,1.125,1.062
			c-2.07,1.284-4.313,2.395-6.375,3.688c-0.494-0.256-0.745-0.755-1.188-1.062c0.848-1.465,1.752-2.873,2.625-4.312
			c-1.45,0.801-2.82,1.68-4.25,2.5c-0.494-0.256-0.745-0.755-1.188-1.062C61.987,220.236,63.278,218.152,64.5,216z"/>
		<path fill-rule="evenodd" clip-rule="evenodd" d="M99.75,216.625c0.068,1.402-0.887,2.322-1.688,3.062
			c-0.284-0.153-0.552-0.322-0.812-0.5C98.047,218.297,98.953,217.516,99.75,216.625z"/>
		<path fill-rule="evenodd" clip-rule="evenodd" d="M204.75,220.5c0.348-0.047,1.066-0.052,1.438,0.062
			c1.385,0.425,2.938,1.857,2.938,3.812c0,2.413-2.236,3.702-4,3.438c-1.907-0.286-4.296-2.771-3.125-5.312
			C202.357,221.724,203.344,220.69,204.75,220.5z M206.312,226.375c2.741-0.675,0.68-4.978-1.75-4.438
			C201.635,222.589,203.99,226.946,206.312,226.375z"/>
		<path fill-rule="evenodd" clip-rule="evenodd" d="M72,223.562c0.49,0.238,0.802,0.656,1.25,0.938
			c-0.647,1.54-1.445,2.93-2.125,4.438c1.236-0.785,2.662-1.922,3.938-2.875c0.475,0.213,0.753,0.621,1.188,0.875
			c-0.675,1.554-1.417,3.042-2.125,4.562c1.43-0.924,2.635-2.074,4.062-3c0.335,0.352,0.738,0.637,1.125,0.938
			c-1.936,1.481-3.958,2.875-5.938,4.312c-0.5-0.229-0.813-0.645-1.25-0.938c0.668-1.498,1.398-2.935,2.062-4.438
			c-1.294,0.748-2.596,2.029-4,2.875c-0.387-0.321-0.732-0.685-1.188-0.938C69.98,228.043,71.062,225.875,72,223.562z"/>
		<path fill-rule="evenodd" clip-rule="evenodd" d="M200.188,227.188c-0.222,0.466-0.771,0.604-1.062,1
			c-1.34-0.934-2.95,0.183-2.75,1.75c0.113,0.888,1.181,2.26,2.125,2.438c1.373,0.259,2.811-1.132,1.875-2.562
			c0.275-0.454,0.729-0.729,1.188-1c1.587,2.367-0.567,5.23-3.188,5c-1.824-0.16-3.515-2.016-3.5-4.062
			C194.895,227.135,198.104,225.352,200.188,227.188z"/>
		<path fill-rule="evenodd" clip-rule="evenodd" d="M188.188,233.125c0.106-0.023,0.118,0.049,0.125,0.125
			c-0.363,1.158-0.617,2.425-0.938,3.625c1.519,0.814,3.179,1.488,4.812,2.188c-0.531,0.364-1.102,0.69-1.688,1
			c-1.195-0.492-2.3-1.075-3.438-1.625c-0.82,1.232,0.268,2.165,0.75,3.125c-0.271,0.438-0.894,0.523-1.25,0.875
			c-1.325-1.925-2.394-4.106-3.688-6.062c0.348-0.381,0.912-0.546,1.312-0.875c0.557,0.777,1.021,1.646,1.5,2.5
			c0.404-1.221,0.637-2.613,0.938-3.938C187.166,233.771,187.72,233.49,188.188,233.125z"/>
		<path fill-rule="evenodd" clip-rule="evenodd" d="M84.5,233.75c2.252-0.385,4.026,1.309,4.125,3.125
			c0.129,2.382-1.833,4.539-4.188,4.25c-1.426-0.175-2.867-1.43-3.062-2.812C81.065,236.129,82.697,234.058,84.5,233.75z
			 M82.938,238.625c0.31,0.929,1.427,1.317,2.312,1.062c1.834-0.528,2.762-4.18,0.438-4.625c-0.207-0.039-0.736,0.046-0.812,0.062
			C83.807,235.361,82.417,237.068,82.938,238.625z"/>
		<path fill-rule="evenodd" clip-rule="evenodd" d="M78.562,235.625c-0.173,0.535-0.614,0.803-0.812,1.312
			c-0.483-0.246-0.859-0.6-1.312-0.875c0.221-0.467,0.58-0.795,0.812-1.25C77.795,234.976,78.085,235.395,78.562,235.625z"/>
		<path fill-rule="evenodd" clip-rule="evenodd" d="M195.562,236.812c-0.512,0.197-0.806,0.611-1.312,0.812
			c-0.262-0.405-0.557-0.777-0.812-1.188c0.3-0.408,0.846-0.571,1.188-0.938C195.018,235.857,195.298,236.326,195.562,236.812z"/>
		<path fill-rule="evenodd" clip-rule="evenodd" d="M92.812,245.625c-0.305-0.195-0.686-0.314-1-0.5
			c0.166-1.771,0.332-3.543,0.562-5.25c-0.806,1.424-1.442,3.017-2.188,4.5c-0.428-0.218-0.857-0.435-1.312-0.625
			c0.977-2.169,2.041-4.251,3-6.438c0.747,0.253,1.379,0.621,2.062,0.938c-0.26,1.636-0.37,3.422-0.625,5.062
			c1.21-0.978,2.349-2.567,3.625-3.688c0.598,0.36,1.283,0.633,1.938,0.938c-0.992,2.153-2.057,4.234-3,6.438
			c-0.535-0.11-0.85-0.442-1.375-0.562c0.672-1.557,1.428-3.031,2.125-4.562C95.273,243.044,94.202,244.494,92.812,245.625z"/>
		<path fill-rule="evenodd" clip-rule="evenodd" d="M181.188,238.688c-1.139,0.527-2.265,1.068-3.375,1.625
			c0.229,0.459,0.459,0.916,0.688,1.375c1.003-0.518,2.068-0.973,3.062-1.5c0.223,0.34,0.41,0.715,0.562,1.125
			c-1.06,0.44-2.033,0.967-3.062,1.438c0.147,0.603,0.452,1.048,0.688,1.562c1.208-0.479,2.318-1.057,3.438-1.625
			c0.258,0.325,0.367,0.8,0.625,1.125c-1.573,0.864-3.229,1.646-4.938,2.375c-0.999-2.146-2.016-4.275-3.062-6.375
			c1.613-0.782,3.191-1.601,4.875-2.312C180.82,237.93,181.076,238.236,181.188,238.688z"/>
		<path fill-rule="evenodd" clip-rule="evenodd" d="M173.938,242.062c-1.196,0.408-2.317,0.891-3.5,1.312
			c0.164,0.502,0.346,0.987,0.562,1.438c1.004-0.455,2.15-0.767,3.125-1.25c0.275,0.287,0.348,0.777,0.5,1.188
			c-1.104,0.354-2.123,0.793-3.188,1.188c0.137,0.593,0.407,1.051,0.562,1.625c1.272-0.373,2.357-0.935,3.625-1.312
			c0.16,0.402,0.369,0.756,0.438,1.25c-1.744,0.568-3.334,1.291-5.062,1.875c-0.781-2.281-1.708-4.417-2.5-6.688
			c1.646-0.604,3.291-1.209,4.875-1.875C173.71,241.082,173.753,241.643,173.938,242.062z"/>
		<path fill-rule="evenodd" clip-rule="evenodd" d="M104.75,242.75c-0.048,2.611,0.091,5.034,0.062,7.625
			c-0.493-0.195-1.028-0.347-1.5-0.562c0-0.542,0-1.083,0-1.625c-0.74-0.385-1.652-0.598-2.438-0.938
			c-0.449,0.363-0.75,0.875-1.125,1.312c-0.479-0.166-0.917-0.375-1.438-0.5c1.515-2.068,3.311-3.855,4.875-5.875
			C103.698,242.386,104.205,242.587,104.75,242.75z M101.625,246.312c0.59,0.16,1.082,0.418,1.688,0.562
			c-0.082-0.877,0.27-1.975-0.062-2.688C102.779,244.967,102.091,245.529,101.625,246.312z"/>
		<path fill-rule="evenodd" clip-rule="evenodd" d="M166.5,243.438c0.236,2.285,0.08,4.962,0.125,7.438
			c-0.559,0.066-0.994,0.256-1.5,0.375c-0.857-1.414-1.568-2.974-2.5-4.312c0.137,1.572,0.059,3.358,0.188,4.938
			c-0.506,0.161-1.05,0.283-1.562,0.438c-1.227-2.106-2.428-4.238-3.688-6.312c0.368-0.299,1.023-0.311,1.5-0.5
			c0.761,1.447,1.561,2.855,2.312,4.312c0.19-1.586-0.082-3.251,0-4.938c0.471-0.134,0.923-0.285,1.438-0.375
			c0.76,1.47,1.61,2.848,2.375,4.312c0.168-1.605-0.12-3.297-0.062-5C165.615,243.719,166.076,243.598,166.5,243.438z"/>
		<path fill-rule="evenodd" clip-rule="evenodd" d="M110.625,244.625c-0.145,0.918-0.438,1.688-0.625,2.562
			c0.784,0.403,1.875,0.5,2.75,0.812c0.255-0.849,0.479-1.729,0.688-2.625c0.553,0.072,1.003,0.247,1.5,0.375
			c-0.519,2.356-1.189,4.561-1.75,6.875c-0.56-0.064-1.006-0.244-1.5-0.375c0.203-1.026,0.495-1.963,0.75-2.938
			c-0.856-0.311-1.835-0.498-2.75-0.75c-0.357,0.893-0.538,1.962-0.812,2.938c-0.553-0.072-1.003-0.247-1.5-0.375
			c0.53-2.345,1.203-4.547,1.75-6.875C109.678,244.322,110.128,244.497,110.625,244.625z"/>
		<path fill-rule="evenodd" clip-rule="evenodd" d="M155.375,250.125c1.508,0.138,1.115,2.177,1.875,3.062
			c-0.447,0.178-1.072,0.178-1.562,0.312c-0.538-0.75-0.238-2.148-1.125-2.5c-0.652-0.259-1.457,0.21-2.312,0.25
			c0.189,0.873,0.285,1.84,0.5,2.688c-0.449,0.176-1.025,0.225-1.562,0.312c-0.399-2.351-0.834-4.666-1.188-7.062
			c1.795-0.09,4.814-1.414,5.875,0.125C156.384,248.052,156.297,249.791,155.375,250.125z M154.5,249.562
			c0.368-0.415,0.248-1.344-0.188-1.625c-0.717-0.463-1.655,0.279-2.562,0.188c0.06,0.711,0.227,1.315,0.312,2
			C152.703,249.87,154.035,250.086,154.5,249.562z"/>
		<path fill-rule="evenodd" clip-rule="evenodd" d="M121.188,246.875c0.461,2.518,0.96,4.998,1.438,7.5
			c-0.565-0.06-1.06-0.19-1.625-0.25c-0.054-0.571-0.162-1.088-0.25-1.625c-0.774-0.247-1.774-0.268-2.562-0.5
			c-0.362,0.43-0.594,0.99-0.875,1.5c-0.509-0.095-1.008-0.201-1.562-0.25c1.272-2.229,2.548-4.451,3.875-6.625
			C120.134,246.72,120.633,246.826,121.188,246.875z M118.75,250.938c0.576,0.111,1.204,0.171,1.75,0.312
			c-0.134-0.928-0.164-1.961-0.5-2.688C119.64,249.411,119.117,250.097,118.75,250.938z"/>
		<path fill-rule="evenodd" clip-rule="evenodd" d="M130.25,251.188c1.074,0.213,1.436,2.018,0.812,2.938
			c-0.965,1.426-3.995,0.585-5.812,0.562c0.156-2.406,0.375-4.75,0.562-7.125c2.212,0.182,6.576-0.078,5.375,2.812
			C131.026,250.764,130.685,250.955,130.25,251.188z M127.125,250.562c1.155,0.185,3.03,0.384,2.625-1
			c-0.213-0.727-1.511-0.541-2.5-0.625C127.237,249.508,127.194,250.049,127.125,250.562z M126.938,253.625
			c1.052-0.102,2.279,0.465,2.75-0.25c0.94-1.428-1.282-1.822-2.625-1.75C127.011,252.246,126.89,253.111,126.938,253.625z"/>
		<path fill-rule="evenodd" clip-rule="evenodd" d="M147.5,247.625c-0.048,0.485,0.081,0.794,0.062,1.25
			c-1.282,0.072-2.533,0.176-3.75,0.312c0.033,0.508,0.092,0.992,0.125,1.5c1.128-0.122,2.334-0.166,3.438-0.312
			c0.072,0.387,0.053,0.863,0.125,1.25c-1.176,0.054-2.238,0.221-3.438,0.25c-0.009,0.634,0.084,1.166,0.125,1.75
			c1.316-0.018,2.719-0.279,3.875-0.25c-0.048,0.485,0.081,0.794,0.062,1.25c-1.762,0.176-3.532,0.343-5.375,0.438
			c-0.251-2.311-0.381-4.744-0.625-7.062C143.892,247.891,145.773,247.566,147.5,247.625z"/>
		<path fill-rule="evenodd" clip-rule="evenodd" d="M139.5,248.062c0,0.438,0,0.875,0,1.312c-1.294-0.044-2.396,0.104-3.688,0.062
			c-0.145,0.376-0.021,1.021-0.062,1.5c1.146,0,2.292,0,3.438,0c-0.046,0.463,0.07,0.764,0.062,1.188
			c-1.219-0.031-2.265,0.111-3.5,0.062c-0.047,0.651,0.099,1.109,0.062,1.75c1.311,0.02,2.573-0.01,3.812-0.062
			c-0.046,0.504,0.102,0.815,0.062,1.312c-1.746,0.108-3.703,0.006-5.438,0.125c-0.035-2.402-0.058-4.816-0.125-7.188
			C135.979,248.167,137.69,248.065,139.5,248.062z"/>
		<path fill-rule="evenodd" clip-rule="evenodd" d="M124.75,79.062c-1.12,1.317-2.672,2.745-4,4.062
			c-0.28-0.095-0.602-0.148-0.875-0.25c-0.098-0.169,0.159-0.342,0.25-0.438c0.398-0.419,0.835-0.835,1.312-1.312
			C122.372,80.19,123.054,79.152,124.75,79.062z"/>
		<path fill-rule="evenodd" clip-rule="evenodd" d="M97.5,90.875c-0.119,1.577-1.029,2.154-2.062,3.188
			c-8.516,8.516-17.187,17.165-25.625,25.625c0.496-0.886,0.822-1.976,1.438-2.812c0.417-0.567,1.118-1.055,1.688-1.625
			c7.919-7.919,15.902-15.84,23.812-23.75C96.967,91.283,97.241,90.799,97.5,90.875z"/>
		<path fill-rule="evenodd" clip-rule="evenodd" d="M89.312,95.375c-3.193,3.411-6.853,6.897-10.25,10.312
			C81.96,101.98,85.654,98.529,89.312,95.375z"/>
		<path fill-rule="evenodd" clip-rule="evenodd" d="M152.938,97.188c-0.82,1.742-2.004,3.663-3.562,4.875
			c-0.355-0.02-0.63-0.12-0.938-0.188c-0.055-0.206,0.224-0.411,0.375-0.562C150.105,100.02,151.668,98.548,152.938,97.188z"/>
		<path fill-rule="evenodd" clip-rule="evenodd" d="M90.125,107.562c-0.373,0.68-0.55,1.578-1,2.312
			c-0.498,0.814-1.675,1.737-2.5,2.562c-5.498,5.498-10.842,10.778-16.438,16.375c-0.772,0.772-1.05,1.394-2.438,1.188
			c-0.088-0.163,0.279-0.481,0.5-0.688C75.676,122.385,82.778,114.625,90.125,107.562z"/>
		<path fill-rule="evenodd" clip-rule="evenodd" d="M199.375,108.125c0.093,0.24,0.24,0.426,0.438,0.562
			c-2.294,2.644-4.906,4.969-7.375,7.438c-2.459,2.458-4.871,4.962-7.375,7.375c-0.035,0.146-0.188,0.146-0.062,0
			c0.443-0.508,0.763-1.074,1.125-1.625c0.373-0.567,0.623-1.213,1-1.75c0.365-0.52,1.037-0.975,1.562-1.5
			c2.524-2.524,5.102-5.102,7.625-7.625C197.315,109.997,198.229,108.902,199.375,108.125z"/>
		<path fill-rule="evenodd" clip-rule="evenodd" d="M171.875,217.312c-0.105-1.709,0.9-2.15,1.938-3.188
			c8.357-8.357,16.785-16.662,25.25-25.125c0.56-0.56,1.303-1.578,1.875-1.688c0.273-0.053,0.931,0.023,0.875,0
			c0.232,0.098,0.043,0.189-0.188,0.438c-2.243,2.414-4.803,4.74-7.062,7c-7.513,7.513-15.093,15.086-22.625,22.5
			C171.971,217.38,171.693,217.383,171.875,217.312z"/>
		<path fill-rule="evenodd" clip-rule="evenodd" d="M170.625,223.312c0.098-1.838,1.309-2.621,2.5-3.812
			c10.578-10.578,21.162-20.975,31.812-31.625c0.238-0.238,0.824-0.897,1.625-0.562c0.319,0.134-0.188,0.375-0.312,0.5
			c-11.799,11.799-23.711,23.733-35.562,35.438C170.721,223.38,170.443,223.383,170.625,223.312z"/>
		<path fill-rule="evenodd" clip-rule="evenodd" d="M204.438,193.062c-1.635,3.577-4.805,6.117-7.562,8.875
			c-4.576,4.576-9.094,9.094-13.75,13.75c-0.92,0.92-1.822,2.035-2.75,2.75c-1.059,0.816-2.331,1.275-3.375,2.062
			c-0.146,0.125-0.146-0.027,0-0.062C186.137,211.304,195.326,202.221,204.438,193.062z"/>
		<path fill-rule="evenodd" clip-rule="evenodd" d="M102.688,194.75c-0.134,0.49-0.088,1.049-0.312,1.562
			c-0.25,0.572-1.283,1.408-1.875,2c-4.196,4.197-8.323,8.26-12.5,12.438c-0.269,0.269-0.574,0.691-1,0.75
			c-0.121-0.191-0.342-0.283-0.5-0.438c0.515-0.769,1.212-1.398,1.875-2.062C93.064,204.311,97.969,199.478,102.688,194.75z"/>
		<path fill-rule="evenodd" clip-rule="evenodd" d="M101.812,209.875c-0.372,1.562-1.103,2.508-2.25,3.562
			c-1.509,1.387-2.993,3.098-4.5,4.375c-0.189-0.207-0.429-0.363-0.688-0.5C96.828,214.807,99.308,212.328,101.812,209.875z"/>
	</g>
	<g>
		<g>
			<circle fill="#F0E7C9" cx="137.315" cy="137.469" r="115.65"/>
			<path fill-rule="evenodd" clip-rule="evenodd" fill="#DBA137" d="M150.312,7.938c4.005-1.501,8.046-3.082,12.188-4.688
				c0.511-0.198,1.457-0.651,1.75-0.625c0.347,0.03,1.045,0.865,1.438,1.25c3.125,3.062,6.521,6.092,9.688,9.062
				c4.134-0.74,8.466-1.448,12.812-2.188c0.608-0.104,1.447-0.394,1.812-0.312c0.408,0.091,0.824,0.984,1.188,1.5
				c2.521,3.583,5.182,7.214,7.688,10.75c4.952,0.173,9.968,0.283,14.938,0.438c2.222,4.445,4.15,9.182,6.25,13.75
				c4.915,1.085,9.734,2.266,14.688,3.312c1.081,4.898,2.236,9.722,3.312,14.625c4.477,2.189,9.215,4.119,13.75,6.25
				c0.199,4.925,0.308,9.942,0.438,14.938c3.968,3.115,8.35,5.817,12.312,8.938c-0.783,4.122-1.437,8.479-2.188,12.812
				c-0.109,0.634-0.385,1.4-0.312,1.812c0.067,0.387,0.872,1.052,1.25,1.438c3.094,3.157,6.077,6.51,9.062,9.688
				c-1.829,4.608-3.522,9.353-5.375,13.938c2.621,4.316,5.355,8.52,8,12.812c-2.633,4.283-5.314,8.52-8,12.75
				c1.806,4.652,3.539,9.378,5.375,14c-2.896,3.283-6.002,6.379-9.062,9.75c-0.377,0.415-1.173,0.957-1.25,1.375
				c-0.076,0.416,0.205,1.217,0.312,1.875c0.685,4.19,1.436,8.637,2.188,12.75c-1.95,1.598-4.053,3.031-6.125,4.5
				c-2.063,1.463-4.154,2.893-6.188,4.375c-0.125,5-0.234,10.016-0.438,14.938c-4.433,2.234-9.169,4.164-13.75,6.25
				c-1.046,4.954-2.226,9.774-3.312,14.688c-4.891,1.089-9.717,2.242-14.625,3.312c-2.191,4.496-4.041,9.334-6.312,13.75
				c-4.905,0.199-9.9,0.308-14.875,0.438c-1.56,1.988-2.963,4.107-4.438,6.188c-1.469,2.072-2.901,4.18-4.5,6.125
				c-4.102-0.753-8.436-1.482-12.75-2.188c-0.65-0.106-1.391-0.377-1.812-0.312c-0.471,0.071-1.002,0.854-1.438,1.25
				c-3.308,3.012-6.452,6.148-9.75,9.062c-4.592-1.846-9.337-3.538-13.938-5.375c-4.271,2.646-8.508,5.325-12.75,8
				c-4.33-2.607-8.533-5.342-12.812-8c-4.642,1.816-9.367,3.55-14,5.375c-3.211-2.957-6.447-5.953-9.688-9.125
				c-0.374-0.365-1.096-1.128-1.438-1.188c-0.418-0.072-1.212,0.201-1.875,0.312c-4.256,0.717-8.684,1.46-12.875,2.188
				c-2.897-4.124-5.792-8.249-8.75-12.312c-4.997-0.129-10.01-0.24-14.938-0.438c-2.199-4.468-4.129-9.203-6.25-13.75
				c-4.942-1.058-9.763-2.237-14.688-3.312c-1.047-4.932-2.202-9.756-3.312-14.625c-4.507-2.139-9.144-4.148-13.75-6.188
				c-0.02-3.604-0.312-7.511-0.312-11.312c0-1.058,0.196-2.876-0.125-3.688c-0.149-0.378-1.106-0.905-1.5-1.188
				c-3.115-2.235-6.082-4.289-9.25-6.562c-0.485-0.348-1.412-0.81-1.5-1.125c-0.101-0.358,0.218-1.302,0.312-1.875
				c0.625-3.81,1.224-7.06,1.875-10.938c0.1-0.592,0.363-1.461,0.312-1.812c-0.06-0.412-0.886-1.073-1.25-1.438
				c-2.722-2.722-5.095-5.449-7.812-8.312c-0.451-0.476-1.206-1.054-1.25-1.375c-0.041-0.299,0.427-1.303,0.625-1.812
				c1.563-4.032,3.181-8.154,4.688-12.188c-2.614-4.303-5.294-8.539-8-12.75c2.636-4.302,5.371-8.505,8-12.812
				c-1.749-4.667-3.529-9.305-5.312-13.938c3.256-3.911,7.008-7.325,10.312-11.188c-0.714-4.124-1.476-8.415-2.188-12.75
				C10.709,86.185,10.427,85.366,10.5,85s0.944-0.898,1.438-1.25c3.602-2.563,7.345-5.069,10.812-7.688
				c0.178-4.968,0.29-10.002,0.438-15c4.581-2.044,9.116-4.134,13.75-6.125c1.11-4.932,2.222-9.862,3.375-14.75
				c4.919-1.06,9.743-2.215,14.625-3.312c2.135-4.532,4.065-9.268,6.25-13.75c3.659-0.046,7.378-0.292,11.188-0.312
				c0.95-0.005,2.873,0.177,3.688-0.125c0.359-0.134,0.856-1.038,1.188-1.5c2.595-3.616,5.079-7.271,7.688-10.75
				c4.92,0.81,9.824,1.635,14.688,2.5c3.828-3.318,7.296-6.996,11.125-10.312c4.638,1.758,9.295,3.496,13.875,5.312
				c4.433-2.484,8.654-5.512,12.938-7.938C141.854,2.604,146,5.354,150.312,7.938z M122.812,28.438
				C98.84,31.778,80.693,41.4,65.875,54c-2.476,2.105-4.971,4.291-7.125,6.625C49.894,70.222,42.238,80.39,36.625,93.5
				c-2.673,6.243-5.032,13.14-6.688,20.812c-2.357,10.925-3.149,25.643-1.438,37.812c0.567,4.029,1.263,7.84,2.188,11.562
				c5.477,22.063,16.085,38.584,30,52.5c9.069,9.07,20.225,16.518,32.875,22.125c12.824,5.686,27.687,9.125,45.875,9.125
				c8.578,0,16.905-1.287,24.312-3.125c7.42-1.842,14.082-4.289,20.312-7.188c18.531-8.622,33.642-21.785,44.5-38
				c11.032-16.475,18.941-36.096,18.938-63.562c-0.001-8.631-1.326-16.911-3.125-24.375c-1.766-7.329-4.337-14.298-7.188-20.312
				c-8.904-18.787-21.582-33.196-38-44.5c-5.418-3.73-11.316-7.081-17.688-9.812c-6.279-2.693-13.142-5.089-20.812-6.688
				c-7.293-1.52-16.338-2.793-25.125-2.375C130.979,27.718,126.826,27.878,122.812,28.438z"/>
			<g>
				<path fill-rule="evenodd" clip-rule="evenodd" fill="#2C2C2C" d="M39.625,118.438c6.274,0.479,15.147-1.583,17.562,2.938
					c1.116,2.088,0.875,5.785,0.875,9.312c0,3.417,0.331,7.398-0.75,9.375c-0.468,0.855-1.21,1.484-2,2
					c0.801,0.592,1.514,1.066,2,1.875c1.35,2.245,0.938,6.67,0.938,10c0,3.498,0.192,7.557-1.125,9.75
					c-2.758,4.59-10.828,2.299-17.562,2.875c0-15.979,0-31.958,0-47.938C39.557,118.536,39.552,118.448,39.625,118.438z M47,125.625
					c0,4.396,0,8.792,0,13.188c1.037-0.163,2.729,0.324,3.438-0.312c0.48-0.432,0.375-1.801,0.375-2.938c0-2.483,0-4.328,0-6.625
					c0-1.095,0.133-2.688-0.25-3.125c-0.595-0.679-2.449-0.252-3.5-0.375C46.99,125.448,46.995,125.536,47,125.625z M47,145.875
					c0,4.562,0,9.125,0,13.688c1.045-0.183,2.812,0.363,3.5-0.312c0.462-0.454,0.312-2.1,0.312-3.188c0-2.646,0-4.537,0-7
					c0-1.191,0.109-2.701-0.375-3.125c-0.644-0.564-2.43-0.091-3.375-0.25C46.99,145.698,46.995,145.786,47,145.875z"/>
				<path fill-rule="evenodd" clip-rule="evenodd" fill="#2C2C2C" d="M64,118.438c5.042,0,10.083,0,15.125,0c0,2.333,0,4.667,0,7
					c-2.562,0-5.125,0-7.688,0c-0.146,4.312-0.021,8.896-0.062,13.312c2.146,0.146,4.562,0.021,6.812,0.062
					c-0.042,2.271,0.083,4.708-0.062,6.875c-2.229,0-4.458,0-6.688,0c-0.146,4.5-0.021,9.271-0.062,13.875c2.583,0,5.167,0,7.75,0
					c0,2.334,0,4.666,0,7c-5.062,0-10.125,0-15.188,0c0-15.979,0-31.958,0-47.938C63.932,118.536,63.927,118.448,64,118.438z"/>
				<path fill-rule="evenodd" clip-rule="evenodd" fill="#2C2C2C" d="M84.125,118.438c5.042,0,10.083,0,15.125,0
					c0,2.333,0,4.667,0,7c-2.562,0-5.125,0-7.688,0c-0.146,4.312-0.021,8.896-0.062,13.312c2.146,0.146,4.562,0.021,6.812,0.062
					c-0.042,2.271,0.083,4.708-0.062,6.875c-2.229,0-4.458,0-6.688,0c-0.146,4.5-0.021,9.271-0.062,13.875c2.583,0,5.167,0,7.75,0
					c0,2.334,0,4.666,0,7c-5.062,0-10.125,0-15.188,0c0-15.979,0-31.958,0-47.938C84.057,118.536,84.052,118.448,84.125,118.438z"/>
				<path fill-rule="evenodd" clip-rule="evenodd" fill="#2C2C2C" d="M104.25,118.438c6.756,0.551,15.251-1.797,17.688,3.312
					c1.158,2.429,0.812,7.023,0.812,10.875c0,6.037,0.805,12.346-3.75,13.625c2.008,6.805,4.137,13.488,6.125,20.312
					c-2.625,0-5.25,0-7.875,0c-1.625-6.27-3.297-12.672-4.938-19c-0.075-0.29-0.096-0.96-0.5-1.062
					c-0.338,0.1-0.188,0.744-0.188,1.125c0,6.152,0,12.714,0,18.938c-2.479,0-4.958,0-7.438,0c0-15.979,0-31.958,0-47.938
					C104.182,118.536,104.177,118.448,104.25,118.438z M111.625,125.625c0,4.688,0,9.375,0,14.062
					c1.06-0.132,2.96,0.313,3.562-0.375c0.417-0.477,0.312-2.076,0.312-3.25c0-1.274,0-2.349,0-3.625c0-1.639,0.438-5.933-0.5-6.688
					c-0.703-0.565-2.309-0.208-3.312-0.312C111.615,125.448,111.62,125.536,111.625,125.625z"/>
				<path fill-rule="evenodd" clip-rule="evenodd" fill="#2C2C2C" d="M137.438,118.438c2.458,0,4.917,0,7.375,0
					c0.771,11.75,1.495,23.547,2.188,35.375c1.325-11.676,2.377-23.622,3.625-35.375c2.604,0,5.208,0,7.812,0
					c1.21,11.77,2.374,23.584,3.562,35.375c0.832-11.709,1.44-23.643,2.25-35.375c2.479,0,4.958,0,7.438,0
					c-1.614,16.094-3.321,32.095-5,48.125c-3.021,0-6.041,0-9.062,0c-1.014-11.59-2.07-23.138-3.062-34.75
					c-1.128,11.497-2.068,23.183-3.125,34.75c-3,0-6,0-9,0c-1.692-15.975-3.393-31.941-5.062-47.938
					C137.37,118.536,137.365,118.448,137.438,118.438z"/>
				<path fill-rule="evenodd" clip-rule="evenodd" fill="#2C2C2C" d="M176.062,118.438c5.041,0,10.084,0,15.125,0
					c0,2.333,0,4.667,0,7c-2.562,0-5.125,0-7.688,0c-0.146,4.312-0.021,8.896-0.062,13.312c2.146,0.146,4.562,0.021,6.812,0.062
					c-0.041,2.271,0.083,4.708-0.062,6.875c-2.229,0-4.459,0-6.688,0c-0.146,4.5-0.021,9.271-0.062,13.875c2.583,0,5.167,0,7.75,0
					c0,2.334,0,4.666,0,7c-5.062,0-10.125,0-15.188,0c0-15.979,0-31.958,0-47.938C175.994,118.536,175.99,118.448,176.062,118.438z"
					/>
				<path fill-rule="evenodd" clip-rule="evenodd" fill="#2C2C2C" d="M196.188,118.438c5.041,0,10.084,0,15.125,0
					c0,2.333,0,4.667,0,7c-2.562,0-5.125,0-7.688,0c-0.146,4.312-0.021,8.896-0.062,13.312c2.146,0.146,4.562,0.021,6.812,0.062
					c-0.041,2.271,0.083,4.708-0.062,6.875c-2.229,0-4.459,0-6.688,0c-0.146,4.5-0.021,9.271-0.062,13.875c2.583,0,5.167,0,7.75,0
					c0,2.334,0,4.666,0,7c-5.062,0-10.125,0-15.188,0c0-15.979,0-31.958,0-47.938C196.119,118.536,196.115,118.448,196.188,118.438z
					"/>
				<path fill-rule="evenodd" clip-rule="evenodd" fill="#2C2C2C" d="M216.312,118.438c2.459,0,4.916,0,7.375,0
					c-0.057,7.006-0.125,14-0.125,21.062c1.506-6.974,2.911-14.047,4.375-21.062c2.709,0,5.416,0,8.125,0
					c-2.233,7.913-4.371,15.921-6.625,23.812c2.328,8.109,4.71,16.165,7,24.312c-2.667,0-5.333,0-8,0
					c-1.621-7.191-3.258-14.367-4.812-21.625c-0.146,7.126,0.047,14.453,0.062,21.625c-2.479,0-4.959,0-7.438,0
					c0-15.979,0-31.958,0-47.938C216.244,118.536,216.24,118.448,216.312,118.438z"/>
				<g>
					<path fill-rule="evenodd" clip-rule="evenodd" fill="#2C2C2C" d="M220.25,113.625c-0.979,0-1.959,0-2.938,0
						c-5.527-17.561-15.219-30.893-28.25-41.125c-6.425-5.044-13.719-9.303-22.188-12.5c-8.422-3.18-18.215-5.312-29.375-5.312
						c-11.183,0-20.963,2.126-29.375,5.312c-8.461,3.205-15.753,7.516-22.188,12.5c-13.112,10.157-22.598,23.657-28.25,41.125
						c-0.958,0-1.917,0-2.875,0c5.506-18.289,15.429-32.225,28.75-42.812c10.051-7.989,21.694-14.075,36.5-17.125
						c2.492-0.513,5.007-0.96,7.688-1.25c2.671-0.289,5.457-0.361,8.438-0.5c5.766-0.268,12.07,0.484,17,1.375
						c15.296,2.765,27.528,9.074,37.625,16.938C204.604,80.991,214.592,95.201,220.25,113.625z"/>
					<path fill-rule="evenodd" clip-rule="evenodd" fill="#2C2C2C" d="M57.812,169.688c0.979,0,1.958,0,2.938,0
						c6.484,14.687,15.951,26.326,28.438,35.188c6.142,4.359,13.144,7.972,21.062,10.75c7.926,2.78,16.941,4.562,27.25,4.562
						c20.478,0,36.088-6.756,48.312-15.312c12.538-8.776,21.967-20.512,28.438-35.188c1.021,0,2.042,0,3.062,0
						c-6.616,15.511-16.326,27.877-29.375,37.125c-6.431,4.559-13.615,8.452-21.875,11.375c-8.233,2.914-17.655,4.812-28.438,4.812
						c-21.458,0.001-37.715-7.117-50.375-16.125c-13.017-9.262-22.879-21.459-29.438-37
						C57.733,169.861,57.73,169.688,57.812,169.688z"/>
				</g>
			</g>
			<g>
				<path fill-rule="evenodd" clip-rule="evenodd" fill="#D9352C" d="M140.125,60.938c0.067,0.196-0.313,0.501-0.562,0.75
					c-3.648,3.647-7.684,7.605-11.312,11.125c-0.12-0.255-0.262-0.488-0.438-0.688c3.629-3.83,7.413-7.503,11.188-11.188
					C139.375,60.938,139.75,60.938,140.125,60.938z"/>
				<path fill-rule="evenodd" clip-rule="evenodd" fill="#D9352C" d="M135.312,61c0.031,0.226-0.237,0.425-0.375,0.562
					c-2.756,2.756-5.859,5.64-8.562,8.5c-0.243-0.174-0.353-0.481-0.625-0.625c1.902-2.107,4.099-4.161,6.25-6.312
					c0.583-0.583,1.474-1.835,2.125-2.062C134.449,60.949,134.988,61.021,135.312,61z"/>
				<path fill-rule="evenodd" clip-rule="evenodd" fill="#D9352C" d="M144.625,61.188c0.108,0.223-0.205,0.326-0.312,0.438
					c-4.171,4.364-8.683,8.683-13,13c-0.614,0.614-1.219,1.285-1.938,1.75c-0.026-0.328-0.111-0.597-0.188-0.875
					c4.669-4.914,9.596-9.571,14.375-14.375C143.961,61.102,144.201,61.236,144.625,61.188z"/>
				<path fill-rule="evenodd" clip-rule="evenodd" fill="#D9352C" d="M130.125,61.375c0.098,0.236-0.365,0.49-0.625,0.75
					c-1.813,1.813-3.807,3.897-5.688,5.688c-0.297-0.12-0.498-0.336-0.75-0.5c1.911-1.963,3.849-3.901,5.812-5.812
					C129.321,61.488,129.655,61.363,130.125,61.375z"/>
				<path fill-rule="evenodd" clip-rule="evenodd" fill="#D9352C" d="M147.875,61.562c0.361,0.014,0.69,0.06,1,0.125
					c0.045,0.279-0.288,0.413-0.438,0.562c-6.033,6.032-12.352,12.479-18.438,18.312c0.079-0.292-0.101-0.758,0-1.125
					c0.161-0.586,1.553-1.616,2.188-2.25C137.349,72.027,142.814,66.571,147.875,61.562z"/>
				<path fill-rule="evenodd" clip-rule="evenodd" fill="#D9352C" d="M152,62.188c0.352,0.044,0.707,0.085,1,0.188
					c0.098,0.222-0.31,0.455-0.562,0.688c-3.776,3.471-7.447,7.385-11.125,11.062c-3.458,3.458-6.886,6.886-10.375,10.375
					c-0.456,0.456-0.983,1.241-1.812,1c0.007-0.799,0.709-1.209,1.188-1.688C137.475,76.651,144.764,69.37,152,62.188z"/>
				<path fill-rule="evenodd" clip-rule="evenodd" fill="#D9352C" d="M155.938,63c0.355,0.04,0.617,0.175,1,0.188
					c-0.808,1.113-1.887,2.031-2.875,3c-6.457,6.329-12.925,12.862-19.375,19.312c-0.484,0.484-1.1,1.153-1.938,0.75
					c-0.116-0.218,0.325-0.45,0.562-0.688C140.743,78.132,148.458,70.443,155.938,63z"/>
				<path fill-rule="evenodd" clip-rule="evenodd" fill="#D9352C" d="M118.688,63.438c-0.557,0.609-1.141,1.193-1.75,1.75
					c-0.368-0.07-0.743-0.132-1.125-0.188C116.387,64.096,117.41,63.639,118.688,63.438z"/>
				<path fill-rule="evenodd" clip-rule="evenodd" fill="#D9352C" d="M159.75,64c0.316,0.059,0.574,0.175,0.875,0.25
					c0.087,0.177-0.271,0.459-0.5,0.688c-6.71,6.71-13.555,13.43-20.375,20.25c-0.694,0.694-1.157,1.715-2.25,1.125
					c-0.099-0.342,0.337-0.525,0.5-0.688C145.131,78.495,152.528,71.099,159.75,64z"/>
				<path fill-rule="evenodd" clip-rule="evenodd" fill="#D9352C" d="M164.188,65.438c0.039,0.281-0.282,0.407-0.438,0.562
					c-5.359,5.359-10.781,10.718-16.25,16.188c-1.18,1.18-1.984,2.534-3.875,2.75c-0.043-0.283,0.288-0.413,0.438-0.562
					c3.027-3.027,6.152-6.152,9.25-9.25c3.338-3.337,6.863-6.899,10.062-9.938C163.691,65.226,163.924,65.347,164.188,65.438z"/>
				<path fill-rule="evenodd" clip-rule="evenodd" fill="#D9352C" d="M111.312,75.938c-1.736,0.233-3.077,1.016-4.438,1.75
					c-0.419,0.227-0.986,0.567-1.5,0.5c-0.695-0.091-1.101-0.832-1-1.625c0.104-0.821,1.091-1.231,1.812-1.625
					c2.477-1.353,5.637-2.688,9.375-2.438c3.909,0.262,6.664,3.048,6.938,6.812c0.184,2.529-0.524,5.008-1.25,7
					c-0.774,2.126-1.72,3.838-2.688,5.562c-2.103,3.75-4.3,6.747-6.75,9.688c-2.398,2.878-5.165,5.867-8.5,8
					c-1.617,1.034-3.926,2.232-6.25,1.5c-2.442-0.77-3.662-3.261-3.438-6.875c0.2-3.225,1.407-6.32,2.625-8.938
					C99.867,87.477,105.358,81.321,111.312,75.938z M112.125,78.438c-0.545,0.6-1.078,1.104-1.5,1.562
					c-4.968,5.404-9.418,10.721-12.312,18.062c-0.508,1.29-1.082,2.936-1.312,4.75c-0.257,2.021-0.173,4.072,1.125,4.75
					c0.795,0.415,2.204,0.201,3.062-0.188c2.465-1.115,4.737-3.485,6.5-5.375c3.818-4.093,7.294-8.788,9.688-14.188
					c1.044-2.356,2.74-6.618,1.562-9.625c-0.784-2.001-2.785-2.9-5.875-2.625c-0.038,0.003-0.074,0.009-0.062,0.062
					C113.955,76.538,112.719,77.784,112.125,78.438z"/>
				<path fill-rule="evenodd" clip-rule="evenodd" fill="#D9352C" d="M149.5,105.25c-0.787,0.957-4.441,3.555-5.875,1.438
					c-0.327-0.482-0.357-1.061-0.438-1.875c-1.185,0.781-2.519,3.014-4.812,2.875c-1.277-0.078-2.15-0.992-2.312-2.438
					c-0.417,0.188-0.717,0.636-1.062,1c-1.032,1.088-2.646,3.096-4.875,2.875c-1.304-0.129-2.242-1.396-2.375-2.625
					c-0.354-3.255,1.939-5.933,3.188-7.688c-2.401,1.52-4.347,3.912-6,6.625c-0.41,0.672-1.102,2.131-2.125,2.125
					c-2.333-0.014-0.211-4.094,0.188-5.062c0.622-1.513,1.21-2.623,1.75-3.812c-2.954,1.635-4.718,5.051-6.438,8.375
					c-0.42,0.812-0.809,2.394-1.438,2.562c-1.148,0.309-1.8-0.657-1.688-1.812c0.15-1.546,1.068-3.239,1.625-4.75
					c1.128-3.06,2.505-5.817,4.188-8.438c0.676-1.053,1.962-3.204,3.25-3.062c0.468,0.052,0.906,0.499,0.938,1.062
					c0.035,0.615-0.511,1.287-0.812,1.688c-1.03,1.368-2.128,3.044-2.812,4.562c1.574-1.32,3.473-3.348,5.562-4.812
					c0.626-0.438,2.861-1.924,3.25-0.375c0.293,1.167-1.151,2.327-1.625,3c-0.713,1.014-1.207,1.874-1.688,2.938
					c1.844-1.637,3.719-3.534,6.062-5.062c0.668-0.436,1.664-1.275,2.625-1.125c0.563,0.088,1.207,0.707,1.125,1.562
					c-0.075,0.788-1.101,1.589-1.75,2.312c-1.209,1.348-2.406,2.942-3.375,4.688c-0.301,0.542-1.946,3.446-0.312,3.75
					c0.783,0.146,1.656-0.759,2.25-1.312c1.294-1.207,2.317-2.298,3.25-3.75c1.396-2.173,2.406-4.352,4.375-6.188
					c1.187-1.107,2.799-2.419,4.438-2.562c3.279-0.286,3.58,3.332,2.125,5.438c0.057,0.34,0.512,0.515,0.5,1.062
					c-0.013,0.562-0.762,1.121-1.062,1.562c-0.333,0.489-0.61,1.122-0.938,1.75c-0.414,0.794-1.193,2.439,0,2.75
					c1.129,0.294,2.898-2.011,3.438-2.688c0.439-0.553,0.893-1.172,1.312-1.812c1.824-2.782,3.081-6.311,4.688-9.375
					c2.461-4.695,5.088-9.297,8.438-13.438c0.734-0.908,1.625-1.959,2.625-2.875c0.999-0.915,3.039-2.552,4.562-1.5
					c0.569,0.393,0.862,1.294,0.75,2.5c-0.199,2.144-1.516,4.398-2.625,6.062c-3.521,5.281-7.947,9.482-12.812,13.062
					c-0.466,1.034-0.973,2.027-1.438,3.062c2.141-1.028,4.021-3.858,6.438-4.938c0.92-0.411,2.213-0.28,2.375,0.75
					c0.166,1.054-0.732,1.761-1.25,2.438c-1.238,1.618-2.571,3.601-3.375,5.875c-0.234,0.665-0.675,2.08,0.375,2.25
					c1.295,0.21,2.621-1.957,3.312-2.875c1.91-2.537,3.123-4.768,5.5-6.875c1.071-0.95,2.467-2.054,4-2.188
					c3.152-0.275,3.654,3.309,2.125,5.438c0.099,0.391,0.512,0.521,0.5,1.062C175.3,99,174.518,99.607,174.25,100
					c-0.328,0.481-0.611,1.123-0.938,1.75c-0.348,0.666-1.21,2.435,0,2.75c0.587,0.153,1.4-0.515,1.812-0.875
					c0.812-0.71,1.74-1.893,2.5-3c0.676-0.984,1.462-3.062,2.562-2.938c1.191,0.135,0.348,2.062-0.188,3
					c-0.594,1.042-1.341,1.969-1.875,2.625c-1.268,1.558-3.061,3.658-4.938,4.062c-2.002,0.432-3.086-0.597-3.062-2.562
					c-1.195,0.774-2.493,3.016-4.812,2.875c-1.424-0.086-2.322-1.198-2.375-2.938c-1.035,1.249-4.471,3.831-6,1.375
					c-0.223-0.357-0.381-0.835-0.438-1.312c-0.392-3.306,2.12-6.371,3.312-8.312c0.012-0.051,0.062-0.062,0.062-0.125
					c-3.156,1.805-5.614,5.187-7.438,8.812c-0.55,1.094-0.957,3.127-2.062,3.312C148.375,108.835,148.97,106.271,149.5,105.25z
					 M167.438,76.875c-3.758,3.609-6.347,8.548-8.75,13.375c0.006,0.07-0.091,0.097,0,0.125c0.004-0.038,0.01-0.074,0.062-0.062
					c2.43-1.649,4.539-3.969,6.438-6.312c1.389-1.714,2.821-3.658,3.812-5.75c0.325-0.687,0.895-1.539,0.438-2.375
					C168.631,75.771,167.947,76.385,167.438,76.875z M143.938,99.875c0.96-0.96,1.328-1.269,1.938-2.438
					c0.451-0.864,0.755-3.078-1-2.5c-2.364,0.779-4.473,4.007-5.562,6.5c-0.282,0.645-1.07,2.593-0.312,3.125
					c0.81,0.568,2.069-0.423,2.5-0.812c0.702-0.635,1.138-1.263,1.625-1.938C142.568,100.854,143.415,100.397,143.938,99.875z
					 M170.875,99.875c0.96-0.96,1.328-1.269,1.938-2.438c0.451-0.864,0.755-3.078-1-2.5c-2.364,0.779-4.473,4.008-5.562,6.5
					c-0.281,0.645-1.07,2.593-0.312,3.125c0.81,0.568,2.069-0.423,2.5-0.812c0.701-0.635,1.138-1.263,1.625-1.938
					C169.506,100.854,170.353,100.397,170.875,99.875z"/>
				<path fill-rule="evenodd" clip-rule="evenodd" fill="#D9352C" d="M183,75.25c-1.318,1.474-2.88,3.036-4.25,4.25
					c0.105-0.562,0.273-1.061,0.375-1.625c1.047-0.995,2.068-2.016,3.062-3.062C182.574,74.843,182.67,75.163,183,75.25z"/>
				<path fill-rule="evenodd" clip-rule="evenodd" fill="#D9352C" d="M185.75,77.312c-2.683,2.734-5.391,5.442-8.125,8.125
					c-0.331-0.086-0.632-0.201-1-0.25c2.721-2.862,5.586-5.58,8.375-8.375C185.306,76.923,185.438,77.207,185.75,77.312z"/>
				<path fill-rule="evenodd" clip-rule="evenodd" fill="#D9352C" d="M66.062,111c0.394-0.546,0.409-1.341,0.75-1.938
					c0.344-0.603,1.273-1.236,1.938-1.875c4.445-4.271,8.89-8.89,13.188-13.188c5.134-5.134,10.294-10.206,15.25-15.25
					c0.053-0.012,0.059,0.024,0.062,0.062c0.589,1.008-0.856,2.044-1.625,2.812C86.062,91.188,76.554,100.696,67,110.25
					c-0.154,0.154-0.331,0.34-0.5,0.5C66.407,110.838,66.25,111.082,66.062,111z"/>
				<path fill-rule="evenodd" clip-rule="evenodd" fill="#D9352C" d="M188.312,79.438c-2.526,2.766-5.297,5.287-7.875,8
					c-0.264-0.174-0.475-0.401-0.75-0.562c2.609-2.703,5.328-5.297,7.938-8C187.859,79.057,188.055,79.278,188.312,79.438z"/>
				<path fill-rule="evenodd" clip-rule="evenodd" fill="#D9352C" d="M190.812,81.812c-2.901,2.766-5.609,5.724-8.562,8.438
					c-0.08-0.294-0.229-0.522-0.375-0.75c2.65-2.891,5.547-5.537,8.25-8.375C190.432,81.276,190.661,81.506,190.812,81.812z"/>
				<path fill-rule="evenodd" clip-rule="evenodd" fill="#D9352C" d="M193.25,84.062c-2.672,2.683-5.287,5.422-8.062,8
					c-0.194-0.202-0.44-0.352-0.688-0.5c2.651-2.745,5.411-5.38,8.062-8.125C192.829,83.608,192.983,83.892,193.25,84.062z"/>
				<path fill-rule="evenodd" clip-rule="evenodd" fill="#D9352C" d="M195.562,86.562c-2.766,2.651-5.367,5.467-8.188,8.062
					c-0.132-0.264-0.279-0.512-0.5-0.688c2.63-2.724,5.37-5.338,8-8.062C195.15,86.058,195.33,86.337,195.562,86.562z"/>
				<path fill-rule="evenodd" clip-rule="evenodd" fill="#D9352C" d="M197.75,89.188c-3.152,2.993-6.303,6.322-9.375,9.188
					c-0.094-0.282-0.114-0.636-0.25-0.875c2.912-3.109,5.984-6.057,9-9.062C197.378,88.643,197.594,88.885,197.75,89.188z"/>
				<path fill-rule="evenodd" clip-rule="evenodd" fill="#D9352C" d="M201.812,94.5c-6.082,6.251-12.344,12.323-18.5,18.5
					c-0.396,0-0.792,0-1.188,0c-0.043-0.289,0.296-0.421,0.438-0.562c2.928-2.928,5.946-5.946,8.938-8.938
					c3.244-3.244,6.676-6.708,9.812-9.625C201.515,94.048,201.602,94.336,201.812,94.5z"/>
				<path fill-rule="evenodd" clip-rule="evenodd" fill="#D9352C" d="M203.688,97.375c-5.1,5.316-10.436,10.398-15.625,15.625
					c-0.375,0-0.75,0-1.125,0c-0.048-0.213,0.2-0.385,0.312-0.5c5.136-5.248,10.704-10.603,15.938-15.812
					C203.4,96.87,203.449,97.218,203.688,97.375z"/>
				<path fill-rule="evenodd" clip-rule="evenodd" fill="#D9352C" d="M87.25,98.188c0.081,1.611-0.925,2.237-1.938,3.25
					c-3.829,3.829-7.864,7.831-11.625,11.562c-0.375,0-0.75,0-1.125,0c-0.034-0.299,0.438-0.562,0.75-0.875
					C77.859,107.578,82.636,102.724,87.25,98.188z"/>
				<path fill-rule="evenodd" clip-rule="evenodd" fill="#D9352C" d="M205.438,100.375c-4.085,4.332-8.423,8.41-12.625,12.625
					c-0.375,0-0.75,0-1.125,0c-0.035-0.228,0.347-0.534,0.625-0.812c4.1-4.1,8.517-8.415,12.625-12.562
					c0.053-0.012,0.059,0.024,0.062,0.062C205.16,99.903,205.266,100.172,205.438,100.375z"/>
				<path fill-rule="evenodd" clip-rule="evenodd" fill="#D9352C" d="M207.062,103.5c-3.077,3.256-6.271,6.396-9.5,9.5
					c-0.375,0-0.75,0-1.125,0c-0.115-0.15,0.238-0.426,0.438-0.625c3.136-3.136,6.587-6.468,9.75-9.625
					C206.801,102.97,206.933,103.234,207.062,103.5z"/>
				<path fill-rule="evenodd" clip-rule="evenodd" fill="#D9352C" d="M86.062,104.062c-0.041,0.392,0.141,0.813,0,1.312
					c-0.16,0.564-1.372,1.46-1.875,1.938c-1.944,1.845-3.907,3.941-5.75,5.688c-0.375,0-0.75,0-1.125,0
					c-0.074-0.256,0.248-0.373,0.375-0.5C80.391,109.796,83.34,106.809,86.062,104.062z"/>
				<path fill-rule="evenodd" clip-rule="evenodd" fill="#D9352C" d="M208.562,106.75c-1.975,2.172-4.109,4.183-6.188,6.25
					c-0.396,0-0.792,0-1.188,0c-0.062-0.272,0.41-0.535,0.688-0.812c1.996-1.996,4.277-4.238,6.312-6.25
					C208.316,106.204,208.472,106.445,208.562,106.75z"/>
				<path fill-rule="evenodd" clip-rule="evenodd" fill="#D9352C" d="M86.5,108.375c0.207,0.23,0.155,0.72,0.312,1
					c-1.089,1.328-2.434,2.4-3.625,3.625c-0.375,0-0.75,0-1.125,0c-0.083-0.248,0.242-0.367,0.375-0.5
					C83.723,111.214,85.205,109.693,86.5,108.375z"/>
				<path fill-rule="evenodd" clip-rule="evenodd" fill="#D9352C" d="M209.562,109.25c0.246,0.191,0.212,0.663,0.438,0.875
					c-0.932,0.984-1.891,1.943-2.875,2.875c-0.375,0-0.75,0-1.125,0c-0.1-0.169,0.152-0.335,0.25-0.438
					C207.243,111.518,208.585,110.357,209.562,109.25z"/>
				<path fill-rule="evenodd" clip-rule="evenodd" fill="#D9352C" d="M87.562,112.062c0.241,0.238,0.402,0.556,0.562,0.875
					c-0.362,0.138-0.973,0.027-1.438,0.062C86.942,112.65,87.308,112.412,87.562,112.062z"/>
				<path fill-rule="evenodd" clip-rule="evenodd" fill="#D9352C" d="M210.938,112.75c-0.006,0.089-0.01,0.177,0.062,0.188
					c-0.008,0.138-0.266,0.026-0.375,0.062C210.705,112.893,210.754,112.754,210.938,112.75z"/>
				<path fill-rule="evenodd" clip-rule="evenodd" fill="#D9352C" d="M73.188,170.312c0.096,0.161-0.33,0.518-0.562,0.75
					c-0.691,0.691-1.597,1.506-2.25,2.25c-0.256-0.182-0.278-0.597-0.5-0.812c0.703-0.756,1.432-1.484,2.188-2.188
					C72.438,170.312,72.812,170.312,73.188,170.312z"/>
				<path fill-rule="evenodd" clip-rule="evenodd" fill="#D9352C" d="M78,170.312c0.066,0.197-0.312,0.5-0.562,0.75
					c-1.698,1.698-3.674,3.574-5.438,5.25c-0.13-0.266-0.262-0.53-0.438-0.75c1.724-1.775,3.474-3.526,5.25-5.25
					C77.208,170.312,77.604,170.312,78,170.312z"/>
				<path fill-rule="evenodd" clip-rule="evenodd" fill="#D9352C" d="M82.75,170.312c0.032,0.225-0.236,0.424-0.375,0.562
					c-2.734,2.734-5.713,5.703-8.562,8.375c-0.115-0.26-0.25-0.5-0.438-0.688c2.632-2.867,5.487-5.514,8.25-8.25
					C82,170.312,82.375,170.312,82.75,170.312z"/>
				<path fill-rule="evenodd" clip-rule="evenodd" fill="#D9352C" d="M87.5,170.312c0.119,0.214-0.34,0.465-0.562,0.688
					c-3.62,3.62-7.39,7.568-11.188,11.062c-0.132-0.264-0.279-0.512-0.5-0.688c3.657-3.738,7.425-7.366,11.125-11.062
					C86.75,170.312,87.125,170.312,87.5,170.312z"/>
				<path fill-rule="evenodd" clip-rule="evenodd" fill="#D9352C" d="M92.25,170.312c0.035,0.3-0.441,0.566-0.75,0.875
					c-3.896,3.896-7.93,7.93-11.875,11.875c-0.582,0.582-1.093,1.289-1.812,1.688c-0.156-0.219-0.323-0.427-0.5-0.625
					c4.53-4.678,9.213-9.203,13.812-13.812C91.5,170.312,91.875,170.312,92.25,170.312z"/>
				<path fill-rule="evenodd" clip-rule="evenodd" fill="#D9352C" d="M97.062,170.312c0.067,0.257-0.243,0.368-0.375,0.5
					c-4.792,4.792-9.722,9.722-14.562,14.562c-0.697,0.697-1.385,1.451-2.188,2c-0.079-0.297-0.366-0.384-0.5-0.625
					c5.439-5.519,10.942-10.975,16.438-16.438C96.271,170.312,96.667,170.312,97.062,170.312z"/>
				<path fill-rule="evenodd" clip-rule="evenodd" fill="#D9352C" d="M101.812,170.312c0.045,0.28-0.289,0.414-0.438,0.562
					c-6.266,6.267-12.756,12.784-19.125,19c-0.182-0.234-0.391-0.443-0.625-0.625c6.391-6.276,12.624-12.709,19.062-18.938
					C101.062,170.312,101.438,170.312,101.812,170.312z"/>
				<path fill-rule="evenodd" clip-rule="evenodd" fill="#D9352C" d="M105.438,170.312c0.188,0,0.375,0,0.562,0
					c0.087,0.227-0.33,0.672-0.562,1c-1.559,2.199-3.793,4.043-5.812,6.062c-1.689,1.689-3.37,3.376-5,5
					c-1.724,1.63-3.338,3.37-5.062,5c-0.807,0.859-1.641,1.693-2.5,2.5c-0.807,0.777-1.641,1.857-2.5,2.375
					c-0.141-0.193-0.307-0.359-0.5-0.5c0.58-0.922,1.723-1.818,2.562-2.688c0.838-0.933,1.787-1.755,2.625-2.688
					c1.797-1.745,3.567-3.516,5.312-5.312C98.21,177.502,101.809,173.893,105.438,170.312z"/>
				<path fill-rule="evenodd" clip-rule="evenodd" fill="#D9352C" d="M178.062,170.312c0.082,0.184-0.191,0.377-0.312,0.5
					c-1.133,1.158-2.523,2.517-3.75,3.625c-0.066-0.33-0.12-0.672-0.25-0.938c1.002-1.123,2.123-2.127,3.188-3.188
					C177.312,170.312,177.688,170.312,178.062,170.312z"/>
				<path fill-rule="evenodd" clip-rule="evenodd" fill="#D9352C" d="M182.812,170.312c0.062,0.209-0.196,0.381-0.312,0.5
					c-2.463,2.517-5.348,5.319-7.812,7.688c0.081-0.297-0.104-0.809,0-1.188c0.116-0.424,1.233-1.296,1.688-1.75
					c1.746-1.746,3.711-3.671,5.312-5.25C182.062,170.312,182.438,170.312,182.812,170.312z"/>
				<path fill-rule="evenodd" clip-rule="evenodd" fill="#D9352C" d="M187.562,170.312c0.062,0.271-0.411,0.536-0.688,0.812
					c-4.214,4.214-8.596,8.738-12.938,12.875c-0.03-1.564,0.741-2.014,1.75-2.938c1.553-1.421,3.079-3.142,4.5-4.562
					c2.227-2.227,4.277-4.236,6.25-6.188C186.812,170.312,187.188,170.312,187.562,170.312z"/>
				<path fill-rule="evenodd" clip-rule="evenodd" fill="#D9352C" d="M192.375,170.312c0.045,0.28-0.289,0.414-0.438,0.562
					c-6.23,6.23-12.779,12.844-19.062,18.875c0.123-1.85,1.348-2.535,2.562-3.75c5.175-5.175,10.699-10.66,15.75-15.688
					C191.584,170.312,191.979,170.312,192.375,170.312z"/>
				<path fill-rule="evenodd" clip-rule="evenodd" fill="#D9352C" d="M197.125,170.312c0.063,0.201-0.32,0.508-0.562,0.75
					c-7.843,7.844-16.074,16.009-23.938,23.688c-0.184-1.442,0.628-1.815,1.5-2.688c7.201-7.202,14.727-14.726,21.875-21.75
					C196.375,170.312,196.75,170.312,197.125,170.312z"/>
				<path fill-rule="evenodd" clip-rule="evenodd" fill="#D9352C" d="M131.812,173.875c3.286-0.257,6.146,0.632,6.25,4.188
					c0.062,2.125-0.504,4.467-0.812,6.562c-0.597,4.052-1.204,8.807-1.812,12.938c-0.461,3.131-0.496,5.98-1.938,7.875
					c-0.859,1.129-2.471,1.918-4.125,2.125c-3.613,0.453-6.708-0.549-6.812-4.125c-0.065-2.244,0.563-4.407,0.875-6.688
					c0.567-4.149,1.18-8.899,1.812-13.25c0.572-3.934,0.695-7.292,3.438-8.812C129.466,174.256,130.618,173.969,131.812,173.875z
					 M129.938,181.375c-0.878,6.377-1.736,12.314-2.625,18.812c-0.146,1.065-0.512,2.387-0.062,3.062
					c0.382,0.575,1.783,0.647,2.438,0.188c0.646-0.454,0.798-1.705,0.938-2.688c0.494-3.477,0.87-6.064,1.375-9.688
					c0.555-3.98,0.835-6.098,1.312-9.688c0.245-1.841,0.709-3.939-1.562-3.562C130.094,178.088,130.178,179.627,129.938,181.375z"/>
				<path fill-rule="evenodd" clip-rule="evenodd" fill="#D9352C" d="M111.062,202.938c2.438,0.146,5.146,0.021,7.688,0.062
					c-0.212,1.35-0.4,2.725-0.562,4.125c-4.021,0-8.042,0-12.062,0c0.445-2.915,0.692-6.086,1.562-8.688
					c0.812-2.43,2.165-4.512,3.875-6.375c1.565-1.705,3.43-3.253,4.562-5.688c0.515-1.106,0.783-2.486,1-4.125
					c0.163-1.229,0.845-3.477,0-4.188c-0.336-0.283-1.296-0.318-1.75-0.188c-1.791,0.52-1.163,3.699-1.75,5.562
					c-1.438,0-2.875,0-4.312,0c0.471-4.958,1.18-9.158,6.125-9.562c3.835-0.313,6.548,0.796,6.562,4.312
					c0.005,1.311-0.318,2.705-0.5,4c-0.59,4.197-1.77,6.859-4,9.375C114.616,194.815,111.289,197.483,111.062,202.938z"/>
				<path fill-rule="evenodd" clip-rule="evenodd" fill="#D9352C" d="M163.312,190.438c1.123,0.744,1.982,1.572,1.875,3.562
					c-0.076,1.412-0.399,2.968-0.625,4.5c-0.223,1.509-0.359,3.055-0.688,4.375c-0.745,2.995-2.708,4.484-5.5,4.688
					c-1.937,0.141-4.236-0.059-5.375-1.25c-1.865-1.952-0.506-5.869-0.25-8.812c1.396,0,2.792,0,4.188,0
					c-0.032,0.871-0.181,1.785-0.312,2.75c-0.124,0.911-0.468,1.969-0.125,2.75c0.496,1.133,2.423,0.766,2.938-0.125
					c0.324-0.561,0.389-1.562,0.5-2.375c0.226-1.641,0.462-3.334,0.688-5c0.107-0.793,0.312-1.929,0-2.438
					c-0.441-0.719-1.891-0.463-2.938-0.5c0.044-1.229,0.385-2.697,0.5-4.062c1.127,0.013,2.773,0.197,3.312-0.688
					c0.518-0.849,0.623-3.295,0.812-4.625c0.109-0.771,0.183-1.494,0.312-2.375c0.118-0.803,0.318-1.811,0.062-2.375
					c-0.27-0.597-1.206-0.774-1.938-0.562c-1.785,0.518-1.167,3.699-1.75,5.562c-1.417,0-2.833,0-4.25,0
					c0.451-4.955,1.139-9.16,6.062-9.562c3.563-0.291,6.318,0.632,6.375,4.125c0.031,1.949-0.487,3.811-0.812,6.188
					C165.967,187.169,165.776,189.663,163.312,190.438z"/>
				<path fill-rule="evenodd" clip-rule="evenodd" fill="#D9352C" d="M146.125,174.312c1.188,0,2.375,0,3.562,0
					c-1.386,9.531-2.676,19.158-4.062,28.688c0.959,0,1.917,0,2.875,0c-0.188,1.375-0.375,2.75-0.562,4.125
					c-3.354,0-6.708,0-10.062,0c0.158-1.404,0.357-2.768,0.562-4.125c0.938,0,1.875,0,2.812,0c1.11-7.473,2.163-15.004,3.188-22.562
					c-0.792-0.146-1.854-0.021-2.75-0.062c0.181-0.965,0.287-2.004,0.438-3C144.528,177.424,145.631,176.172,146.125,174.312z"/>
				<path fill-rule="evenodd" clip-rule="evenodd" fill="#D9352C" d="M101.75,183.438c0.187,0.229,0.145,0.688,0.312,0.938
					c-4.061,4.21-8.244,8.297-12.438,12.375c-0.186-0.189-0.361-0.389-0.625-0.5C93.152,191.881,97.498,187.707,101.75,183.438z"/>
				<path fill-rule="evenodd" clip-rule="evenodd" fill="#D9352C" d="M103.375,187.812c-3.555,3.779-7.353,7.314-11,11
					c-0.293-0.082-0.41-0.34-0.688-0.438c0.72-0.973,1.679-1.866,2.625-2.812c2.773-2.773,5.718-5.629,8.5-8.438
					C103.047,187.307,103.132,187.639,103.375,187.812z"/>
				<path fill-rule="evenodd" clip-rule="evenodd" fill="#D9352C" d="M57.812,190.688c0.435,0.295,0.67,0.789,1,1.188
					c-0.935,1.356-2.065,2.519-3,3.875c1.52-0.605,2.942-1.308,4.438-1.938c0.476,0.212,0.587,0.787,1,1.062
					c-0.976,1.378-2.061,2.648-3.062,4c1.394-0.543,3.058-1.359,4.5-2.062c0.385,0.345,0.637,0.822,1,1.188
					c-2.23,1.02-4.53,1.97-6.812,2.938c-0.3-0.408-0.627-0.79-0.938-1.188c0.951-1.361,2.016-2.609,3-3.938
					c-1.43,0.508-3.019,1.397-4.562,2c-0.271-0.438-0.587-0.83-0.938-1.188C54.836,194.586,56.399,192.712,57.812,190.688z"/>
				<path fill-rule="evenodd" clip-rule="evenodd" fill="#D9352C" d="M209.75,200.688c1.203,1.131,2.499,2.168,3.75,3.25
					c-0.296,0.392-0.634,0.741-0.938,1.125c-1.831-1.523-3.592-3.117-5.438-4.625c0.479-0.563,0.967-1.116,1.438-1.688
					c1.602,0.648,3.227,1.273,4.812,1.938c-0.867-1.486-1.759-2.949-2.688-4.375c0.43-0.591,0.979-1.063,1.375-1.688
					c1.886,1.489,3.715,3.035,5.438,4.688c-0.287,0.359-0.637,0.655-0.875,1.062c-1.292-1.062-2.535-2.173-3.812-3.25
					c0.831,1.544,1.706,3.044,2.625,4.5c-0.171,0.412-0.549,0.617-0.75,1C213.034,201.986,211.39,201.34,209.75,200.688z"/>
				<path fill-rule="evenodd" clip-rule="evenodd" fill="#D9352C" d="M64.5,199c0.391,0.38,0.838,0.703,1.125,1.188
					c-0.926,1.303-1.733,2.726-2.625,4.062c1.339-0.641,2.878-1.622,4.25-2.438c0.403,0.326,0.774,0.684,1.062,1.125
					c-0.875,1.375-1.738,2.762-2.562,4.188c1.453-0.818,2.856-1.686,4.25-2.562c0.412,0.317,0.713,0.745,1.125,1.062
					c-2.07,1.284-4.313,2.395-6.375,3.688c-0.494-0.256-0.745-0.755-1.188-1.062c0.848-1.465,1.752-2.873,2.625-4.312
					c-1.45,0.801-2.82,1.68-4.25,2.5c-0.494-0.256-0.745-0.755-1.188-1.062C61.987,203.236,63.278,201.152,64.5,199z"/>
				<path fill-rule="evenodd" clip-rule="evenodd" fill="#D9352C" d="M99.75,199.625c0.068,1.402-0.887,2.322-1.688,3.062
					c-0.284-0.153-0.552-0.322-0.812-0.5C98.047,201.297,98.953,200.516,99.75,199.625z"/>
				<path fill-rule="evenodd" clip-rule="evenodd" fill="#D9352C" d="M204.75,203.5c0.348-0.047,1.066-0.052,1.438,0.062
					c1.385,0.425,2.938,1.857,2.938,3.812c0,2.413-2.236,3.702-4,3.438c-1.907-0.286-4.296-2.771-3.125-5.312
					C202.357,204.724,203.344,203.69,204.75,203.5z M206.312,209.375c2.741-0.675,0.68-4.978-1.75-4.438
					C201.635,205.589,203.99,209.946,206.312,209.375z"/>
				<path fill-rule="evenodd" clip-rule="evenodd" fill="#D9352C" d="M72,206.562c0.49,0.238,0.802,0.656,1.25,0.938
					c-0.647,1.54-1.445,2.93-2.125,4.438c1.236-0.785,2.662-1.922,3.938-2.875c0.475,0.213,0.753,0.621,1.188,0.875
					c-0.675,1.554-1.417,3.042-2.125,4.562c1.43-0.924,2.635-2.074,4.062-3c0.335,0.352,0.738,0.637,1.125,0.938
					c-1.936,1.481-3.958,2.875-5.938,4.312c-0.5-0.229-0.813-0.645-1.25-0.938c0.668-1.498,1.398-2.935,2.062-4.438
					c-1.294,0.748-2.596,2.029-4,2.875c-0.387-0.321-0.732-0.685-1.188-0.938C69.98,211.043,71.062,208.875,72,206.562z"/>
				<path fill-rule="evenodd" clip-rule="evenodd" fill="#D9352C" d="M200.188,210.188c-0.222,0.466-0.771,0.604-1.062,1
					c-1.34-0.934-2.95,0.183-2.75,1.75c0.113,0.888,1.181,2.26,2.125,2.438c1.373,0.259,2.811-1.132,1.875-2.562
					c0.275-0.454,0.729-0.729,1.188-1c1.587,2.367-0.567,5.23-3.188,5c-1.824-0.16-3.515-2.016-3.5-4.062
					C194.895,210.135,198.104,208.352,200.188,210.188z"/>
				<path fill-rule="evenodd" clip-rule="evenodd" fill="#D9352C" d="M188.188,216.125c0.106-0.023,0.118,0.049,0.125,0.125
					c-0.363,1.158-0.617,2.425-0.938,3.625c1.519,0.814,3.179,1.488,4.812,2.188c-0.531,0.364-1.102,0.69-1.688,1
					c-1.195-0.492-2.3-1.075-3.438-1.625c-0.82,1.232,0.268,2.165,0.75,3.125c-0.271,0.438-0.894,0.523-1.25,0.875
					c-1.325-1.925-2.394-4.106-3.688-6.062c0.348-0.381,0.912-0.546,1.312-0.875c0.557,0.777,1.021,1.646,1.5,2.5
					c0.404-1.221,0.637-2.613,0.938-3.938C187.166,216.771,187.72,216.49,188.188,216.125z"/>
				<path fill-rule="evenodd" clip-rule="evenodd" fill="#D9352C" d="M84.5,216.75c2.252-0.385,4.026,1.309,4.125,3.125
					c0.129,2.382-1.833,4.539-4.188,4.25c-1.426-0.175-2.867-1.43-3.062-2.812C81.065,219.129,82.697,217.058,84.5,216.75z
					 M82.938,221.625c0.31,0.929,1.427,1.317,2.312,1.062c1.834-0.528,2.762-4.18,0.438-4.625c-0.207-0.039-0.736,0.046-0.812,0.062
					C83.807,218.361,82.417,220.068,82.938,221.625z"/>
				<path fill-rule="evenodd" clip-rule="evenodd" fill="#D9352C" d="M78.562,218.625c-0.173,0.535-0.614,0.803-0.812,1.312
					c-0.483-0.246-0.859-0.6-1.312-0.875c0.221-0.467,0.58-0.795,0.812-1.25C77.795,217.976,78.085,218.395,78.562,218.625z"/>
				<path fill-rule="evenodd" clip-rule="evenodd" fill="#D9352C" d="M195.562,219.812c-0.512,0.197-0.806,0.611-1.312,0.812
					c-0.262-0.405-0.557-0.777-0.812-1.188c0.3-0.408,0.846-0.571,1.188-0.938C195.018,218.857,195.298,219.326,195.562,219.812z"/>
				<path fill-rule="evenodd" clip-rule="evenodd" fill="#D9352C" d="M92.812,228.625c-0.305-0.195-0.686-0.314-1-0.5
					c0.166-1.771,0.332-3.543,0.562-5.25c-0.806,1.424-1.442,3.017-2.188,4.5c-0.428-0.218-0.857-0.435-1.312-0.625
					c0.977-2.169,2.041-4.251,3-6.438c0.747,0.253,1.379,0.621,2.062,0.938c-0.26,1.636-0.37,3.422-0.625,5.062
					c1.21-0.978,2.349-2.567,3.625-3.688c0.598,0.36,1.283,0.633,1.938,0.938c-0.992,2.153-2.057,4.234-3,6.438
					c-0.535-0.11-0.85-0.442-1.375-0.562c0.672-1.557,1.428-3.031,2.125-4.562C95.273,226.044,94.202,227.494,92.812,228.625z"/>
				<path fill-rule="evenodd" clip-rule="evenodd" fill="#D9352C" d="M181.188,221.688c-1.139,0.527-2.265,1.068-3.375,1.625
					c0.229,0.459,0.459,0.916,0.688,1.375c1.003-0.518,2.068-0.973,3.062-1.5c0.223,0.34,0.41,0.715,0.562,1.125
					c-1.06,0.44-2.033,0.967-3.062,1.438c0.147,0.603,0.452,1.048,0.688,1.562c1.208-0.479,2.318-1.057,3.438-1.625
					c0.258,0.325,0.367,0.8,0.625,1.125c-1.573,0.864-3.229,1.646-4.938,2.375c-0.999-2.146-2.016-4.275-3.062-6.375
					c1.613-0.782,3.191-1.601,4.875-2.312C180.82,220.93,181.076,221.236,181.188,221.688z"/>
				<path fill-rule="evenodd" clip-rule="evenodd" fill="#D9352C" d="M173.938,225.062c-1.196,0.408-2.317,0.891-3.5,1.312
					c0.164,0.502,0.346,0.987,0.562,1.438c1.004-0.455,2.15-0.767,3.125-1.25c0.275,0.287,0.348,0.777,0.5,1.188
					c-1.104,0.354-2.123,0.793-3.188,1.188c0.137,0.593,0.407,1.051,0.562,1.625c1.272-0.373,2.357-0.935,3.625-1.312
					c0.16,0.402,0.369,0.756,0.438,1.25c-1.744,0.568-3.334,1.291-5.062,1.875c-0.781-2.281-1.708-4.417-2.5-6.688
					c1.646-0.604,3.291-1.209,4.875-1.875C173.71,224.082,173.753,224.643,173.938,225.062z"/>
				<path fill-rule="evenodd" clip-rule="evenodd" fill="#D9352C" d="M104.75,225.75c-0.048,2.611,0.091,5.034,0.062,7.625
					c-0.493-0.195-1.028-0.347-1.5-0.562c0-0.542,0-1.083,0-1.625c-0.74-0.385-1.652-0.598-2.438-0.938
					c-0.449,0.363-0.75,0.875-1.125,1.312c-0.479-0.166-0.917-0.375-1.438-0.5c1.515-2.068,3.311-3.855,4.875-5.875
					C103.698,225.386,104.205,225.587,104.75,225.75z M101.625,229.312c0.59,0.16,1.082,0.418,1.688,0.562
					c-0.082-0.877,0.27-1.975-0.062-2.688C102.779,227.967,102.091,228.529,101.625,229.312z"/>
				<path fill-rule="evenodd" clip-rule="evenodd" fill="#D9352C" d="M166.5,226.438c0.236,2.285,0.08,4.962,0.125,7.438
					c-0.559,0.066-0.994,0.256-1.5,0.375c-0.857-1.414-1.568-2.974-2.5-4.312c0.137,1.572,0.059,3.358,0.188,4.938
					c-0.506,0.161-1.05,0.283-1.562,0.438c-1.227-2.106-2.428-4.238-3.688-6.312c0.368-0.299,1.023-0.311,1.5-0.5
					c0.761,1.447,1.561,2.855,2.312,4.312c0.19-1.586-0.082-3.251,0-4.938c0.471-0.134,0.923-0.285,1.438-0.375
					c0.76,1.47,1.61,2.848,2.375,4.312c0.168-1.605-0.12-3.297-0.062-5C165.615,226.719,166.076,226.598,166.5,226.438z"/>
				<path fill-rule="evenodd" clip-rule="evenodd" fill="#D9352C" d="M110.625,227.625c-0.145,0.918-0.438,1.688-0.625,2.562
					c0.784,0.403,1.875,0.5,2.75,0.812c0.255-0.849,0.479-1.729,0.688-2.625c0.553,0.072,1.003,0.247,1.5,0.375
					c-0.519,2.356-1.189,4.561-1.75,6.875c-0.56-0.064-1.006-0.244-1.5-0.375c0.203-1.026,0.495-1.963,0.75-2.938
					c-0.856-0.311-1.835-0.498-2.75-0.75c-0.357,0.893-0.538,1.962-0.812,2.938c-0.553-0.072-1.003-0.247-1.5-0.375
					c0.53-2.345,1.203-4.547,1.75-6.875C109.678,227.322,110.128,227.497,110.625,227.625z"/>
				<path fill-rule="evenodd" clip-rule="evenodd" fill="#D9352C" d="M155.375,233.125c1.508,0.138,1.115,2.177,1.875,3.062
					c-0.447,0.178-1.072,0.178-1.562,0.312c-0.538-0.75-0.238-2.148-1.125-2.5c-0.652-0.259-1.457,0.21-2.312,0.25
					c0.189,0.873,0.285,1.84,0.5,2.688c-0.449,0.176-1.025,0.225-1.562,0.312c-0.399-2.351-0.834-4.666-1.188-7.062
					c1.795-0.09,4.814-1.414,5.875,0.125C156.384,231.052,156.297,232.791,155.375,233.125z M154.5,232.562
					c0.368-0.415,0.248-1.344-0.188-1.625c-0.717-0.463-1.655,0.279-2.562,0.188c0.06,0.711,0.227,1.315,0.312,2
					C152.703,232.87,154.035,233.086,154.5,232.562z"/>
				<path fill-rule="evenodd" clip-rule="evenodd" fill="#D9352C" d="M121.188,229.875c0.461,2.518,0.96,4.998,1.438,7.5
					c-0.565-0.06-1.06-0.19-1.625-0.25c-0.054-0.571-0.162-1.088-0.25-1.625c-0.774-0.247-1.774-0.268-2.562-0.5
					c-0.362,0.43-0.594,0.99-0.875,1.5c-0.509-0.095-1.008-0.201-1.562-0.25c1.272-2.229,2.548-4.451,3.875-6.625
					C120.134,229.72,120.633,229.826,121.188,229.875z M118.75,233.938c0.576,0.111,1.204,0.171,1.75,0.312
					c-0.134-0.928-0.164-1.961-0.5-2.688C119.64,232.411,119.117,233.097,118.75,233.938z"/>
				<path fill-rule="evenodd" clip-rule="evenodd" fill="#D9352C" d="M130.25,234.188c1.074,0.213,1.436,2.018,0.812,2.938
					c-0.965,1.426-3.995,0.585-5.812,0.562c0.156-2.406,0.375-4.75,0.562-7.125c2.212,0.182,6.576-0.078,5.375,2.812
					C131.026,233.764,130.685,233.955,130.25,234.188z M127.125,233.562c1.155,0.185,3.03,0.384,2.625-1
					c-0.213-0.727-1.511-0.541-2.5-0.625C127.237,232.508,127.194,233.049,127.125,233.562z M126.938,236.625
					c1.052-0.102,2.279,0.465,2.75-0.25c0.94-1.428-1.282-1.822-2.625-1.75C127.011,235.246,126.89,236.111,126.938,236.625z"/>
				<path fill-rule="evenodd" clip-rule="evenodd" fill="#D9352C" d="M147.5,230.625c-0.048,0.485,0.081,0.794,0.062,1.25
					c-1.282,0.072-2.533,0.176-3.75,0.312c0.033,0.508,0.092,0.992,0.125,1.5c1.128-0.122,2.334-0.166,3.438-0.312
					c0.072,0.387,0.053,0.863,0.125,1.25c-1.176,0.054-2.238,0.221-3.438,0.25c-0.009,0.634,0.084,1.166,0.125,1.75
					c1.316-0.018,2.719-0.279,3.875-0.25c-0.048,0.485,0.081,0.794,0.062,1.25c-1.762,0.176-3.532,0.343-5.375,0.438
					c-0.251-2.311-0.381-4.744-0.625-7.062C143.892,230.891,145.773,230.566,147.5,230.625z"/>
				<path fill-rule="evenodd" clip-rule="evenodd" fill="#D9352C" d="M139.5,231.062c0,0.438,0,0.875,0,1.312
					c-1.294-0.044-2.396,0.104-3.688,0.062c-0.145,0.376-0.021,1.021-0.062,1.5c1.146,0,2.292,0,3.438,0
					c-0.046,0.463,0.07,0.764,0.062,1.188c-1.219-0.031-2.265,0.111-3.5,0.062c-0.047,0.651,0.099,1.109,0.062,1.75
					c1.311,0.02,2.573-0.01,3.812-0.062c-0.046,0.504,0.102,0.815,0.062,1.312c-1.746,0.108-3.703,0.006-5.438,0.125
					c-0.035-2.402-0.058-4.816-0.125-7.188C135.979,231.167,137.69,231.065,139.5,231.062z"/>
				<path fill-rule="evenodd" clip-rule="evenodd" fill="#D9352C" d="M124.75,62.062c-1.12,1.317-2.672,2.745-4,4.062
					c-0.28-0.095-0.602-0.148-0.875-0.25c-0.098-0.169,0.159-0.342,0.25-0.438c0.398-0.419,0.835-0.835,1.312-1.312
					C122.372,63.19,123.054,62.152,124.75,62.062z"/>
				<path fill-rule="evenodd" clip-rule="evenodd" fill="#D9352C" d="M97.5,73.875c-0.119,1.577-1.029,2.154-2.062,3.188
					c-8.516,8.516-17.187,17.165-25.625,25.625c0.496-0.886,0.822-1.976,1.438-2.812c0.417-0.567,1.118-1.055,1.688-1.625
					C80.856,90.331,88.84,82.41,96.75,74.5C96.967,74.283,97.241,73.799,97.5,73.875z"/>
				<path fill-rule="evenodd" clip-rule="evenodd" fill="#D9352C" d="M89.312,78.375c-3.193,3.411-6.853,6.897-10.25,10.312
					C81.96,84.98,85.654,81.529,89.312,78.375z"/>
				<path fill-rule="evenodd" clip-rule="evenodd" fill="#D9352C" d="M152.938,80.188c-0.82,1.742-2.004,3.663-3.562,4.875
					c-0.355-0.02-0.63-0.12-0.938-0.188c-0.055-0.206,0.224-0.411,0.375-0.562C150.105,83.02,151.668,81.548,152.938,80.188z"/>
				<path fill-rule="evenodd" clip-rule="evenodd" fill="#D9352C" d="M90.125,90.562c-0.373,0.68-0.55,1.578-1,2.312
					c-0.498,0.814-1.675,1.737-2.5,2.562c-5.498,5.498-10.842,10.778-16.438,16.375c-0.772,0.772-1.05,1.394-2.438,1.188
					c-0.088-0.163,0.279-0.481,0.5-0.688C75.676,105.385,82.778,97.625,90.125,90.562z"/>
				<path fill-rule="evenodd" clip-rule="evenodd" fill="#D9352C" d="M199.375,91.125c0.093,0.24,0.24,0.426,0.438,0.562
					c-2.294,2.644-4.906,4.969-7.375,7.438c-2.459,2.458-4.871,4.962-7.375,7.375c-0.035,0.146-0.188,0.146-0.062,0
					c0.443-0.508,0.763-1.074,1.125-1.625c0.373-0.567,0.623-1.213,1-1.75c0.365-0.52,1.037-0.975,1.562-1.5
					c2.524-2.524,5.102-5.102,7.625-7.625C197.315,92.997,198.229,91.902,199.375,91.125z"/>
				<path fill-rule="evenodd" clip-rule="evenodd" fill="#D9352C" d="M171.875,200.312c-0.105-1.709,0.9-2.15,1.938-3.188
					c8.357-8.357,16.785-16.662,25.25-25.125c0.56-0.56,1.303-1.578,1.875-1.688c0.273-0.053,0.931,0.023,0.875,0
					c0.232,0.098,0.043,0.189-0.188,0.438c-2.243,2.414-4.803,4.74-7.062,7c-7.513,7.513-15.093,15.086-22.625,22.5
					C171.971,200.38,171.693,200.383,171.875,200.312z"/>
				<path fill-rule="evenodd" clip-rule="evenodd" fill="#D9352C" d="M170.625,206.312c0.098-1.838,1.309-2.621,2.5-3.812
					c10.578-10.578,21.162-20.975,31.812-31.625c0.238-0.238,0.824-0.897,1.625-0.562c0.319,0.134-0.188,0.375-0.312,0.5
					c-11.799,11.799-23.711,23.733-35.562,35.438C170.721,206.38,170.443,206.383,170.625,206.312z"/>
				<path fill-rule="evenodd" clip-rule="evenodd" fill="#D9352C" d="M204.438,176.062c-1.635,3.577-4.805,6.117-7.562,8.875
					c-4.576,4.576-9.094,9.094-13.75,13.75c-0.92,0.92-1.822,2.035-2.75,2.75c-1.059,0.816-2.331,1.275-3.375,2.062
					c-0.146,0.125-0.146-0.027,0-0.062C186.137,194.304,195.326,185.221,204.438,176.062z"/>
				<path fill-rule="evenodd" clip-rule="evenodd" fill="#D9352C" d="M102.688,177.75c-0.134,0.49-0.088,1.049-0.312,1.562
					c-0.25,0.572-1.283,1.408-1.875,2c-4.196,4.197-8.323,8.26-12.5,12.438c-0.269,0.269-0.574,0.691-1,0.75
					c-0.121-0.191-0.342-0.283-0.5-0.438c0.515-0.769,1.212-1.398,1.875-2.062C93.064,187.311,97.969,182.478,102.688,177.75z"/>
				<path fill-rule="evenodd" clip-rule="evenodd" fill="#D9352C" d="M101.812,192.875c-0.372,1.562-1.103,2.508-2.25,3.562
					c-1.509,1.387-2.993,3.098-4.5,4.375c-0.189-0.207-0.429-0.363-0.688-0.5C96.828,197.807,99.308,195.328,101.812,192.875z"/>
			</g>
		</g>
	</g>
</g>
</svg>
