<?xml version="1.0" encoding="utf-8"?>
<!-- Generator: Adobe Illustrator 15.1.0, SVG Export Plug-In . SVG Version: 6.00 Build 0)  -->
<!DOCTYPE svg PUBLIC "-//W3C//DTD SVG 1.1//EN" "http://www.w3.org/Graphics/SVG/1.1/DTD/svg11.dtd">
<svg version="1.1" id="Layer_1" xmlns="http://www.w3.org/2000/svg" xmlns:xlink="http://www.w3.org/1999/xlink" x="0px" y="0px"
	 width="275px" height="275px" viewBox="0 0 275 275" enable-background="new 0 0 275 275" xml:space="preserve">
<path fill="#F0E7C9" d="M252.569,137.562c0-63.612-51.577-115.166-115.167-115.166c-63.611,0-115.167,51.555-115.167,115.166
	c0,63.612,51.555,115.166,115.167,115.166C200.992,252.729,252.569,201.175,252.569,137.562z M59.463,117.183l26.744-14.103
	l51.194,38.621l51.196-38.621l26.744,14.103L137.4,195.168L59.463,117.183z"/>
<path fill="#F0E7C9" d="M150.312,7.938c4.004-1.501,8.045-3.082,12.188-4.688c0.511-0.198,1.457-0.651,1.75-0.625
	c0.347,0.03,1.045,0.865,1.438,1.25c3.125,3.062,6.521,6.092,9.688,9.062c4.133-0.74,8.465-1.448,12.812-2.188
	c0.606-0.104,1.447-0.394,1.812-0.312c0.408,0.091,0.824,0.984,1.188,1.5c2.521,3.583,5.182,7.214,7.688,10.75
	c4.951,0.173,9.967,0.283,14.938,0.438c2.222,4.445,4.15,9.182,6.25,13.75c4.914,1.085,9.734,2.266,14.688,3.312
	c1.08,4.898,2.236,9.722,3.312,14.625c4.478,2.189,9.215,4.119,13.75,6.25c0.199,4.925,0.308,9.942,0.438,14.938
	c3.968,3.115,8.351,5.817,12.312,8.938c-0.782,4.121-1.438,8.479-2.188,12.812c-0.109,0.635-0.385,1.4-0.312,1.812
	c0.066,0.387,0.871,1.052,1.25,1.438c3.095,3.156,6.076,6.51,9.062,9.688c-1.83,4.608-3.523,9.353-5.375,13.938
	c2.621,4.316,5.355,8.52,8,12.812c-2.633,4.283-5.314,8.52-8,12.75c1.805,4.652,3.539,9.379,5.375,14
	c-2.896,3.283-6.002,6.379-9.062,9.75c-0.377,0.416-1.174,0.957-1.25,1.375c-0.075,0.416,0.205,1.218,0.312,1.875
	c0.684,4.19,1.436,8.638,2.188,12.75c-1.95,1.599-4.053,3.031-6.125,4.5c-2.063,1.463-4.153,2.894-6.188,4.375
	c-0.125,5-0.234,10.017-0.438,14.938c-4.435,2.233-9.17,4.164-13.75,6.25c-1.047,4.954-2.228,9.774-3.312,14.688
	c-4.891,1.088-9.717,2.242-14.625,3.312c-2.191,4.496-4.041,9.334-6.312,13.75c-4.905,0.199-9.899,0.308-14.875,0.438
	c-1.561,1.987-2.963,4.106-4.438,6.188c-1.469,2.072-2.902,4.18-4.5,6.125c-4.102-0.753-8.436-1.482-12.75-2.188
	c-0.65-0.106-1.391-0.377-1.812-0.312c-0.471,0.071-1.002,0.854-1.438,1.25c-3.309,3.012-6.453,6.148-9.75,9.062
	c-4.592-1.847-9.338-3.539-13.938-5.375c-4.271,2.646-8.508,5.324-12.75,8c-4.33-2.607-8.533-5.342-12.812-8
	c-4.643,1.815-9.367,3.55-14,5.375c-3.211-2.957-6.447-5.953-9.688-9.125c-0.374-0.365-1.096-1.129-1.438-1.188
	c-0.418-0.071-1.213,0.201-1.875,0.312c-4.257,0.718-8.685,1.461-12.875,2.188c-2.897-4.124-5.793-8.249-8.75-12.312
	c-4.997-0.129-10.011-0.24-14.938-0.438c-2.199-4.468-4.13-9.203-6.25-13.75c-4.943-1.058-9.764-2.237-14.688-3.312
	c-1.047-4.933-2.203-9.756-3.312-14.625c-4.508-2.14-9.145-4.148-13.75-6.188c-0.02-3.604-0.312-7.511-0.312-11.312
	c0-1.059,0.195-2.877-0.125-3.688c-0.15-0.378-1.107-0.905-1.5-1.188c-3.115-2.234-6.082-4.289-9.25-6.562
	c-0.485-0.349-1.412-0.81-1.5-1.125c-0.102-0.358,0.218-1.302,0.312-1.875c0.625-3.81,1.224-7.06,1.875-10.938
	c0.1-0.592,0.363-1.461,0.312-1.812c-0.061-0.412-0.887-1.073-1.25-1.438c-2.723-2.722-5.096-5.448-7.812-8.312
	c-0.451-0.476-1.207-1.054-1.25-1.375c-0.041-0.299,0.427-1.303,0.625-1.812c1.562-4.032,3.18-8.154,4.688-12.188
	c-2.614-4.303-5.295-8.539-8-12.75c2.635-4.302,5.371-8.505,8-12.812c-1.75-4.667-3.529-9.305-5.312-13.938
	c3.256-3.911,7.008-7.325,10.312-11.188c-0.715-4.123-1.477-8.415-2.188-12.75C10.709,86.185,10.427,85.366,10.5,85
	c0.072-0.366,0.943-0.898,1.438-1.25c3.602-2.563,7.344-5.069,10.812-7.688c0.178-4.968,0.289-10.002,0.438-15
	c4.58-2.044,9.115-4.134,13.75-6.125c1.109-4.932,2.221-9.862,3.375-14.75c4.919-1.06,9.742-2.215,14.625-3.312
	c2.135-4.532,4.064-9.268,6.25-13.75c3.658-0.046,7.377-0.292,11.188-0.312c0.949-0.005,2.873,0.177,3.688-0.125
	c0.359-0.134,0.855-1.038,1.188-1.5c2.594-3.616,5.078-7.271,7.688-10.75c4.92,0.81,9.823,1.635,14.688,2.5
	c3.827-3.318,7.295-6.996,11.125-10.312c4.637,1.758,9.295,3.496,13.875,5.312c4.432-2.484,8.654-5.512,12.938-7.938
	C141.854,2.604,146,5.354,150.312,7.938z M122.813,28.438C98.84,31.778,80.694,41.4,65.875,54c-2.477,2.105-4.972,4.291-7.125,6.625
	C49.893,70.222,42.239,80.39,36.625,93.5c-2.674,6.242-5.033,13.14-6.688,20.812c-2.357,10.925-3.15,25.643-1.438,37.812
	c0.566,4.028,1.263,7.84,2.188,11.562c5.477,22.063,16.084,38.584,30,52.5c9.068,9.07,20.225,16.519,32.875,22.125
	c12.824,5.687,27.687,9.125,45.875,9.125c8.578,0,16.903-1.287,24.312-3.125c7.42-1.842,14.082-4.289,20.312-7.188
	c18.531-8.622,33.642-21.785,44.5-38c11.031-16.475,18.941-36.096,18.938-63.562c-0.002-8.631-1.326-16.911-3.125-24.375
	c-1.767-7.328-4.338-14.298-7.188-20.312c-8.903-18.787-21.582-33.196-38-44.5c-5.418-3.73-11.315-7.081-17.688-9.812
	c-6.279-2.693-13.143-5.089-20.812-6.688c-7.293-1.52-16.338-2.793-25.125-2.375C130.979,27.718,126.826,27.878,122.813,28.438z"/>
</svg>
