<?xml version="1.0" encoding="utf-8"?>
<!-- Generator: Adobe Illustrator 15.1.0, SVG Export Plug-In . SVG Version: 6.00 Build 0)  -->
<!DOCTYPE svg PUBLIC "-//W3C//DTD SVG 1.1//EN" "http://www.w3.org/Graphics/SVG/1.1/DTD/svg11.dtd">
<svg version="1.1" id="Layer_1" xmlns="http://www.w3.org/2000/svg" xmlns:xlink="http://www.w3.org/1999/xlink" x="0px" y="0px"
	 width="122.048px" height="122.053px" viewBox="0 0 122.048 122.053" enable-background="new 0 0 122.048 122.053"
	 xml:space="preserve">
<path fill-rule="evenodd" clip-rule="evenodd" fill="#D9352C" d="M122.019,0.026c0,40.646,0,81.272,0,121.919
	c-0.078,0.134-0.283,0.072-0.457,0.072c-40.307,0.012-81.123-0.008-121.535,0c0-40.126,0-80.645,0-120.912
	c0-0.359-0.059-0.754,0-0.936c0.029-0.098-0.035-0.1,0.096-0.144c0.172-0.06,0.602,0,0.959,0
	C41.327,0.026,81.83,0.026,122.019,0.026z M26.21,96.65c4.732,1.499,10.066,2.639,16.199,2.639c12.533,0,22.021-3.138,29.736-7.967
	c7.746-4.85,13.768-11.288,18.385-19.296c2.273-3.946,4.168-8.44,5.52-13.321c1.306-4.713,2.061-9.65,1.969-15.695
	c-0.005-0.279-0.109-0.941-0.049-1.151c0.035-0.123,0.48-0.407,0.672-0.553c3.545-2.669,6.502-5.837,8.977-9.479
	c0-0.025-0.043-0.031-0.049,0c-3.223,1.449-6.835,2.508-10.992,3.023c3.914-2.445,6.854-5.866,8.425-10.656
	c-3.21,1.877-7.057,3.489-11.328,4.465c-0.278,0.062-0.706,0.219-0.888,0.191c-0.15-0.021-0.355-0.34-0.504-0.48
	c-2.614-2.444-5.6-4.334-9.744-5.207c-2.244-0.474-4.992-0.542-7.271-0.12c-2.175,0.401-4.223,1.152-5.904,2.088
	c-3.318,1.844-6.143,4.551-7.896,8.04c-0.863,1.716-1.592,3.719-1.943,6.023c-0.346,2.258-0.271,5.07,0.24,7.272
	c-9.375-0.555-16.967-3.021-23.4-6.576s-11.865-8.1-16.393-13.584c-1.074,1.918-2.021,4.181-2.4,6.815
	c-0.402,2.804-0.141,5.896,0.553,8.281c1.371,4.717,4.275,8.195,7.752,10.655c-3.32-0.122-5.996-1.013-8.232-2.184
	c-0.133-0.07-0.271-0.19-0.432-0.169c0.067,5.612,1.953,9.624,4.607,12.697c2.65,3.065,6.152,5.459,10.848,6.456
	c-2.406,0.69-5.961,0.863-8.663,0.312c1.248,3.842,3.493,6.994,6.407,9.264c2.932,2.282,6.574,4.01,11.593,4.152
	c-3.411,2.672-7.414,4.943-12.097,6.432c-4.508,1.434-10.518,2.318-16.463,1.561C17.255,93.061,21.454,95.144,26.21,96.65z"/>
<path fill-rule="evenodd" clip-rule="evenodd" fill="#FFFFFF" d="M122.019,0.026c0.039,40.411,0.029,81.396,0.023,121.775
	c0,0.227,0.016,0.277-0.288,0.24c-40.564-0.016-81.208,0.032-121.728-0.024c40.412-0.008,81.229,0.012,121.535,0
	c0.174,0,0.379,0.062,0.457-0.072C122.019,81.299,122.019,40.672,122.019,0.026z"/>
</svg>
