<?xml version="1.0" encoding="utf-8"?>
<!-- Generator: Adobe Illustrator 15.1.0, SVG Export Plug-In . SVG Version: 6.00 Build 0)  -->
<!DOCTYPE svg PUBLIC "-//W3C//DTD SVG 1.1//EN" "http://www.w3.org/Graphics/SVG/1.1/DTD/svg11.dtd">
<svg version="1.1" id="Layer_1" xmlns="http://www.w3.org/2000/svg" xmlns:xlink="http://www.w3.org/1999/xlink" x="0px" y="0px"
	 width="122.047px" height="122.053px" viewBox="0 0 122.047 122.053" enable-background="new 0 0 122.047 122.053"
	 xml:space="preserve">
<path fill-rule="evenodd" clip-rule="evenodd" fill="#DBA137" d="M122.018,0.026c0,40.645,0,81.272,0,121.919
	c-0.077,0.134-0.282,0.071-0.456,0.071c-40.307,0.012-81.123-0.008-121.536,0c0-40.125,0-80.645,0-120.912
	c0-0.358-0.058-0.753,0-0.935c0.03-0.098-0.034-0.099,0.096-0.144c0.173-0.06,0.602,0,0.96,0
	C41.327,0.026,81.831,0.026,122.018,0.026z M26.21,96.65c4.732,1.5,10.066,2.64,16.2,2.64c12.532,0,22.021-3.138,29.736-7.968
	c7.745-4.85,13.768-11.287,18.384-19.295c2.274-3.947,4.168-8.44,5.52-13.321c1.307-4.714,2.061-9.651,1.969-15.696
	c-0.004-0.279-0.109-0.94-0.048-1.15c0.035-0.123,0.479-0.408,0.672-0.553c3.545-2.67,6.501-5.838,8.976-9.48
	c0-0.024-0.042-0.03-0.048,0c-3.223,1.449-6.835,2.508-10.992,3.023c3.914-2.445,6.854-5.865,8.425-10.655
	c-3.211,1.876-7.057,3.489-11.328,4.464c-0.279,0.063-0.706,0.219-0.889,0.191c-0.15-0.021-0.354-0.34-0.504-0.479
	c-2.613-2.444-5.599-4.334-9.744-5.208c-2.244-0.473-4.991-0.541-7.271-0.119c-2.174,0.401-4.222,1.152-5.904,2.088
	c-3.317,1.844-6.142,4.551-7.896,8.039c-0.863,1.717-1.592,3.719-1.944,6.024c-0.345,2.258-0.271,5.069,0.24,7.272
	c-9.375-0.555-16.966-3.021-23.4-6.576c-6.433-3.556-11.865-8.1-16.392-13.584c-1.075,1.918-2.021,4.181-2.4,6.815
	c-0.403,2.804-0.142,5.896,0.552,8.28c1.372,4.717,4.276,8.195,7.752,10.656c-3.319-0.123-5.996-1.013-8.231-2.184
	c-0.133-0.07-0.272-0.19-0.432-0.169c0.067,5.612,1.953,9.624,4.608,12.696c2.649,3.066,6.151,5.46,10.848,6.457
	c-2.406,0.689-5.961,0.863-8.664,0.311c1.248,3.843,3.493,6.994,6.408,9.264c2.931,2.283,6.573,4.011,11.592,4.152
	c-3.411,2.672-7.414,4.943-12.096,6.432c-4.508,1.434-10.518,2.319-16.464,1.561C17.255,93.06,21.455,95.144,26.21,96.65z"/>
<path fill-rule="evenodd" clip-rule="evenodd" fill="#DBA137" d="M122.018,0.026c0.039,40.411,0.03,81.396,0.023,121.776
	c0,0.227,0.016,0.277-0.287,0.24c-40.564-0.016-81.208,0.031-121.729-0.025c40.413-0.008,81.229,0.012,121.536,0
	c0.174,0,0.379,0.062,0.456-0.071C122.018,81.298,122.018,40.671,122.018,0.026z"/>
</svg>
