<?xml version="1.0" standalone="no"?>
<!DOCTYPE svg PUBLIC "-//W3C//DTD SVG 1.1//EN" "http://www.w3.org/Graphics/SVG/1.1/DTD/svg11.dtd" >
<svg xmlns="http://www.w3.org/2000/svg">
<metadata></metadata>
<defs>
<font id="heroic_condensedheavy_oblique" horiz-adv-x="735" >
<font-face units-per-em="2048" ascent="1638" descent="-410" />
<missing-glyph horiz-adv-x="348" />
<glyph horiz-adv-x="2048" />
<glyph horiz-adv-x="2048" />
<glyph unicode="&#xd;" horiz-adv-x="2048" />
<glyph unicode=" "  horiz-adv-x="348" />
<glyph unicode="&#x09;" horiz-adv-x="348" />
<glyph unicode="&#xa0;" horiz-adv-x="348" />
<glyph unicode="!" horiz-adv-x="432" d="M10 0l33 233h209l-33 -233h-209zM100 451l86 983h258l-192 -983h-152z" />
<glyph unicode="&#x22;" horiz-adv-x="618" d="M139 993l21 461h221l-107 -461h-135zM395 993l21 461h221l-107 -461h-135z" />
<glyph unicode="#" horiz-adv-x="710" d="M43 598l16 125h103l57 295h-98l18 125h105l57 291h139l-57 -291h88l57 291h140l-58 -291h97l-19 -125h-102l-58 -295h99l-17 -125h-106l-55 -291h-140l56 291h-89l-55 -291h-139l55 291h-94zM301 723h88l57 295h-88z" />
<glyph unicode="$" horiz-adv-x="714" d="M66 444l16 121h205l-17 -123q-4 -31 6 -43t33 -12q48 0 56 55l10 82q6 44 -5.5 78t-34.5 57t-52 44t-57 46t-50 56t-32 80t-1 112l4 35q29 211 224 236l24 166h129l-24 -166q97 -14 131 -74.5t20 -163.5l-12 -96h-205l12 100q9 58 -38 58q-48 0 -54 -56l-6 -43 q-6 -41 6 -73.5t35 -55t52 -43.5t57.5 -46t50.5 -55.5t32 -78.5t1 -109l-13 -88q-14 -102 -65.5 -160t-151.5 -73l-28 -211h-129l28 209q-101 13 -136 71.5t-21 163.5z" />
<glyph unicode="%" horiz-adv-x="878" d="M-20 0l774 1434h141l-774 -1434h-141zM109 1067l24 184q14 102 61 152.5t144 50.5t129 -50.5t18 -152.5l-24 -184q-14 -102 -61 -151.5t-144 -49.5t-129 49.5t-18 151.5zM248 1018.5q5 -14.5 26 -14.5q22 0 32.5 14t15.5 47l26 188q3 34 -2.5 49t-26.5 15q-39 0 -45 -64 l-26 -188q-5 -32 0 -46.5zM387 182l27 185q14 102 59.5 151t142.5 49q98 0 131 -49.5t19 -150.5l-27 -185q-14 -102 -60.5 -152t-143.5 -50t-129.5 50t-18.5 152zM526 180q-5 -33 1.5 -48t27.5 -15t30.5 14.5t14.5 48.5l27 189q5 33 -1.5 47t-27.5 14t-30.5 -14t-14.5 -47z " />
<glyph unicode="&#x26;" horiz-adv-x="804" d="M41 233l45 332q16 103 119 164q-83 50 -66 164l43 303q8 60 25.5 104t51.5 80.5t90.5 55t135.5 18.5t131 -19t75 -53.5t30.5 -82t-2.5 -103.5l-29 -192h-215l29 192q7 59 -45 59q-55 0 -62 -59l-47 -324q-6 -45 39 -45h359l-29 -204h-82l-49 -351q-6 -59 43 -59h31 l-29 -213h-31q-100 0 -147 41q-59 -59 -179 -59q-272 0 -235 251zM262 240q-9 -60 43 -60q50 0 60 60l53 383h-58q-44 0 -51 -48z" />
<glyph unicode="'" horiz-adv-x="337" d="M139 993l21 461h221l-107 -461h-135z" />
<glyph unicode="(" horiz-adv-x="522" d="M88 715q55 393 295 780h158q-220 -392 -275 -780q-56 -384 56 -776h-158q-132 383 -76 776z" />
<glyph unicode=")" horiz-adv-x="522" d="M-23 -61q221 392 277 776q54 382 -57 780h157q132 -390 78 -780q-55 -389 -297 -776h-158z" />
<glyph unicode="*" horiz-adv-x="702" d="M109 1163l84 183l202 -150q-10 55 -39 258h193q-16 -38 -55.5 -130.5t-53.5 -127.5l244 150l31 -183q-48 -3 -146.5 -6.5t-124.5 -5.5q22 -20 89.5 -77t99.5 -87l-170 -113q-6 28 -18.5 82t-22 96.5t-14.5 71.5q-10 -20 -36 -71.5t-49 -97t-40 -81.5l-144 113 q15 11 107 74.5t127 89.5q-26 2 -121.5 5.5t-142.5 6.5z" />
<glyph unicode="+" horiz-adv-x="802" d="M68 496l20 155h219l31 219h156l-31 -219h219l-20 -155h-220l-32 -220h-156l33 220h-219z" />
<glyph unicode="," horiz-adv-x="344" d="M-59 -180l59 413h217l-149 -413h-127z" />
<glyph unicode="-" horiz-adv-x="485" d="M37 496l20 155h349l-21 -155h-348z" />
<glyph unicode="." horiz-adv-x="342" d="M-35 0l33 233h209l-33 -233h-209z" />
<glyph unicode="/" horiz-adv-x="583" d="M-63 -61l546 1556h160l-547 -1556h-159z" />
<glyph unicode="0" d="M19 136q-9 48 1 104l134 954q19 124 90.5 192t224.5 68t207 -68.5t35 -191.5l-133 -954q-16 -123 -89.5 -191.5t-226.5 -68.5q-79 0 -132 19.5t-77.5 54t-33.5 82.5zM242 242q-9 -64 49 -64q56 0 65 64l133 952q5 27 -7 44t-40 17t-45 -16.5t-22 -44.5z" />
<glyph unicode="1" horiz-adv-x="587" d="M-43 0l29 209h125l131 938h-117l22 153q77 0 120.5 37.5t51.5 96.5h185l-172 -1225h125l-29 -209h-471z" />
<glyph unicode="2" horiz-adv-x="688" d="M-25 0l29 211q15 106 45 191.5t66 140.5t77 100.5t80.5 84t74 78.5t60 95.5t35.5 124.5l25 170q7 59 -49 59q-29 0 -46 -16t-20 -43l-24 -172h-217l24 172q8 60 26.5 104.5t53.5 80.5t92.5 54.5t136.5 18.5q153 0 206.5 -67.5t37.5 -190.5l-24 -166q-12 -88 -40 -159.5 t-63.5 -120t-76 -91.5t-80.5 -84t-75 -86t-62 -110.5t-38 -145.5l-4 -24h332l-29 -209h-553z" />
<glyph unicode="3" horiz-adv-x="720" d="M10 238l27 192h217l-27 -188q-9 -64 49 -64q57 0 66 62l47 335q3 22 -7.5 35t-31.5 13h-86l29 204h86q45 0 51 45l47 324q7 59 -49 59q-29 0 -46 -16t-20 -43l-24 -172h-217l24 172q16 123 86.5 190.5t223.5 67.5q79 0 131.5 -19t76.5 -53.5t32.5 -82t-1.5 -103.5 l-43 -303q-18 -118 -119 -164q93 -53 76 -164l-45 -327q-16 -123 -89 -190.5t-226 -67.5q-152 0 -203.5 67t-34.5 191z" />
<glyph unicode="4" horiz-adv-x="686" d="M-25 285l31 223l344 926h314l-134 -949h84l-28 -200h-84l-39 -285h-217l39 285h-310zM178 485h135l33 240q36 259 76 485z" />
<glyph unicode="5" horiz-adv-x="710" d="M10 238l27 192h217l-27 -188q-9 -64 49 -64q57 0 66 62l57 405q7 45 -39 45q-52 0 -98 -43h-180l149 787h480l-29 -209h-287l-69 -373q55 22 102 22q116 0 163 -54t30 -173l-58 -409q-16 -123 -89 -190.5t-226 -67.5q-152 0 -203.5 67t-34.5 191z" />
<glyph unicode="6" d="M20 242l134 952q38 260 315 260q276 0 238 -260l-23 -170h-217l25 172q4 31 -10.5 45t-37.5 14q-59 0 -67 -59l-55 -387q53 29 120 29q218 0 187 -234l-51 -362q-38 -262 -316 -262q-280 0 -242 262zM242 238q-5 -27 8 -43.5t41 -16.5q55 0 65 60l50 350q7 59 -50 59 q-58 0 -65 -59z" />
<glyph unicode="7" horiz-adv-x="581" d="M57 0q97 698 349 1225h-297l28 209h506l-25 -172q-143 -352 -197.5 -570t-119.5 -692h-244z" />
<glyph unicode="8" d="M18.5 134.5q-8.5 47.5 1.5 103.5l46 327q18 116 124 164q-90 47 -73 164l43 303q8 60 26.5 104.5t53.5 80.5t92.5 54.5t136.5 18.5t132 -19t77 -53.5t32.5 -82t-1.5 -103.5l-43 -303q-18 -118 -119 -164q93 -53 76 -164l-45 -327q-16 -122 -89.5 -190t-226.5 -68 q-79 0 -132 19t-78 53.5t-33.5 82zM242 238q-5 -27 8 -43.5t41 -16.5q55 0 65 60l47 337q7 60 -49 60q-28 0 -45 -16.5t-20 -43.5zM332 877q-5 -27 8 -43.5t41 -16.5q55 0 65 60l46 319q7 59 -50 59q-58 0 -65 -59z" />
<glyph unicode="9" d="M20 240l27 190h221l-26 -192q-4 -31 10 -45.5t37 -14.5q25 0 44 14.5t23 45.5l58 407q-53 -29 -121 -29q-218 0 -187 234l48 342q38 262 315 262q280 0 242 -262l-133 -952q-38 -260 -316 -260q-280 0 -242 260zM330 866q-7 -59 49 -59q58 0 65 59l48 330q7 59 -50 59 q-58 0 -65 -59z" />
<glyph unicode=":" horiz-adv-x="382" d="M-14 0l32 233h209l-32 -233h-209zM70 608l32 234h209l-32 -234h-209z" />
<glyph unicode=";" horiz-adv-x="385" d="M-39 -180l59 413h218l-150 -413h-127zM70 608l32 234h209l-32 -234h-209z" />
<glyph unicode="&#x3c;" horiz-adv-x="634" d="M68 717l436 778h170l-436 -778l217 -778h-170z" />
<glyph unicode="=" horiz-adv-x="710" d="M35 340l22 156h533l-23 -156h-532zM78 651l22 156h533l-23 -156h-532z" />
<glyph unicode="&#x3e;" horiz-adv-x="634" d="M-43 -61l438 778l-219 778h170l219 -778l-438 -778h-170z" />
<glyph unicode="?" horiz-adv-x="702" d="M121 1044l22 158q37 252 308 252q274 0 237 -252l-18 -137q-10 -68 -27 -118.5t-37 -81t-43 -55.5t-47 -53.5t-47 -64.5t-45 -97.5t-39 -143.5h-147q-4 112 13 193t45 127.5t58 84t56.5 88.5t35.5 115l21 137q6 59 -43 59q-53 0 -59 -59l-23 -152h-221zM143 0l33 233h209 l-33 -233h-209z" />
<glyph unicode="@" horiz-adv-x="1062" d="M13.5 96.5q-0.5 71.5 9.5 153.5l73 524q12 86 34.5 155t62 130t95 102t136 64.5t180.5 23.5t173.5 -23t117 -65t68 -101t26 -131t-7.5 -155l-74 -524q-15 -107 -48 -189t-91 -148.5t-151.5 -102t-219.5 -35.5q-102 0 -176.5 23.5t-117 66t-66 101.5t-24 130.5zM156.5 117 q5.5 -62 28.5 -108t81.5 -72.5t149.5 -26.5t156 25.5t103.5 74.5t59 106t31.5 134l74 524q7 57 8.5 107.5t-13 93.5t-42.5 73.5t-80.5 48t-126.5 17.5q-92 0 -157 -25.5t-103 -75t-57.5 -105.5t-30.5 -134l-74 -524q-13 -71 -7.5 -133zM270 254l23 166q14 98 65.5 146.5 t194.5 90.5l16 117q3 39 -30 39q-36 0 -39 -39l-11 -61h-147l10 61q11 89 59.5 136.5t149.5 47.5q104 0 138.5 -47.5t21.5 -138.5l-94 -674h-90q-3 3 -10 14t-13 17q-16 -22 -45.5 -37.5t-62.5 -15.5q-83 0 -115.5 44.5t-20.5 133.5zM424 258q-6 -43 31 -43q20 0 29 10.5 t12 32.5l39 281q-76 -37 -89 -119z" />
<glyph unicode="A" horiz-adv-x="696" d="M-63 0l368 1434h285l-33 -1434h-223l18 279h-133l-59 -279h-223zM268 483h92l15 211q23 327 41 502h-2q-62 -315 -103 -502z" />
<glyph unicode="B" horiz-adv-x="745" d="M-2 0l201 1434h303q75 0 122.5 -14.5t70 -43t27.5 -70.5q2 -14 2 -30q0 -31 -7 -68l-43 -313q-17 -114 -105 -166q41 -29 56 -69q10 -28 10 -65q0 -18 -2 -38l-43 -309q-19 -123 -79 -185.5t-198 -62.5h-315zM248 209h78q37 0 43 41l45 325q3 26 -5.5 37t-33.5 11h-70z M334 827h72q23 0 34.5 11.5t16.5 38.5l43 309q1 5 1 10q0 29 -34 29h-76z" />
<glyph unicode="C" horiz-adv-x="720" d="M19 138q-4 23 -4 47q0 27 5 57l134 950q19 124 91 193t224 69q79 0 132 -20t77 -55t32 -83q3 -20 3 -42q0 -30 -6 -62l-27 -188h-217l26 188q5 28 -7 45.5t-40 17.5t-45 -17.5t-22 -45.5l-133 -948q-1 -9 -1 -17q0 -49 50 -49q56 0 65 66l29 207h217l-29 -209 q-8 -60 -27 -105t-54 -81.5t-93 -56t-137 -19.5t-132 20t-77.5 55t-33.5 83z" />
<glyph unicode="D" horiz-adv-x="755" d="M-2 0l201 1434h299q149 0 195 -62q32 -43 32 -120q0 -34 -6 -74l-129 -922q-20 -137 -80.5 -196.5t-206.5 -59.5h-305zM248 209h71q44 0 50 45l129 922q1 7 1 13q0 36 -40 36h-68z" />
<glyph unicode="E" horiz-adv-x="620" d="M-2 0l201 1434h452l-28 -209h-232l-57 -398h203l-29 -204h-203l-57 -414h231l-28 -209h-453z" />
<glyph unicode="F" horiz-adv-x="602" d="M-2 0l201 1434h444l-29 -209h-223l-57 -398h190l-28 -204h-191l-86 -623h-221z" />
<glyph unicode="G" d="M19 138q-4 23 -4 47q0 28 5 57l134 950q19 124 91 193t224 69q153 0 207 -70q40 -51 40 -132q0 -28 -5 -60l-27 -188h-221l29 192q1 6 1 12q0 47 -51 47q-58 0 -65 -59l-135 -952q-1 -9 -1 -17q0 -49 50 -49q56 0 65 66l54 379h-58l29 204h278l-81 -585 q-16 -123 -89.5 -192.5t-226.5 -69.5q-79 0 -132 20t-77.5 55t-33.5 83z" />
<glyph unicode="H" horiz-adv-x="755" d="M-2 0l201 1434h221l-86 -607h115l86 607h221l-201 -1434h-221l86 623h-115l-86 -623h-221z" />
<glyph unicode="I" horiz-adv-x="419" d="M-2 0l201 1434h221l-201 -1434h-221z" />
<glyph unicode="J" horiz-adv-x="681" d="M-22 138q-4 21 -4 43q0 29 6 61l28 209h217l-28 -207q-1 -9 -1 -18q0 -48 46 -48q28 0 42 16t19 50l168 1190h221l-168 -1192q-8 -60 -26.5 -105t-53.5 -81.5t-92.5 -56t-136.5 -19.5t-131 20t-75.5 55t-30.5 83z" />
<glyph unicode="K" horiz-adv-x="718" d="M-2 0l201 1434h221l-94 -635l221 635h241l-296 -711l108 -723h-240l-55 651l-86 -651h-221z" />
<glyph unicode="L" horiz-adv-x="542" d="M-2 0l201 1434h221l-172 -1225h184l-29 -209h-405z" />
<glyph unicode="M" horiz-adv-x="1030" d="M-8 0l201 1434h288l-8 -1000l275 1000h288l-200 -1434h-207l174 1069l-303 -1069h-172l-4 1069l-125 -1069h-207z" />
<glyph unicode="N" horiz-adv-x="790" d="M-12 0l200 1434h224l73 -904q21 310 70 652l35 252h211l-201 -1434h-217l-78 922q-36 -413 -78 -715l-28 -207h-211z" />
<glyph unicode="O" d="M19 138q-4 23 -4 47q0 27 5 57l134 948q8 59 27.5 105t55.5 83t94.5 56.5t137.5 19.5q151 0 205 -70q41 -53 41 -137q0 -27 -4 -57l-133 -948q-16 -123 -89.5 -192.5t-226.5 -69.5q-79 0 -132 20t-77.5 55t-33.5 83zM242 244q-1 -9 -1 -17q0 -49 50 -49q56 0 65 66 l133 948q1 9 1 17q0 46 -48 46q-57 0 -67 -63z" />
<glyph unicode="P" horiz-adv-x="710" d="M-2 0l201 1434h313q138 0 180 -61q30 -43 30 -118q0 -30 -5 -65l-49 -352q-18 -126 -79.5 -184t-201.5 -58h-86l-82 -596h-221zM330 801h71q43 0 52 45l45 330q1 7 1 13q0 36 -40 36h-68z" />
<glyph unicode="Q" d="M20 242l134 950q19 124 91 193t224 69q153 0 207 -70q40 -51 40 -132q0 -28 -5 -60l-133 -950q-31 -226 -236 -256q0 -52 61 -52h76l-49 -122h-45q-112 0 -162 41q-44 36 -44 111q0 11 1 22q-104 18 -140 84q-24 47 -24 113q0 28 4 59zM242 244q-1 -9 -1 -17 q0 -49 50 -49q56 0 65 66l133 948q1 9 1 17q0 46 -48 46q-57 0 -67 -63z" />
<glyph unicode="R" horiz-adv-x="731" d="M-2 0l201 1434h313q138 0 180 -61q30 -43 30 -118q0 -30 -5 -65l-49 -356q-14 -98 -45.5 -151t-100.5 -77l101 -606h-236l-72 598h-12l-84 -598h-221zM330 801h71q43 0 52 45l45 330q1 7 1 13q0 36 -40 36h-68z" />
<glyph unicode="S" horiz-adv-x="714" d="M10 238l29 213h221l-29 -209q-1 -9 -2 -17q0 -47 52 -47q55 0 65 64l21 143q5 39 5 73q0 20 -2 38q-4 50 -19 81t-36.5 59.5t-46 49t-49 46t-45.5 52.5t-35 68.5t-18 92.5q-1 15 -1 31q0 41 7 95l18 125q16 119 91.5 188.5t222.5 69.5t203 -70q44 -54 43 -138 q0 -24 -3 -50l-28 -192h-221l26 190q1 9 1 17q0 44 -48 44q-57 0 -67 -61l-17 -117q-4 -29 -4 -54q0 -22 3 -41q6 -42 21.5 -69t37.5 -52t47 -44.5t49 -46t44.5 -56.5t34 -76.5t15.5 -105.5q0 -11 1 -23q0 -52 -9 -120l-21 -151q-16 -119 -92.5 -188.5t-222.5 -69.5 q-246 0 -246 203q0 26 4 55z" />
<glyph unicode="T" horiz-adv-x="608" d="M92 0l172 1225h-155l28 209h533l-29 -209h-156l-172 -1225h-221z" />
<glyph unicode="U" horiz-adv-x="755" d="M30 134q-4 22 -4 46q0 28 5 58l168 1196h221l-168 -1194q-1 -8 -1 -16q0 -46 50 -46q57 0 66 62l168 1194h221l-168 -1196q-16 -122 -89.5 -190t-226.5 -68q-79 0 -132 19t-77.5 53t-32.5 82z" />
<glyph unicode="V" horiz-adv-x="686" d="M106 0l29 1434h227l-38 -611l-41 -522l106 522l133 611h228l-375 -1434h-269z" />
<glyph unicode="W" horiz-adv-x="1120" d="M98 0l49 1434h224l-84 -1061l256 1061h233l-43 -1061l215 1061h223l-350 -1434h-270l53 1040l-237 -1040h-269z" />
<glyph unicode="X" horiz-adv-x="690" d="M-74 0l301 745l-86 689h238l8 -412l123 412h238l-279 -689l92 -745h-237l-15 469l-145 -469h-238z" />
<glyph unicode="Y" horiz-adv-x="636" d="M106 0l74 526l-53 908h231l-22 -576l141 576h232l-308 -908l-73 -526h-222z" />
<glyph unicode="Z" horiz-adv-x="622" d="M-27 0l19 143l389 1082h-242l29 209h483l-20 -144l-387 -1081h248l-29 -209h-490z" />
<glyph unicode="[" horiz-adv-x="538" d="M-6 -246l244 1741h319l-22 -156h-142l-200 -1429h141l-21 -156h-319z" />
<glyph unicode="\" horiz-adv-x="583" d="M156 1495h159l109 -1556h-160z" />
<glyph unicode="]" horiz-adv-x="538" d="M-47 -246l20 156h142l200 1429h-141l23 156h319l-244 -1741h-319z" />
<glyph unicode="a" horiz-adv-x="649" d="M-12 221l20 156q14 106 93 169.5t251 123.5l21 139q1 8 1 15q0 40 -38 40q-41 0 -49 -55l-11 -80h-204l10 86q33 229 280 229q223 0 223 -188q0 -23 -3 -49l-113 -807h-117l-28 49q-31 -37 -68 -53t-98 -16q-106 0 -146 59q-29 42 -29 115q0 31 5 67zM197 221 q-1 -10 -1 -18q0 -43 35 -43q31 0 43 14t17 47l41 293q-41 -24 -57.5 -35.5t-33.5 -37t-22 -60.5z" />
<glyph unicode="b" horiz-adv-x="679" d="M-12 0l202 1454h209l-63 -450q50 40 117 40q109 0 143 -55q23 -36 22 -103q0 -35 -6 -77l-82 -588q-19 -125 -74 -183t-161 -58q-115 0 -150 69l-41 -49h-116zM225 215q-1 -6 -1 -12q0 -43 40 -43q48 0 55 55l84 592q1 9 1 17q0 40 -39 40q-47 0 -56 -53z" />
<glyph unicode="c" horiz-adv-x="653" d="M6 123q-3 19 -3 40q0 27 5 58l82 584q16 116 82.5 177.5t206.5 61.5q137 0 185 -62q36 -46 36 -122q0 -26 -4 -55l-18 -133h-203l18 137q1 7 1 14q0 41 -40 41q-48 0 -55 -55l-84 -594q-1 -7 -1 -14q0 -41 40 -41q19 0 35 12.5t20 42.5l23 158h203l-21 -152 q-16 -118 -79.5 -179.5t-205.5 -61.5q-74 0 -123 17.5t-71 49.5t-29 76z" />
<glyph unicode="d" horiz-adv-x="669" d="M6 217l84 594q18 126 66 179.5t155 53.5q29 0 60.5 -11t48.5 -29l63 450h209l-203 -1454h-116l-29 49q-54 -69 -174 -69q-106 0 -144 56q-26 39 -25 110q0 32 5 71zM215 215q-1 -7 -1 -14q0 -41 40 -41q49 0 55 55l84 596q1 8 1 15q0 38 -40 38q-46 0 -55 -57z" />
<glyph unicode="e" horiz-adv-x="663" d="M6 126q-3 19 -4 40q0 28 6 59l80 576q16 116 83.5 179.5t207.5 63.5q139 0 185 -63q35 -47 34 -124q0 -26 -4 -56l-45 -322h-297l-37 -264q-1 -7 -1 -14q0 -41 40 -41q19 0 35 12.5t20 42.5l23 158h203l-21 -148q-8 -57 -25 -99t-49 -76.5t-85 -52t-126 -17.5 q-74 0 -123 18t-70.5 50.5t-29.5 77.5zM274 635h95l24 174q1 7 1 14q0 41 -40 41q-48 0 -55 -55z" />
<glyph unicode="f" horiz-adv-x="491" d="M16 0l117 840h-90l27 184h90l28 201q18 127 84.5 188.5t212.5 61.5q44 0 93 -17l-27 -180q-37 16 -84 16q-64 0 -70 -69l-28 -201h125l-27 -184h-125l-117 -840h-209z" />
<glyph unicode="g" horiz-adv-x="651" d="M-72 -109q20 138 129 195q-40 27 -40 72q0 6 1 12q9 59 72 86q-47 29 -61 79q-8 29 -8 67q0 26 4 57l49 344q15 116 81.5 178.5t206.5 62.5q52 0 97 -10q60 123 168 123q39 0 55 -6l-20 -156q-41 13 -72 13q-30 0 -53 -15q52 -47 52 -141q0 -23 -3 -49l-49 -344 q-16 -115 -83 -175.5t-206 -60.5q-67 0 -76 -51q-3 -26 12 -39.5t49 -13.5q150 0 203 -59q42 -45 42 -123q0 -22 -3 -46v-6q-15 -104 -89 -168.5t-216 -64.5q-144 0 -200 63q-45 50 -45 127q0 21 3 43v6zM135 -80v-4q-2 -10 -2 -19q0 -24 13 -39q17 -20 49 -20q70 0 81 78v4 q6 36 -11 54t-48 18q-72 0 -82 -72zM229 436q-1 -9 -1 -16q0 -45 40 -45q48 0 56 61l53 369q1 10 1 18q0 19 -6 28q-10 13 -34 13t-37.5 -13t-17.5 -46z" />
<glyph unicode="h" horiz-adv-x="669" d="M-23 0l203 1454h209l-63 -450q50 40 116 40q108 0 143 -55q23 -36 23 -103q0 -34 -6 -77l-113 -809h-208l112 807q1 9 1 17q0 40 -40 40q-46 0 -55 -53l-113 -811h-209z" />
<glyph unicode="i" horiz-adv-x="366" d="M-23 0l144 1024h209l-144 -1024h-209zM135 1130l33 234h209l-33 -234h-209z" />
<glyph unicode="j" horiz-adv-x="366" d="M-215 -332l25 180q37 -16 84 -16q59 0 69 70l158 1122h209l-158 -1122q-18 -127 -84.5 -188.5t-210.5 -61.5q-49 0 -92 16zM135 1130l33 234h209l-33 -234h-209z" />
<glyph unicode="k" horiz-adv-x="659" d="M-12 0l202 1454h209l-118 -852l165 422h228l-232 -498l109 -526h-229l-64 440l-61 -440h-209z" />
<glyph unicode="l" horiz-adv-x="366" d="M-23 0l203 1454h209l-203 -1454h-209z" />
<glyph unicode="m" horiz-adv-x="972" d="M-23 0l144 1024h117l26 -49q66 69 174 69q97 0 140 -59q66 59 159 59q107 0 146 -56q27 -39 27 -112q0 -31 -5 -69l-112 -807h-209l112 809q1 7 1 14q0 41 -40 41q-23 0 -37.5 -15t-17.5 -40l-113 -809h-208l112 811q1 7 1 13q0 40 -40 40q-48 0 -55 -53l-113 -811h-209z " />
<glyph unicode="n" horiz-adv-x="690" d="M-12 0l143 1024h117l26 -49q66 69 179 69q105 0 141 -56q24 -37 24 -105q0 -34 -6 -76l-112 -807h-209l112 809q1 7 1 14q0 41 -39 41q-50 0 -56 -55l-112 -809h-209z" />
<glyph unicode="o" horiz-adv-x="669" d="M6 123q-3 19 -3 40q0 27 5 58l82 584q16 116 82.5 177.5t206.5 61.5q139 0 189 -62q37 -47 38 -124q0 -25 -4 -53l-82 -584q-16 -117 -82 -179t-209 -62q-74 0 -123 17.5t-71 49.5t-29 76zM215 215q-1 -7 -1 -14q0 -41 40 -41q48 0 55 55l84 594q1 7 1 14q0 41 -40 41 q-48 0 -55 -55z" />
<glyph unicode="p" horiz-adv-x="690" d="M-59 -328l190 1352h117l26 -49q54 69 170 69q106 0 146 -58q27 -41 27 -114q0 -32 -5 -69l-84 -588q-18 -125 -68 -180t-157 -55q-67 0 -104 40l-49 -348h-209zM225 213q-1 -6 -1 -12q0 -41 40 -41q49 0 55 57l84 592q1 7 1 14q0 41 -39 41q-50 0 -56 -55z" />
<glyph unicode="q" horiz-adv-x="679" d="M-4 215l84 588q17 125 72 183t161 58q115 0 150 -69l43 49h117l-191 -1352h-209l49 348q-50 -40 -116 -40q-108 0 -143 55q-23 36 -23 103q0 35 6 77zM205 217q-1 -7 -1 -14q0 -19 7 -29q9 -14 33 -14q49 0 55 53l84 596q1 6 1 12q0 43 -40 43q-48 0 -55 -55z" />
<glyph unicode="r" horiz-adv-x="479" d="M-23 0l144 1024h117l26 -49q42 44 89.5 64t123.5 20l-31 -221q-20 3 -38 3q-48 0 -74 -22q-36 -30 -47 -98l-101 -721h-209z" />
<glyph unicode="s" horiz-adv-x="630" d="M-14 217l18 119h205l-19 -121q-4 -31 6 -43t33 -12q48 0 56 55l12 82q2 15 2 29q1 27 -7 49q-12 34 -35.5 57t-52.5 44t-57.5 46t-50.5 56t-32 80q-5 26 -5 55q0 27 4 57l7 35q16 118 83 178.5t201 60.5q136 0 186 -61q37 -46 36 -125q0 -26 -3 -55l-14 -94h-205l15 98 q1 9 1 17q0 40 -40 40q-47 0 -56 -55l-6 -43q-2 -14 -2 -26q0 -26 8 -48q12 -32 35 -54.5t52 -43.5t57.5 -46t50.5 -55.5t32 -78.5q5 -25 5 -54q0 -26 -4 -55l-13 -88q-16 -118 -82.5 -177.5t-203.5 -59.5t-185 59q-36 44 -36 122q0 26 4 56z" />
<glyph unicode="t" horiz-adv-x="516" d="M43 840l27 184h104l37 260l217 57l-45 -317h137l-26 -184h-138l-86 -621q-1 -8 -1 -15q0 -44 44 -44q38 0 88 18l-24 -178q-46 -20 -101 -20q-142 0 -188 59q-32 42 -33 114q0 30 6 66l86 621h-104z" />
<glyph unicode="u" horiz-adv-x="690" d="M16 217l115 807h209l-115 -809q-1 -7 -1 -14q0 -41 40 -41q49 0 55 55l115 809h209l-143 -1024h-117l-29 49q-54 -69 -174 -69q-106 0 -144 56q-26 39 -25 110q0 32 5 71z" />
<glyph unicode="v" horiz-adv-x="636" d="M76 1024h217l-39 -756l174 756h217l-311 -1024h-234z" />
<glyph unicode="w" horiz-adv-x="991" d="M70 1024h213l-45 -766l192 766h213l-25 -766l173 766h215l-293 -1024h-246l25 705l-170 -705h-248z" />
<glyph unicode="x" horiz-adv-x="630" d="M-84 0l264 516l-110 508h215l30 -287l113 287h217l-258 -508l125 -516h-217l-41 295l-123 -295h-215z" />
<glyph unicode="y" horiz-adv-x="612" d="M-121 -332l23 182q50 -16 90 -16q31 0 52 19.5t34 66.5l24 80l-32 1024h215l-33 -676l160 676h215l-342 -1108q-45 -146 -114.5 -205t-201.5 -59q-58 0 -90 16z" />
<glyph unicode="z" horiz-adv-x="530" d="M-53 0l18 139l305 692h-202l26 193h424l-20 -139l-299 -692h209l-27 -193h-434z" />
<glyph unicode="{" horiz-adv-x="555" d="M35 -51q10 67 35.5 133.5t52 114t53 122t37.5 154.5q5 38 -13.5 56t-64.5 18h-72l23 155h72q46 0 69 18t29 56q11 80 5 154.5t-19 122t-20 114.5t3 133q13 102 86 148.5t205 46.5h57l-22 -156h-55q-46 0 -66.5 -17.5t-26.5 -64.5q-10 -72 2.5 -226.5t0.5 -242.5 q-18 -122 -101 -163q69 -42 53 -164q-13 -88 -68 -243t-65 -226q-7 -48 8 -65t62 -17h55l-20 -156h-58q-132 0 -192 46.5t-45 148.5z" />
<glyph unicode="|" horiz-adv-x="419" d="M-6 -246l244 1741h159l-243 -1741h-160z" />
<glyph unicode="}" horiz-adv-x="555" d="M-47 -246l20 156h56q47 0 67 16.5t27 65.5q9 69 -3 225t1 244q15 118 98 164q-69 41 -51 163q12 87 67.5 241.5t65.5 227.5q6 47 -10 64.5t-62 17.5h-55l23 156h57q132 0 191.5 -46.5t46.5 -148.5q-10 -67 -36 -133.5t-52 -114t-53 -122t-38 -154.5q-6 -37 12.5 -55.5 t65.5 -18.5h72l-23 -155h-71q-90 0 -99 -74q-11 -80 -5 -154.5t19 -122t20 -114.5t-3 -133q-15 -102 -87 -148.5t-204 -46.5h-57z" />
<glyph unicode="&#xa1;" horiz-adv-x="432" d="M-74 -410l193 983h151l-86 -983h-258zM121 791l33 233h208l-32 -233h-209z" />
<glyph unicode="&#xa2;" horiz-adv-x="724" d="M70 446l82 584q15 101 66.5 161.5t156.5 74.5l24 168h129l-24 -168q100 -14 134 -74.5t19 -161.5l-18 -133h-203l19 137q5 30 -7.5 43t-31.5 13q-46 0 -56 -56l-81 -594q-7 -55 38 -55q19 0 35.5 12.5t20.5 42.5l22 158h203l-23 -152q-15 -104 -64 -164t-155 -73 l-28 -209h-129l28 209q-104 13 -138 73t-19 164z" />
<glyph unicode="&#xa3;" horiz-adv-x="772" d="M-33 0l29 209q39 0 57 14.5t23 46.5l55 396h-76l17 118h75l60 414q16 121 87.5 188.5t221.5 67.5q138 0 194 -69.5t40 -186.5l-23 -154h-215l23 154q3 26 -9 41.5t-37 15.5q-26 0 -42 -16t-19 -41l-59 -414h139l-16 -118h-140l-55 -396q-7 -61 57 -61h256l-28 -209h-265 q-117 0 -165 68q-65 -68 -185 -68z" />
<glyph unicode="&#xa4;" horiz-adv-x="663" d="M-43 0l131 332q-38 57 -22 172l65 471q16 109 72 168l-35 291h201l16 -215q6 0 18.5 1t18.5 1t18 -1t17 -1l80 215h200l-119 -291q41 -61 25 -168l-65 -471q-16 -113 -72 -172l41 -332h-201l-22 258q-12 -2 -37 -2q-27 0 -39 2l-90 -258h-201zM272 492q-7 -56 39 -56 q49 0 56 56l69 493q7 55 -39 55q-48 0 -55 -55z" />
<glyph unicode="&#xa5;" horiz-adv-x="712" d="M41 229l16 111h133l15 100h-133l14 111h133q-8 147 -25.5 441t-25.5 442h231q-3 -96 -12 -285.5t-12 -282.5l135 568h233q-50 -147 -151.5 -441.5t-151.5 -441.5h138l-15 -111h-137l-14 -100h137l-17 -111h-137l-30 -229h-222l31 229h-133z" />
<glyph unicode="&#xa6;" horiz-adv-x="419" d="M-6 -246l108 774h160l-108 -774h-160zM129 721l109 774h159l-108 -774h-160z" />
<glyph unicode="&#xa7;" horiz-adv-x="700" d="M-35 -84l17 125h221l-19 -133q-7 -58 41 -58q51 0 58 58l12 84q8 54 -0.5 92.5t-28 59t-45.5 38.5t-54.5 31.5t-53.5 39t-42.5 60t-23 94t5.5 142.5l15 96q16 135 120 209q-78 99 -55 264l10 72q36 264 308 264q269 0 233 -264l-16 -125h-222l19 133q7 57 -41 57 q-50 0 -57 -57l-13 -84q-8 -54 0.5 -92.5t28 -59t45.5 -38.5t54.5 -31.5t53.5 -39t42.5 -60t23 -94t-5.5 -142.5l-14 -96q-16 -133 -119 -209q74 -94 53 -264l-10 -72q-36 -264 -307 -264q-270 0 -234 264zM276 563q-18 -148 48 -205q28 33 36 99l11 80q22 148 -47 204 q-28 -37 -35 -98z" />
<glyph unicode="&#xa9;" horiz-adv-x="1087" d="M53.5 301.5q-0.5 71.5 9.5 153.5l74 524q12 86 34.5 155t62.5 130t95.5 102t135.5 64.5t180 23.5t173.5 -23t117 -65t68.5 -101t26.5 -131t-8.5 -155l-74 -524q-15 -107 -48 -189t-91 -148.5t-151.5 -102t-219.5 -35.5q-102 0 -176.5 23.5t-117 66t-66.5 101.5 t-24.5 130.5zM197.5 322q5.5 -62 28.5 -108t81.5 -72.5t149.5 -26.5t156 25.5t103.5 74.5t59 106t31.5 134l74 524q7 57 8.5 107.5t-13 93.5t-42.5 73.5t-80.5 48t-126.5 17.5q-92 0 -157 -25.5t-103 -75t-57.5 -105.5t-30.5 -134l-74 -524q-13 -71 -7.5 -133zM324 465 l71 504q13 92 60.5 141t152.5 49q102 0 135.5 -48.5t20.5 -139.5l-16 -113h-146l19 127q5 41 -31 41q-38 0 -43 -41l-76 -536q-5 -41 31 -41q38 0 43 43l22 147h146l-21 -135q-11 -91 -59 -140t-150 -49q-105 0 -138 49t-21 142z" />
<glyph unicode="&#xaa;" horiz-adv-x="561" d="M59 377l19 125h362l-18 -125h-363zM96 750l23 165q14 98 65.5 147t194.5 91l16 117q3 39 -30 39q-36 0 -39 -39l-11 -62h-153l10 62q23 184 213 184q104 0 139.5 -48t22.5 -138l-94 -674h-91q-3 4 -9.5 14.5t-12.5 16.5q-16 -22 -46 -38t-63 -16q-83 0 -115 44.5 t-20 134.5zM250 754q-6 -43 31 -43q20 0 29 10.5t12 32.5l38 280q-39 -19 -60 -46.5t-28 -72.5z" />
<glyph unicode="&#xab;" horiz-adv-x="847" d="M39 512l268 379h195l-262 -379l155 -379h-194zM340 512l268 379h195l-262 -379l155 -379h-194z" />
<glyph unicode="&#xac;" horiz-adv-x="710" d="M70 590l22 155h533l-50 -344h-153l27 189h-379z" />
<glyph unicode="&#xad;" horiz-adv-x="485" d="M37 496l20 155h349l-21 -155h-348z" />
<glyph unicode="&#xae;" horiz-adv-x="1087" d="M53.5 301.5q-0.5 71.5 9.5 153.5l74 524q12 86 34.5 155t62.5 130t95.5 102t135.5 64.5t180 23.5t173.5 -23t117 -65t68.5 -101t26.5 -131t-8.5 -155l-74 -524q-15 -107 -48 -189t-91 -148.5t-151.5 -102t-219.5 -35.5q-102 0 -176.5 23.5t-117 66t-66.5 101.5 t-24.5 130.5zM197.5 322q5.5 -62 28.5 -108t81.5 -72.5t149.5 -26.5t156 25.5t103.5 74.5t59 106t31.5 134l74 524q7 57 8.5 107.5t-13 93.5t-42.5 73.5t-80.5 48t-126.5 17.5q-92 0 -157 -25.5t-103 -75t-57.5 -105.5t-30.5 -134l-74 -524q-13 -71 -7.5 -133zM299 289 l121 860h201q95 0 126 -44t19 -128l-27 -186q-17 -125 -102 -148l86 -354h-156l-69 344h-4l-50 -344h-145zM512 758h49q18 0 26 8t11 27l25 178q3 20 -2.5 28.5t-24.5 8.5h-49z" />
<glyph unicode="&#xb0;" horiz-adv-x="477" d="M139 1233q15 108 64 164.5t157 56.5t141.5 -56.5t18.5 -164.5t-64 -164.5t-157 -56.5t-141.5 56.5t-18.5 164.5zM268 1233q-7 -48 2.5 -74t44.5 -26q62 0 76 100t-47 100q-36 0 -52.5 -26t-23.5 -74z" />
<glyph unicode="&#xb1;" horiz-adv-x="802" d="M23 184l22 156h594l-23 -156h-593zM84 614l20 156h220l30 219h156l-31 -219h219l-20 -156h-219l-31 -219h-156l31 219h-219z" />
<glyph unicode="&#xb6;" horiz-adv-x="794" d="M76 633l78 553q16 121 78.5 184.5t201.5 63.5h350l-247 -1762h-222l101 717h-125q-139 0 -185 62t-30 182z" />
<glyph unicode="&#xb7;" horiz-adv-x="382" d="M49 457l33 233h209l-33 -233h-209z" />
<glyph unicode="&#xba;" horiz-adv-x="550" d="M55 377l19 125h356l-18 -125h-357zM100 758l72 512q23 184 213 184q189 0 162 -186l-72 -512q-23 -185 -213 -185q-189 0 -162 187zM252 756q-3 -39 31 -39q36 0 39 39l73 514q3 39 -30 39q-36 0 -39 -39z" />
<glyph unicode="&#xbb;" horiz-adv-x="847" d="M-14 133l262 379l-156 379h195l162 -379l-269 -379h-194zM287 133l262 379l-156 379h195l162 -379l-269 -379h-194z" />
<glyph unicode="&#xbf;" horiz-adv-x="702" d="M-51 -178l20 137q10 69 26.5 119t36 80.5t42.5 55.5t47 53.5t47 64.5t45 97.5t39 143.5h147q0 -114 -6 -159q-10 -66 -31.5 -118t-47 -86.5t-50.5 -67t-45.5 -77t-28.5 -100.5l-18 -137q-9 -59 43 -59q49 0 59 59l21 152h221l-22 -158q-37 -252 -308 -252 q-274 0 -237 252zM254 791l33 233h209l-33 -233h-209z" />
<glyph unicode="&#xc0;" horiz-adv-x="696" d="M-63 0l368 1434h285l-33 -1434h-223l18 279h-133l-59 -279h-223zM268 483h92l15 211q23 327 41 502h-2q-62 -315 -103 -502zM332 1812h198l2 -276h-122z" />
<glyph unicode="&#xc1;" horiz-adv-x="696" d="M-63 0l368 1434h285l-33 -1434h-223l18 279h-133l-59 -279h-223zM268 483h92l15 211q23 327 41 502h-2q-62 -315 -103 -502zM389 1536l80 276h199l-156 -276h-123z" />
<glyph unicode="&#xc2;" horiz-adv-x="696" d="M-63 0l368 1434h285l-33 -1434h-223l18 279h-133l-59 -279h-223zM264 1536l150 276h168l73 -276h-147l-35 100l-63 -100h-146zM268 483h92l15 211q23 327 41 502h-2q-62 -315 -103 -502z" />
<glyph unicode="&#xc4;" horiz-adv-x="696" d="M-63 0l368 1434h285l-33 -1434h-223l18 279h-133l-59 -279h-223zM258 1536l31 217h172l-31 -217h-172zM268 483h92l15 211q23 327 41 502h-2q-62 -315 -103 -502zM492 1536l30 217h172l-30 -217h-172z" />
<glyph unicode="&#xc5;" horiz-adv-x="696" d="M-63 0l368 1434h285l-33 -1434h-223l18 279h-133l-59 -279h-223zM268 483h92l15 211q23 327 41 502h-2q-62 -315 -103 -502zM326 1675q23 160 174 160q154 0 131 -160q-20 -157 -174 -157q-151 0 -131 157zM444 1675q-6 -47 27 -47q35 0 41 47q9 49 -27 49q-32 0 -41 -49 z" />
<glyph unicode="&#xc6;" horiz-adv-x="993" d="M-63 0l487 1434h594l-29 -209h-225l-57 -398h196l-29 -204h-196l-57 -414h225l-29 -209h-446l39 279h-158l-86 -279h-229zM317 483h121l105 744q-42 -131 -117.5 -384.5t-108.5 -359.5z" />
<glyph unicode="&#xc7;" horiz-adv-x="720" d="M20 242l134 950q19 124 91 193t224 69q79 0 132 -20t77 -55t32 -83t-3 -104l-27 -188h-217l26 188q5 28 -7 45.5t-40 17.5t-45 -17.5t-22 -45.5l-133 -948q-9 -66 49 -66q56 0 65 66l29 207h217l-29 -209q-31 -242 -270 -260l-22 -62q113 -21 96 -127 q-8 -68 -51.5 -104.5t-145.5 -36.5h-119l50 125h59q40 0 43 28q3 15 -5 22t-30 7h-41l62 150q-210 23 -179 258z" />
<glyph unicode="&#xc8;" horiz-adv-x="620" d="M-2 0l201 1434h452l-28 -209h-232l-57 -398h203l-29 -204h-203l-57 -414h231l-28 -209h-453zM342 1812h199l2 -276h-123z" />
<glyph unicode="&#xc9;" horiz-adv-x="620" d="M-2 0l201 1434h452l-28 -209h-232l-57 -398h203l-29 -204h-203l-57 -414h231l-28 -209h-453zM360 1536l80 276h199l-156 -276h-123z" />
<glyph unicode="&#xca;" horiz-adv-x="620" d="M-2 0l201 1434h452l-28 -209h-232l-57 -398h203l-29 -204h-203l-57 -414h231l-28 -209h-453zM238 1536l149 276h168l74 -276h-148l-35 100l-63 -100h-145z" />
<glyph unicode="&#xcb;" horiz-adv-x="620" d="M-2 0l201 1434h452l-28 -209h-232l-57 -398h203l-29 -204h-203l-57 -414h231l-28 -209h-453zM236 1536l30 217h172l-30 -217h-172zM469 1536l31 217h172l-31 -217h-172z" />
<glyph unicode="&#xcc;" horiz-adv-x="419" d="M-2 0l201 1434h221l-201 -1434h-221zM193 1812h198l2 -276h-123z" />
<glyph unicode="&#xcd;" horiz-adv-x="419" d="M-2 0l201 1434h221l-201 -1434h-221zM260 1536l80 276h199l-156 -276h-123z" />
<glyph unicode="&#xce;" horiz-adv-x="419" d="M-2 0l201 1434h221l-201 -1434h-221zM127 1536l149 276h168l74 -276h-147l-35 100l-64 -100h-145z" />
<glyph unicode="&#xcf;" horiz-adv-x="419" d="M-2 0l201 1434h221l-201 -1434h-221zM121 1536l31 217h172l-31 -217h-172zM354 1536l31 217h172l-31 -217h-172z" />
<glyph unicode="&#xd0;" horiz-adv-x="755" d="M-2 0l90 647h-55l22 156h56l88 631h299q149 0 195 -61.5t26 -194.5l-129 -922q-20 -137 -80.5 -196.5t-206.5 -59.5h-305zM248 209h71q44 0 50 45l129 922q8 49 -39 49h-68l-59 -422h57l-22 -156h-58z" />
<glyph unicode="&#xd1;" horiz-adv-x="790" d="M-12 0l200 1434h224l73 -904q21 310 70 652l35 252h211l-201 -1434h-217l-78 922q-36 -413 -78 -715l-28 -207h-211zM276 1552q15 112 47 158.5t117 46.5q34 0 60 -10.5t39.5 -23t32 -23t38.5 -10.5q36 0 43 49h117q-15 -109 -48.5 -157t-115.5 -48q-34 0 -61 10.5 t-40.5 23.5t-32 23.5t-38.5 10.5q-34 0 -41 -50h-117z" />
<glyph unicode="&#xd2;" d="M19 138q-9 48 1 104l134 948q8 59 27.5 105t55.5 83t94.5 56.5t137.5 19.5q152 0 205.5 -70t36.5 -194l-133 -948q-16 -123 -89.5 -192.5t-226.5 -69.5q-79 0 -132 20t-77.5 55t-33.5 83zM242 244q-9 -66 49 -66q56 0 65 66l133 948q10 63 -47 63t-67 -63zM340 1812h199 l2 -276h-123z" />
<glyph unicode="&#xd3;" d="M19 138q-9 48 1 104l134 948q8 59 27.5 105t55.5 83t94.5 56.5t137.5 19.5q152 0 205.5 -70t36.5 -194l-133 -948q-16 -123 -89.5 -192.5t-226.5 -69.5q-79 0 -132 20t-77.5 55t-33.5 83zM242 244q-9 -66 49 -66q56 0 65 66l133 948q10 63 -47 63t-67 -63zM422 1536 l80 276h198l-155 -276h-123z" />
<glyph unicode="&#xd4;" d="M19 138q-9 48 1 104l134 948q8 59 27.5 105t55.5 83t94.5 56.5t137.5 19.5q152 0 205.5 -70t36.5 -194l-133 -948q-16 -123 -89.5 -192.5t-226.5 -69.5q-79 0 -132 20t-77.5 55t-33.5 83zM242 244q-9 -66 49 -66q56 0 65 66l133 948q10 63 -47 63t-67 -63zM285 1536 l149 276h168l74 -276h-148l-34 100l-64 -100h-145z" />
<glyph unicode="&#xd5;" d="M19 138q-9 48 1 104l134 948q8 59 27.5 105t55.5 83t94.5 56.5t137.5 19.5q152 0 205.5 -70t36.5 -194l-133 -948q-16 -123 -89.5 -192.5t-226.5 -69.5q-79 0 -132 20t-77.5 55t-33.5 83zM242 244q-9 -66 49 -66q56 0 65 66l133 948q10 63 -47 63t-67 -63zM248 1552 q15 112 47 158.5t117 46.5q34 0 60 -10.5t39.5 -23t32 -23t38.5 -10.5q36 0 43 49h116q-15 -110 -48.5 -157.5t-114.5 -47.5q-34 0 -61 10.5t-40.5 23.5t-32 23.5t-38.5 10.5q-34 0 -41 -50h-117z" />
<glyph unicode="&#xd6;" d="M19 138q-9 48 1 104l134 948q8 59 27.5 105t55.5 83t94.5 56.5t137.5 19.5q152 0 205.5 -70t36.5 -194l-133 -948q-16 -123 -89.5 -192.5t-226.5 -69.5q-79 0 -132 20t-77.5 55t-33.5 83zM242 244q-9 -66 49 -66q56 0 65 66l133 948q10 63 -47 63t-67 -63zM276 1536 l31 217h172l-30 -217h-173zM510 1536l31 217h172l-31 -217h-172z" />
<glyph unicode="&#xd7;" horiz-adv-x="751" d="M41 389l209 184l-158 183l119 104l158 -184l209 184l88 -104l-209 -183l157 -184l-118 -102l-156 182l-211 -182z" />
<glyph unicode="&#xd8;" d="M12 -61l41 114q-50 63 -33 189l134 948q8 59 27.5 105t55.5 83t94.5 56.5t137.5 19.5q40 0 74 -6l16 47h160l-41 -115q50 -63 33 -190l-133 -948q-16 -123 -89.5 -192.5t-226.5 -69.5q-44 0 -74 6l-16 -47h-160zM242 244q-9 -66 49 -66q56 0 65 66l133 948q10 63 -47 63 t-67 -63z" />
<glyph unicode="&#xd9;" horiz-adv-x="755" d="M29.5 134.5q-8.5 47.5 1.5 103.5l168 1196h221l-168 -1194q-9 -62 49 -62q57 0 66 62l168 1194h221l-168 -1196q-16 -122 -89.5 -190t-226.5 -68q-79 0 -132 19t-77.5 53.5t-33 82zM344 1812h199l2 -276h-123z" />
<glyph unicode="&#xda;" horiz-adv-x="755" d="M29.5 134.5q-8.5 47.5 1.5 103.5l168 1196h221l-168 -1194q-9 -62 49 -62q57 0 66 62l168 1194h221l-168 -1196q-16 -122 -89.5 -190t-226.5 -68q-79 0 -132 19t-77.5 53.5t-33 82zM432 1536l80 276h199l-156 -276h-123z" />
<glyph unicode="&#xdb;" horiz-adv-x="755" d="M29.5 134.5q-8.5 47.5 1.5 103.5l168 1196h221l-168 -1194q-9 -62 49 -62q57 0 66 62l168 1194h221l-168 -1196q-16 -122 -89.5 -190t-226.5 -68q-79 0 -132 19t-77.5 53.5t-33 82zM295 1536l149 276h168l74 -276h-147l-35 100l-64 -100h-145z" />
<glyph unicode="&#xdc;" horiz-adv-x="755" d="M29.5 134.5q-8.5 47.5 1.5 103.5l168 1196h221l-168 -1194q-9 -62 49 -62q57 0 66 62l168 1194h221l-168 -1196q-16 -122 -89.5 -190t-226.5 -68q-79 0 -132 19t-77.5 53.5t-33 82zM287 1536l30 217h172l-30 -217h-172zM520 1536l31 217h172l-31 -217h-172z" />
<glyph unicode="&#xdd;" horiz-adv-x="636" d="M106 0l74 526l-53 908h231l-22 -576l141 576h232l-308 -908l-73 -526h-222zM371 1536l80 276h198l-155 -276h-123z" />
<glyph unicode="&#xde;" horiz-adv-x="722" d="M-2 0l201 1434h221l-41 -289h92q138 0 180 -61t25 -183l-49 -352q-18 -126 -78.5 -184t-200.5 -58h-86l-43 -307h-221zM291 512h71q44 0 50 45l45 330q8 49 -39 49h-68z" />
<glyph unicode="&#xdf;" horiz-adv-x="684" d="M-23 0l170 1217q8 61 25 104.5t50 80t89 55t135 18.5t129.5 -19t72 -53.5t28 -82t-3.5 -103.5l-33 -234q-18 -118 -119 -164q103 -44 84 -164l-57 -417q-20 -136 -81.5 -197t-211.5 -61q-15 0 -35 4l29 198q12 -4 31 -4q28 0 41 14.5t18 47.5l59 426q6 47 -39 47h-32 l28 205h25q47 0 53 45l35 254q7 59 -49 59q-29 0 -46 -16t-20 -43l-170 -1217h-205z" />
<glyph unicode="&#xe0;" horiz-adv-x="649" d="M-12 221l20 156q14 106 93 169.5t251 123.5l21 139q8 55 -37 55q-41 0 -49 -55l-11 -80h-204l10 86q33 229 280 229q251 0 220 -237l-113 -807h-117l-28 49q-31 -37 -68 -53t-98 -16q-106 0 -146.5 59t-23.5 182zM197 221q-8 -61 34 -61q31 0 43 14t17 47l41 293 q-41 -24 -57.5 -35.5t-33.5 -37t-22 -60.5zM238 1403h198l2 -277h-123z" />
<glyph unicode="&#xe1;" horiz-adv-x="649" d="M-12 221l20 156q14 106 93 169.5t251 123.5l21 139q8 55 -37 55q-41 0 -49 -55l-11 -80h-204l10 86q33 229 280 229q251 0 220 -237l-113 -807h-117l-28 49q-31 -37 -68 -53t-98 -16q-106 0 -146.5 59t-23.5 182zM197 221q-8 -61 34 -61q31 0 43 14t17 47l41 293 q-41 -24 -57.5 -35.5t-33.5 -37t-22 -60.5zM301 1126l80 277h199l-156 -277h-123z" />
<glyph unicode="&#xe2;" horiz-adv-x="649" d="M-12 221l20 156q14 106 93 169.5t251 123.5l21 139q8 55 -37 55q-41 0 -49 -55l-11 -80h-204l10 86q33 229 280 229q251 0 220 -237l-113 -807h-117l-28 49q-31 -37 -68 -53t-98 -16q-106 0 -146.5 59t-23.5 182zM184 1130l150 277h168l73 -277h-147l-35 101l-63 -101 h-146zM197 221q-8 -61 34 -61q31 0 43 14t17 47l41 293q-41 -24 -57.5 -35.5t-33.5 -37t-22 -60.5z" />
<glyph unicode="&#xe4;" horiz-adv-x="649" d="M-12 221l20 156q14 106 93 169.5t251 123.5l21 139q8 55 -37 55q-41 0 -49 -55l-11 -80h-204l10 86q33 229 280 229q251 0 220 -237l-113 -807h-117l-28 49q-31 -37 -68 -53t-98 -16q-106 0 -146.5 59t-23.5 182zM176 1130l31 218h172l-31 -218h-172zM197 221 q-8 -61 34 -61q31 0 43 14t17 47l41 293q-41 -24 -57.5 -35.5t-33.5 -37t-22 -60.5zM410 1130l30 218h172l-30 -218h-172z" />
<glyph unicode="&#xe5;" horiz-adv-x="649" d="M-12 221l20 156q14 106 93 169.5t251 123.5l21 139q8 55 -37 55q-41 0 -49 -55l-11 -80h-204l10 86q33 229 280 229q251 0 220 -237l-113 -807h-117l-28 49q-31 -37 -68 -53t-98 -16q-106 0 -146.5 59t-23.5 182zM197 221q-8 -61 34 -61q31 0 43 14t17 47l41 293 q-41 -24 -57.5 -35.5t-33.5 -37t-22 -60.5zM246 1260q23 159 174 159q154 0 131 -159q-23 -158 -176 -158q-152 0 -129 158zM365 1260q-6 -48 26 -48q35 0 41 48q6 49 -29 49q-32 0 -38 -49z" />
<glyph unicode="&#xe6;" horiz-adv-x="944" d="M-15.5 126q-6.5 45 3.5 99l20 152q14 106 93 169.5t251 123.5l21 139q8 55 -39 55q-43 0 -51 -55l-11 -80h-204l10 86q33 229 282 229q96 0 146 -38q56 38 158 38q71 0 118 -18t68 -50t27 -76.5t-3 -98.5l-45 -322h-292l-37 -264q-7 -55 39 -55q19 0 35 12.5t20 42.5 l22 158h199l-20 -148q-8 -58 -24.5 -99.5t-47.5 -76t-83.5 -52t-125.5 -17.5q-99 0 -149 38q-62 -38 -162 -38q-73 0 -121 18t-69.5 50.5t-28 77.5zM197 221q-8 -61 34 -61q31 0 43 14t17 47l41 293q-41 -24 -57.5 -35.5t-33.5 -37t-22 -60.5zM559 635h94l25 174 q7 55 -39 55q-48 0 -55 -55z" />
<glyph unicode="&#xe7;" horiz-adv-x="653" d="M8 221l82 584q16 116 82.5 177.5t206.5 61.5q138 0 185.5 -61.5t31.5 -177.5l-18 -133h-203l18 137q7 55 -39 55q-48 0 -55 -55l-84 -594q-7 -55 39 -55q19 0 35 12.5t20 42.5l23 158h203l-21 -152q-15 -109 -70.5 -170t-175.5 -69l-22 -62q113 -21 96 -127 q-8 -68 -51.5 -104.5t-145.5 -36.5h-118l49 125h59q40 0 43 28q3 15 -5 22t-30 7h-41l62 150q-103 13 -137 73.5t-19 163.5z" />
<glyph unicode="&#xe8;" horiz-adv-x="663" d="M5.5 126q-7.5 45 2.5 99l80 576q16 116 83.5 179.5t207.5 63.5q138 0 184.5 -63t30.5 -180l-45 -322h-297l-37 -264q-7 -55 39 -55q19 0 35 12.5t20 42.5l23 158h203l-21 -148q-8 -57 -25 -99t-49 -76.5t-85 -52t-126 -17.5q-74 0 -123 18t-71 50.5t-29.5 77.5zM258 1403 h199l2 -277h-123zM274 635h95l24 174q7 55 -39 55q-48 0 -55 -55z" />
<glyph unicode="&#xe9;" horiz-adv-x="663" d="M5.5 126q-7.5 45 2.5 99l80 576q16 116 83.5 179.5t207.5 63.5q138 0 184.5 -63t30.5 -180l-45 -322h-297l-37 -264q-7 -55 39 -55q19 0 35 12.5t20 42.5l23 158h203l-21 -148q-8 -57 -25 -99t-49 -76.5t-85 -52t-126 -17.5q-74 0 -123 18t-71 50.5t-29.5 77.5zM274 635 h95l24 174q7 55 -39 55q-48 0 -55 -55zM322 1126l79 277h199l-156 -277h-122z" />
<glyph unicode="&#xea;" horiz-adv-x="663" d="M5.5 126q-7.5 45 2.5 99l80 576q16 116 83.5 179.5t207.5 63.5q138 0 184.5 -63t30.5 -180l-45 -322h-297l-37 -264q-7 -55 39 -55q19 0 35 12.5t20 42.5l23 158h203l-21 -148q-8 -57 -25 -99t-49 -76.5t-85 -52t-126 -17.5q-74 0 -123 18t-71 50.5t-29.5 77.5zM190 1130 l150 277h168l74 -277h-148l-35 101l-63 -101h-146zM274 635h95l24 174q7 55 -39 55q-48 0 -55 -55z" />
<glyph unicode="&#xeb;" horiz-adv-x="663" d="M5.5 126q-7.5 45 2.5 99l80 576q16 116 83.5 179.5t207.5 63.5q138 0 184.5 -63t30.5 -180l-45 -322h-297l-37 -264q-7 -55 39 -55q19 0 35 12.5t20 42.5l23 158h203l-21 -148q-8 -57 -25 -99t-49 -76.5t-85 -52t-126 -17.5q-74 0 -123 18t-71 50.5t-29.5 77.5zM184 1130 l31 218h172l-31 -218h-172zM274 635h95l24 174q7 55 -39 55q-48 0 -55 -55zM418 1130l31 218h172l-31 -218h-172z" />
<glyph unicode="&#xec;" horiz-adv-x="366" d="M-23 0l144 1024h209l-144 -1024h-209zM94 1403h199l2 -277h-123z" />
<glyph unicode="&#xed;" horiz-adv-x="366" d="M-23 0l144 1024h209l-144 -1024h-209zM182 1126l80 277h199l-156 -277h-123z" />
<glyph unicode="&#xee;" horiz-adv-x="366" d="M-23 0l144 1024h209l-144 -1024h-209zM43 1130l150 277h167l74 -277h-147l-35 101l-64 -101h-145z" />
<glyph unicode="&#xef;" horiz-adv-x="366" d="M-23 0l144 1024h209l-144 -1024h-209zM37 1130l31 218h172l-31 -218h-172zM270 1130l31 218h172l-31 -218h-172z" />
<glyph unicode="&#xf0;" horiz-adv-x="720" d="M33 233l53 385q16 117 71 178.5t160 61.5q64 0 109 -29q14 135 -4 248l-98 -41l-39 129l102 41q-40 107 -125 228h225q51 -74 86 -152l109 45l39 -129l-103 -41q41 -166 7 -409l-72 -515q-18 -123 -89.5 -188t-207.5 -65t-188.5 65t-34.5 188zM242 233q-11 -59 41 -59 q51 0 61 59l51 375q10 60 -45 60q-50 0 -57 -60z" />
<glyph unicode="&#xf1;" horiz-adv-x="690" d="M-12 0l143 1024h117l26 -49q66 69 179 69q105 0 141 -56t18 -181l-112 -807h-209l112 809q7 55 -38 55q-50 0 -56 -55l-112 -809h-209zM168 1143q15 112 47 158.5t117 46.5q34 0 60 -10.5t39.5 -23.5t32 -23.5t38.5 -10.5q36 0 43 49h117q-16 -110 -49.5 -157.5 t-114.5 -47.5q-34 0 -61 10.5t-40.5 23.5t-32 23.5t-38.5 10.5q-34 0 -41 -49h-117z" />
<glyph unicode="&#xf2;" horiz-adv-x="669" d="M6 123q-7 44 2 98l82 584q16 116 82.5 177.5t206.5 61.5t189.5 -62t33.5 -177l-82 -584q-16 -117 -82 -179t-209 -62q-74 0 -123 17.5t-71 49.5t-29 76zM215 215q-7 -55 39 -55q48 0 55 55l84 594q7 55 -39 55q-48 0 -55 -55zM244 1403h198l2 -277h-122z" />
<glyph unicode="&#xf3;" horiz-adv-x="669" d="M6 123q-7 44 2 98l82 584q16 116 82.5 177.5t206.5 61.5t189.5 -62t33.5 -177l-82 -584q-16 -117 -82 -179t-209 -62q-74 0 -123 17.5t-71 49.5t-29 76zM215 215q-7 -55 39 -55q48 0 55 55l84 594q7 55 -39 55q-48 0 -55 -55zM326 1126l80 277h198l-155 -277h-123z" />
<glyph unicode="&#xf4;" horiz-adv-x="669" d="M6 123q-7 44 2 98l82 584q16 116 82.5 177.5t206.5 61.5t189.5 -62t33.5 -177l-82 -584q-16 -117 -82 -179t-209 -62q-74 0 -123 17.5t-71 49.5t-29 76zM195 1130l149 277h168l74 -277h-148l-35 101l-63 -101h-145zM215 215q-7 -55 39 -55q48 0 55 55l84 594q7 55 -39 55 q-48 0 -55 -55z" />
<glyph unicode="&#xf5;" horiz-adv-x="669" d="M6 123q-7 44 2 98l82 584q16 116 82.5 177.5t206.5 61.5t189.5 -62t33.5 -177l-82 -584q-16 -117 -82 -179t-209 -62q-74 0 -123 17.5t-71 49.5t-29 76zM158 1143q15 112 47 158.5t117 46.5q34 0 60 -10.5t39.5 -23.5t32 -23.5t38.5 -10.5q36 0 43 49h116 q-16 -110 -49.5 -157.5t-114.5 -47.5q-34 0 -61 10.5t-40.5 23.5t-32 23.5t-38.5 10.5q-34 0 -41 -49h-116zM215 215q-7 -55 39 -55q48 0 55 55l84 594q7 55 -39 55q-48 0 -55 -55z" />
<glyph unicode="&#xf6;" horiz-adv-x="669" d="M6 123q-7 44 2 98l82 584q16 116 82.5 177.5t206.5 61.5t189.5 -62t33.5 -177l-82 -584q-16 -117 -82 -179t-209 -62q-74 0 -123 17.5t-71 49.5t-29 76zM186 1130l31 218h172l-31 -218h-172zM215 215q-7 -55 39 -55q48 0 55 55l84 594q7 55 -39 55q-48 0 -55 -55z M420 1130l31 218h172l-31 -218h-172z" />
<glyph unicode="&#xf7;" horiz-adv-x="772" d="M57 496l21 155h594l-21 -155h-594zM221 213l29 205h184l-28 -205h-185zM295 729l29 205h184l-29 -205h-184z" />
<glyph unicode="&#xf8;" horiz-adv-x="669" d="M-20 -61l49 114q-38 56 -21 168l82 584q16 116 82.5 177.5t206.5 61.5q40 0 70 -6l20 47h160l-51 -116q37 -56 24 -164l-82 -584q-16 -117 -82 -179t-209 -62q-25 0 -71 4l-19 -45h-159zM215 215q-7 -55 39 -55q48 0 55 55l84 594q7 55 -39 55q-48 0 -55 -55z" />
<glyph unicode="&#xf9;" horiz-adv-x="690" d="M16 217l115 807h209l-115 -809q-7 -55 39 -55q49 0 55 55l115 809h209l-143 -1024h-117l-29 49q-54 -69 -174 -69q-106 0 -143.5 56t-20.5 181zM274 1403h199l2 -277h-123z" />
<glyph unicode="&#xfa;" horiz-adv-x="690" d="M16 217l115 807h209l-115 -809q-7 -55 39 -55q49 0 55 55l115 809h209l-143 -1024h-117l-29 49q-54 -69 -174 -69q-106 0 -143.5 56t-20.5 181zM330 1126l80 277h198l-155 -277h-123z" />
<glyph unicode="&#xfb;" horiz-adv-x="690" d="M16 217l115 807h209l-115 -809q-7 -55 39 -55q49 0 55 55l115 809h209l-143 -1024h-117l-29 49q-54 -69 -174 -69q-106 0 -143.5 56t-20.5 181zM205 1130l149 277h168l74 -277h-147l-35 101l-64 -101h-145z" />
<glyph unicode="&#xfc;" horiz-adv-x="690" d="M16 217l115 807h209l-115 -809q-7 -55 39 -55q49 0 55 55l115 809h209l-143 -1024h-117l-29 49q-54 -69 -174 -69q-106 0 -143.5 56t-20.5 181zM197 1130l30 218h172l-30 -218h-172zM430 1130l31 218h172l-31 -218h-172z" />
<glyph unicode="&#xfd;" horiz-adv-x="612" d="M-121 -332l23 182q50 -16 90 -16q31 0 52 19.5t34 66.5l24 80l-32 1024h215l-33 -676l160 676h215l-342 -1108q-45 -146 -114.5 -205t-201.5 -59q-58 0 -90 16zM297 1126l80 277h198l-155 -277h-123z" />
<glyph unicode="&#xfe;" horiz-adv-x="690" d="M-59 -328l249 1782h209l-63 -450q50 40 117 40q108 0 142.5 -55t16.5 -180l-84 -594q-18 -125 -68 -180t-157 -55q-67 0 -104 40l-49 -348h-209zM225 213q-6 -53 39 -53q49 0 55 57l84 590q9 57 -38 57t-56 -53z" />
<glyph unicode="&#xff;" horiz-adv-x="612" d="M-121 -332l23 182q50 -16 90 -16q31 0 52 19.5t34 66.5l24 80l-32 1024h215l-33 -676l160 676h215l-342 -1108q-45 -146 -114.5 -205t-201.5 -59q-58 0 -90 16zM158 1130l30 218h172l-30 -218h-172zM391 1130l31 218h172l-31 -218h-172z" />
<glyph unicode="&#x152;" horiz-adv-x="925" d="M19 138q-9 48 1 104l134 948q8 59 27.5 105t55.5 83t94.5 56.5t137.5 19.5q67 0 119 -20h389l-29 -209h-231l-58 -398h203l-28 -204h-203l-58 -414h232l-29 -209h-387q-58 -20 -127 -20q-79 0 -132 20t-77.5 55t-33.5 83zM242 244q-9 -66 49 -66q56 0 65 66l133 948 q10 63 -47 63t-67 -63z" />
<glyph unicode="&#x153;" horiz-adv-x="966" d="M6 123q-7 44 2 98l82 584q16 116 82.5 177.5t206.5 61.5q94 0 147 -32q62 32 156 32q138 0 184.5 -63t30.5 -180l-45 -322h-297l-37 -264q-7 -55 39 -55q19 0 35 12.5t20 42.5l21 137h203l-19 -127q-8 -57 -25 -99t-49 -76.5t-85 -52t-126 -17.5q-89 0 -147 30 q-62 -30 -156 -30q-74 0 -123 17.5t-71 49.5t-29 76zM215 215q-7 -55 39 -55q48 0 55 55l84 594q7 55 -39 55q-48 0 -55 -55zM578 635h94l24 174q7 55 -39 55q-48 0 -55 -55z" />
<glyph unicode="&#x178;" horiz-adv-x="636" d="M106 0l74 526l-53 908h231l-22 -576l141 576h232l-308 -908l-73 -526h-222zM227 1536l31 217h172l-31 -217h-172zM461 1536l31 217h172l-31 -217h-172z" />
<glyph unicode="&#x2000;" horiz-adv-x="917" />
<glyph unicode="&#x2001;" horiz-adv-x="1835" />
<glyph unicode="&#x2002;" horiz-adv-x="917" />
<glyph unicode="&#x2003;" horiz-adv-x="1835" />
<glyph unicode="&#x2004;" horiz-adv-x="611" />
<glyph unicode="&#x2005;" horiz-adv-x="458" />
<glyph unicode="&#x2006;" horiz-adv-x="305" />
<glyph unicode="&#x2007;" horiz-adv-x="305" />
<glyph unicode="&#x2008;" horiz-adv-x="229" />
<glyph unicode="&#x2009;" horiz-adv-x="367" />
<glyph unicode="&#x200a;" horiz-adv-x="101" />
<glyph unicode="&#x2010;" horiz-adv-x="485" d="M37 496l20 155h349l-21 -155h-348z" />
<glyph unicode="&#x2011;" horiz-adv-x="485" d="M37 496l20 155h349l-21 -155h-348z" />
<glyph unicode="&#x2012;" horiz-adv-x="485" d="M37 496l20 155h349l-21 -155h-348z" />
<glyph unicode="&#x2013;" horiz-adv-x="690" d="M37 496l20 155h553l-20 -155h-553z" />
<glyph unicode="&#x2014;" horiz-adv-x="1017" d="M39 520l16 107h881l-16 -107h-881z" />
<glyph unicode="&#x2018;" horiz-adv-x="348" d="M166 1454h215l-64 -461h-122z" />
<glyph unicode="&#x2019;" horiz-adv-x="342" d="M106 993l64 461h215l-156 -461h-123z" />
<glyph unicode="&#x201a;" horiz-adv-x="389" d="M-45 -221l65 461h216l-158 -461h-123z" />
<glyph unicode="&#x201c;" horiz-adv-x="598" d="M170 1454h215l-63 -461h-123zM416 1454h215l-64 -461h-123z" />
<glyph unicode="&#x201d;" horiz-adv-x="598" d="M106 993l64 461h215l-156 -461h-123zM352 993l64 461h215l-156 -461h-123z" />
<glyph unicode="&#x201e;" horiz-adv-x="630" d="M-49 -221l65 461h215l-157 -461h-123zM197 -221l65 461h215l-158 -461h-122z" />
<glyph unicode="&#x2022;" horiz-adv-x="485" d="M47 580q11 72 69 123t130 51t115.5 -51t33.5 -123q-9 -72 -67.5 -123t-130.5 -51t-115.5 51t-34.5 123z" />
<glyph unicode="&#x202f;" horiz-adv-x="367" />
<glyph unicode="&#x2039;" horiz-adv-x="546" d="M39 512l268 379h195l-262 -379l155 -379h-194z" />
<glyph unicode="&#x203a;" horiz-adv-x="546" d="M-14 133l262 379l-156 379h195l162 -379l-269 -379h-194z" />
<glyph unicode="&#x205f;" horiz-adv-x="458" />
<glyph unicode="&#x20ac;" horiz-adv-x="798" d="M53 565l17 111h67l13 94h-68l16 111h68l43 311q19 124 91 193t224 69q79 0 132 -20t77 -55t32 -83t-3 -104l-27 -188h-217l27 188q5 28 -7 45.5t-40 17.5t-45.5 -17.5t-22.5 -45.5l-43 -311h180l-43 -111h-153l-13 -94h134l-39 -111h-111l-45 -321q-9 -66 49 -66 q57 0 66 66l28 207h217l-28 -209q-17 -124 -88 -193t-224 -69q-152 0 -205 69t-36 193l45 323h-68z" />
<glyph unicode="&#x2122;" horiz-adv-x="681" d="M150 1370l8 64h204l-8 -64h-69l-49 -346h-64l49 346h-71zM360 1024l58 410h67l39 -220l101 220h67l-57 -410h-62l37 262l-86 -188h-32l-33 188l-37 -262h-62z" />
<glyph unicode="&#xe000;" horiz-adv-x="1024" d="M0 0v1024h1024v-1024h-1024z" />
</font>
</defs>
</svg>
