<?xml version="1.0" standalone="no"?>
<!DOCTYPE svg PUBLIC "-//W3C//DTD SVG 1.1//EN" "http://www.w3.org/Graphics/SVG/1.1/DTD/svg11.dtd" >
<svg xmlns="http://www.w3.org/2000/svg">
<metadata></metadata>
<defs>
<font id="heroic_condensedbold" horiz-adv-x="714" >
<font-face units-per-em="2048" ascent="1638" descent="-410" />
<missing-glyph horiz-adv-x="348" />
<glyph horiz-adv-x="2048" />
<glyph horiz-adv-x="2048" />
<glyph unicode="&#xd;" horiz-adv-x="2048" />
<glyph unicode=" "  horiz-adv-x="348" />
<glyph unicode="&#x09;" horiz-adv-x="348" />
<glyph unicode="&#xa0;" horiz-adv-x="348" />
<glyph unicode="!" horiz-adv-x="409" d="M92 1434h225l-47 -973h-131zM106 0v207h195v-207h-195z" />
<glyph unicode="&#x22;" horiz-adv-x="587" d="M72 1454h196l-41 -446h-116zM319 1454h197l-39 -446h-117z" />
<glyph unicode="#" horiz-adv-x="698" d="M70 598v102h104l19 340h-103v103h109l16 291h115l-17 -291h103l16 291h115l-17 -291h101v-103h-107l-18 -340h104v-102h-110l-15 -291h-114l14 291h-102l-15 -291h-114l14 291h-98zM289 700h102l19 340h-103z" />
<glyph unicode="$" horiz-adv-x="686" d="M102 444v127h177v-129q0 -80 65 -80q64 0 64 80v84q0 46 -17 81t-44 58t-59.5 43t-65 44t-59.5 53.5t-44 78.5t-17 113v35q0 211 187 236v166h114v-166q98 -13 139.5 -74t41.5 -164v-104h-176v108q0 82 -64 82q-65 0 -65 -82v-39q0 -44 17 -78t43.5 -56.5t59 -43 t65.5 -44.5t59.5 -53t43.5 -76.5t17 -108.5v-91q0 -102 -42 -161.5t-139 -73.5v-209h-114v209q-101 11 -144 71t-43 164z" />
<glyph unicode="%" horiz-adv-x="929" d="M94 1065v199q0 98 38.5 145t131.5 47t131.5 -47t38.5 -145v-199q0 -98 -38.5 -144.5t-131.5 -46.5t-131.5 46.5t-38.5 144.5zM109 0l593 1434h121l-594 -1434h-120zM215 1063q0 -40 10.5 -57t38.5 -17t38.5 17t10.5 57v203q0 40 -10.5 57.5t-38.5 17.5t-38.5 -17.5 t-10.5 -57.5v-203zM498 170v199q0 98 38 144t132 46t132 -46t38 -144v-199q0 -98 -38.5 -145.5t-131.5 -47.5t-131.5 47.5t-38.5 145.5zM618 168q0 -40 11 -58t39 -18t38.5 18t10.5 58v203q0 40 -10.5 56.5t-38.5 16.5t-39 -17t-11 -56v-203z" />
<glyph unicode="&#x26;" horiz-adv-x="811" d="M117 229v314q0 131 96 184q-92 49 -92 184v287q0 60 12 104t40 79.5t80.5 54t127.5 18.5q142 0 200 -66.5t58 -189.5v-174h-186v174q0 84 -72 84q-74 0 -74 -84v-311q0 -76 70 -76h356v-174h-92v-377q0 -80 90 -80v-180q-123 0 -178 55q-51 -73 -178 -73 q-136 0 -197 62.5t-61 184.5zM307 240q0 -88 72 -88t72 86v399h-74q-43 0 -56.5 -25t-13.5 -73v-299z" />
<glyph unicode="'" horiz-adv-x="339" d="M72 1454h196l-39 -446h-116z" />
<glyph unicode="(" horiz-adv-x="530" d="M102 715q0 386 189 780h137q-170 -402 -170 -780t170 -776h-137q-189 390 -189 776z" />
<glyph unicode=")" horiz-adv-x="530" d="M102 -61q170 398 170 776t-170 780h138q188 -392 188 -780t-188 -776h-138z" />
<glyph unicode="*" horiz-adv-x="761" d="M82 1174l51 161q91 -54 225 -139l-63 258h172l-64 -258l226 139l51 -161q-43 -4 -264 -21q31 -27 100.5 -84.5t101.5 -85.5l-139 -100q-17 43 -51 126t-47 117l-98 -243l-140 100q23 19 66 54.5t77 63.5t60 52q-221 17 -264 21z" />
<glyph unicode="+" horiz-adv-x="798" d="M102 506v135h230v229h135v-229h229v-135h-229v-230h-135v230h-230z" />
<glyph unicode="," horiz-adv-x="387" d="M102 -180v387h193l-82 -387h-111z" />
<glyph unicode="-" horiz-adv-x="512" d="M82 506v135h348v-135h-348z" />
<glyph unicode="." horiz-adv-x="389" d="M102 0v207h185v-207h-185z" />
<glyph unicode="/" horiz-adv-x="589" d="M61 -61l328 1556h139l-327 -1556h-140z" />
<glyph unicode="0" d="M92 236v962q0 121 60 188.5t206 67.5t205.5 -67.5t59.5 -188.5v-962q0 -123 -59.5 -189.5t-205.5 -66.5t-206 66.5t-60 189.5zM283 236q0 -86 75 -86q74 0 74 86v962q0 84 -74 84q-75 0 -75 -84v-962z" />
<glyph unicode="1" horiz-adv-x="583" d="M72 0v180h125v987h-121v131q78 0 115.5 39t37.5 97h158v-1254h125v-180h-440z" />
<glyph unicode="2" horiz-adv-x="684" d="M82 1034v170q0 119 58.5 184.5t201.5 65.5t203.5 -66t60.5 -184v-162q0 -88 -18 -160.5t-47.5 -122t-64.5 -93.5t-70 -87t-64.5 -90.5t-47.5 -115t-18 -150.5v-43h336v-180h-526v205q0 103 18 187.5t47.5 140.5t64.5 103.5t70 89t64.5 84t47.5 100.5t18 128v166 q0 35 -18.5 56.5t-55.5 21.5q-72 0 -72 -78v-170h-188z" />
<glyph unicode="3" horiz-adv-x="686" d="M82 233v187h186v-184q0 -86 74 -86q39 0 55.5 22t16.5 64v329q0 72 -66 72h-82v176h82q64 0 64 70v321q0 78 -70 78q-72 0 -72 -78v-170h-186v170q0 119 57.5 184.5t200.5 65.5t199.5 -65t56.5 -185v-303q0 -128 -98 -174q104 -47 104 -172v-322q0 -121 -58 -187 t-204 -66q-145 0 -202.5 65.5t-57.5 187.5z" />
<glyph unicode="4" horiz-adv-x="684" d="M41 293v194l240 947h262v-967h90v-174h-90v-293h-181v293h-321zM195 467h167v262q0 376 3 514z" />
<glyph unicode="5" horiz-adv-x="692" d="M82 233v187h188v-184q0 -86 74 -86q76 0 76 86v413q0 70 -70 70q-61 0 -100 -51h-154l37 766h457v-183h-289l-18 -405q52 31 112 31q114 0 164.5 -55.5t50.5 -176.5v-412q0 -120 -60 -186.5t-206 -66.5t-204 66t-58 187z" />
<glyph unicode="6" horiz-adv-x="724" d="M102 236v962q0 256 265 256q264 0 264 -256v-164h-189v164q0 84 -73 84q-76 0 -76 -84v-399q53 39 125 39q215 0 215 -238v-364q0 -256 -266 -256q-140 0 -202.5 66.5t-62.5 189.5zM293 258q0 -25 2 -41.5t9 -33.5t23 -25t40 -8q46 0 60.5 28t14.5 80v342q0 34 -20 57 t-55 23q-36 0 -55 -22t-19 -58v-342z" />
<glyph unicode="7" horiz-adv-x="573" d="M41 1251v183h491v-150q-100 -360 -127.5 -587.5t-27.5 -696.5h-209q0 357 42.5 658.5t141.5 592.5h-311z" />
<glyph unicode="8" d="M92 233v322q0 122 107 172q-99 47 -99 174v303q0 119 57.5 184.5t200.5 65.5t200.5 -65.5t57.5 -184.5v-303q0 -127 -100 -174q107 -49 107 -172v-322q0 -121 -59.5 -187t-205.5 -66t-206 66.5t-60 186.5zM283 233q0 -83 75 -83q74 0 74 83v328q0 84 -74 84 q-75 0 -75 -84v-328zM287 883q0 -78 71 -78q72 0 72 78v321q0 78 -72 78q-71 0 -71 -78v-321z" />
<glyph unicode="9" horiz-adv-x="724" d="M92 236v184h191v-187q0 -83 73 -83q76 0 76 83v422q-48 -39 -125 -39q-112 0 -163.5 59.5t-51.5 176.5v344q0 258 266 258q265 0 265 -258v-960q0 -123 -62.5 -189.5t-202.5 -66.5q-266 0 -266 256zM283 854q0 -35 19.5 -57.5t55.5 -22.5t55 21.5t19 56.5v324 q0 52 -15 79t-59 27q-45 0 -60 -26.5t-15 -79.5v-322z" />
<glyph unicode=":" horiz-adv-x="389" d="M102 0v207h185v-207h-185zM102 621v206h185v-206h-185z" />
<glyph unicode=";" horiz-adv-x="397" d="M102 -180v387h193l-82 -387h-111zM102 621v206h185v-206h-185z" />
<glyph unicode="&#x3c;" horiz-adv-x="641" d="M82 717l328 778h149l-328 -778l328 -778h-149z" />
<glyph unicode="=" horiz-adv-x="737" d="M102 350v135h533v-135h-533zM102 662v135h533v-135h-533z" />
<glyph unicode="&#x3e;" horiz-adv-x="641" d="M82 -61l328 778l-328 778h149l328 -778l-328 -778h-149z" />
<glyph unicode="?" horiz-adv-x="700" d="M92 1055v147q0 122 59.5 187t198.5 65t198.5 -65t59.5 -187v-133q0 -96 -18 -157t-44 -94.5t-53.5 -68.5t-49.5 -106.5t-27 -181.5h-129q-8 68 -8 131q0 82 14.5 140t34.5 90.5t40.5 62t35 74t14.5 106.5v133q0 41 -15 62.5t-53 21.5q-67 0 -67 -84v-143h-191zM254 0v207 h195v-207h-195z" />
<glyph unicode="@" horiz-adv-x="1073" d="M96 254v514q0 85 13 155t44.5 131.5t81 103.5t126 66.5t176.5 24.5q99 0 175 -24.5t125.5 -66.5t80.5 -103.5t44 -131.5t13 -155v-514q0 -84 -12.5 -152.5t-43 -130.5t-79.5 -104.5t-125.5 -67t-177.5 -24.5t-178.5 24.5t-126.5 67t-80 104.5t-43.5 130.5t-12.5 152.5z M221 254q0 -63 7.5 -113.5t29 -98t56 -79t91 -50.5t132.5 -19q75 0 131.5 19t91 50.5t55.5 79t29 98t8 113.5v514q0 63 -7.5 113.5t-28.5 98.5t-55.5 80t-91 51t-132.5 19t-133 -19t-91.5 -51t-55.5 -80t-28.5 -98t-7.5 -114v-514zM344 258v152q0 99 48.5 149.5t193.5 93.5 v115q0 61 -51 61q-52 0 -52 -61v-55h-131v57q0 89 41.5 135.5t141.5 46.5q104 0 144 -46.5t40 -137.5v-670h-86l-27 35q-35 -55 -106 -55q-84 0 -120 44.5t-36 135.5zM477 281q0 -84 55 -84q54 0 54 63v289q-60 -23 -84.5 -54.5t-24.5 -84.5v-129z" />
<glyph unicode="A" horiz-adv-x="679" d="M41 0l178 1434h242l178 -1434h-193l-26 295h-160l-27 -295h-192zM279 471h122q-33 318 -61 729q-8 -103 -30 -350.5t-31 -378.5z" />
<glyph unicode="B" horiz-adv-x="747" d="M113 0v1434h278q142 0 194 -54t52 -172v-307q0 -127 -90 -174q98 -46 98 -178v-305q0 -121 -51.5 -182.5t-190.5 -61.5h-290zM303 180h86q36 0 51 16.5t15 51.5v313q0 76 -70 76h-82v-457zM303 813h80q41 0 54.5 24.5t13.5 77.5v244q0 50 -13 71t-53 21h-82v-438z" />
<glyph unicode="C" horiz-adv-x="700" d="M92 236v960q0 123 60 190.5t206 67.5q142 0 201 -67.5t59 -190.5v-172h-186v172q0 86 -74 86q-75 0 -75 -86v-958q0 -88 75 -88q74 0 74 88v192h186v-194q0 -121 -59 -188.5t-201 -67.5q-146 0 -206 67.5t-60 188.5z" />
<glyph unicode="D" horiz-adv-x="747" d="M113 0v1434h278q144 0 199 -63t55 -189v-930q0 -129 -53.5 -190.5t-196.5 -61.5h-282zM303 180h84q37 0 52.5 17.5t15.5 52.5v930q0 37 -16 54t-54 17h-82v-1071z" />
<glyph unicode="E" horiz-adv-x="630" d="M113 0v1434h436v-183h-246v-438h213v-176h-213v-457h246v-180h-436z" />
<glyph unicode="F" horiz-adv-x="610" d="M113 0v1434h426v-183h-236v-438h203v-176h-203v-637h-190z" />
<glyph unicode="G" d="M92 236v960q0 123 59 190.5t205 67.5q145 0 205 -67.5t60 -190.5v-172h-189v174q0 84 -76 84q-73 0 -73 -84v-960q0 -88 73 -88q76 0 76 88v399h-76v176h267v-577q0 -121 -60.5 -188.5t-206.5 -67.5t-205 67.5t-59 188.5z" />
<glyph unicode="H" horiz-adv-x="759" d="M113 0v1434h190v-621h154v621h190v-1434h-190v637h-154v-637h-190z" />
<glyph unicode="I" horiz-adv-x="415" d="M113 0v1434h190v-1434h-190z" />
<glyph unicode="J" horiz-adv-x="677" d="M51 233v197h189v-194q0 -86 67 -86q38 0 53 21.5t15 64.5v1198h190v-1201q0 -122 -57.5 -187.5t-198.5 -65.5q-139 0 -198.5 66.5t-59.5 186.5z" />
<glyph unicode="K" horiz-adv-x="718" d="M113 0v1434h190l-4 -639l168 639h209l-223 -711l235 -723h-207l-182 653l4 -653h-190z" />
<glyph unicode="L" horiz-adv-x="540" d="M113 0v1434h190v-1254h197v-180h-387z" />
<glyph unicode="M" horiz-adv-x="1015" d="M113 0v1434h233l162 -1049l162 1049h233v-1434h-176v295l23 809l-179 -1104h-127l-178 1104l23 -809v-295h-176z" />
<glyph unicode="N" horiz-adv-x="802" d="M113 0v1434h182l240 -992q-17 244 -17 537v455h172v-1434h-180l-242 989q17 -286 17 -536v-453h-172z" />
<glyph unicode="O" d="M92 236v960q0 121 60 189.5t206 68.5q145 0 205 -68.5t60 -189.5v-960q0 -121 -59.5 -188.5t-205.5 -67.5t-206 67.5t-60 188.5zM283 238q0 -88 75 -88q74 0 74 88v958q0 86 -74 86q-75 0 -75 -86v-958z" />
<glyph unicode="P" horiz-adv-x="712" d="M113 0v1434h284q139 0 191.5 -62.5t52.5 -183.5v-340q0 -120 -58 -182t-190 -62h-90v-604h-190zM303 780h82q37 0 52.5 17.5t15.5 54.5v328q0 37 -16 54t-54 17h-80v-471z" />
<glyph unicode="Q" d="M92 236v960q0 123 60 190.5t206 67.5t205.5 -67.5t59.5 -190.5v-960q0 -224 -193 -250q3 -34 21.5 -49t56.5 -15h63l-28 -110h-37q-112 0 -165 42t-58 132q-104 16 -147.5 80.5t-43.5 169.5zM283 238q0 -88 75 -88q74 0 74 88v958q0 86 -74 86q-75 0 -75 -86v-958z" />
<glyph unicode="R" horiz-adv-x="735" d="M113 0v1434h286q72 0 120.5 -17t74.5 -51.5t36.5 -76.5t10.5 -101v-342q0 -97 -28.5 -153.5t-102.5 -78.5q47 -136 205 -614h-207q-27 94 -86.5 296.5t-89.5 309.5h-29v-606h-190zM303 780h82q37 0 52.5 17.5t15.5 54.5v328q0 37 -16 54t-54 17h-80v-471z" />
<glyph unicode="S" horiz-adv-x="692" d="M82 233v197h190v-194q0 -86 74 -86t74 86v159q0 80 -18.5 138.5t-48.5 93.5t-66 64t-72 59t-66 68t-48.5 103t-18.5 152v125q0 256 264 256t264 -256v-174h-190v174q0 84 -74 84t-74 -84v-119q0 -69 18.5 -118.5t48.5 -79.5t66 -56.5t72 -59t66 -75.5t48.5 -117 t18.5 -174v-166q0 -119 -61 -186t-203 -67t-203 67t-61 186z" />
<glyph unicode="T" horiz-adv-x="593" d="M41 1251v183h512v-183h-162v-1251h-190v1251h-160z" />
<glyph unicode="U" horiz-adv-x="735" d="M102 233v1201h191v-1198q0 -86 76 -86q73 0 73 86v1198h191v-1201q0 -253 -264 -253q-146 0 -206.5 66.5t-60.5 186.5z" />
<glyph unicode="V" horiz-adv-x="675" d="M41 1434h195l55 -592q6 -83 47 -545q6 83 47 545l53 592h197l-184 -1434h-228q-141 1104 -182 1434z" />
<glyph unicode="W" horiz-adv-x="1126" d="M61 1434h193l86 -1100l123 1100h201l122 -1100l86 1100h193l-160 -1434h-231l-111 1079l-110 -1079h-230q-89 798 -162 1434z" />
<glyph unicode="X" horiz-adv-x="671" d="M31 0l202 743l-188 691h205l86 -445l86 445h205l-191 -691q160 -585 205 -743h-205l-100 500q-11 -50 -100 -500h-205z" />
<glyph unicode="Y" horiz-adv-x="624" d="M31 1434h200l80 -598l82 598h201l-186 -881v-553h-191v553z" />
<glyph unicode="Z" horiz-adv-x="628" d="M82 1251v183h465v-123l-254 -1131h264v-180h-471v123l254 1128h-258z" />
<glyph unicode="[" horiz-adv-x="544" d="M143 -246v1741h299v-135h-143v-1471h143v-135h-299z" />
<glyph unicode="\" horiz-adv-x="589" d="M61 1495h140l327 -1556h-139z" />
<glyph unicode="]" horiz-adv-x="544" d="M102 -111h146v1471h-146v135h299v-1741h-299v135z" />
<glyph unicode="a" horiz-adv-x="647" d="M72 219v148q0 110 70 175.5t243 125.5v141q0 80 -63 80q-62 0 -62 -82v-55h-178v59q0 233 240 233q132 0 187.5 -62t55.5 -173v-809h-104l-35 51q-24 -37 -58.5 -54t-91.5 -17q-106 0 -155 59t-49 180zM252 246q0 -21 0.5 -31t3.5 -28.5t9.5 -27.5t19.5 -16.5t32 -7.5 q39 0 53.5 21t14.5 63v313q-75 -34 -104 -67.5t-29 -95.5v-123z" />
<glyph unicode="b" horiz-adv-x="667" d="M92 0v1454h180v-461q20 23 53 37t66 14q107 0 151 -56.5t44 -180.5v-588q0 -123 -46.5 -181t-152.5 -58q-110 0 -154 71l-36 -51h-105zM272 215q0 -80 68 -80q66 0 66 80v592q0 82 -66 82q-68 0 -68 -80v-594z" />
<glyph unicode="c" horiz-adv-x="653" d="M82 219v586q0 115 56.5 177t191.5 62q133 0 187 -61.5t54 -177.5v-123h-176v125q0 82 -65 82q-68 0 -68 -82v-592q0 -80 68 -80q65 0 65 80v147h176v-143q0 -117 -52.5 -178t-188.5 -61q-138 0 -193 61t-55 178z" />
<glyph unicode="d" horiz-adv-x="667" d="M82 217v592q0 124 43 179.5t149 55.5q33 0 67 -14t54 -37v461h180v-1454h-104l-37 51q-44 -71 -155 -71q-106 0 -151.5 57t-45.5 180zM262 215q0 -80 66 -80q67 0 67 80v594q0 80 -67 80q-66 0 -66 -82v-592z" />
<glyph unicode="e" horiz-adv-x="653" d="M82 221v582q0 116 56.5 178.5t191.5 62.5q133 0 187 -62.5t54 -178.5v-314h-309v-274q0 -80 68 -80q65 0 65 80v137h176v-131q0 -118 -52.5 -179.5t-188.5 -61.5q-138 0 -193 62t-55 179zM262 625h133v182q0 82 -65 82q-68 0 -68 -82v-182z" />
<glyph unicode="f" horiz-adv-x="499" d="M41 864v160h92v207q0 124 54 184t194 60q37 0 88 -15v-157q-37 16 -82 16q-40 0 -57 -22t-17 -66v-207h133v-160h-133v-864h-180v864h-92z" />
<glyph unicode="g" horiz-adv-x="659" d="M61 -109q0 143 111 199q-51 26 -51 82q0 59 57 82q-98 50 -98 209v340q0 116 55.5 178.5t190.5 62.5q54 0 98 -12q42 123 147 123q34 0 58 -8v-137q-34 12 -70 12q-38 0 -63 -25q77 -60 77 -194v-340q0 -115 -56 -176.5t-191 -61.5q-72 0 -72 -53t68 -53q148 0 210 -58.5 t62 -169.5v-10q0 -103 -63 -166t-203 -63t-203.5 61.5t-63.5 167.5v10zM236 -88v-8q0 -46 24 -70t68 -24q92 0 92 94v8q0 90 -92 90t-92 -90zM260 471q0 -59 14 -84t52 -25t52.5 24.5t14.5 84.5v309q0 58 -15 83.5t-52 25.5q-38 0 -52 -25t-14 -84v-309z" />
<glyph unicode="h" horiz-adv-x="677" d="M92 0v1454h180v-461q20 23 52.5 37t66.5 14q107 0 151 -56.5t44 -180.5v-807h-180v807q0 82 -68 82q-66 0 -66 -80v-809h-180z" />
<glyph unicode="i" horiz-adv-x="364" d="M92 0v1024h180v-1024h-180zM92 1153v207h180v-207h-180z" />
<glyph unicode="j" horiz-adv-x="364" d="M-63 -176q39 -17 79 -17q76 0 76 89v1128h180v-1128q0 -124 -54.5 -184t-192.5 -60q-41 0 -88 14v158zM92 1153v207h180v-207h-180z" />
<glyph unicode="k" horiz-adv-x="647" d="M92 0v1454h180v-860l138 430h196l-184 -496l205 -528h-199l-156 453v-453h-180z" />
<glyph unicode="l" horiz-adv-x="364" d="M92 0v1454h180v-1454h-180z" />
<glyph unicode="m" horiz-adv-x="987" d="M92 0v1024h103l36 -53q55 73 160 73q104 0 152 -67q57 67 157 67q105 0 150 -57t45 -176v-811h-180v809q0 80 -64 80q-67 0 -67 -80v-809h-181v809q0 80 -63 80q-68 0 -68 -80v-809h-180z" />
<glyph unicode="n" horiz-adv-x="677" d="M92 0v1024h105l36 -53q54 73 158 73q105 0 150 -56.5t45 -180.5v-807h-180v807q0 82 -66 82q-68 0 -68 -82v-807h-180z" />
<glyph unicode="o" horiz-adv-x="657" d="M82 219v586q0 115 56.5 177t191.5 62t190 -61.5t55 -177.5v-586q0 -117 -54.5 -178t-190.5 -61q-138 0 -193 61t-55 178zM262 215q0 -80 68 -80q65 0 65 80v592q0 82 -65 82q-68 0 -68 -82v-592z" />
<glyph unicode="p" horiz-adv-x="667" d="M92 -328v1352h105l36 -53q45 73 154 73q105 0 152 -59.5t47 -179.5v-590q0 -124 -44.5 -179.5t-150.5 -55.5q-33 0 -66 14t-53 37v-359h-180zM272 215q0 -80 68 -80q66 0 66 82v590q0 82 -66 82q-68 0 -68 -82v-592z" />
<glyph unicode="q" horiz-adv-x="667" d="M82 215v590q0 123 46.5 181t152.5 58q108 0 153 -73l37 53h104v-1352h-180v359q-20 -23 -53 -37t-66 -14q-106 0 -150 56t-44 179zM262 217q0 -82 66 -82q67 0 67 80v592q0 82 -67 82q-66 0 -66 -82v-590z" />
<glyph unicode="r" horiz-adv-x="460" d="M92 0v1024h113l35 -51q32 43 72 63.5t108 20.5v-191q-12 2 -33 2q-115 0 -115 -135v-733h-180z" />
<glyph unicode="s" horiz-adv-x="624" d="M72 217v127h176v-129q0 -80 63 -80q33 0 49.5 18t16.5 62v80q0 46 -17 81t-43.5 58t-59.5 44t-65.5 45.5t-59 55t-43.5 80t-17 113.5v33q0 117 55 178t184 61q131 0 186.5 -61.5t55.5 -177.5v-107h-176v109q0 39 -17.5 60.5t-48.5 21.5q-63 0 -63 -80v-39q0 -45 17 -80 t43.5 -58t59 -44.5t65.5 -45.5t59.5 -54t43.5 -78t17 -109v-84q0 -117 -55 -177t-187 -60t-185.5 60t-53.5 177z" />
<glyph unicode="t" horiz-adv-x="512" d="M31 864v160h102v262l180 49v-311h148v-160h-148v-647q0 -43 16 -62.5t52 -19.5q33 0 80 17v-154q-41 -18 -90 -18q-135 0 -186.5 58t-51.5 179v647h-102z" />
<glyph unicode="u" horiz-adv-x="677" d="M92 217v807h180v-809q0 -80 68 -80q66 0 66 80v809h180v-1024h-103l-37 51q-44 -71 -155 -71q-106 0 -152.5 57t-46.5 180z" />
<glyph unicode="v" horiz-adv-x="591" d="M20 1024h187l88 -780l90 780h186l-176 -1024h-200z" />
<glyph unicode="w" horiz-adv-x="1009" d="M51 1024h185l77 -788l99 788h184l98 -788l80 788h184l-153 -1024h-211l-90 737l-88 -737h-213z" />
<glyph unicode="x" horiz-adv-x="612" d="M20 0l195 516l-184 508h186l88 -317l88 317h189l-189 -508l199 -516h-189l-98 324l-98 -324h-187z" />
<glyph unicode="y" horiz-adv-x="602" d="M31 -176q44 -14 90 -14q73 0 86 96l14 94l-184 1024h186l86 -713l86 713h187l-197 -1122q-25 -137 -83 -193.5t-181 -56.5q-58 0 -90 14v158z" />
<glyph unicode="z" horiz-adv-x="557" d="M72 0v117l225 743h-219v164h411v-119l-223 -741h230v-164h-424z" />
<glyph unicode="{" horiz-adv-x="555" d="M92 557v135h72q48 0 69 19.5t21 58.5q0 78 -16 152.5t-36 124.5t-36 118t-16 135q0 102 64 148.5t196 46.5h53v-135h-51q-58 0 -80.5 -20.5t-22.5 -75.5q0 -77 37 -235.5t37 -248.5q0 -121 -76 -155q76 -42 76 -158q0 -90 -37 -248t-37 -235q0 -55 22.5 -75t80.5 -20h51 v-135h-53q-132 0 -196 46.5t-64 148.5q0 67 16 135t36 117t36 123.5t16 152.5q0 41 -21 60.5t-69 19.5h-72z" />
<glyph unicode="|" horiz-adv-x="425" d="M143 -246v1741h140v-1741h-140z" />
<glyph unicode="}" horiz-adv-x="555" d="M92 -111h53q58 0 79.5 20t21.5 75q0 77 -37 235t-37 248q0 116 76 158q-76 34 -76 155q0 90 37 248.5t37 235.5q0 55 -22 75.5t-79 20.5h-53v135h55q131 0 195 -46.5t64 -148.5q0 -67 -16.5 -135t-36 -118t-36 -124.5t-16.5 -152.5q0 -40 21 -59t71 -19h70v-135h-70 q-50 0 -71 -19.5t-21 -60.5q0 -78 16.5 -152.5t36 -123.5t36 -117t16.5 -135q0 -102 -64 -148.5t-195 -46.5h-55v135z" />
<glyph unicode="&#xa1;" horiz-adv-x="409" d="M92 -410l47 973h131l47 -973h-225zM106 817v207h195v-207h-195z" />
<glyph unicode="&#xa2;" horiz-adv-x="694" d="M102 444v586q0 102 44 162.5t147 73.5v168h113v-168q102 -13 144 -73t42 -163v-123h-176v125q0 82 -66 82q-67 0 -67 -82v-592q0 -80 67 -80q66 0 66 80v148h176v-144q0 -104 -41.5 -164t-144.5 -73v-207h-113v207q-105 13 -148 73t-43 164z" />
<glyph unicode="&#xa3;" horiz-adv-x="786" d="M82 672v104h90v424q0 58 13 102t42 79.5t81.5 54t127.5 18.5q134 0 196 -68t62 -186v-156h-186v156q0 82 -72 82q-74 0 -74 -82v-424h146v-104h-146v-412q0 -80 84 -80h248v-180h-252q-126 0 -180 74q-51 -74 -178 -74v180q88 0 88 80v412h-90z" />
<glyph unicode="&#xa4;" horiz-adv-x="741" d="M82 0l90 332q-49 54 -49 172v469q0 110 49 170l-78 291h174l54 -224q28 4 49 4q19 0 47 -4l55 224h174l-80 -291q49 -60 49 -170v-469q0 -117 -47 -172l90 -332h-174l-63 264q-32 -4 -51 -4q-22 0 -54 4l-61 -264h-174zM303 498q0 -82 68 -82q65 0 65 82v479q0 82 -65 82 q-68 0 -68 -82v-479z" />
<glyph unicode="&#xa5;" horiz-adv-x="722" d="M82 1434h201l77 -619l80 619h201l-184 -883h147v-100h-147v-113h147v-100h-147v-238h-191v238h-143v100h143v113h-143v100h143z" />
<glyph unicode="&#xa6;" horiz-adv-x="425" d="M143 -246v774h140v-774h-140zM143 721v774h140v-774h-140z" />
<glyph unicode="&#xa7;" horiz-adv-x="698" d="M92 41h191v-135q0 -40 13.5 -61t51.5 -21q68 0 68 82v78q0 63 -18 105.5t-46.5 64.5t-63 39.5t-69 41t-63 58t-46.5 100.5t-18 160v82q0 155 94 221q-94 90 -94 270v70q0 122 57 190t199 68t200 -68t58 -190v-131h-190v135q0 82 -68 82q-38 0 -51.5 -21.5t-13.5 -60.5 v-78q0 -64 18 -107t46.5 -65t62.5 -39t68.5 -40t63 -57.5t46.5 -101t18 -161.5v-82q0 -155 -94 -221q94 -90 94 -268v-70q0 -122 -58 -190t-200 -68t-199 68t-57 190v131zM283 565q0 -160 92 -225q41 38 41 117v80q0 156 -94 223q-39 -36 -39 -115v-80z" />
<glyph unicode="&#xa9;" horiz-adv-x="1091" d="M102 459v514q0 107 22 190.5t71.5 151t138.5 103.5t213 36t212 -36t137 -103.5t71 -151t22 -190.5v-514q0 -106 -21 -188t-69.5 -150t-137 -104.5t-214.5 -36.5q-102 0 -180 24.5t-127.5 67t-81 104.5t-44 130.5t-12.5 152.5zM227 459q0 -80 13.5 -140.5t47 -113.5 t99 -81t160.5 -28q76 0 133.5 19.5t92.5 51.5t56 80t29 98.5t8 113.5v514q0 81 -13.5 141t-46.5 112.5t-98.5 80.5t-160.5 28t-160.5 -28t-99 -80.5t-47 -113t-13.5 -140.5v-514zM365 465v502q0 91 40 138.5t144 47.5q101 0 141.5 -47t40.5 -137v-111h-129v117q0 61 -53 61 q-27 0 -39 -14t-12 -47v-518q0 -62 51 -62q53 0 53 64v137h129v-133q0 -90 -40.5 -137t-141.5 -47q-104 0 -144 47.5t-40 138.5z" />
<glyph unicode="&#xaa;" horiz-adv-x="581" d="M102 762v151q0 99 49 149.5t193 94.5v113q0 61 -51 61t-51 -61v-53h-133v55q0 89 41.5 135.5t142.5 46.5q104 0 145 -47t41 -137v-668h-88l-26 35q-32 -55 -107 -55q-84 0 -120 44.5t-36 135.5zM119 385v109h360v-109h-360zM238 784q0 -42 12 -63t43 -21q51 0 51 64v289 q-59 -23 -82.5 -55t-23.5 -85v-129z" />
<glyph unicode="&#xab;" horiz-adv-x="849" d="M82 512l217 379h170l-211 -379l211 -379h-170zM381 512l215 379h172l-211 -379l211 -379h-172z" />
<glyph unicode="&#xac;" horiz-adv-x="737" d="M102 610v135h533v-344h-133v209h-400z" />
<glyph unicode="&#xad;" horiz-adv-x="512" d="M82 506v135h348v-135h-348z" />
<glyph unicode="&#xae;" horiz-adv-x="1091" d="M102 459v514q0 107 22 190.5t71.5 151t138.5 103.5t213 36t212 -36t137 -103.5t71 -151t22 -190.5v-514q0 -106 -21 -188t-69.5 -150t-137 -104.5t-214.5 -36.5q-102 0 -180 24.5t-127.5 67t-81 104.5t-44 130.5t-12.5 152.5zM227 459q0 -80 13.5 -140.5t47 -113.5 t99 -81t160.5 -28q76 0 133.5 19.5t92.5 51.5t56 80t29 98.5t8 113.5v514q0 81 -13.5 141t-46.5 112.5t-98.5 80.5t-160.5 28t-160.5 -28t-99 -80.5t-47 -113t-13.5 -140.5v-514zM365 295v848h194q98 0 135 -45t37 -131v-164q0 -134 -92 -158l141 -350h-135l-129 340h-20 v-340h-131zM496 752h59q27 0 38 12t11 39v162q0 26 -10.5 38.5t-38.5 12.5h-59v-264z" />
<glyph unicode="&#xb0;" horiz-adv-x="524" d="M82 1233q0 108 39 164.5t141 56.5t141 -56.5t39 -164.5t-39 -164.5t-141 -56.5t-141 56.5t-39 164.5zM197 1233q0 -57 13.5 -86t51.5 -29q39 0 53.5 29.5t14.5 85.5q0 55 -14.5 84t-53.5 29q-38 0 -51.5 -28.5t-13.5 -84.5z" />
<glyph unicode="&#xb1;" horiz-adv-x="798" d="M102 184v135h594v-135h-594zM102 625v135h230v229h135v-229h229v-135h-229v-230h-135v230h-230z" />
<glyph unicode="&#xb6;" horiz-adv-x="786" d="M92 633v553q0 121 53.5 184.5t192.5 63.5h326v-1762h-191v717h-131q-139 0 -194.5 62t-55.5 182z" />
<glyph unicode="&#xb7;" horiz-adv-x="389" d="M102 469v207h185v-207h-185z" />
<glyph unicode="&#xba;" horiz-adv-x="575" d="M102 764v506q0 90 41.5 137t143.5 47q103 0 144.5 -47t41.5 -137v-506q0 -90 -41.5 -137t-144.5 -47q-102 0 -143.5 47t-41.5 137zM106 385v109h361v-109h-361zM236 764q0 -62 51 -62t51 62v506q0 61 -51 61t-51 -61v-506z" />
<glyph unicode="&#xbb;" horiz-adv-x="849" d="M82 133l211 379l-211 379h172l215 -379l-215 -379h-172zM381 133l211 379l-211 379h170l217 -379l-217 -379h-170z" />
<glyph unicode="&#xbe;" horiz-adv-x="485" d="M102 682v68h281v-68h-281zM119 121v82q53 199 102 399h111v-407h37v-74h-37v-121h-80v121h-133zM133 1266v71q0 105 111 105q59 0 82.5 -27.5t23.5 -77.5v-129q0 -54 -41 -71q43 -18 43 -72v-135q0 -52 -23.5 -79.5t-84.5 -27.5t-85 28t-24 79v78h78v-78q0 -35 31 -35 q16 0 22 8.5t6 26.5v139q0 31 -26 31h-35v74h35q26 0 26 28v135q0 33 -28 33q-31 0 -31 -33v-71h-80zM184 195h68v122q0 41 4 197z" />
<glyph unicode="&#xbf;" horiz-adv-x="700" d="M92 -45q0 96 18 156.5t44.5 93.5t53.5 68t49.5 107t27.5 183h129q8 -106 8 -135q0 -81 -14.5 -139t-35 -90t-40.5 -61t-34.5 -73t-14.5 -106v-133q0 -84 67 -84q68 0 68 84v143h190v-147q0 -122 -59 -187t-199 -65q-139 0 -198.5 65t-59.5 187v133zM254 817v207h195v-207 h-195z" />
<glyph unicode="&#xc0;" horiz-adv-x="679" d="M41 0l178 1434h242l178 -1434h-193l-26 295h-160l-27 -295h-192zM164 1806h172l53 -270h-104zM279 471h122q-33 318 -61 729q-8 -103 -30 -350.5t-31 -378.5z" />
<glyph unicode="&#xc1;" horiz-adv-x="679" d="M41 0l178 1434h242l178 -1434h-193l-26 295h-160l-27 -295h-192zM279 471h122q-33 318 -61 729q-8 -103 -30 -350.5t-31 -378.5zM283 1536l53 270h172l-121 -270h-104z" />
<glyph unicode="&#xc2;" horiz-adv-x="679" d="M41 0l178 1434h242l178 -1434h-193l-26 295h-160l-27 -295h-192zM160 1536l104 266h148l106 -266h-121l-59 119l-57 -119h-121zM279 471h122q-33 318 -61 729q-8 -103 -30 -350.5t-31 -378.5z" />
<glyph unicode="&#xc4;" horiz-adv-x="679" d="M41 0l178 1434h242l178 -1434h-193l-26 295h-160l-27 -295h-192zM145 1536v199h158v-199h-158zM279 471h122q-33 318 -61 729q-8 -103 -30 -350.5t-31 -378.5zM375 1536v199h157v-199h-157z" />
<glyph unicode="&#xc5;" horiz-adv-x="679" d="M41 0l178 1434h242l178 -1434h-193l-26 295h-160l-27 -295h-192zM193 1679q0 158 145 158q147 0 147 -158q0 -157 -147 -157q-145 0 -145 157zM279 471h122q-33 318 -61 729q-8 -103 -30 -350.5t-31 -378.5zM299 1679q0 -61 39 -61q41 0 41 61q0 62 -41 62q-39 0 -39 -62 z" />
<glyph unicode="&#xc6;" horiz-adv-x="983" d="M41 0l305 1434h555v-183h-242v-438h211v-176h-211v-457h242v-180h-432v295h-176l-55 -295h-197zM326 471h143v780q-24 -126 -71 -390t-72 -390z" />
<glyph unicode="&#xc7;" horiz-adv-x="700" d="M92 236v960q0 123 60 190.5t206 67.5q142 0 201 -67.5t59 -190.5v-172h-186v172q0 86 -74 86q-75 0 -75 -86v-958q0 -88 75 -88q74 0 74 88v192h186v-194q0 -114 -52.5 -180.5t-176.5 -73.5l-14 -60q119 -21 119 -131q0 -67 -40.5 -103t-140.5 -36h-108l28 108h62 q55 0 55 41q0 21 -12.5 30t-44.5 9h-35l39 144q-112 14 -158.5 79.5t-46.5 172.5z" />
<glyph unicode="&#xc8;" horiz-adv-x="630" d="M113 0v1434h436v-183h-246v-438h213v-176h-213v-457h246v-180h-436zM160 1806h172l53 -270h-104z" />
<glyph unicode="&#xc9;" horiz-adv-x="630" d="M113 0v1434h436v-183h-246v-438h213v-176h-213v-457h246v-180h-436zM274 1536l54 270h172l-121 -270h-105z" />
<glyph unicode="&#xca;" horiz-adv-x="630" d="M113 0v1434h436v-183h-246v-438h213v-176h-213v-457h246v-180h-436zM145 1536l105 266h147l107 -266h-121l-59 119l-58 -119h-121z" />
<glyph unicode="&#xcb;" horiz-adv-x="630" d="M113 0v1434h436v-183h-246v-438h213v-176h-213v-457h246v-180h-436zM129 1536v199h158v-199h-158zM358 1536v199h158v-199h-158z" />
<glyph unicode="&#xcc;" horiz-adv-x="415" d="M35 1806h172l53 -270h-104zM113 0v1434h190v-1434h-190z" />
<glyph unicode="&#xcd;" horiz-adv-x="415" d="M113 0v1434h190v-1434h-190zM150 1536l53 270h172l-121 -270h-104z" />
<glyph unicode="&#xce;" horiz-adv-x="415" d="M29 1536l104 266h148l106 -266h-121l-59 119l-57 -119h-121zM113 0v1434h190v-1434h-190z" />
<glyph unicode="&#xcf;" horiz-adv-x="415" d="M14 1536v199h158v-199h-158zM113 0v1434h190v-1434h-190zM244 1536v199h157v-199h-157z" />
<glyph unicode="&#xd0;" horiz-adv-x="747" d="M41 657v136h72v641h278q144 0 199 -63t55 -189v-930q0 -129 -53.5 -190.5t-196.5 -61.5h-282v657h-72zM303 180h84q37 0 52.5 17.5t15.5 52.5v930q0 37 -16 54t-54 17h-82v-458h76v-136h-76v-477z" />
<glyph unicode="&#xd1;" horiz-adv-x="802" d="M113 0v1434h182l240 -992q-17 244 -17 537v455h172v-1434h-180l-242 989q17 -286 17 -536v-453h-172zM168 1556q0 103 27 148t108 45q43 0 75 -18.5t57 -37t52 -18.5q43 0 43 54h105q0 -101 -28.5 -147t-106.5 -46q-43 0 -75.5 18.5t-57.5 37t-52 18.5q-43 0 -43 -54 h-104z" />
<glyph unicode="&#xd2;" d="M92 236v960q0 121 60 189.5t206 68.5q145 0 205 -68.5t60 -189.5v-960q0 -121 -59.5 -188.5t-205.5 -67.5t-206 67.5t-60 188.5zM180 1806h172l54 -270h-105zM283 238q0 -88 75 -88q74 0 74 88v958q0 86 -74 86q-75 0 -75 -86v-958z" />
<glyph unicode="&#xd3;" d="M92 236v960q0 121 60 189.5t206 68.5q145 0 205 -68.5t60 -189.5v-960q0 -121 -59.5 -188.5t-205.5 -67.5t-206 67.5t-60 188.5zM283 238q0 -88 75 -88q74 0 74 88v958q0 86 -74 86q-75 0 -75 -86v-958zM299 1536l53 270h172l-121 -270h-104z" />
<glyph unicode="&#xd4;" d="M92 236v960q0 121 60 189.5t206 68.5q145 0 205 -68.5t60 -189.5v-960q0 -121 -59.5 -188.5t-205.5 -67.5t-206 67.5t-60 188.5zM178 1536l105 266h147l107 -266h-121l-60 119l-57 -119h-121zM283 238q0 -88 75 -88q74 0 74 88v958q0 86 -74 86q-75 0 -75 -86v-958z" />
<glyph unicode="&#xd5;" d="M92 236v960q0 121 60 189.5t206 68.5q145 0 205 -68.5t60 -189.5v-960q0 -121 -59.5 -188.5t-205.5 -67.5t-206 67.5t-60 188.5zM123 1556q0 103 27 148t108 45q43 0 75 -18.5t57 -37t52 -18.5q43 0 43 54h105q0 -101 -28.5 -147t-106.5 -46q-34 0 -62.5 11.5t-44 25.5 t-36 25.5t-42.5 11.5q-43 0 -43 -54h-104zM283 238q0 -88 75 -88q74 0 74 88v958q0 86 -74 86q-75 0 -75 -86v-958z" />
<glyph unicode="&#xd6;" d="M92 236v960q0 121 60 189.5t206 68.5q145 0 205 -68.5t60 -189.5v-960q0 -121 -59.5 -188.5t-205.5 -67.5t-206 67.5t-60 188.5zM164 1536v199h158v-199h-158zM283 238q0 -88 75 -88q74 0 74 88v958q0 86 -74 86q-75 0 -75 -86v-958zM393 1536v199h158v-199h-158z" />
<glyph unicode="&#xd7;" horiz-adv-x="763" d="M102 383l189 190l-189 189l91 90l190 -188l188 188l91 -90l-189 -189l189 -190l-91 -90l-188 188l-190 -188z" />
<glyph unicode="&#xd8;" d="M92 236v960q0 121 60 189.5t206 68.5q32 0 82 -8l11 49h139l-25 -113q58 -63 58 -186v-960q0 -121 -59.5 -188.5t-205.5 -67.5q-36 0 -86 8l-10 -49h-139l22 114q-53 61 -53 183zM283 238q0 -88 75 -88q74 0 74 88v958q0 86 -74 86q-75 0 -75 -86v-958z" />
<glyph unicode="&#xd9;" horiz-adv-x="735" d="M102 233v1201h191v-1198q0 -86 76 -86q73 0 73 86v1198h191v-1201q0 -253 -264 -253q-146 0 -206.5 66.5t-60.5 186.5zM193 1806h172l53 -270h-105z" />
<glyph unicode="&#xda;" horiz-adv-x="735" d="M102 233v1201h191v-1198q0 -86 76 -86q73 0 73 86v1198h191v-1201q0 -253 -264 -253q-146 0 -206.5 66.5t-60.5 186.5zM315 1536l54 270h172l-121 -270h-105z" />
<glyph unicode="&#xdb;" horiz-adv-x="735" d="M102 233v1201h191v-1198q0 -86 76 -86q73 0 73 86v1198h191v-1201q0 -253 -264 -253q-146 0 -206.5 66.5t-60.5 186.5zM188 1536l105 266h147l107 -266h-121l-59 119l-58 -119h-121z" />
<glyph unicode="&#xdc;" horiz-adv-x="735" d="M102 233v1201h191v-1198q0 -86 76 -86q73 0 73 86v1198h191v-1201q0 -253 -264 -253q-146 0 -206.5 66.5t-60.5 186.5zM174 1536v199h158v-199h-158zM403 1536v199h158v-199h-158z" />
<glyph unicode="&#xdd;" horiz-adv-x="624" d="M31 1434h200l80 -598l82 598h201l-186 -881v-553h-191v553zM260 1536l53 270h172l-120 -270h-105z" />
<glyph unicode="&#xde;" horiz-adv-x="712" d="M113 0v1434h190v-289h94q139 0 191.5 -62.5t52.5 -183.5v-340q0 -123 -54.5 -183.5t-193.5 -60.5h-90v-315h-190zM303 492h82q37 0 52.5 17t15.5 54v328q0 37 -16 54.5t-54 17.5h-80v-471z" />
<glyph unicode="&#xdf;" horiz-adv-x="686" d="M92 0v1227q0 119 55.5 183.5t194.5 64.5t194.5 -64.5t55.5 -183.5v-236q0 -70 -23.5 -109t-76.5 -63q58 -24 86 -65t28 -109v-414q0 -63 -10 -106.5t-36.5 -77.5t-75.5 -50.5t-124 -16.5q-14 0 -38 4v163q16 -4 34 -4q41 0 55.5 20t14.5 64v441q0 31 -20.5 50t-55.5 19 h-20v156h16q68 0 68 70v260q0 38 -18 62t-54 24t-53 -24t-17 -62v-1223h-180z" />
<glyph unicode="&#xe0;" horiz-adv-x="647" d="M72 219v148q0 110 70 175.5t243 125.5v141q0 80 -63 80q-62 0 -62 -82v-55h-178v59q0 233 240 233q132 0 187.5 -62t55.5 -173v-809h-104l-35 51q-24 -37 -58.5 -54t-91.5 -17q-106 0 -155 59t-49 180zM201 1397h172l53 -271h-111zM252 246q0 -21 0.5 -31t3.5 -28.5 t9.5 -27.5t19.5 -16.5t32 -7.5q39 0 53.5 21t14.5 63v313q-75 -34 -104 -67.5t-29 -95.5v-123z" />
<glyph unicode="&#xe1;" horiz-adv-x="647" d="M72 219v148q0 110 70 175.5t243 125.5v141q0 80 -63 80q-62 0 -62 -82v-55h-178v59q0 233 240 233q132 0 187.5 -62t55.5 -173v-809h-104l-35 51q-24 -37 -58.5 -54t-91.5 -17q-106 0 -155 59t-49 180zM252 246q0 -21 0.5 -31t3.5 -28.5t9.5 -27.5t19.5 -16.5t32 -7.5 q39 0 53.5 21t14.5 63v313q-75 -34 -104 -67.5t-29 -95.5v-123zM256 1126l53 271h172l-114 -271h-111z" />
<glyph unicode="&#xe2;" horiz-adv-x="647" d="M72 219v148q0 110 70 175.5t243 125.5v141q0 80 -63 80q-62 0 -62 -82v-55h-178v59q0 233 240 233q132 0 187.5 -62t55.5 -173v-809h-104l-35 51q-24 -37 -58.5 -54t-91.5 -17q-106 0 -155 59t-49 180zM145 1126l105 267h147l107 -267h-121l-59 119l-58 -119h-121z M252 246q0 -21 0.5 -31t3.5 -28.5t9.5 -27.5t19.5 -16.5t32 -7.5q39 0 53.5 21t14.5 63v313q-75 -34 -104 -67.5t-29 -95.5v-123z" />
<glyph unicode="&#xe4;" horiz-adv-x="647" d="M72 219v148q0 110 70 175.5t243 125.5v141q0 80 -63 80q-62 0 -62 -82v-55h-178v59q0 233 240 233q132 0 187.5 -62t55.5 -173v-809h-104l-35 51q-24 -37 -58.5 -54t-91.5 -17q-106 0 -155 59t-49 180zM131 1145v198h158v-198h-158zM252 246q0 -21 0.5 -31t3.5 -28.5 t9.5 -27.5t19.5 -16.5t32 -7.5q39 0 53.5 21t14.5 63v313q-75 -34 -104 -67.5t-29 -95.5v-123zM360 1145v198h158v-198h-158z" />
<glyph unicode="&#xe5;" horiz-adv-x="647" d="M72 219v148q0 110 70 175.5t243 125.5v141q0 80 -63 80q-62 0 -62 -82v-55h-178v59q0 233 240 233q132 0 187.5 -62t55.5 -173v-809h-104l-35 51q-24 -37 -58.5 -54t-91.5 -17q-106 0 -155 59t-49 180zM178 1270q0 157 146 157q147 0 147 -157q0 -158 -147 -158 q-146 0 -146 158zM252 246q0 -21 0.5 -31t3.5 -28.5t9.5 -27.5t19.5 -16.5t32 -7.5q39 0 53.5 21t14.5 63v313q-75 -34 -104 -67.5t-29 -95.5v-123zM285 1270q0 -62 39 -62q41 0 41 62q0 61 -41 61q-39 0 -39 -61z" />
<glyph unicode="&#xe6;" horiz-adv-x="958" d="M72 221v146q0 110 70 175.5t243 125.5v141q0 80 -66 80q-61 0 -61 -82v-55h-178v59q0 233 242 233q97 0 155 -45q51 45 160 45q133 0 186.5 -62t53.5 -179v-314h-308v-274q0 -80 68 -80q65 0 65 80v137h175v-131q0 -118 -52 -179.5t-188 -61.5q-108 0 -162 45 q-54 -45 -160 -45q-136 0 -189.5 62t-53.5 179zM252 246q0 -34 3 -54.5t18 -38.5t44 -18q37 0 52.5 20.5t15.5 63.5v313q-75 -34 -104 -67.5t-29 -95.5v-123zM569 625h133v182q0 82 -65 82q-68 0 -68 -82v-182z" />
<glyph unicode="&#xe7;" horiz-adv-x="653" d="M82 219v586q0 115 56.5 177t191.5 62q133 0 187 -61.5t54 -177.5v-123h-176v125q0 82 -65 82q-68 0 -68 -82v-592q0 -80 68 -80q65 0 65 80v147h176v-143q0 -109 -45 -169t-159 -68l-15 -60q119 -21 119 -131q0 -67 -40 -103t-140 -36h-109l29 108h61q56 0 56 41 q0 21 -13 30t-45 9h-34l36 144q-104 11 -147 71t-43 164z" />
<glyph unicode="&#xe8;" horiz-adv-x="653" d="M82 221v582q0 116 56.5 178.5t191.5 62.5q133 0 187 -62.5t54 -178.5v-314h-309v-274q0 -80 68 -80q65 0 65 80v137h176v-131q0 -118 -52.5 -179.5t-188.5 -61.5q-138 0 -193 62t-55 179zM184 1397h172l54 -271h-111zM262 625h133v182q0 82 -65 82q-68 0 -68 -82v-182z " />
<glyph unicode="&#xe9;" horiz-adv-x="653" d="M82 221v582q0 116 56.5 178.5t191.5 62.5q133 0 187 -62.5t54 -178.5v-314h-309v-274q0 -80 68 -80q65 0 65 80v137h176v-131q0 -118 -52.5 -179.5t-188.5 -61.5q-138 0 -193 62t-55 179zM262 625h133v182q0 82 -65 82q-68 0 -68 -82v-182zM264 1126l53 271h172 l-114 -271h-111z" />
<glyph unicode="&#xea;" horiz-adv-x="653" d="M82 221v582q0 116 56.5 178.5t191.5 62.5q133 0 187 -62.5t54 -178.5v-314h-309v-274q0 -80 68 -80q65 0 65 80v137h176v-131q0 -118 -52.5 -179.5t-188.5 -61.5q-138 0 -193 62t-55 179zM147 1126l105 267h147l107 -267h-121l-59 119l-58 -119h-121zM262 625h133v182 q0 82 -65 82q-68 0 -68 -82v-182z" />
<glyph unicode="&#xeb;" horiz-adv-x="653" d="M82 221v582q0 116 56.5 178.5t191.5 62.5q133 0 187 -62.5t54 -178.5v-314h-309v-274q0 -80 68 -80q65 0 65 80v137h176v-131q0 -118 -52.5 -179.5t-188.5 -61.5q-138 0 -193 62t-55 179zM133 1145v198h158v-198h-158zM262 625h133v182q0 82 -65 82q-68 0 -68 -82v-182z M362 1145v198h158v-198h-158z" />
<glyph unicode="&#xec;" horiz-adv-x="364" d="M20 1397h173l53 -271h-111zM92 0v1024h180v-1024h-180z" />
<glyph unicode="&#xed;" horiz-adv-x="364" d="M92 0v1024h180v-1024h-180zM123 1126l53 271h172l-115 -271h-110z" />
<glyph unicode="&#xee;" horiz-adv-x="364" d="M4 1126l105 267h147l106 -267h-120l-60 119l-57 -119h-121zM92 0v1024h180v-1024h-180z" />
<glyph unicode="&#xef;" horiz-adv-x="364" d="M-10 1145v198h157v-198h-157zM92 0v1024h180v-1024h-180zM219 1145v198h158v-198h-158z" />
<glyph unicode="&#xf0;" horiz-adv-x="716" d="M102 231v377q0 119 48 179.5t157 60.5q70 0 123 -39q-6 161 -45 283l-94 -41l-47 110l96 43q-58 109 -160 230h201q71 -87 115 -162l100 45l49 -113l-96 -41q65 -167 65 -420v-512q0 -123 -60 -187t-196 -64t-196 64t-60 187zM287 256q0 -53 14 -81t57 -28 q45 0 58.5 27.5t13.5 81.5v324q0 51 -16 77.5t-56 26.5q-71 0 -71 -104v-324z" />
<glyph unicode="&#xf1;" horiz-adv-x="677" d="M92 0v1024h105l36 -53q54 73 158 73q105 0 150 -56.5t45 -180.5v-807h-180v807q0 82 -66 82q-68 0 -68 -82v-807h-180zM104 1155q0 103 27.5 148t108.5 45q43 0 75 -18.5t57 -37t52 -18.5q43 0 43 53h104q0 -101 -28.5 -146.5t-106.5 -45.5q-44 0 -76 18.5t-56.5 36.5 t-51.5 18q-43 0 -43 -53h-105z" />
<glyph unicode="&#xf2;" horiz-adv-x="657" d="M82 219v586q0 115 56.5 177t191.5 62t190 -61.5t55 -177.5v-586q0 -117 -54.5 -178t-190.5 -61q-138 0 -193 61t-55 178zM164 1397h172l53 -271h-110zM262 215q0 -80 68 -80q65 0 65 80v592q0 82 -65 82q-68 0 -68 -82v-592z" />
<glyph unicode="&#xf3;" horiz-adv-x="657" d="M82 219v586q0 115 56.5 177t191.5 62t190 -61.5t55 -177.5v-586q0 -117 -54.5 -178t-190.5 -61q-138 0 -193 61t-55 178zM262 215q0 -80 68 -80q65 0 65 80v592q0 82 -65 82q-68 0 -68 -82v-592zM264 1126l53 271h172l-114 -271h-111z" />
<glyph unicode="&#xf4;" horiz-adv-x="657" d="M82 219v586q0 115 56.5 177t191.5 62t190 -61.5t55 -177.5v-586q0 -117 -54.5 -178t-190.5 -61q-138 0 -193 61t-55 178zM150 1126l104 267h147l107 -267h-121l-59 119l-58 -119h-120zM262 215q0 -80 68 -80q65 0 65 80v592q0 82 -65 82q-68 0 -68 -82v-592z" />
<glyph unicode="&#xf5;" horiz-adv-x="657" d="M82 219v586q0 115 56.5 177t191.5 62t190 -61.5t55 -177.5v-586q0 -117 -54.5 -178t-190.5 -61q-138 0 -193 61t-55 178zM94 1155q0 103 27 148t108 45q43 0 75 -18.5t57.5 -37t52.5 -18.5q43 0 43 53h104q0 -101 -28.5 -146.5t-106.5 -45.5q-44 0 -76 18.5t-56.5 36.5 t-51.5 18q-43 0 -43 -53h-105zM262 215q0 -80 68 -80q65 0 65 80v592q0 82 -65 82q-68 0 -68 -82v-592z" />
<glyph unicode="&#xf6;" horiz-adv-x="657" d="M82 219v586q0 115 56.5 177t191.5 62t190 -61.5t55 -177.5v-586q0 -117 -54.5 -178t-190.5 -61q-138 0 -193 61t-55 178zM135 1145v198h158v-198h-158zM262 215q0 -80 68 -80q65 0 65 80v592q0 82 -65 82q-68 0 -68 -82v-592zM365 1145v198h157v-198h-157z" />
<glyph unicode="&#xf7;" horiz-adv-x="798" d="M102 506v135h594v-135h-594zM313 219v193h172v-193h-172zM313 735v193h172v-193h-172z" />
<glyph unicode="&#xf8;" horiz-adv-x="657" d="M82 219v586q0 115 56.5 177t191.5 62q25 0 61 -4l12 45h150l-29 -108q51 -57 51 -172v-586q0 -117 -54.5 -178t-190.5 -61q-26 0 -66 4l-10 -45h-150l27 106q-49 57 -49 174zM262 215q0 -80 68 -80q65 0 65 80v592q0 82 -65 82q-68 0 -68 -82v-592z" />
<glyph unicode="&#xf9;" horiz-adv-x="677" d="M92 217v807h180v-809q0 -80 68 -80q66 0 66 80v809h180v-1024h-103l-37 51q-44 -71 -155 -71q-106 0 -152.5 57t-46.5 180zM166 1397h172l53 -271h-110z" />
<glyph unicode="&#xfa;" horiz-adv-x="677" d="M92 217v807h180v-809q0 -80 68 -80q66 0 66 80v809h180v-1024h-103l-37 51q-44 -71 -155 -71q-106 0 -152.5 57t-46.5 180zM274 1126l54 271h172l-115 -271h-111z" />
<glyph unicode="&#xfb;" horiz-adv-x="677" d="M92 217v807h180v-809q0 -80 68 -80q66 0 66 80v809h180v-1024h-103l-37 51q-44 -71 -155 -71q-106 0 -152.5 57t-46.5 180zM160 1126l104 267h148l106 -267h-121l-59 119l-57 -119h-121z" />
<glyph unicode="&#xfc;" horiz-adv-x="677" d="M92 217v807h180v-809q0 -80 68 -80q66 0 66 80v809h180v-1024h-103l-37 51q-44 -71 -155 -71q-106 0 -152.5 57t-46.5 180zM145 1145v198h158v-198h-158zM375 1145v198h157v-198h-157z" />
<glyph unicode="&#xfd;" horiz-adv-x="602" d="M31 -176q44 -14 90 -14q73 0 86 96l14 94l-184 1024h186l86 -713l86 713h187l-197 -1122q-25 -137 -83 -193.5t-181 -56.5q-58 0 -90 14v158zM244 1126l53 271h172l-115 -271h-110z" />
<glyph unicode="&#xfe;" horiz-adv-x="667" d="M92 -328v1782h180v-461q20 23 53 37t66 14q107 0 151 -56.5t44 -180.5v-592q0 -122 -46.5 -178.5t-148.5 -56.5q-33 0 -66 14t-53 37v-359h-180zM272 215q0 -80 68 -80q66 0 66 82v590q0 82 -66 82q-68 0 -68 -80v-594z" />
<glyph unicode="&#xff;" horiz-adv-x="602" d="M31 -176q44 -14 90 -14q73 0 86 96l14 94l-184 1024h186l86 -713l86 713h187l-197 -1122q-25 -137 -83 -193.5t-181 -56.5q-58 0 -90 14v158zM117 1145v198h157v-198h-157zM346 1145v198h158v-198h-158z" />
<glyph unicode="&#x152;" horiz-adv-x="950" d="M92 236v960q0 121 60 189.5t206 68.5q60 0 115 -20h395v-183h-245v-438h215v-176h-215v-457h245v-180h-395q-52 -20 -115 -20q-146 0 -206 67.5t-60 188.5zM283 238q0 -88 75 -88q74 0 74 79v967q0 86 -74 86q-75 0 -75 -86v-958z" />
<glyph unicode="&#x153;" horiz-adv-x="974" d="M86 219v586q0 115 56.5 177t191.5 62q101 0 155 -45q54 45 158 45q133 0 187.5 -62.5t54.5 -178.5v-314h-309v-274q0 -80 67 -80q66 0 66 80v137h176v-131q0 -117 -53 -179t-189 -62q-102 0 -158 43q-56 -43 -155 -43q-138 0 -193 61t-55 178zM266 215q0 -80 68 -80 q65 0 65 80v592q0 82 -65 82q-68 0 -68 -82v-592zM580 625h133v182q0 82 -66 82q-67 0 -67 -82v-182z" />
<glyph unicode="&#x178;" horiz-adv-x="624" d="M31 1434h200l80 -598l82 598h201l-186 -881v-553h-191v553zM119 1536v199h157v-199h-157zM348 1536v199h158v-199h-158z" />
<glyph unicode="&#x2000;" horiz-adv-x="918" />
<glyph unicode="&#x2001;" horiz-adv-x="1837" />
<glyph unicode="&#x2002;" horiz-adv-x="918" />
<glyph unicode="&#x2003;" horiz-adv-x="1837" />
<glyph unicode="&#x2004;" horiz-adv-x="612" />
<glyph unicode="&#x2005;" horiz-adv-x="459" />
<glyph unicode="&#x2006;" horiz-adv-x="306" />
<glyph unicode="&#x2007;" horiz-adv-x="306" />
<glyph unicode="&#x2008;" horiz-adv-x="229" />
<glyph unicode="&#x2009;" horiz-adv-x="367" />
<glyph unicode="&#x200a;" horiz-adv-x="102" />
<glyph unicode="&#x2010;" horiz-adv-x="512" d="M82 506v135h348v-135h-348z" />
<glyph unicode="&#x2011;" horiz-adv-x="512" d="M82 506v135h348v-135h-348z" />
<glyph unicode="&#x2012;" horiz-adv-x="512" d="M82 506v135h348v-135h-348z" />
<glyph unicode="&#x2013;" horiz-adv-x="716" d="M82 506v135h553v-135h-553z" />
<glyph unicode="&#x2014;" horiz-adv-x="1044" d="M82 526v95h881v-95h-881z" />
<glyph unicode="&#x2018;" horiz-adv-x="335" d="M61 1454h193v-446h-107z" />
<glyph unicode="&#x2019;" horiz-adv-x="335" d="M82 1008v446h192l-86 -446h-106z" />
<glyph unicode="&#x201a;" horiz-adv-x="366" d="M92 -213v444h193l-86 -444h-107z" />
<glyph unicode="&#x201c;" horiz-adv-x="573" d="M61 1454h193v-446h-107zM301 1454h191v-446h-107z" />
<glyph unicode="&#x201d;" horiz-adv-x="573" d="M82 1008v446h192l-86 -446h-106zM322 1008v446h190l-84 -446h-106z" />
<glyph unicode="&#x201e;" horiz-adv-x="604" d="M92 -213v444h193l-86 -444h-107zM332 -213v444h190l-84 -444h-106z" />
<glyph unicode="&#x2022;" horiz-adv-x="532" d="M92 580q0 72 51 123t123 51t123 -51t51 -123t-51 -123t-123 -51t-123 51t-51 123z" />
<glyph unicode="&#x202f;" horiz-adv-x="367" />
<glyph unicode="&#x2039;" horiz-adv-x="550" d="M82 512l217 379h170l-211 -379l211 -379h-170z" />
<glyph unicode="&#x203a;" horiz-adv-x="550" d="M82 133l211 379l-211 379h172l215 -379l-215 -379h-172z" />
<glyph unicode="&#x205f;" horiz-adv-x="459" />
<glyph unicode="&#x20ac;" horiz-adv-x="806" d="M82 567v101h86v110h-86v101h86v317q0 123 59 190.5t205 67.5q142 0 202 -68t60 -190v-172h-186v172q0 37 -18.5 61.5t-57.5 24.5q-74 0 -74 -86v-317h189l-23 -101h-166v-110h142l-21 -101h-121v-329q0 -88 74 -88q42 0 59 21t17 67v192h186v-194q0 -120 -60 -188 t-202 -68q-146 0 -205 67.5t-59 188.5v331h-86z" />
<glyph unicode="&#x2122;" horiz-adv-x="694" d="M72 1376v58h202v-58h-71v-352h-58v352h-73zM332 1024v410h61l74 -226l74 226h61v-410h-57v272l-62 -192h-32l-62 192v-272h-57z" />
<glyph unicode="&#xe000;" horiz-adv-x="1024" d="M0 0v1024h1024v-1024h-1024z" />
</font>
</defs>
</svg>
