<?xml version="1.0" standalone="no"?>
<!DOCTYPE svg PUBLIC "-//W3C//DTD SVG 1.1//EN" "http://www.w3.org/Graphics/SVG/1.1/DTD/svg11.dtd" >
<svg xmlns="http://www.w3.org/2000/svg">
<metadata></metadata>
<defs>
<font id="heroic_condensedregular" horiz-adv-x="698" >
<font-face units-per-em="2048" ascent="1638" descent="-410" />
<missing-glyph horiz-adv-x="358" />
<glyph horiz-adv-x="2048" />
<glyph horiz-adv-x="2048" />
<glyph unicode="&#xd;" horiz-adv-x="2048" />
<glyph unicode=" "  horiz-adv-x="358" />
<glyph unicode="&#x09;" horiz-adv-x="358" />
<glyph unicode="&#xa0;" horiz-adv-x="358" />
<glyph unicode="!" horiz-adv-x="366" d="M102 1434h158l-33 -963h-90zM109 0v158h147v-158h-147z" />
<glyph unicode="&#x22;" horiz-adv-x="542" d="M80 1454h147l-32 -416h-80zM313 1454h148l-35 -416h-80z" />
<glyph unicode="#" horiz-adv-x="716" d="M82 608v74h115l20 377h-115v74h119l17 301h79l-16 -301h143l17 301h80l-17 -301h111v-74h-115l-20 -377h114v-74h-118l-17 -301h-80l17 301h-144l-16 -301h-80l17 301h-111zM276 682h144l20 377h-143z" />
<glyph unicode="$" horiz-adv-x="686" d="M121 442v127h121v-108q0 -85 19.5 -117.5t80.5 -32.5q52 0 76 30.5t24 98.5v84q0 50 -17.5 87t-46 59.5t-62.5 42t-68.5 41.5t-63 50t-46 76t-17.5 113v39q0 105 41 165.5t139 70.5v166h84v-166q97 -10 136.5 -70t39.5 -166v-104h-119v106q0 68 -24.5 98.5t-75.5 30.5 q-52 0 -76 -30.5t-24 -98.5v-41q0 -51 17.5 -89t45.5 -61t62.5 -42.5t68.5 -41t62 -49t45.5 -74t17.5 -108.5v-86q0 -106 -39.5 -165.5t-136.5 -69.5v-207h-84v207q-100 10 -140 69t-40 166z" />
<glyph unicode="%" horiz-adv-x="923" d="M102 1104v137q0 112 36 162.5t128 50.5t128 -50.5t36 -162.5v-137q0 -112 -36 -162.5t-128 -50.5t-128 50.5t-36 162.5zM117 0l600 1434h90l-600 -1434h-90zM190 1102q0 -75 16 -103t60 -28t60 28t16 103v141q0 75 -16 103t-60 28t-60 -28t-16 -103v-141zM494 193v137 q0 112 35.5 162.5t127.5 50.5t128 -50.5t36 -162.5v-137q0 -112 -36 -162.5t-128 -50.5t-127.5 50.5t-35.5 162.5zM582 190q0 -76 15.5 -103.5t59.5 -27.5t60 28t16 103v142q0 75 -16 103t-60 28t-59.5 -27.5t-15.5 -103.5v-142z" />
<glyph unicode="&#x26;" horiz-adv-x="802" d="M121 223v293q0 165 115 209q-62 24 -88.5 74.5t-26.5 132.5v270q0 120 54 186t187 66q240 0 240 -252v-158h-127v158q0 60 -27.5 97.5t-85.5 37.5q-62 0 -87 -35.5t-25 -99.5v-293q0 -127 119 -127h352v-116h-117v-439q0 -51 31 -79.5t84 -28.5v-119q-130 0 -176 82 q-45 -102 -187 -102q-129 0 -182 61t-53 182zM250 256q0 -37 3.5 -62.5t14.5 -50t34.5 -37t59.5 -12.5q68 0 90.5 43t22.5 123v406h-106q-41 0 -66 -11.5t-36 -37.5t-14 -50.5t-3 -66.5v-244z" />
<glyph unicode="'" horiz-adv-x="290" d="M70 1454h147l-33 -416h-80z" />
<glyph unicode="(" horiz-adv-x="491" d="M100 715q0 374 195 780h94q-178 -421 -178 -780t178 -776h-94q-195 403 -195 776z" />
<glyph unicode=")" horiz-adv-x="491" d="M100 -61q179 419 179 776q0 356 -179 780h95q194 -404 194 -780q0 -375 -194 -776h-95z" />
<glyph unicode="*" horiz-adv-x="704" d="M59 1194l39 123l234 -123l-47 260h131l-45 -260l231 123l39 -123l-260 -37l190 -182l-106 -78q-19 41 -115 238q-37 -81 -114 -238l-107 78l190 182z" />
<glyph unicode="+" horiz-adv-x="782" d="M100 526v95h242v249h96v-249h242v-95h-242v-250h-96v250h-242z" />
<glyph unicode="," horiz-adv-x="296" d="M80 158h143l-65 -338h-78v338z" />
<glyph unicode="-" horiz-adv-x="512" d="M80 526v95h348v-95h-348z" />
<glyph unicode="." horiz-adv-x="301" d="M80 0v158h137v-158h-137z" />
<glyph unicode="/" horiz-adv-x="548" d="M59 -61l328 1556h98l-327 -1556h-99z" />
<glyph unicode="0" d="M106 229v973q0 120 54.5 186t187.5 66t187.5 -66t54.5 -186v-973q0 -120 -54.5 -184.5t-187.5 -64.5t-187.5 64.5t-54.5 184.5zM236 229q0 -64 25 -99.5t87 -35.5q113 0 113 135v973q0 135 -113 135q-62 0 -87 -35.5t-25 -99.5v-973z" />
<glyph unicode="1" horiz-adv-x="536" d="M76 1208v88q153 0 153 138h105v-1311h125v-123h-379v123h125v1085h-129z" />
<glyph unicode="2" horiz-adv-x="655" d="M96 0v205q0 99 19 181t49.5 138.5t67.5 105.5t74 93t67.5 89.5t49.5 107t19 133.5v155q0 129 -108 129q-109 0 -109 -129v-164h-129v164q0 117 53.5 181.5t184.5 64.5t184 -64t53 -182v-153q0 -85 -19 -156.5t-49.5 -122t-67.5 -96t-74 -92t-67.5 -97t-49.5 -122.5 t-19 -158v-88h353v-123h-482z" />
<glyph unicode="3" horiz-adv-x="690" d="M96 229v181h127v-181q0 -56 26.5 -95.5t82.5 -39.5q62 0 86 35t24 100v310q0 52 -27.5 88.5t-82.5 36.5h-70v118h70q58 0 81 31t23 90v307q0 50 -26.5 88.5t-79.5 38.5q-105 0 -105 -127v-166h-125v166q0 117 51.5 180.5t178.5 63.5q128 0 180.5 -63.5t52.5 -180.5v-295 q0 -147 -108 -190q116 -41 116 -190v-306q0 -120 -53 -184.5t-186 -64.5q-132 0 -184 64.5t-52 184.5z" />
<glyph unicode="4" horiz-adv-x="665" d="M55 315v134l289 985h172v-1000h92v-119h-92v-315h-129v315h-332zM162 434h225v273q0 3 1.5 273t-1.5 284z" />
<glyph unicode="5" d="M106 229v181h130v-181q0 -64 25 -99.5t87 -35.5q113 0 113 135v402q0 61 -24.5 93t-82.5 32q-82 0 -129 -72h-104l37 750h411v-125h-297l-22 -494q61 51 135 51q111 0 158 -56.5t47 -178.5v-402q0 -120 -54.5 -184.5t-187.5 -64.5t-187.5 64.5t-54.5 184.5z" />
<glyph unicode="6" horiz-adv-x="708" d="M117 229v973q0 122 55.5 187t185.5 65t186 -65t56 -187v-158h-129v158q0 68 -26.5 101.5t-86.5 33.5t-86 -33.5t-26 -101.5v-428q67 64 147 64q110 0 158.5 -60t48.5 -180v-369q0 -121 -56 -185t-186 -64t-185.5 64t-55.5 185zM246 229q0 -66 25.5 -100.5t86.5 -34.5 t87 34.5t26 100.5v369q0 127 -111 127q-38 0 -68 -19t-46 -47v-430z" />
<glyph unicode="7" horiz-adv-x="561" d="M45 1309v125h469v-103q-116 -366 -150 -612t-34 -719h-142q0 390 44.5 692t158.5 617h-346z" />
<glyph unicode="8" d="M106 229v285q0 84 27 135.5t92 75.5q-108 43 -108 190v295q0 117 52 180.5t179 63.5q129 0 181.5 -63.5t52.5 -180.5v-295q0 -146 -111 -190q65 -24 92 -75.5t27 -135.5v-285q0 -120 -54.5 -184.5t-187.5 -64.5t-187.5 64.5t-54.5 184.5zM236 244q0 -72 23.5 -111 t88.5 -39t89 39t24 111v280q0 70 -23 108t-90 38q-66 0 -89 -38t-23 -108v-280zM244 913q0 -65 21.5 -100t82.5 -35q62 0 84.5 35t22.5 100v285q0 66 -23 102.5t-84 36.5q-60 0 -82 -36.5t-22 -102.5v-285z" />
<glyph unicode="9" d="M106 231v179h130v-179q0 -68 26 -101.5t86 -33.5t86.5 33.5t26.5 101.5v449q-67 -64 -148 -64q-110 0 -158.5 60t-48.5 180v348q0 121 56 185.5t186 64.5t186 -64.5t56 -185.5v-973q0 -121 -56 -186t-186 -65t-186 65t-56 186zM236 856q0 -127 110 -127q38 0 68.5 19 t46.5 47v409q0 66 -26 100.5t-87 34.5t-86.5 -34.5t-25.5 -100.5v-348z" />
<glyph unicode=":" horiz-adv-x="342" d="M100 0v158h138v-158h-138zM100 645v158h138v-158h-138z" />
<glyph unicode=";" horiz-adv-x="337" d="M100 158h144l-66 -338h-78v338zM100 645v158h138v-158h-138z" />
<glyph unicode="&#x3c;" horiz-adv-x="595" d="M80 717l328 778h104l-328 -778l328 -778h-104z" />
<glyph unicode="=" horiz-adv-x="737" d="M100 371v94h533v-94h-533zM100 682v94h533v-94h-533z" />
<glyph unicode="&#x3e;" horiz-adv-x="595" d="M80 -61l328 778l-328 778h104l328 -778l-328 -778h-104z" />
<glyph unicode="@" horiz-adv-x="1071" d="M100 254v514q0 481 435 481q432 0 432 -481v-514q0 -479 -432 -479q-435 0 -435 479zM190 254q0 -68 9 -123.5t32.5 -107.5t61.5 -87t99.5 -56t142.5 -21q100 0 169.5 31t106.5 88t52.5 123.5t15.5 152.5v514q0 86 -16 153t-53 124.5t-106.5 88.5t-168.5 31 q-80 0 -141.5 -21t-99.5 -56.5t-62 -88t-33 -108t-9 -123.5v-514zM344 264v127q0 98 58.5 153t215.5 99v117q0 47 -21.5 74.5t-61.5 27.5q-47 0 -66.5 -26t-19.5 -76v-45h-97v47q0 89 42 136.5t141 47.5q101 0 140.5 -47.5t39.5 -138.5v-664h-70q-3 9 -11 25.5t-11 25.5 q-32 -69 -119 -69q-86 0 -123 46.5t-37 139.5zM440 264q0 -104 92 -104q44 0 65 29.5t21 76.5v303q-109 -34 -143.5 -76.5t-34.5 -123.5v-105z" />
<glyph unicode="A" horiz-adv-x="663" d="M55 0l197 1434h160l194 -1434h-131l-39 328h-211l-39 -328h-131zM238 446h184l-90 791z" />
<glyph unicode="B" horiz-adv-x="722" d="M127 0v1434h233q140 0 192 -53.5t52 -170.5v-301q0 -73 -26 -118t-84 -66q64 -21 92 -67t28 -121v-299q0 -59 -10 -100t-36 -73.5t-74.5 -48.5t-120.5 -16h-246zM256 123h109q68 0 94 28.5t26 90.5v299q0 60 -27.5 91.5t-92.5 31.5h-109v-541zM256 782h100q66 0 93.5 32 t27.5 91v287q0 61 -26.5 89t-92.5 28h-102v-527z" />
<glyph unicode="C" horiz-adv-x="673" d="M106 229v973q0 120 54.5 186t187.5 66q240 0 240 -252v-158h-125v158q0 60 -28.5 97.5t-86.5 37.5q-62 0 -87 -35.5t-25 -99.5v-973q0 -135 112 -135q115 0 115 135v181h125v-181q0 -249 -240 -249q-133 0 -187.5 64.5t-54.5 184.5z" />
<glyph unicode="D" horiz-adv-x="733" d="M127 0v1434h238q139 0 194 -64t55 -184v-938q0 -121 -53 -184.5t-192 -63.5h-242zM256 123h106q69 0 96 31t27 94v938q0 62 -27 92.5t-96 30.5h-106v-1186z" />
<glyph unicode="E" horiz-adv-x="616" d="M127 0v1434h408v-125h-279v-527h240v-118h-240v-541h279v-123h-408z" />
<glyph unicode="F" horiz-adv-x="589" d="M127 0v1434h395v-125h-266v-527h229v-118h-229v-664h-129z" />
<glyph unicode="G" horiz-adv-x="708" d="M117 229v975q0 120 54 185t187 65q130 0 185 -65.5t55 -184.5v-160h-127v160q0 58 -27 95.5t-86 37.5q-62 0 -87 -34.5t-25 -98.5v-975q0 -135 112 -135q62 0 87.5 35t25.5 100v435h-113v118h242v-553q0 -120 -54.5 -184.5t-187.5 -64.5t-187 64.5t-54 184.5z" />
<glyph unicode="H" horiz-adv-x="745" d="M127 0v1434h129v-652h231v652h129v-1434h-129v664h-231v-664h-129z" />
<glyph unicode="I" horiz-adv-x="385" d="M127 0v1434h129v-1434h-129z" />
<glyph unicode="J" horiz-adv-x="659" d="M66 227v183h129v-183q0 -133 104 -133q59 0 80.5 33.5t21.5 99.5v1207h129v-1207q0 -122 -50.5 -184.5t-180.5 -62.5q-127 0 -180 64t-53 183z" />
<glyph unicode="K" horiz-adv-x="686" d="M127 0v1434h129v-656l238 656h143l-277 -711l289 -723h-141l-252 668v-668h-129z" />
<glyph unicode="L" horiz-adv-x="528" d="M127 0v1434h129v-1311h225v-123h-354z" />
<glyph unicode="M" horiz-adv-x="983" d="M127 0v1434h164l198 -1219l201 1219h164v-1434h-123v489q0 85 8 382t9 333l-195 -1204h-125l-195 1204q1 -40 9 -334.5t8 -380.5v-489h-123z" />
<glyph unicode="N" horiz-adv-x="790" d="M127 0v1434h127l301 -1121q-12 450 -12 656v465h125v-1434h-127l-301 1118q12 -442 12 -655v-463h-125z" />
<glyph unicode="O" d="M106 229v973q0 120 54.5 186t187.5 66t187.5 -66t54.5 -186v-973q0 -120 -54.5 -184.5t-187.5 -64.5t-187.5 64.5t-54.5 184.5zM236 229q0 -64 25 -99.5t87 -35.5q113 0 113 135v973q0 135 -113 135q-62 0 -87 -35.5t-25 -99.5v-973z" />
<glyph unicode="P" horiz-adv-x="684" d="M127 0v1434h233q139 0 192.5 -63.5t53.5 -184.5v-324q0 -113 -60 -178.5t-190 -65.5h-100v-618h-129zM256 737h98q69 0 96 31t27 94v324q0 61 -29 92t-94 31h-98v-572z" />
<glyph unicode="Q" d="M106 229v973q0 120 54.5 186t187.5 66t187.5 -66t54.5 -186v-973q0 -52 -9.5 -92.5t-30.5 -73.5t-58 -53t-89 -26q2 -47 24.5 -67.5t74.5 -20.5h45l-21 -82h-24q-105 0 -155.5 42.5t-53.5 127.5q-103 11 -145 74t-42 171zM236 229q0 -64 25 -99.5t87 -35.5q113 0 113 135 v973q0 135 -113 135q-62 0 -87 -35.5t-25 -99.5v-973z" />
<glyph unicode="R" horiz-adv-x="712" d="M127 0v1434h235q72 0 121 -17.5t75 -52t37 -77t11 -101.5v-324q0 -201 -162 -235l232 -627h-144l-210 618h-66v-618h-129zM256 737h98q69 0 96 31t27 94v324q0 61 -29 92t-94 31h-98v-572z" />
<glyph unicode="S" horiz-adv-x="673" d="M96 231v179h129v-179q0 -137 111 -137q63 0 86.5 35t23.5 102v175q0 85 -19.5 146.5t-50 97t-68 63.5t-75 56.5t-68 64t-50 98t-19.5 147.5v123q0 122 52.5 187t187.5 65t187 -65t52 -187v-158h-129v158q0 135 -110 135q-63 0 -87 -35t-24 -100v-121q0 -71 19.5 -122 t50 -81.5t68 -57t75 -57.5t68 -72t50 -113t19.5 -170v-177q0 -122 -52 -186.5t-187 -64.5t-187.5 64.5t-52.5 186.5z" />
<glyph unicode="T" horiz-adv-x="563" d="M45 1309v125h471v-125h-170v-1309h-129v1309h-172z" />
<glyph unicode="U" horiz-adv-x="716" d="M117 231v1203h129v-1203q0 -65 24.5 -101t87.5 -36t87 36t24 101v1203h129v-1203q0 -251 -240 -251q-70 0 -118.5 18t-74.5 53t-37 78t-11 102z" />
<glyph unicode="V" horiz-adv-x="663" d="M55 1434h133l144 -1188l141 1188h133l-200 -1434h-150z" />
<glyph unicode="W" horiz-adv-x="1097" d="M66 1434h131l127 -1186l155 1186h135l156 -1186l127 1186h131l-182 -1434h-148l-151 1176l-150 -1176h-149z" />
<glyph unicode="X" horiz-adv-x="651" d="M47 0l211 743l-197 691h138l127 -525l127 525h137l-199 -691l213 -743h-137l-141 575l-142 -575h-137z" />
<glyph unicode="Y" horiz-adv-x="618" d="M45 1434h135l127 -652l129 652h135l-198 -838v-596h-129v596z" />
<glyph unicode="Z" horiz-adv-x="567" d="M66 0v82l288 1227h-288v125h428v-82l-289 -1229h295v-123h-434z" />
<glyph unicode="[" horiz-adv-x="503" d="M141 -246v1741h258v-94h-149v-1553h149v-94h-258z" />
<glyph unicode="\" horiz-adv-x="548" d="M59 1495h99l327 -1556h-98z" />
<glyph unicode="]" horiz-adv-x="503" d="M100 -152h152v1553h-152v94h258v-1741h-258v94z" />
<glyph unicode="a" horiz-adv-x="641" d="M86 213v131q0 120 71.5 190t262.5 128v149q0 59 -25 93t-76 34q-58 0 -80 -32.5t-22 -96.5v-47h-121v49q0 112 50 172.5t173 60.5q124 0 174 -60.5t50 -172.5v-811h-72l-33 61q-41 -81 -145 -81q-108 0 -157.5 57.5t-49.5 175.5zM209 213q0 -63 24 -95t82 -32 q105 0 105 127v356q-125 -39 -168 -89t-43 -134v-133z" />
<glyph unicode="b" horiz-adv-x="661" d="M106 0v1454h123v-483q21 33 58 53t82 20q105 0 149.5 -57t44.5 -180v-592q0 -121 -45.5 -178t-152.5 -57t-152 83l-33 -63h-74zM229 217q0 -131 109 -131q102 0 102 131v590q0 131 -102 131q-109 0 -109 -135v-586z" />
<glyph unicode="c" horiz-adv-x="638" d="M96 217v588q0 115 52.5 177t177.5 62q126 0 175.5 -61t49.5 -178v-113h-121v113q0 67 -23.5 100t-80.5 33q-58 0 -82.5 -33t-24.5 -100v-588q0 -66 24.5 -98.5t82.5 -32.5q56 0 80 32.5t24 98.5v135h121v-135q0 -116 -49.5 -176.5t-175.5 -60.5q-128 0 -179 60.5 t-51 176.5z" />
<glyph unicode="d" horiz-adv-x="671" d="M106 215v592q0 123 45 180t150 57q45 0 81.5 -20t57.5 -53v483h123v-1454h-74l-32 63q-45 -83 -152 -83t-153 57t-46 178zM229 217q0 -131 103 -131q108 0 108 131v586q0 135 -108 135q-103 0 -103 -131v-590z" />
<glyph unicode="e" horiz-adv-x="649" d="M96 217v588q0 116 52 177.5t178 61.5t175.5 -61t49.5 -178v-297h-332v-291q0 -131 107 -131q56 0 80 32.5t24 98.5v135h121v-135q0 -116 -49.5 -176.5t-175.5 -60.5q-128 0 -179 60.5t-51 176.5zM219 604h211v199q0 69 -23 102t-81 33t-82.5 -33t-24.5 -100v-201z" />
<glyph unicode="f" horiz-adv-x="473" d="M45 915v109h94v221q0 119 47 174.5t170 55.5q43 0 80 -13v-108q-28 14 -76 14q-56 0 -77 -27t-21 -96v-221h150v-109h-150v-915h-123v915h-94z" />
<glyph unicode="g" horiz-adv-x="663" d="M66 -109q0 157 129 205q-54 23 -54 78q0 54 58 78q-60 25 -84.5 79.5t-24.5 139.5v332q0 117 50.5 179t176.5 62q50 0 97 -14q40 119 143 119q35 0 59 -8v-97q-42 11 -65 11q-59 0 -84 -49q80 -56 80 -203v-332q0 -116 -52 -178t-178 -62q-84 0 -84 -57t84 -57 q138 0 197 -58.5t59 -167.5v-18q0 -101 -60.5 -161t-193.5 -60q-253 0 -253 221v18zM186 -98v-19q0 -125 133 -125q134 0 134 125v19q0 64 -32.5 95.5t-101.5 31.5q-133 0 -133 -127zM213 467q0 -68 23.5 -101.5t80.5 -33.5q58 0 82.5 33t24.5 110v328q0 66 -24.5 100.5 t-82.5 34.5q-60 0 -82 -34t-22 -109v-328z" />
<glyph unicode="h" horiz-adv-x="671" d="M106 0v1454h123v-485q21 34 57.5 54.5t80.5 20.5q105 0 150.5 -57t45.5 -178v-809h-123v809q0 63 -23.5 96t-78.5 33q-109 0 -109 -131v-807h-123z" />
<glyph unicode="i" horiz-adv-x="333" d="M102 1198v152h125v-152h-125zM104 0v1024h123v-1024h-123z" />
<glyph unicode="j" horiz-adv-x="329" d="M-74 -227q30 -15 74 -15q56 0 78 28t22 95v1143h123v-1143q0 -119 -47.5 -174t-171.5 -55q-44 0 -78 12v109zM98 1198v152h125v-152h-125z" />
<glyph unicode="k" horiz-adv-x="610" d="M106 0v1454h123v-876l199 446h135l-231 -494l252 -530h-138l-217 479v-479h-123z" />
<glyph unicode="l" horiz-adv-x="337" d="M106 0v1454h123v-1454h-123z" />
<glyph unicode="m" horiz-adv-x="997" d="M106 0v1024h74l33 -66q52 86 156 86q117 0 161 -86q54 86 170 86q103 0 148 -57.5t45 -171.5v-815h-123v809q0 129 -100 129q-54 0 -81.5 -33.5t-27.5 -93.5v-811h-123v809q0 129 -100 129q-109 0 -109 -129v-809h-123z" />
<glyph unicode="n" horiz-adv-x="671" d="M106 0v1024h74l33 -66q50 86 152 86q107 0 152.5 -57t45.5 -178v-809h-123v809q0 129 -102 129q-109 0 -109 -131v-807h-123z" />
<glyph unicode="o" horiz-adv-x="651" d="M96 217v588q0 115 52.5 177t177.5 62t176 -61.5t51 -177.5v-588q0 -116 -50.5 -176.5t-176.5 -60.5q-128 0 -179 60.5t-51 176.5zM219 217q0 -66 24.5 -98.5t82.5 -32.5q56 0 80 32.5t24 98.5v588q0 67 -23.5 100t-80.5 33q-58 0 -82.5 -33t-24.5 -100v-588z" />
<glyph unicode="p" horiz-adv-x="671" d="M106 -328v1352h74l33 -66q45 86 152 86q106 0 152 -58.5t46 -176.5v-592q0 -122 -45 -179.5t-149 -57.5q-45 0 -82 20t-58 53v-381h-123zM229 270q0 -43 4 -72.5t15 -57t33.5 -41t56.5 -13.5q102 0 102 131v590q0 131 -102 131q-109 0 -109 -133v-535z" />
<glyph unicode="q" horiz-adv-x="671" d="M106 217v592q0 121 46 178t153 57t152 -86l32 66h74v-1352h-123v381q-21 -33 -57.5 -53t-81.5 -20q-105 0 -150 57t-45 180zM229 217q0 -131 103 -131q108 0 108 135v584q0 133 -108 133q-103 0 -103 -131v-590z" />
<glyph unicode="r" horiz-adv-x="434" d="M106 0v1024h87l30 -63q53 90 164 90v-127q-12 1 -23 1q-65 0 -97 -36q-38 -42 -38 -127v-762h-123z" />
<glyph unicode="s" horiz-adv-x="616" d="M86 213v139h121v-139q0 -69 23 -98t77 -29t77.5 29.5t23.5 97.5v78q0 50 -18 88t-46 61t-62.5 43.5t-69 43.5t-62.5 52t-46 77.5t-18 113.5v39q0 115 50 175t171 60q122 0 171.5 -60t49.5 -175v-117h-120v117q0 69 -24 99t-77 30q-54 0 -77 -30.5t-23 -98.5v-39 q0 -52 17.5 -90.5t46 -62.5t62.5 -44.5t68.5 -43t63 -50.5t46 -75t17.5 -109v-82q0 -116 -48.5 -174.5t-172.5 -58.5t-172.5 58.5t-48.5 174.5z" />
<glyph unicode="t" horiz-adv-x="495" d="M45 915v109h100v268q18 5 59.5 15.5t63.5 17.5v-301h162v-109h-162v-708q0 -64 21 -92.5t73 -28.5q38 0 76 14v-104q-36 -16 -82 -16q-118 0 -164.5 54.5t-46.5 172.5v708h-100z" />
<glyph unicode="u" horiz-adv-x="671" d="M106 215v809h123v-809q0 -129 105 -129q106 0 106 129v809h123v-1024h-71l-33 66q-45 -86 -154 -86q-106 0 -152.5 57t-46.5 178z" />
<glyph unicode="v" horiz-adv-x="600" d="M45 1024h127l127 -836l127 836h127l-188 -1024h-132z" />
<glyph unicode="w" horiz-adv-x="960" d="M53 1024h127l111 -846q37 256 127 846h127q44 -302 127 -846l110 846h125l-162 -1024h-141l-123 819l-125 -819h-139z" />
<glyph unicode="x" horiz-adv-x="591" d="M35 0l198 516l-188 508h129l121 -379l121 379h129l-191 -508l201 -516h-129l-131 385l-131 -385h-129z" />
<glyph unicode="y" horiz-adv-x="616" d="M35 -227q37 -15 80 -15q91 0 114 119l23 121l-201 1026h127l133 -801l131 801h127l-221 -1151q-24 -120 -74.5 -170.5t-158.5 -50.5q-50 0 -80 10v111z" />
<glyph unicode="z" horiz-adv-x="536" d="M66 0v76l262 839h-252v109h383v-78l-260 -837h270v-109h-403z" />
<glyph unicode="{" horiz-adv-x="561" d="M100 578v94h70q52 0 74 21.5t22 66.5q0 74 -16 149.5t-36 128t-36 124t-16 138.5q0 103 60 149t190 46h47v-94h-47q-78 0 -109 -27.5t-31 -95.5q0 -85 43 -250.5t43 -261.5q0 -113 -75 -141q75 -35 75 -144q0 -96 -43 -261.5t-43 -250.5q0 -67 31 -94t109 -27h47v-94h-47 q-130 0 -190 46t-60 149q0 67 16 138t36 123.5t36 127.5t16 149q0 46 -22 68.5t-74 22.5h-70z" />
<glyph unicode="|" horiz-adv-x="385" d="M141 -246v1741h99v-1741h-99z" />
<glyph unicode="}" horiz-adv-x="561" d="M100 -152h47q78 0 109 27t31 94q0 85 -43 250.5t-43 261.5q0 109 75 144q-75 28 -75 141q0 96 43 261.5t43 250.5q0 68 -31 95.5t-109 27.5h-47v94h47q130 0 190 -46t60 -149q0 -67 -16.5 -138.5t-35.5 -124t-35.5 -128t-16.5 -149.5q0 -45 22 -66.5t74 -21.5h70v-94h-70 q-52 0 -74 -22.5t-22 -68.5q0 -74 16.5 -149t35.5 -127.5t35.5 -123.5t16.5 -138q0 -103 -60 -149t-190 -46h-47v94z" />
<glyph unicode="&#xa1;" horiz-adv-x="366" d="M102 -410l35 963h90l33 -963h-158zM109 866v158h147v-158h-147z" />
<glyph unicode="&#xa2;" d="M121 442v588q0 107 41.5 167.5t144.5 70.5v166h84v-166q101 -10 142.5 -71t41.5 -167v-112h-120v112q0 67 -24 100t-81 33q-58 0 -82 -33t-24 -100v-588q0 -66 24 -98.5t82 -32.5q57 0 81 32.5t24 98.5v136h120v-136q0 -107 -41 -167t-143 -70v-205h-84v205 q-103 10 -144.5 70t-41.5 167z" />
<glyph unicode="&#xa3;" horiz-adv-x="782" d="M80 0v123q121 0 121 127v436h-119v76h119v440q0 59 11 102t37 78.5t74.5 53.5t118.5 18q129 0 182.5 -66t53.5 -186v-158h-125v158q0 65 -24 100t-87 35t-87.5 -35t-24.5 -100v-440h157v-76h-157v-436q0 -62 27.5 -94.5t91.5 -32.5h231v-123h-231q-140 0 -187 90 q-47 -90 -182 -90z" />
<glyph unicode="&#xa4;" horiz-adv-x="643" d="M70 0l94 328q-49 54 -49 176v465q0 119 51 178l-82 287h121l61 -236q38 10 76 10q43 0 76 -10l65 236h121l-84 -287q51 -59 51 -178v-465q0 -122 -49 -176l96 -328h-120l-76 276q-33 -10 -80 -10q-45 0 -78 10l-74 -276h-120zM238 504q0 -66 24 -98.5t80 -32.5 q58 0 82.5 32.5t24.5 98.5v465q0 67 -24.5 100t-82.5 33q-57 0 -80.5 -33t-23.5 -100v-465z" />
<glyph unicode="&#xa5;" horiz-adv-x="690" d="M80 1434h135l127 -666l129 666h135l-198 -842v-43h167v-76h-167v-143h167v-76h-167v-254h-129v254h-164v76h164v143h-164v76h164v43q-42 174 -199 842z" />
<glyph unicode="&#xa6;" horiz-adv-x="385" d="M141 -246v774h99v-774h-99zM141 721v774h99v-774h-99z" />
<glyph unicode="&#xa7;" horiz-adv-x="673" d="M100 41h129v-137q0 -69 23.5 -102t83.5 -33q61 0 82.5 32t21.5 103v65q0 68 -19 114.5t-48.5 72t-66 46t-73 47t-66 64t-48.5 108t-19 169.5q0 47 4.5 84.5t16 76t34.5 67.5t58 46q-54 38 -83.5 101.5t-29.5 175.5v61q0 120 53 186t183 66q68 0 114.5 -18t72 -53.5 t36 -78.5t10.5 -102v-137h-129v137q0 67 -21.5 101t-82.5 34q-62 0 -84.5 -34t-22.5 -101v-65q0 -69 19 -116.5t49 -72.5t66.5 -45t73 -44.5t66.5 -60.5t49 -104t19 -164q0 -110 -22.5 -184t-91.5 -106q54 -40 83 -102t29 -173v-61q0 -120 -52.5 -186t-180.5 -66 q-130 0 -183 66t-53 186v137zM229 596q0 -89 16.5 -148.5t41.5 -89t67 -55.5q86 26 86 184q0 99 -16 160.5t-40 91t-69 58.5q-29 -10 -47.5 -31t-26.5 -53t-10 -56.5t-2 -60.5z" />
<glyph unicode="&#xa9;" horiz-adv-x="1083" d="M100 459v514q0 481 441 481q438 0 438 -481v-514q0 -83 -12.5 -151t-43 -130.5t-79.5 -105t-126 -67.5t-177 -25q-441 0 -441 479zM190 459q0 -68 9 -123.5t33 -108t63 -88t101.5 -57t144.5 -21.5t144 21.5t100.5 57t63 88t33.5 108t9 123.5v514q0 68 -9.5 123.5 t-33.5 107.5t-63 88t-101 57t-143 21q-82 0 -144 -21t-101 -56.5t-63 -88t-33.5 -108t-9.5 -123.5v-514zM360 467v498q0 90 40.5 138t140.5 48t140 -47t40 -137v-109h-94v107q0 50 -19.5 76t-66.5 26q-48 0 -66 -25.5t-18 -76.5v-498q0 -50 18 -76t66 -26q47 0 66.5 26 t19.5 76v129h94v-131q0 -90 -40 -137t-140 -47t-140.5 48t-40.5 138z" />
<glyph unicode="&#xaa;" horiz-adv-x="571" d="M100 774v127q0 99 58 153.5t215 98.5v115q0 102 -84 102q-47 0 -66.5 -25t-19.5 -75v-45h-94v45q0 90 40 137t140 47q103 0 141.5 -47t38.5 -139v-662h-70q-3 8 -11 24.5t-11 24.5q-37 -69 -119 -69q-86 0 -122 46t-36 142zM111 399v80h358v-80h-358zM197 774 q0 -106 90 -106q43 0 64.5 30t21.5 76v303q-107 -32 -141.5 -74.5t-34.5 -123.5v-105z" />
<glyph unicode="&#xab;" horiz-adv-x="796" d="M80 512l217 379h125l-215 -379l215 -379h-125zM373 512l217 379h123l-213 -379l213 -379h-123z" />
<glyph unicode="&#xac;" horiz-adv-x="737" d="M100 651v94h533v-344h-94v250h-439z" />
<glyph unicode="&#xad;" horiz-adv-x="512" d="M80 526v95h348v-95h-348z" />
<glyph unicode="&#xae;" horiz-adv-x="1083" d="M100 459v514q0 481 441 481q438 0 438 -481v-514q0 -83 -12.5 -151t-43 -130.5t-79.5 -105t-126 -67.5t-177 -25q-441 0 -441 479zM190 459q0 -68 9 -123.5t33 -108t63 -88t101.5 -57t144.5 -21.5t144 21.5t100.5 57t63 88t33.5 108t9 123.5v514q0 68 -9.5 123.5 t-33.5 107.5t-63 88t-101 57t-143 21q-82 0 -144 -21t-101 -56.5t-63 -88t-33.5 -108t-9.5 -123.5v-514zM365 299v840h174q103 0 143.5 -47.5t40.5 -137.5v-133q0 -147 -119 -170l156 -352h-101l-145 344h-55v-344h-94zM459 731h78q53 0 72.5 22t19.5 68v133q0 93 -92 93 h-78v-316z" />
<glyph unicode="&#xb0;" horiz-adv-x="503" d="M80 1233q0 108 37 164.5t133 56.5t133 -56.5t37 -164.5t-37 -164.5t-133 -56.5t-133 56.5t-37 164.5zM164 1233q0 -72 18 -107.5t68 -35.5q51 0 69.5 36t18.5 107q0 70 -18.5 105.5t-69.5 35.5q-50 0 -68 -35.5t-18 -105.5z" />
<glyph unicode="&#xb1;" horiz-adv-x="782" d="M100 184v95h580v-95h-580zM100 645v94h242v250h96v-250h242v-94h-242v-250h-96v250h-242z" />
<glyph unicode="&#xb6;" horiz-adv-x="743" d="M100 633v553q0 121 53.5 184.5t192.5 63.5h275v-1762h-129v717h-142q-139 0 -194.5 62t-55.5 182z" />
<glyph unicode="&#xb7;" horiz-adv-x="342" d="M100 494v157h138v-157h-138z" />
<glyph unicode="&#xba;" horiz-adv-x="565" d="M100 399v80h361v-80h-361zM100 772v494q0 92 39 140t142 48t141.5 -48t38.5 -140v-494q0 -92 -38.5 -140t-141.5 -48t-142 48t-39 140zM197 772q0 -52 18 -78t66 -26t67 26.5t19 77.5v494q0 51 -19 77.5t-67 26.5t-66 -26t-18 -78v-494z" />
<glyph unicode="&#xbb;" horiz-adv-x="796" d="M80 133l215 379l-215 379h125l217 -379l-217 -379h-125zM373 133l213 379l-213 379h123l217 -379l-217 -379h-123z" />
<glyph unicode="&#xbf;" horiz-adv-x="673" d="M100 -51q0 73 10 125.5t26 83t35.5 55t39.5 50.5t37 59.5t29 92t14 138.5h90v-41q0 -98 -11.5 -167.5t-28 -102t-36.5 -62.5t-36.5 -51.5t-28 -66t-11.5 -109.5v-131q0 -59 26 -97t81 -38q62 0 83 34t21 101v147h129v-147q0 -60 -9.5 -102.5t-34 -78t-72 -53.5 t-117.5 -18t-118 18t-73 53.5t-35 78.5t-10 102v127zM262 866v158h148v-158h-148z" />
<glyph unicode="&#xc0;" horiz-adv-x="663" d="M55 0l197 1434h160l194 -1434h-131l-39 328h-211l-39 -328h-131zM180 1796h123l76 -260h-86zM238 446h184l-90 791z" />
<glyph unicode="&#xc1;" horiz-adv-x="663" d="M55 0l197 1434h160l194 -1434h-131l-39 328h-211l-39 -328h-131zM238 446h184l-90 791zM276 1536l78 260h121l-110 -260h-89z" />
<glyph unicode="&#xc2;" horiz-adv-x="663" d="M55 0l197 1434h160l194 -1434h-131l-39 328h-211l-39 -328h-131zM164 1536l112 260h107l115 -260h-90l-78 152l-76 -152h-90zM238 446h184l-90 791z" />
<glyph unicode="&#xc4;" horiz-adv-x="663" d="M55 0l197 1434h160l194 -1434h-131l-39 328h-211l-39 -328h-131zM158 1536v152h125v-152h-125zM238 446h184l-90 791zM379 1536v152h125v-152h-125z" />
<glyph unicode="&#xc5;" horiz-adv-x="663" d="M55 0l197 1434h160l194 -1434h-131l-39 328h-211l-39 -328h-131zM193 1655q0 157 139 157t139 -157q0 -154 -139 -154t-139 154zM238 446h184l-90 791zM272 1655q0 -84 60 -84q59 0 59 84q0 88 -59 88q-60 0 -60 -88z" />
<glyph unicode="&#xc6;" horiz-adv-x="948" d="M49 0l338 1434h481v-125h-278v-527h239v-118h-239v-541h278v-123h-407v328h-207l-74 -328h-131zM279 446h182v828z" />
<glyph unicode="&#xc7;" horiz-adv-x="675" d="M106 229v973q0 120 54.5 186t187.5 66q240 0 240 -252v-158h-125v158q0 135 -115 135q-62 0 -87 -35.5t-25 -99.5v-973q0 -64 25 -99.5t87 -35.5q115 0 115 135v181h125v-181q0 -234 -209 -247l-14 -64q131 -17 131 -131q0 -135 -181 -135h-94l21 78h67q46 0 65 15t19 46 q0 32 -20 48t-68 16h-29l33 127q-111 9 -157 72.5t-46 174.5z" />
<glyph unicode="&#xc8;" horiz-adv-x="616" d="M127 0v1434h408v-125h-279v-527h240v-118h-240v-541h279v-123h-408zM209 1796h123l76 -260h-86z" />
<glyph unicode="&#xc9;" horiz-adv-x="616" d="M127 0v1434h408v-125h-279v-527h240v-118h-240v-541h279v-123h-408zM209 1536l78 260h121l-111 -260h-88z" />
<glyph unicode="&#xca;" horiz-adv-x="616" d="M127 0v1434h408v-125h-279v-527h240v-118h-240v-541h279v-123h-408zM141 1536l113 260h106l115 -260h-90l-78 152l-76 -152h-90z" />
<glyph unicode="&#xcb;" horiz-adv-x="616" d="M127 0v1434h408v-125h-279v-527h240v-118h-240v-541h279v-123h-408zM135 1536v152h125v-152h-125zM356 1536v152h125v-152h-125z" />
<glyph unicode="&#xcc;" horiz-adv-x="385" d="M92 1796h123l76 -260h-86zM127 0v1434h129v-1434h-129z" />
<glyph unicode="&#xcd;" horiz-adv-x="385" d="M92 1536l78 260h121l-111 -260h-88zM127 0v1434h129v-1434h-129z" />
<glyph unicode="&#xce;" horiz-adv-x="385" d="M27 1536l112 260h107l114 -260h-90l-77 152l-76 -152h-90zM127 0v1434h129v-1434h-129z" />
<glyph unicode="&#xcf;" horiz-adv-x="385" d="M20 1536v152h125v-152h-125zM127 0v1434h129v-1434h-129zM242 1536v152h125v-152h-125z" />
<glyph unicode="&#xd0;" horiz-adv-x="731" d="M25 678v92h100v664h237q139 0 194.5 -64t55.5 -184v-938q0 -121 -53 -184.5t-192 -63.5h-242v678h-100zM254 123h106q30 0 52 5.5t35 20t21 27.5t11 40.5t3.5 45t0.5 53.5v15v790q0 40 -1.5 63.5t-8 51t-19.5 41.5t-36.5 23.5t-57.5 9.5h-106v-539h104v-92h-104v-555z " />
<glyph unicode="&#xd1;" horiz-adv-x="790" d="M127 0v1434h127l301 -1121q-12 450 -12 656v465h125v-1434h-127l-301 1118q12 -442 12 -655v-463h-125zM168 1556q0 86 28.5 126t100.5 40q34 0 62 -13.5t43.5 -29.5t38 -29.5t46.5 -13.5q31 0 44.5 16.5t13.5 49.5h78q0 -86 -29.5 -126t-99.5 -40q-35 0 -63 13.5 t-43.5 29.5t-38 29.5t-46.5 13.5q-31 0 -44 -16t-13 -50h-78z" />
<glyph unicode="&#xd2;" d="M106 229v973q0 120 54.5 186t187.5 66t187.5 -66t54.5 -186v-973q0 -120 -54.5 -184.5t-187.5 -64.5t-187.5 64.5t-54.5 184.5zM195 1796h122l76 -260h-86zM236 229q0 -64 25 -99.5t87 -35.5q113 0 113 135v973q0 135 -113 135q-62 0 -87 -35.5t-25 -99.5v-973z" />
<glyph unicode="&#xd3;" d="M106 229v973q0 120 54.5 186t187.5 66t187.5 -66t54.5 -186v-973q0 -120 -54.5 -184.5t-187.5 -64.5t-187.5 64.5t-54.5 184.5zM236 229q0 -64 25 -99.5t87 -35.5q113 0 113 135v973q0 135 -113 135q-62 0 -87 -35.5t-25 -99.5v-973zM303 1536l78 260h121l-111 -260h-88z " />
<glyph unicode="&#xd4;" d="M106 229v973q0 120 54.5 186t187.5 66t187.5 -66t54.5 -186v-973q0 -120 -54.5 -184.5t-187.5 -64.5t-187.5 64.5t-54.5 184.5zM182 1536l113 260h106l115 -260h-90l-78 152l-76 -152h-90zM236 229q0 -64 25 -99.5t87 -35.5q113 0 113 135v973q0 135 -113 135 q-62 0 -87 -35.5t-25 -99.5v-973z" />
<glyph unicode="&#xd5;" d="M106 229v973q0 120 54.5 186t187.5 66t187.5 -66t54.5 -186v-973q0 -120 -54.5 -184.5t-187.5 -64.5t-187.5 64.5t-54.5 184.5zM121 1556q0 86 28.5 126t100.5 40q34 0 62 -13.5t43.5 -29.5t38 -29.5t46.5 -13.5q31 0 44.5 16.5t13.5 49.5h77q0 -86 -29.5 -126t-99.5 -40 q-35 0 -63 13.5t-43.5 29.5t-37.5 29.5t-46 13.5q-31 0 -44 -16t-13 -50h-78zM236 229q0 -64 25 -99.5t87 -35.5q113 0 113 135v973q0 135 -113 135q-62 0 -87 -35.5t-25 -99.5v-973z" />
<glyph unicode="&#xd6;" d="M106 229v973q0 120 54.5 186t187.5 66t187.5 -66t54.5 -186v-973q0 -120 -54.5 -184.5t-187.5 -64.5t-187.5 64.5t-54.5 184.5zM176 1536v152h125v-152h-125zM236 229q0 -64 25 -99.5t87 -35.5q113 0 113 135v973q0 135 -113 135q-62 0 -87 -35.5t-25 -99.5v-973z M397 1536v152h125v-152h-125z" />
<glyph unicode="&#xd7;" horiz-adv-x="735" d="M100 373l201 200l-201 199l66 66l201 -201l198 201l66 -66l-201 -199l201 -200l-66 -66l-198 201l-201 -201z" />
<glyph unicode="&#xd8;" d="M106 229v973q0 120 54.5 186t187.5 66q19 0 47 -4l6 45h58l-6 -55q137 -43 137 -238v-973q0 -120 -54.5 -184.5t-187.5 -64.5q-21 0 -49 4l-4 -45h-57l6 55q-74 24 -106 83t-32 152zM236 229q0 -64 22 -96l125 1200q-20 4 -35 4q-62 0 -87 -35.5t-25 -99.5v-973zM311 98 q10 -4 37 -4q113 0 113 135v973q0 60 -23 96z" />
<glyph unicode="&#xd9;" horiz-adv-x="716" d="M117 231v1203h129v-1203q0 -65 24.5 -101t87.5 -36t87 36t24 101v1203h129v-1203q0 -251 -240 -251q-70 0 -118.5 18t-74.5 53t-37 78t-11 102zM209 1796h123l76 -260h-86z" />
<glyph unicode="&#xda;" horiz-adv-x="716" d="M117 231v1203h129v-1203q0 -65 24.5 -101t87.5 -36t87 36t24 101v1203h129v-1203q0 -251 -240 -251q-70 0 -118.5 18t-74.5 53t-37 78t-11 102zM311 1536l78 260h121l-111 -260h-88z" />
<glyph unicode="&#xdb;" horiz-adv-x="716" d="M117 231v1203h129v-1203q0 -65 24.5 -101t87.5 -36t87 36t24 101v1203h129v-1203q0 -251 -240 -251q-70 0 -118.5 18t-74.5 53t-37 78t-11 102zM190 1536l113 260h107l114 -260h-90l-78 152l-75 -152h-91z" />
<glyph unicode="&#xdc;" horiz-adv-x="716" d="M117 231v1203h129v-1203q0 -65 24.5 -101t87.5 -36t87 36t24 101v1203h129v-1203q0 -251 -240 -251q-70 0 -118.5 18t-74.5 53t-37 78t-11 102zM184 1536v152h125v-152h-125zM406 1536v152h124v-152h-124z" />
<glyph unicode="&#xdd;" horiz-adv-x="618" d="M45 1434h135l127 -652l129 652h135l-198 -838v-596h-129v596zM262 1536l78 260h121l-111 -260h-88z" />
<glyph unicode="&#xde;" horiz-adv-x="684" d="M127 0v1434h129v-291h104q139 0 192.5 -63.5t53.5 -184.5v-324q0 -119 -55 -181t-195 -62h-100v-328h-129zM256 446h98q67 0 95 33.5t28 112.5v297q0 68 -27 98.5t-96 30.5h-98v-572z" />
<glyph unicode="&#xdf;" horiz-adv-x="653" d="M96 0v1243q0 114 51.5 173t171.5 59t173 -59t53 -173v-233q0 -81 -22.5 -123.5t-76.5 -67.5q60 -24 87.5 -67.5t27.5 -120.5v-414q0 -121 -48 -179t-177 -58q-1 0 -49 6v104q24 -4 47 -4q63 0 83.5 27.5t20.5 93.5v368q0 39 -1 58.5t-7 48t-18 42t-35 24t-58 10.5h-8v119 h4q58 0 82.5 29t24.5 91v248q0 123 -103 123q-55 0 -77.5 -30t-22.5 -93v-1245h-123z" />
<glyph unicode="&#xe0;" horiz-adv-x="630" d="M86 213v131q0 120 71.5 190t262.5 128v149q0 59 -25 93t-76 34q-58 0 -80 -32.5t-22 -96.5v-47h-121v49q0 112 50 172.5t173 60.5q124 0 174 -60.5t50 -172.5v-811h-72l-33 61q-41 -81 -145 -81q-108 0 -157.5 57.5t-49.5 175.5zM197 1386h122l76 -260h-86zM209 213 q0 -63 24 -95t82 -32q105 0 105 127v356q-125 -39 -168 -89t-43 -134v-133z" />
<glyph unicode="&#xe1;" horiz-adv-x="630" d="M86 213v131q0 120 71.5 190t262.5 128v149q0 59 -25 93t-76 34q-58 0 -80 -32.5t-22 -96.5v-47h-121v49q0 112 50 172.5t173 60.5q124 0 174 -60.5t50 -172.5v-811h-72l-33 61q-41 -81 -145 -81q-108 0 -157.5 57.5t-49.5 175.5zM209 213q0 -63 24 -95t82 -32 q105 0 105 127v356q-125 -39 -168 -89t-43 -134v-133zM264 1126l78 260h121l-111 -260h-88z" />
<glyph unicode="&#xe2;" horiz-adv-x="630" d="M86 213v131q0 120 71.5 190t262.5 128v149q0 59 -25 93t-76 34q-58 0 -80 -32.5t-22 -96.5v-47h-121v49q0 112 50 172.5t173 60.5q124 0 174 -60.5t50 -172.5v-811h-72l-33 61q-41 -81 -145 -81q-108 0 -157.5 57.5t-49.5 175.5zM145 1126l113 260h107l114 -260h-90 l-78 152l-75 -152h-91zM209 213q0 -63 24 -95t82 -32q105 0 105 127v356q-125 -39 -168 -89t-43 -134v-133z" />
<glyph unicode="&#xe4;" horiz-adv-x="630" d="M86 213v131q0 120 71.5 190t262.5 128v149q0 59 -25 93t-76 34q-58 0 -80 -32.5t-22 -96.5v-47h-121v49q0 112 50 172.5t173 60.5q124 0 174 -60.5t50 -172.5v-811h-72l-33 61q-41 -81 -145 -81q-108 0 -157.5 57.5t-49.5 175.5zM139 1198v152h125v-152h-125zM209 213 q0 -63 24 -95t82 -32q105 0 105 127v356q-125 -39 -168 -89t-43 -134v-133zM360 1198v152h125v-152h-125z" />
<glyph unicode="&#xe5;" horiz-adv-x="630" d="M86 213v131q0 120 71.5 190t262.5 128v149q0 59 -25 93t-76 34q-58 0 -80 -32.5t-22 -96.5v-47h-121v49q0 112 50 172.5t173 60.5q124 0 174 -60.5t50 -172.5v-811h-72l-33 61q-41 -81 -145 -81q-108 0 -157.5 57.5t-49.5 175.5zM172 1274q0 158 139 158q140 0 140 -158 q0 -154 -140 -154q-139 0 -139 154zM209 213q0 -63 24 -95t82 -32q105 0 105 127v356q-125 -39 -168 -89t-43 -134v-133zM252 1274q0 -84 59 -84q60 0 60 84q0 88 -60 88q-59 0 -59 -88z" />
<glyph unicode="&#xe6;" horiz-adv-x="962" d="M80 217v127q0 120 71.5 190t262.5 128v149q0 63 -23.5 95t-79.5 32q-55 0 -77.5 -33t-22.5 -96v-47h-121v49q0 112 49.5 172.5t169.5 60.5q118 0 170 -69q50 69 172 69q126 0 174.5 -61t48.5 -178v-295h-331v-293q0 -131 106 -131q57 0 82 33t25 98v135h118v-135 q0 -116 -49.5 -176.5t-175.5 -60.5t-170 69q-48 -69 -170 -69q-128 0 -178.5 60.5t-50.5 176.5zM203 217q0 -66 24 -98.5t82 -32.5q57 0 81 32.5t24 98.5v352q-125 -39 -168 -89t-43 -134v-129zM543 604h211v201q0 62 -28 97.5t-77 35.5q-58 0 -82 -33t-24 -100v-201z" />
<glyph unicode="&#xe7;" horiz-adv-x="638" d="M96 217v588q0 115 52.5 177t177.5 62q126 0 175.5 -61t49.5 -178v-113h-121v113q0 67 -23.5 100t-80.5 33q-58 0 -82.5 -33t-24.5 -100v-588q0 -66 24.5 -98.5t82.5 -32.5q56 0 80 32.5t24 98.5v135h121v-135q0 -110 -44.5 -169.5t-154.5 -65.5l-14 -64q131 -17 131 -131 q0 -135 -180 -135h-94l20 78h68q46 0 65 15t19 46q0 32 -20 48t-68 16h-29l33 127q-103 10 -145 69.5t-42 165.5z" />
<glyph unicode="&#xe8;" horiz-adv-x="649" d="M96 217v588q0 116 52 177.5t178 61.5t175.5 -61t49.5 -178v-297h-332v-291q0 -131 107 -131q56 0 80 32.5t24 98.5v135h121v-135q0 -116 -49.5 -176.5t-175.5 -60.5q-128 0 -179 60.5t-51 176.5zM215 1386h123l76 -260h-86zM219 604h211v199q0 69 -23 102t-81 33 t-82.5 -33t-24.5 -100v-201z" />
<glyph unicode="&#xe9;" horiz-adv-x="649" d="M96 217v588q0 116 52 177.5t178 61.5t175.5 -61t49.5 -178v-297h-332v-291q0 -131 107 -131q56 0 80 32.5t24 98.5v135h121v-135q0 -116 -49.5 -176.5t-175.5 -60.5q-128 0 -179 60.5t-51 176.5zM219 604h211v199q0 69 -23 102t-81 33t-82.5 -33t-24.5 -100v-201z M272 1126l78 260h121l-111 -260h-88z" />
<glyph unicode="&#xea;" horiz-adv-x="649" d="M96 217v588q0 116 52 177.5t178 61.5t175.5 -61t49.5 -178v-297h-332v-291q0 -131 107 -131q56 0 80 32.5t24 98.5v135h121v-135q0 -116 -49.5 -176.5t-175.5 -60.5q-128 0 -179 60.5t-51 176.5zM147 1126l113 260h107l114 -260h-90l-78 152l-75 -152h-91zM219 604h211 v199q0 69 -23 102t-81 33t-82.5 -33t-24.5 -100v-201z" />
<glyph unicode="&#xeb;" horiz-adv-x="649" d="M96 217v588q0 116 52 177.5t178 61.5t175.5 -61t49.5 -178v-297h-332v-291q0 -131 107 -131q56 0 80 32.5t24 98.5v135h121v-135q0 -116 -49.5 -176.5t-175.5 -60.5q-128 0 -179 60.5t-51 176.5zM141 1198v152h125v-152h-125zM219 604h211v199q0 69 -23 102t-81 33 t-82.5 -33t-24.5 -100v-201zM362 1198v152h125v-152h-125z" />
<glyph unicode="&#xec;" horiz-adv-x="329" d="M49 1386h123l76 -260h-86zM102 0v1024h123v-1024h-123z" />
<glyph unicode="&#xed;" horiz-adv-x="329" d="M102 0v1024h123v-1024h-123zM113 1126l77 260h121l-110 -260h-88z" />
<glyph unicode="&#xee;" horiz-adv-x="329" d="M-2 1126l113 260h106l115 -260h-90l-78 152l-76 -152h-90zM102 0v1024h123v-1024h-123z" />
<glyph unicode="&#xef;" horiz-adv-x="329" d="M-8 1198v152h125v-152h-125zM102 0v1024h123v-1024h-123zM213 1198v152h125v-152h-125z" />
<glyph unicode="&#xf0;" horiz-adv-x="692" d="M96 229v369q0 121 45.5 180.5t155.5 59.5q84 0 147 -60q-3 198 -57 344l-96 -45l-35 78l98 45q-57 114 -159 234h135q81 -100 127 -185l102 47l35 -77l-100 -45q71 -171 71 -439v-506q0 -123 -52 -186t-181 -63q-130 0 -183 63.5t-53 185.5zM219 229q0 -66 26 -100.5 t87 -34.5t86.5 34.5t25.5 100.5v418q-40 78 -114 78q-111 0 -111 -127v-369z" />
<glyph unicode="&#xf1;" horiz-adv-x="671" d="M106 0v1024h74l33 -66q50 86 152 86q107 0 152.5 -57t45.5 -178v-809h-123v809q0 129 -102 129q-109 0 -109 -131v-807h-123zM106 1167q0 86 29 126t101 40q34 0 62 -13.5t43.5 -29.5t38 -29.5t46.5 -13.5q31 0 44 16t13 50h78q0 -86 -29.5 -126t-99.5 -40 q-35 0 -63 13.5t-43.5 29.5t-37.5 29.5t-46 13.5q-31 0 -44.5 -16.5t-13.5 -49.5h-78z" />
<glyph unicode="&#xf2;" horiz-adv-x="651" d="M96 217v588q0 115 52.5 177t177.5 62t176 -61.5t51 -177.5v-588q0 -116 -50.5 -176.5t-176.5 -60.5q-128 0 -179 60.5t-51 176.5zM176 1386h123l76 -260h-86zM219 217q0 -66 24.5 -98.5t82.5 -32.5q56 0 80 32.5t24 98.5v588q0 67 -23.5 100t-80.5 33q-58 0 -82.5 -33 t-24.5 -100v-588z" />
<glyph unicode="&#xf3;" horiz-adv-x="651" d="M96 217v588q0 115 52.5 177t177.5 62t176 -61.5t51 -177.5v-588q0 -116 -50.5 -176.5t-176.5 -60.5q-128 0 -179 60.5t-51 176.5zM219 217q0 -66 24.5 -98.5t82.5 -32.5q56 0 80 32.5t24 98.5v588q0 67 -23.5 100t-80.5 33q-58 0 -82.5 -33t-24.5 -100v-588zM274 1126 l78 260h121l-111 -260h-88z" />
<glyph unicode="&#xf4;" horiz-adv-x="651" d="M96 217v588q0 115 52.5 177t177.5 62t176 -61.5t51 -177.5v-588q0 -116 -50.5 -176.5t-176.5 -60.5q-128 0 -179 60.5t-51 176.5zM158 1126l112 260h107l115 -260h-91l-77 152l-76 -152h-90zM219 217q0 -66 24.5 -98.5t82.5 -32.5q56 0 80 32.5t24 98.5v588 q0 67 -23.5 100t-80.5 33q-58 0 -82.5 -33t-24.5 -100v-588z" />
<glyph unicode="&#xf5;" horiz-adv-x="651" d="M96 217v588q0 115 52.5 177t177.5 62t176 -61.5t51 -177.5v-588q0 -116 -50.5 -176.5t-176.5 -60.5q-128 0 -179 60.5t-51 176.5zM96 1167q0 86 28.5 126t100.5 40q34 0 62 -13.5t44 -29.5t38.5 -29.5t46.5 -13.5q31 0 44 16t13 50h78q0 -86 -29.5 -126t-99.5 -40 q-35 0 -63 13.5t-43.5 29.5t-38 29.5t-46.5 13.5q-31 0 -44 -16t-13 -50h-78zM219 217q0 -66 24.5 -98.5t82.5 -32.5q56 0 80 32.5t24 98.5v588q0 67 -23.5 100t-80.5 33q-58 0 -82.5 -33t-24.5 -100v-588z" />
<glyph unicode="&#xf6;" horiz-adv-x="651" d="M96 217v588q0 115 52.5 177t177.5 62t176 -61.5t51 -177.5v-588q0 -116 -50.5 -176.5t-176.5 -60.5q-128 0 -179 60.5t-51 176.5zM152 1198v152h124v-152h-124zM219 217q0 -66 24.5 -98.5t82.5 -32.5q56 0 80 32.5t24 98.5v588q0 67 -23.5 100t-80.5 33q-58 0 -82.5 -33 t-24.5 -100v-588zM373 1198v152h125v-152h-125z" />
<glyph unicode="&#xf7;" horiz-adv-x="798" d="M100 526v95h594v-95h-594zM330 238v157h137v-157h-137zM330 750v157h137v-157h-137z" />
<glyph unicode="&#xf8;" horiz-adv-x="641" d="M90 217v588q0 116 52 177.5t177 61.5q33 0 60 -6l8 47h53l-10 -59q117 -47 117 -221v-588q0 -116 -51 -176.5t-177 -60.5q-25 0 -61 4l-8 -45h-51l8 57q-117 44 -117 221zM203 217q0 -67 24 -102l135 825q-24 8 -43 8q-62 0 -89 -35.5t-27 -107.5v-588zM274 80 q24 -4 45 -4q62 0 88.5 34.5t26.5 106.5v588q0 69 -24 102z" />
<glyph unicode="&#xf9;" horiz-adv-x="671" d="M106 215v809h123v-809q0 -129 105 -129q106 0 106 129v809h123v-1024h-71l-33 66q-45 -86 -154 -86q-106 0 -152.5 57t-46.5 178zM182 1386h123l76 -260h-86z" />
<glyph unicode="&#xfa;" horiz-adv-x="671" d="M106 215v809h123v-809q0 -129 105 -129q106 0 106 129v809h123v-1024h-71l-33 66q-45 -86 -154 -86q-106 0 -152.5 57t-46.5 178zM295 1126l78 260h121l-111 -260h-88z" />
<glyph unicode="&#xfb;" horiz-adv-x="671" d="M106 215v809h123v-809q0 -129 105 -129q106 0 106 129v809h123v-1024h-71l-33 66q-45 -86 -154 -86q-106 0 -152.5 57t-46.5 178zM168 1126l113 260h106l115 -260h-90l-78 152l-76 -152h-90z" />
<glyph unicode="&#xfc;" horiz-adv-x="671" d="M106 215v809h123v-809q0 -129 105 -129q106 0 106 129v809h123v-1024h-71l-33 66q-45 -86 -154 -86q-106 0 -152.5 57t-46.5 178zM162 1198v152h125v-152h-125zM383 1198v152h125v-152h-125z" />
<glyph unicode="&#xfd;" horiz-adv-x="616" d="M35 -227q37 -15 80 -15q91 0 114 119l23 121l-201 1026h127l133 -801l131 801h127l-221 -1151q-24 -120 -74.5 -170.5t-158.5 -50.5q-50 0 -80 10v111zM279 1126l77 260h121l-110 -260h-88z" />
<glyph unicode="&#xfe;" horiz-adv-x="671" d="M106 -328v1782h123v-483q21 33 58 53t82 20q105 0 149.5 -56.5t44.5 -178.5v-594q0 -235 -194 -235q-45 0 -82 20t-58 53v-381h-123zM229 293q0 -44 1 -65.5t6.5 -54t16 -48t32 -27.5t53.5 -12q56 0 79 32t23 97v520q0 36 -0.5 54t-3 46.5t-9 43t-17.5 30.5t-29 22.5 t-43 6.5q-109 0 -109 -131v-514z" />
<glyph unicode="&#xff;" horiz-adv-x="616" d="M35 -227q37 -15 80 -15q91 0 114 119l23 121l-201 1026h127l133 -801l131 801h127l-221 -1151q-24 -120 -74.5 -170.5t-158.5 -50.5q-50 0 -80 10v111zM133 1198v152h125v-152h-125zM354 1198v152h125v-152h-125z" />
<glyph unicode="&#x152;" horiz-adv-x="946" d="M96 229v973q0 120 54.5 186t187.5 66q49 0 111 -20h409v-125h-278v-527h239v-118h-239v-541h278v-123h-409q-52 -20 -111 -20q-133 0 -187.5 64.5t-54.5 184.5zM225 229q0 -135 113 -135t113 119v989q0 135 -113 135t-113 -135v-973z" />
<glyph unicode="&#x153;" horiz-adv-x="972" d="M90 217v588q0 116 52 177.5t177 61.5q112 0 166 -67q51 67 168 67q126 0 176 -61t50 -178v-297h-332v-291q0 -131 106 -131q57 0 81 32.5t24 98.5v135h121v-135q0 -116 -50 -176.5t-176 -60.5q-114 0 -166 65q-52 -65 -168 -65q-128 0 -178.5 60.5t-50.5 176.5zM213 217 q0 -66 25 -98.5t81 -32.5q63 0 84 40.5t21 133.5v545q0 133 -105 133q-64 0 -85 -41.5t-21 -132.5v-547zM547 604h211v189q0 74 -23 109.5t-82 35.5q-58 0 -82 -33t-24 -100v-201z" />
<glyph unicode="&#x178;" horiz-adv-x="618" d="M45 1434h135l127 -652l129 652h135l-198 -838v-596h-129v596zM135 1536v152h125v-152h-125zM356 1536v152h125v-152h-125z" />
<glyph unicode="&#x2000;" horiz-adv-x="906" />
<glyph unicode="&#x2001;" horiz-adv-x="1812" />
<glyph unicode="&#x2002;" horiz-adv-x="906" />
<glyph unicode="&#x2003;" horiz-adv-x="1812" />
<glyph unicode="&#x2004;" horiz-adv-x="604" />
<glyph unicode="&#x2005;" horiz-adv-x="453" />
<glyph unicode="&#x2006;" horiz-adv-x="302" />
<glyph unicode="&#x2007;" horiz-adv-x="302" />
<glyph unicode="&#x2008;" horiz-adv-x="226" />
<glyph unicode="&#x2009;" horiz-adv-x="362" />
<glyph unicode="&#x200a;" horiz-adv-x="100" />
<glyph unicode="&#x2010;" horiz-adv-x="512" d="M80 526v95h348v-95h-348z" />
<glyph unicode="&#x2011;" horiz-adv-x="512" d="M80 526v95h348v-95h-348z" />
<glyph unicode="&#x2012;" horiz-adv-x="512" d="M80 526v95h348v-95h-348z" />
<glyph unicode="&#x2013;" horiz-adv-x="716" d="M80 526v95h553v-95h-553z" />
<glyph unicode="&#x2014;" horiz-adv-x="1044" d="M80 539v69h881v-69h-881z" />
<glyph unicode="&#x2018;" horiz-adv-x="303" d="M76 1454h145v-416h-74z" />
<glyph unicode="&#x2019;" horiz-adv-x="296" d="M80 1038v416h145l-71 -416h-74z" />
<glyph unicode="&#x201a;" horiz-adv-x="344" d="M100 -199v416h146l-72 -416h-74z" />
<glyph unicode="&#x201c;" horiz-adv-x="532" d="M80 1454h145v-416h-73zM305 1454h144v-416h-74z" />
<glyph unicode="&#x201d;" horiz-adv-x="532" d="M80 1038v416h145l-71 -416h-74zM305 1038v416h144l-70 -416h-74z" />
<glyph unicode="&#x201e;" horiz-adv-x="565" d="M96 -199v416h146l-72 -416h-74zM322 -199v416h143l-70 -416h-73z" />
<glyph unicode="&#x2022;" horiz-adv-x="512" d="M80 580q0 72 51 123t123 51t123 -51t51 -123t-51 -123t-123 -51t-123 51t-51 123z" />
<glyph unicode="&#x202f;" horiz-adv-x="362" />
<glyph unicode="&#x2039;" horiz-adv-x="503" d="M80 512l217 379h125l-215 -379l215 -379h-125z" />
<glyph unicode="&#x203a;" horiz-adv-x="503" d="M80 133l215 379l-215 379h125l217 -379l-217 -379h-125z" />
<glyph unicode="&#x205f;" horiz-adv-x="453" />
<glyph unicode="&#x20ac;" horiz-adv-x="765" d="M59 575v76h103v148h-103v75h103v328q0 120 54 186t187 66q240 0 240 -252v-158h-127v158q0 135 -113 135q-62 0 -87 -35.5t-25 -99.5v-328h227q-2 -14 -8 -38.5t-8 -36.5h-211v-148h178q-14 -62 -16 -76h-162v-346q0 -135 112 -135q113 0 113 135v181h127v-181 q0 -249 -240 -249q-133 0 -187 64.5t-54 184.5v346h-103z" />
<glyph unicode="&#x2122;" horiz-adv-x="704" d="M80 1386v48h203v-48h-76v-362h-49v362h-78zM340 1024v410h51l80 -238l80 238h51v-410h-47v295l-68 -205h-30l-68 205v-295h-49z" />
<glyph unicode="&#xe000;" horiz-adv-x="1024" d="M0 0v1024h1024v-1024h-1024z" />
</font>
</defs>
</svg>
