<?xml version="1.0" standalone="no"?>
<!DOCTYPE svg PUBLIC "-//W3C//DTD SVG 1.1//EN" "http://www.w3.org/Graphics/SVG/1.1/DTD/svg11.dtd" >
<svg xmlns="http://www.w3.org/2000/svg">
<metadata></metadata>
<defs>
<font id="heroic_condensedbook" horiz-adv-x="688" >
<font-face units-per-em="2048" ascent="1638" descent="-410" />
<missing-glyph horiz-adv-x="368" />
<glyph horiz-adv-x="2048" />
<glyph horiz-adv-x="2048" />
<glyph unicode="&#xd;" horiz-adv-x="2048" />
<glyph unicode=" "  horiz-adv-x="368" />
<glyph unicode="&#x09;" horiz-adv-x="368" />
<glyph unicode="&#xa0;" horiz-adv-x="368" />
<glyph unicode="!" horiz-adv-x="356" d="M117 1434h123l-27 -963h-70zM121 0v135h115v-135h-115z" />
<glyph unicode="&#x22;" horiz-adv-x="530" d="M92 1454h123l-31 -399h-61zM315 1454h123l-30 -399h-62z" />
<glyph unicode="#" horiz-adv-x="712" d="M80 612v64h119q16 258 22 387h-121v63h125l17 308h67l-16 -308h153l17 308h67l-16 -308h115v-63h-119l-21 -387h119v-64h-123l-16 -305h-68l17 305h-154l-16 -305h-70l19 305h-117zM268 676h154l20 387h-153z" />
<glyph unicode="$" d="M133 438v123h92v-129q0 -79 24.5 -112t94.5 -33q64 0 91.5 36t27.5 113v82q0 53 -18 91.5t-47.5 61t-64.5 41.5t-70 40.5t-64.5 49.5t-47.5 76t-18 113v43q0 107 40 166t138 68v166h68v-166q97 -9 136.5 -68t39.5 -166v-98h-92v100q0 78 -28 115t-91 37t-91 -37.5 t-28 -114.5v-45q0 -55 18 -95t47.5 -63.5t64.5 -42.5t70 -39.5t64.5 -47.5t47.5 -72.5t18 -108.5v-84q0 -108 -38.5 -166t-137.5 -67v-205h-68v205q-100 9 -139 66.5t-39 166.5z" />
<glyph unicode="%" horiz-adv-x="907" d="M100 1100v143q0 111 35.5 161t126.5 50t125.5 -49.5t34.5 -161.5v-143q0 -110 -34.5 -159.5t-125.5 -49.5t-126.5 49.5t-35.5 159.5zM113 0l604 1434h74l-603 -1434h-75zM172 1098q0 -82 19 -113t71 -31t71 31t19 113v147q0 83 -19 114.5t-71 31.5t-71 -31.5t-19 -114.5 v-147zM481 188v144q0 111 35.5 161t126.5 50t125.5 -49.5t34.5 -161.5v-144q0 -110 -34.5 -159t-125.5 -49t-126.5 49t-35.5 159zM553 186q0 -82 19 -112.5t71 -30.5t71 30.5t19 112.5v148q0 83 -19 114t-71 31t-71 -31t-19 -114v-148z" />
<glyph unicode="&#x26;" horiz-adv-x="815" d="M133 223v291q0 86 30 138t101 73q-71 20 -101 71t-30 138v270q0 120 52.5 185t179.5 65q124 0 176.5 -65.5t52.5 -184.5v-160h-96v160q0 162 -133 162q-73 0 -103.5 -42.5t-30.5 -119.5v-284q0 -75 32 -113.5t112 -38.5h348v-90h-127v-467q0 -60 33.5 -90.5t93.5 -30.5 v-90q-136 0 -176 92q-39 -112 -189 -112q-124 0 -174.5 61t-50.5 182zM231 229q0 -78 29 -119.5t102 -41.5q136 0 136 161v449h-123q-87 0 -115.5 -42.5t-28.5 -131.5v-275z" />
<glyph unicode="'" horiz-adv-x="286" d="M82 1454h123l-31 -399h-61z" />
<glyph unicode="(" horiz-adv-x="493" d="M113 715q0 367 198 780h70q-182 -431 -182 -780q0 -350 182 -776h-70q-198 409 -198 776z" />
<glyph unicode=")" horiz-adv-x="493" d="M113 -61q182 426 182 776q0 349 -182 780h69q199 -415 199 -780t-199 -776h-69z" />
<glyph unicode="*" horiz-adv-x="716" d="M72 1204l32 105l238 -119l-39 264h111l-39 -264l237 119l33 -105l-262 -45l186 -188l-88 -66l-123 236l-122 -236l-91 66l187 188z" />
<glyph unicode="+" horiz-adv-x="788" d="M113 537v73h243v260h76v-260h244v-73h-244v-261h-76v261h-243z" />
<glyph unicode="," horiz-adv-x="292" d="M92 135h119l-57 -315h-62v315z" />
<glyph unicode="-" horiz-adv-x="532" d="M92 537v73h348v-73h-348z" />
<glyph unicode="." horiz-adv-x="299" d="M92 0v135h115v-135h-115z" />
<glyph unicode="/" horiz-adv-x="548" d="M72 -61l327 1556h78l-327 -1556h-78z" />
<glyph unicode="0" d="M113 229v975q0 120 52 185t179 65t179 -65t52 -185v-975q0 -120 -52 -184.5t-179 -64.5t-179 64.5t-52 184.5zM211 229q0 -77 30 -119t103 -42t103 42t30 119v975q0 77 -30 119.5t-103 42.5t-103 -42.5t-30 -119.5v-975z" />
<glyph unicode="1" horiz-adv-x="518" d="M82 1229v65q83 0 117 34.5t34 105.5h78v-1340h125v-94h-348v94h125v1135h-131z" />
<glyph unicode="2" horiz-adv-x="645" d="M102 0v205q0 98 19.5 179t51 137t69.5 105.5t76.5 94t70 91t51 108.5t19.5 135v151q0 158 -129 158q-73 0 -101 -41t-28 -117v-162h-99v162q0 120 49.5 184t178.5 64q128 0 177.5 -64t49.5 -184v-149q0 -83 -19.5 -152t-51 -119t-69.5 -96.5t-76 -94t-69.5 -99.5 t-51 -125.5t-19.5 -161.5v-115h362v-94h-461z" />
<glyph unicode="3" horiz-adv-x="681" d="M102 229v181h97v-181q0 -76 29 -118.5t102 -42.5q72 0 101.5 41.5t29.5 119.5v291q0 158 -131 158h-66v90h66q69 0 96 37.5t27 109.5v295q0 74 -28.5 114t-98.5 40q-68 0 -96.5 -40t-28.5 -114v-166h-97v166q0 118 50 181t172 63q123 0 174 -63t51 -181v-286 q0 -159 -115 -199q123 -40 123 -201v-295q0 -120 -51 -184.5t-178 -64.5t-177.5 64.5t-50.5 184.5z" />
<glyph unicode="4" horiz-adv-x="655" d="M61 330v102l310 1002h129v-1014h94v-90h-94v-330h-99v330h-340zM143 420h258v260q0 102 1 301t1 309z" />
<glyph unicode="5" d="M113 229v181h98v-181q0 -78 29.5 -119.5t103.5 -41.5q72 0 102.5 41.5t30.5 119.5v396q0 78 -27 116.5t-96 38.5q-90 0 -145 -84h-82l35 738h391v-95h-303l-25 -540q65 65 152 65q108 0 153 -58t45 -181v-396q0 -120 -52 -184.5t-179 -64.5t-179 64.5t-52 184.5z" />
<glyph unicode="6" horiz-adv-x="698" d="M123 229v975q0 121 53 185.5t178 64.5t178.5 -65t53.5 -185v-160h-99v160q0 162 -133 162q-72 0 -102.5 -41.5t-30.5 -120.5v-436q64 70 158 70q111 0 159 -59.5t48 -180.5v-369q0 -121 -53 -185t-179 -64t-178.5 63.5t-52.5 185.5zM221 229q0 -79 30 -120t103 -41 t103 41t30 120v369q0 77 -31 115.5t-98 38.5q-46 0 -83 -25.5t-54 -69.5v-428z" />
<glyph unicode="7" horiz-adv-x="559" d="M51 1339v95h457v-76q-123 -368 -160 -624.5t-37 -733.5h-106q0 408 44.5 711t164.5 628h-363z" />
<glyph unicode="8" d="M113 229v256q0 51 4.5 85.5t17 67t38 53.5t65.5 34q-115 40 -115 199v286q0 118 49 181t172 63t172 -63t49 -181v-286q0 -160 -114 -199q40 -13 65.5 -34t38 -53.5t16.5 -67t4 -85.5v-256q0 -120 -52 -184.5t-179 -64.5t-179 64.5t-52 184.5zM211 256q0 -93 26.5 -140.5 t106.5 -47.5t106.5 47.5t26.5 140.5v244q0 35 -2 58t-9.5 48.5t-21.5 40.5t-39 25t-61 10t-61 -10t-39 -25t-21.5 -40.5t-9.5 -48.5t-2 -58v-244zM219 940q0 -42 3.5 -68.5t15.5 -53.5t38.5 -39.5t67.5 -12.5t67.5 12.5t38.5 39.5t15.5 53.5t3.5 68.5v244q0 43 -4 71.5 t-16.5 56t-38.5 41t-66 13.5t-66 -13.5t-38.5 -41t-16.5 -56t-4 -71.5v-244z" />
<glyph unicode="9" d="M113 229v181h98v-181q0 -80 30.5 -120.5t102.5 -40.5q71 0 102 40.5t31 120.5v457q-67 -70 -160 -70q-111 0 -157.5 58.5t-46.5 181.5v348q0 121 53 185.5t178 64.5t178 -64.5t53 -185.5v-975q0 -122 -52.5 -185.5t-178.5 -63.5t-178.5 63.5t-52.5 185.5zM211 854 q0 -77 30 -115.5t99 -38.5q48 0 83.5 25.5t53.5 69.5v409q0 79 -30 120.5t-103 41.5t-103 -41.5t-30 -120.5v-350z" />
<glyph unicode=":" horiz-adv-x="339" d="M113 0v135h114v-135h-114zM113 657v136h114v-136h-114z" />
<glyph unicode=";" horiz-adv-x="333" d="M113 135h118l-57 -315h-61v315zM113 657v136h114v-136h-114z" />
<glyph unicode="&#x3c;" horiz-adv-x="593" d="M92 717l328 778h82l-328 -778l328 -778h-82z" />
<glyph unicode="=" horiz-adv-x="757" d="M113 381v74h532v-74h-532zM113 692v74h532v-74h-532z" />
<glyph unicode="&#x3e;" horiz-adv-x="593" d="M92 -61l328 778l-328 778h82l328 -778l-328 -778h-82z" />
<glyph unicode="?" horiz-adv-x="675" d="M113 1044v158q0 60 9 102t32.5 78t69.5 54t114 18q130 0 177.5 -64.5t47.5 -187.5v-127q0 -73 -10 -125.5t-26.5 -83.5t-36 -56t-39.5 -51t-37 -59.5t-28 -91.5t-13 -137h-72q0 123 17 202.5t41 116t48 66.5t41 82t17 135v129q0 71 -30 117.5t-97 46.5q-75 0 -101 -41.5 t-26 -122.5v-158h-98zM279 0v135h114v-135h-114z" />
<glyph unicode="@" horiz-adv-x="1085" d="M113 250v524q0 475 430 475t430 -475v-524q0 -475 -430 -475t-430 475zM184 250q0 -70 9.5 -127.5t34.5 -111t64.5 -90t103 -58t147.5 -21.5q83 0 146.5 21.5t103 58t64.5 90t34.5 111t9.5 127.5v524q0 408 -358 408q-359 0 -359 -408v-524zM354 266v115q0 99 63 156 t228 102v121q0 123 -102 123q-58 0 -81.5 -31.5t-23.5 -91.5v-41h-76v43q0 188 181 188q98 0 138 -49.5t40 -140.5v-664h-53l-21 60q-34 -80 -125 -80q-88 0 -128 48t-40 142zM430 266q0 -125 111 -125q54 0 79 36t25 93v310q-125 -37 -170 -81.5t-45 -117.5v-115z" />
<glyph unicode="A" horiz-adv-x="651" d="M61 0l205 1434h119l205 -1434h-103l-45 344h-235l-45 -344h-101zM217 434h215l-106 842z" />
<glyph unicode="B" horiz-adv-x="710" d="M133 0v1434h213q137 0 189.5 -53t52.5 -169v-301q0 -76 -28.5 -121t-92.5 -65q70 -20 100.5 -67t30.5 -126v-296q0 -120 -51.5 -178t-190.5 -58h-223zM231 94h119q85 0 117.5 34.5t32.5 109.5v299q0 69 -33.5 105t-114.5 36h-121v-584zM231 768h109q82 0 115.5 35.5 t33.5 105.5v291q0 73 -32 106t-113 33h-113v-571z" />
<glyph unicode="C" horiz-adv-x="665" d="M113 229v975q0 120 52 185t179 65q231 0 231 -250v-160h-96v160q0 73 -32.5 117.5t-102.5 44.5q-73 0 -103 -42.5t-30 -119.5v-975q0 -77 30 -119t103 -42q70 0 102.5 44t32.5 117v181h96v-181q0 -249 -231 -249q-127 0 -179 64.5t-52 184.5z" />
<glyph unicode="D" horiz-adv-x="720" d="M133 0v1434h215q139 0 194.5 -64t55.5 -184v-938q0 -121 -53.5 -184.5t-192.5 -63.5h-219zM231 94h117q86 0 119 39t33 115v938q0 76 -34 114.5t-120 38.5h-115v-1245z" />
<glyph unicode="E" horiz-adv-x="612" d="M133 0v1434h393v-95h-295v-571h254v-90h-254v-584h295v-94h-393z" />
<glyph unicode="F" horiz-adv-x="583" d="M133 0v1434h379v-95h-281v-571h242v-90h-242v-678h-98z" />
<glyph unicode="G" horiz-adv-x="698" d="M123 227v979q0 120 52 184t179 64q125 0 177.5 -64.5t52.5 -183.5v-162h-97v162q0 160 -133 160q-73 0 -103 -41.5t-30 -118.5v-979q0 -159 133 -159q73 0 103 41t30 118v451h-133v90h232v-541q0 -119 -52 -183t-180 -64q-127 0 -179 63.5t-52 183.5z" />
<glyph unicode="H" horiz-adv-x="733" d="M133 0v1434h98v-666h271v666h98v-1434h-98v678h-271v-678h-98z" />
<glyph unicode="I" horiz-adv-x="364" d="M133 0v1434h98v-1434h-98z" />
<glyph unicode="J" horiz-adv-x="651" d="M72 227v183h98v-183q0 -78 26.5 -118.5t98.5 -40.5t98.5 39.5t26.5 119.5v1207h98v-1207q0 -124 -48 -185.5t-175 -61.5q-124 0 -173.5 63.5t-49.5 183.5z" />
<glyph unicode="K" horiz-adv-x="669" d="M133 0v1434h98v-670l273 670h110l-303 -711l318 -723h-111l-287 680v-680h-98z" />
<glyph unicode="L" horiz-adv-x="522" d="M133 0v1434h98v-1340h240v-94h-338z" />
<glyph unicode="M" horiz-adv-x="968" d="M133 0v1434h135l215 -1256h2l215 1256h136v-1434h-95v510q0 66 15 764l-224 -1274h-96l-223 1274q14 -665 14 -764v-510h-94z" />
<glyph unicode="N" horiz-adv-x="780" d="M133 0v1434h105l331 -1207q-1 81 -4.5 239.5t-5.5 287t-2 239.5v441h96v-1434h-104l-332 1204q1 -79 4 -237.5t5.5 -287t2.5 -241.5v-438h-96z" />
<glyph unicode="O" d="M113 229v975q0 120 52 185t179 65t179 -65t52 -185v-975q0 -120 -52 -184.5t-179 -64.5t-179 64.5t-52 184.5zM211 229q0 -77 30 -119t103 -42t103 42t30 119v975q0 77 -30 119.5t-103 42.5t-103 -42.5t-30 -119.5v-975z" />
<glyph unicode="P" horiz-adv-x="667" d="M133 0v1434h207q139 0 192.5 -63.5t53.5 -184.5v-318q0 -243 -250 -243h-105v-625h-98zM231 715h103q86 0 119.5 38.5t33.5 114.5v318q0 76 -32.5 114.5t-118.5 38.5h-105v-624z" />
<glyph unicode="Q" d="M113 229v975q0 120 52 185t179 65t179 -65t52 -185v-975q0 -110 -43.5 -173t-146.5 -72q3 -55 29.5 -79t83.5 -24h39l-17 -65h-22q-99 0 -146.5 41t-50.5 127q-104 8 -146 71t-42 174zM211 229q0 -77 30 -119t103 -42t103 42t30 119v975q0 77 -30 119.5t-103 42.5 t-103 -42.5t-30 -119.5v-975z" />
<glyph unicode="R" horiz-adv-x="690" d="M133 0v1434h209q72 0 121 -17.5t75 -52t37 -77t11 -101.5v-318q0 -97 -43 -159.5t-133 -79.5l239 -629h-108q-32 91 -109 301.5t-117 323.5h-84v-625h-98zM231 715h103q86 0 119.5 38.5t33.5 114.5v318q0 76 -32.5 114.5t-118.5 38.5h-105v-624z" />
<glyph unicode="S" horiz-adv-x="661" d="M102 231v179h99v-179q0 -77 29 -120t102 -43q74 0 101.5 41.5t27.5 121.5v175q0 87 -20 150.5t-51.5 100t-69.5 65t-76.5 56.5t-70 63.5t-51.5 96.5t-20 145v119q0 59 10 102t34.5 78.5t71 53.5t114.5 18q130 0 178.5 -64.5t48.5 -187.5v-158h-98v158q0 77 -28 120.5 t-101 43.5q-76 0 -103.5 -42t-27.5 -122v-119q0 -72 19.5 -124.5t51.5 -83.5t70 -57.5t76 -58t70 -72.5t51.5 -112.5t19.5 -168.5v-175q0 -123 -48.5 -187t-178.5 -64q-68 0 -114.5 18t-71 53t-34.5 78t-10 102z" />
<glyph unicode="T" horiz-adv-x="552" d="M51 1339v95h451v-95h-176v-1339h-99v1339h-176z" />
<glyph unicode="U" horiz-adv-x="704" d="M123 233v1201h98v-1201q0 -81 27.5 -123t103.5 -42t103.5 42t27.5 123v1201h99v-1201q0 -121 -51 -187t-179 -66q-68 0 -114.5 18t-71 54t-34 79t-9.5 102z" />
<glyph unicode="V" horiz-adv-x="651" d="M61 1434h103l162 -1233l161 1233h103l-209 -1434h-111z" />
<glyph unicode="W" horiz-adv-x="1087" d="M72 1434h100l147 -1231l173 1231h102l172 -1231l147 1231h101l-193 -1434h-106l-172 1233l-172 -1233h-107z" />
<glyph unicode="X" horiz-adv-x="636" d="M53 0l215 743l-200 691h104l147 -570l148 570h104l-200 -691l215 -743h-105l-162 623l-161 -623h-105z" />
<glyph unicode="Y" horiz-adv-x="612" d="M51 1434h103l151 -682l152 682h104l-207 -822v-612h-98v612z" />
<glyph unicode="Z" horiz-adv-x="561" d="M72 0v61l307 1278h-305v95h411v-62l-307 -1278h311v-94h-417z" />
<glyph unicode="[" horiz-adv-x="503" d="M154 -246v1741h237v-74h-153v-1593h153v-74h-237z" />
<glyph unicode="\" horiz-adv-x="548" d="M72 1495h78l327 -1556h-78z" />
<glyph unicode="]" horiz-adv-x="503" d="M113 -172h153v1593h-153v74h237v-1741h-237v74z" />
<glyph unicode="a" horiz-adv-x="632" d="M92 211v115q0 63 15.5 109.5t54 88t105 75.5t169.5 65v149q0 150 -121 150q-70 0 -95 -38t-25 -114v-49h-95v51q0 112 47.5 171.5t167.5 59.5q121 0 168 -59t47 -172v-813h-55l-26 70q-43 -90 -152 -90q-108 0 -156.5 56.5t-48.5 174.5zM186 211q0 -76 29 -113t96 -37 q63 0 94 41t31 109v379q-77 -24 -127 -51.5t-76.5 -61t-36.5 -68t-10 -81.5v-117z" />
<glyph unicode="b" horiz-adv-x="653" d="M113 0v1454h94v-496q47 86 149 86q105 0 150 -57t45 -180v-594q0 -120 -46 -176.5t-153 -56.5q-111 0 -157 94l-27 -74h-55zM207 219q0 -158 129 -158q121 0 121 156v590q0 156 -121 156q-65 0 -97 -43.5t-32 -120.5v-580z" />
<glyph unicode="c" horiz-adv-x="630" d="M102 219v586q0 115 50 177t170 62q121 0 169 -61t48 -178v-113h-93v113q0 78 -27.5 118t-96.5 40q-70 0 -97.5 -39.5t-27.5 -118.5v-586q0 -79 27.5 -118.5t97.5 -39.5q69 0 96.5 40t27.5 118v133h93v-133q0 -117 -48 -178t-169 -61q-123 0 -171.5 61t-48.5 178z" />
<glyph unicode="d" horiz-adv-x="663" d="M113 213v594q0 123 44.5 180t149.5 57q103 0 150 -86v496h94v-1454h-55l-27 74q-46 -94 -158 -94q-106 0 -152 56.5t-46 176.5zM207 217q0 -156 121 -156q129 0 129 158v580q0 77 -32 120.5t-97 43.5q-121 0 -121 -156v-590z" />
<glyph unicode="e" horiz-adv-x="643" d="M102 219v586q0 116 49.5 177.5t170.5 61.5q122 0 170.5 -61.5t48.5 -177.5v-289h-344v-297q0 -80 28.5 -119t96.5 -39q69 0 96.5 40t27.5 118v133h95v-133q0 -116 -48.5 -177.5t-170.5 -61.5q-123 0 -171.5 61t-48.5 178zM197 594h249v186q0 95 -25.5 139t-98.5 44 q-70 0 -97.5 -39.5t-27.5 -118.5v-211z" />
<glyph unicode="f" horiz-adv-x="462" d="M51 942v82h94v229q0 118 43.5 170t159.5 52q42 0 74 -13v-82q-29 13 -72 13q-64 0 -87 -30t-23 -110v-229h157v-82h-157v-942h-95v942h-94z" />
<glyph unicode="g" horiz-adv-x="663" d="M72 -109q0 165 137 207q-55 24 -55 76q0 55 59 78q-64 23 -89.5 78t-25.5 145v328q0 117 48 179t171 62q48 0 95 -14q39 117 141 117q38 0 59 -8v-76q-33 10 -63 10q-68 0 -94 -63q82 -55 82 -207v-328q0 -116 -49 -177.5t-171 -61.5q-92 0 -92 -62q0 -59 92 -59 q132 0 190 -57.5t58 -166.5v-22q0 -217 -246 -217q-247 0 -247 217v22zM164 -102v-23q0 -71 37 -106t118 -35t117.5 35.5t36.5 105.5v23q0 73 -37 110t-119 37q-153 0 -153 -147zM193 475q0 -80 26.5 -121t97.5 -41t98 41t27 121v328q0 80 -27 120t-98 40t-97.5 -40 t-26.5 -120v-328z" />
<glyph unicode="h" horiz-adv-x="663" d="M113 0v1454h94v-498q45 88 147 88q105 0 151 -56.5t46 -176.5v-811h-94v811q0 152 -121 152q-129 0 -129 -154v-809h-94z" />
<glyph unicode="i" horiz-adv-x="325" d="M109 1198v133h106v-133h-106zM115 0v1024h94v-1024h-94z" />
<glyph unicode="j" horiz-adv-x="325" d="M-68 -254q27 -12 72 -12q64 0 87.5 30.5t23.5 110.5v1149h94v-1151q0 -117 -43.5 -169t-159.5 -52q-44 0 -74 12v82zM109 1198v133h106v-133h-106z" />
<glyph unicode="k" horiz-adv-x="591" d="M113 0v1454h94v-885l227 455h107l-256 -492l276 -532h-106l-248 494v-494h-94z" />
<glyph unicode="l" horiz-adv-x="319" d="M113 0v1454h94v-1454h-94z" />
<glyph unicode="m" horiz-adv-x="1003" d="M113 0v1024h55l27 -76q49 96 159 96q124 0 166 -98q24 45 70 71.5t106 26.5q104 0 151.5 -56.5t47.5 -172.5v-815h-94v811q0 152 -121 152q-129 0 -129 -150v-813h-94v811q0 69 -28.5 110.5t-92.5 41.5q-129 0 -129 -154v-809h-94z" />
<glyph unicode="n" horiz-adv-x="663" d="M113 0v1024h55l27 -76q47 96 157 96q107 0 153 -56.5t46 -176.5v-811h-94v811q0 152 -121 152q-129 0 -129 -154v-809h-94z" />
<glyph unicode="o" horiz-adv-x="643" d="M102 219v586q0 115 50 177t170 62q119 0 169 -62t50 -177v-586q0 -117 -48 -178t-171 -61t-171.5 61t-48.5 178zM197 219q0 -79 27.5 -118.5t97.5 -39.5t97 39.5t27 118.5v586q0 79 -27 118.5t-97 39.5t-97.5 -39.5t-27.5 -118.5v-586z" />
<glyph unicode="p" horiz-adv-x="663" d="M113 -328v1352h55l27 -74q46 94 157 94q107 0 153 -56.5t46 -176.5v-594q0 -123 -45 -180t-150 -57q-102 0 -149 86v-394h-94zM207 225q0 -77 32 -120.5t97 -43.5q121 0 121 156v590q0 156 -121 156q-129 0 -129 -158v-580z" />
<glyph unicode="q" horiz-adv-x="663" d="M113 217v594q0 120 46 176.5t152 56.5q112 0 158 -94l27 74h55v-1352h-94v394q-47 -86 -150 -86q-105 0 -149.5 57t-44.5 180zM207 217q0 -156 121 -156q65 0 97 43.5t32 120.5v580q0 158 -129 158q-121 0 -121 -156v-590z" />
<glyph unicode="r" horiz-adv-x="419" d="M113 0v1024h63l25 -74q54 99 168 99v-97h-14q-73 0 -109 -39q-39 -43 -39 -135v-778h-94z" />
<glyph unicode="s" horiz-adv-x="606" d="M92 211v141h92v-141q0 -80 26.5 -115t92.5 -35t92.5 35.5t26.5 114.5v84q0 51 -18 89.5t-47.5 62t-64.5 43.5t-70 43t-64.5 51.5t-47.5 77t-18 112.5v37q0 115 47 174t164 59q118 0 164.5 -58.5t46.5 -174.5v-119h-92v119q0 80 -27.5 116t-91.5 36q-66 0 -92.5 -36.5 t-26.5 -115.5v-37q0 -55 18 -95t47.5 -64.5t64.5 -45t70 -42t64.5 -49t47.5 -73.5t18 -108v-86q0 -116 -46 -173.5t-165 -57.5t-165 57.5t-46 173.5z" />
<glyph unicode="t" horiz-adv-x="485" d="M51 942v82h99v270l45.5 13t48.5 14v-297h166v-82h-166v-741q0 -78 23 -109t85 -31q35 0 72 13v-80q-32 -14 -76 -14q-111 0 -154.5 51.5t-43.5 169.5v741h-99z" />
<glyph unicode="u" horiz-adv-x="663" d="M113 213v811h94v-811q0 -152 121 -152q129 0 129 154v809h94v-1024h-55l-27 76q-47 -96 -158 -96q-106 0 -152 56.5t-46 176.5z" />
<glyph unicode="v" horiz-adv-x="585" d="M51 1024h99l143 -866l143 866h99l-195 -1024h-94z" />
<glyph unicode="w" horiz-adv-x="948" d="M59 1024h97l127 -881l141 881h102l142 -881l127 881h96l-168 -1024h-107l-141 868l-141 -868h-107z" />
<glyph unicode="x" horiz-adv-x="575" d="M41 0l199 516l-189 508h99l137 -410l137 410h100l-190 -508l201 -516h-101l-147 418l-148 -418h-98z" />
<glyph unicode="y" horiz-adv-x="618" d="M41 -252q32 -14 74 -14q54 0 84.5 31.5t44.5 97.5l26 135l-209 1026h99l155 -852l154 852h98l-233 -1165q-22 -111 -70.5 -159t-148.5 -48q-47 0 -74 10v86z" />
<glyph unicode="z" horiz-adv-x="534" d="M72 0v57l280 885h-268v82h369v-59l-279 -883h289v-82h-391z" />
<glyph unicode="{" horiz-adv-x="575" d="M113 588v74h67q55 0 78 23t23 71q0 72 -16.5 147.5t-37 130t-37 127t-16.5 139.5q0 104 58 149.5t188 45.5h43v-74h-43q-89 0 -124.5 -30.5t-35.5 -104.5q0 -91 46 -259.5t46 -266.5q0 -109 -76 -135q76 -29 76 -136q0 -99 -46 -268t-46 -258q0 -75 35.5 -105t124.5 -30 h43v-74h-43q-130 0 -188 45.5t-58 149.5q0 67 16.5 140t37 127.5t37 130t16.5 147.5q0 48 -23 71t-78 23h-67z" />
<glyph unicode="|" horiz-adv-x="385" d="M154 -246v1741h77v-1741h-77z" />
<glyph unicode="}" horiz-adv-x="575" d="M113 -172h43q89 0 124 30t35 105q0 89 -46 258t-46 268q0 107 76 136q-76 26 -76 135q0 98 46 266.5t46 259.5q0 74 -35 104.5t-124 30.5h-43v74h43q130 0 187.5 -45.5t57.5 -149.5q0 -83 -26.5 -174.5t-53 -185.5t-26.5 -184q0 -48 22.5 -71t77.5 -23h68v-74h-68 q-55 0 -77.5 -23t-22.5 -71q0 -72 16.5 -147.5t36.5 -130t36.5 -127.5t16.5 -140q0 -104 -57.5 -149.5t-187.5 -45.5h-43v74z" />
<glyph unicode="&#xa1;" horiz-adv-x="356" d="M117 -410l26 963h70l27 -963h-123zM121 889v135h115v-135h-115z" />
<glyph unicode="&#xa2;" horiz-adv-x="702" d="M133 444v586q0 109 41 169.5t143 68.5v166h68v-166q102 -8 143 -68.5t41 -169.5v-112h-92v112q0 78 -28 118t-97 40q-70 0 -97.5 -39.5t-27.5 -118.5v-586q0 -79 27.5 -118t97.5 -39q69 0 97 39.5t28 117.5v134h92v-134q0 -53 -8.5 -93t-29 -72.5t-57 -51t-89.5 -22.5 v-205h-68v205q-53 4 -89.5 22.5t-57 51t-29 72.5t-8.5 93z" />
<glyph unicode="&#xa3;" horiz-adv-x="798" d="M92 0v94q77 0 107 40t30 118v440h-133v64h133v446q0 123 49.5 187.5t180.5 64.5q126 0 175.5 -65t49.5 -187v-158h-96v158q0 80 -26.5 122t-102.5 42t-103.5 -42t-27.5 -122v-446h164v-64h-164v-440q0 -79 29 -118.5t106 -39.5h223v-94h-223q-145 0 -187 98 q-45 -98 -184 -98z" />
<glyph unicode="&#xa4;" horiz-adv-x="649" d="M82 0l94 326q-49 54 -49 180v463q0 121 51 180l-82 285h92l68 -242q40 16 90 16q53 0 90 -16l70 242h94l-86 -285q51 -56 51 -180v-463q0 -126 -49 -180l98 -326h-94l-80 283q-42 -17 -94 -17q-50 0 -92 17l-80 -283h-92zM221 506q0 -78 28 -118t97 -40q70 0 97.5 39.5 t27.5 118.5v463q0 79 -27.5 118t-97.5 39q-69 0 -97 -39.5t-28 -117.5v-463z" />
<glyph unicode="&#xa5;" horiz-adv-x="694" d="M92 1434h103l151 -703l152 703h104q-105 -414 -207 -828v-59h178v-62h-178v-161h178v-62h-178v-262h-98v262h-174v62h174v161h-174v62h174v59q-35 138 -205 828z" />
<glyph unicode="&#xa6;" horiz-adv-x="385" d="M154 -246v774h77v-774h-77zM154 721v774h77v-774h-77z" />
<glyph unicode="&#xa7;" horiz-adv-x="677" d="M113 41h98v-137q0 -85 29 -124.5t98 -39.5q74 0 100.5 37t26.5 127v59q0 71 -19.5 119.5t-50.5 76t-68.5 49.5t-75 48.5t-68.5 64t-50.5 105.5t-19.5 164q0 49 5 88.5t17.5 79.5t39 68.5t65.5 41.5q-61 39 -94 101t-33 178v55q0 119 51.5 185.5t173.5 66.5 q125 0 175 -65.5t50 -186.5v-137h-98v137q0 81 -27 122.5t-100 41.5t-100 -41.5t-27 -122.5v-59q0 -71 19.5 -120.5t50.5 -77t69 -49.5t76 -48.5t69 -64t50.5 -105.5t19.5 -164q0 -233 -129 -278q61 -39 94 -101t33 -176v-55q0 -252 -225 -252q-122 0 -173.5 66.5 t-51.5 185.5v137zM211 571q0 -65 10.5 -113t32 -80.5t43.5 -52t55 -38.5q31 5 53.5 23t33.5 39t17.5 54t7.5 56t1 57q0 71 -9.5 121.5t-31 83.5t-43.5 53t-57 41q-27 -5 -47.5 -17t-32.5 -32.5t-19 -39t-10 -48.5t-3.5 -47t-0.5 -48v-3.5v-4v-4.5z" />
<glyph unicode="&#xa9;" horiz-adv-x="1093" d="M113 455v524q0 475 434 475t434 -475v-524q0 -475 -434 -475t-434 475zM184 455q0 -89 16.5 -158.5t56 -128.5t112.5 -91t178 -32q84 0 148.5 22t104 58.5t65 90t35 111.5t9.5 128v524q0 407 -362 407q-104 0 -177 -31.5t-112.5 -90t-56.5 -128t-17 -157.5v-524zM369 469 v494q0 90 40.5 140t137.5 50q98 0 138 -48.5t40 -139.5v-107h-76v107q0 59 -23 90.5t-79 31.5q-59 0 -81 -31.5t-22 -92.5v-494q0 -60 22 -91.5t81 -31.5q57 0 79.5 31.5t22.5 91.5v127h76v-129q0 -91 -40 -139.5t-138 -48.5q-97 0 -137.5 50t-40.5 140z" />
<glyph unicode="&#xaa;" horiz-adv-x="587" d="M113 772v117q0 100 61 156.5t225 101.5v119q0 61 -21.5 90.5t-80.5 29.5q-58 0 -80 -29t-22 -89v-43h-76v43q0 91 39 138.5t139 47.5q103 0 140.5 -47.5t37.5 -140.5v-664h-53l-21 57q-38 -77 -127 -77q-88 0 -124.5 46t-36.5 144zM119 408v63h356v-63h-356zM188 772 q0 -125 107 -125q52 0 78 36t26 91v311q-124 -35 -167.5 -78.5t-43.5 -117.5v-117z" />
<glyph unicode="&#xab;" horiz-adv-x="790" d="M92 512l217 379h101l-215 -379l215 -379h-101zM381 512l217 379h100l-215 -379l215 -379h-100z" />
<glyph unicode="&#xac;" horiz-adv-x="757" d="M113 672v73h532v-344h-76v271h-456z" />
<glyph unicode="&#xad;" horiz-adv-x="532" d="M92 537v73h348v-73h-348z" />
<glyph unicode="&#xae;" horiz-adv-x="1093" d="M113 455v524q0 475 434 475t434 -475v-524q0 -475 -434 -475t-434 475zM184 455q0 -89 16.5 -158.5t56 -128.5t112.5 -91t178 -32q84 0 148.5 22t104 58.5t65 90t35 111.5t9.5 128v524q0 407 -362 407q-104 0 -177 -31.5t-112.5 -90t-56.5 -128t-17 -157.5v-524zM373 297 v844h164q108 0 150 -49t42 -142v-121q0 -74 -34.5 -118.5t-98.5 -55.5l162 -358h-80l-154 352h-75v-352h-76zM449 719h86q69 0 93.5 26t24.5 84v121q0 59 -25 89t-93 30h-86v-350z" />
<glyph unicode="&#xb0;" horiz-adv-x="524" d="M92 1233q0 108 37 164.5t133 56.5t133 -56.5t37 -164.5t-37 -164.5t-133 -56.5t-133 56.5t-37 164.5zM160 1233q0 -79 21 -118.5t81 -39.5q59 0 81 40t22 118t-22 118t-81 40q-60 0 -81 -39.5t-21 -118.5z" />
<glyph unicode="&#xb1;" horiz-adv-x="788" d="M113 184v74h563v-74h-563zM113 655v74h243v260h76v-260h244v-74h-244v-260h-76v260h-243z" />
<glyph unicode="&#xb6;" horiz-adv-x="739" d="M113 633v553q0 121 53 184.5t192 63.5h248v-1762h-98v717h-146q-139 0 -194 62t-55 182z" />
<glyph unicode="&#xb7;" horiz-adv-x="339" d="M113 506v135h114v-135h-114z" />
<glyph unicode="&#xba;" horiz-adv-x="581" d="M113 408v63h356v-63h-356zM113 772v490q0 93 38 142.5t140 49.5t140 -49.5t38 -142.5v-490q0 -93 -38 -142.5t-140 -49.5t-140 49.5t-38 142.5zM188 772q0 -61 21.5 -94t81.5 -33q58 0 80 33t22 94v490q0 60 -21.5 92t-80.5 32q-60 0 -81.5 -31.5t-21.5 -92.5v-490z" />
<glyph unicode="&#xbb;" horiz-adv-x="790" d="M92 133l215 379l-215 379h101l217 -379l-217 -379h-101zM381 133l215 379l-215 379h100l217 -379l-217 -379h-100z" />
<glyph unicode="&#xbf;" horiz-adv-x="675" d="M113 -51q0 73 10 125.5t26.5 83.5t36 56t39.5 51t37 59.5t28 91.5t13 137h72q0 -123 -17 -202.5t-41 -116t-48 -66.5t-41 -82t-17 -135v-129q0 -71 30 -117.5t97 -46.5q75 0 101 41.5t26 122.5v158h98v-158q0 -60 -9 -102t-32.5 -78t-69.5 -54t-114 -18 q-130 0 -177.5 64.5t-47.5 187.5v127zM283 889v135h114v-135h-114z" />
<glyph unicode="&#xc0;" horiz-adv-x="651" d="M61 0l205 1434h119l205 -1434h-103l-45 344h-235l-45 -344h-101zM172 1792h96l88 -256h-67zM217 434h215l-106 842z" />
<glyph unicode="&#xc1;" horiz-adv-x="651" d="M61 0l205 1434h119l205 -1434h-103l-45 344h-235l-45 -344h-101zM217 434h215l-106 842zM295 1536l88 256h96l-117 -256h-67z" />
<glyph unicode="&#xc2;" horiz-adv-x="651" d="M61 0l205 1434h119l205 -1434h-103l-45 344h-235l-45 -344h-101zM168 1536l113 256h86l114 -256h-71l-86 170l-86 -170h-70zM217 434h215l-106 842z" />
<glyph unicode="&#xc4;" horiz-adv-x="651" d="M61 0l205 1434h119l205 -1434h-103l-45 344h-235l-45 -344h-101zM164 1536v135h106v-135h-106zM217 434h215l-106 842zM381 1536v135h106v-135h-106z" />
<glyph unicode="&#xc5;" horiz-adv-x="651" d="M61 0l205 1434h119l205 -1434h-103l-45 344h-235l-45 -344h-101zM188 1669q0 156 136 156q70 0 103.5 -41.5t33.5 -114.5q0 -153 -137 -153q-136 0 -136 153zM217 434h215l-106 842zM254 1669q0 -96 70 -96q71 0 71 96q0 98 -71 98q-70 0 -70 -98z" />
<glyph unicode="&#xc6;" horiz-adv-x="946" d="M61 0l351 1434h446v-95h-295v-571h254v-90h-254v-584h295v-94h-393v344h-221l-82 -344h-101zM262 434h203v862z" />
<glyph unicode="&#xc7;" horiz-adv-x="665" d="M113 229v975q0 120 52 185t179 65q231 0 231 -250v-160h-96v160q0 73 -32.5 117.5t-102.5 44.5q-73 0 -103 -42.5t-30 -119.5v-975q0 -77 30 -119t103 -42q70 0 102.5 44t32.5 117v181h96v-181q0 -113 -47.5 -177t-158.5 -70l-17 -68q137 -14 137 -129q0 -133 -176 -133 h-90l17 63h69q54 0 77.5 18t23.5 54q0 74 -103 74h-26l30 121q-109 7 -153.5 70.5t-44.5 176.5z" />
<glyph unicode="&#xc8;" horiz-adv-x="612" d="M133 0v1434h393v-95h-295v-571h254v-90h-254v-584h295v-94h-393zM213 1792h96l88 -256h-67z" />
<glyph unicode="&#xc9;" horiz-adv-x="612" d="M133 0v1434h393v-95h-295v-571h254v-90h-254v-584h295v-94h-393zM285 1536l88 256h96l-117 -256h-67z" />
<glyph unicode="&#xca;" horiz-adv-x="612" d="M133 0v1434h393v-95h-295v-571h254v-90h-254v-584h295v-94h-393zM172 1536l113 256h86l114 -256h-71l-86 170l-86 -170h-70z" />
<glyph unicode="&#xcb;" horiz-adv-x="612" d="M133 0v1434h393v-95h-295v-571h254v-90h-254v-584h295v-94h-393zM168 1536v135h106v-135h-106zM385 1536v135h107v-135h-107z" />
<glyph unicode="&#xcc;" horiz-adv-x="364" d="M31 1792h96l88 -256h-68zM133 0v1434h98v-1434h-98z" />
<glyph unicode="&#xcd;" horiz-adv-x="364" d="M133 0v1434h98v-1434h-98zM152 1536l88 256h96l-117 -256h-67z" />
<glyph unicode="&#xce;" horiz-adv-x="364" d="M27 1536l112 256h86l115 -256h-72l-86 170l-86 -170h-69zM133 0v1434h98v-1434h-98z" />
<glyph unicode="&#xcf;" horiz-adv-x="364" d="M20 1536v135h107v-135h-107zM133 0v1434h98v-1434h-98zM238 1536v135h106v-135h-106z" />
<glyph unicode="&#xd0;" horiz-adv-x="720" d="M47 688v72h86v674h215q139 0 194.5 -64t55.5 -184v-938q0 -121 -53.5 -184.5t-192.5 -63.5h-219v688h-86zM231 92h117q28 0 50 4t38 14.5t27 20.5t18 29t11 32t5.5 38.5t2 40t0.5 43.5v5v830q0 96 -31.5 143t-122.5 47h-115v-579h134v-72h-134v-596z" />
<glyph unicode="&#xd1;" horiz-adv-x="780" d="M133 0v1434h105l331 -1207q-1 81 -4.5 239.5t-5.5 287t-2 239.5v441h96v-1434h-104l-332 1204q1 -79 4.5 -237.5t5.5 -287t2 -241.5v-438h-96zM170 1556q0 78 27 116t94 38q35 0 62.5 -15t42.5 -33t38 -33t49 -15q35 0 48.5 18.5t13.5 57.5h63q0 -79 -27.5 -116.5 t-93.5 -37.5q-36 0 -64 15t-43 33t-37 33t-48 15q-35 0 -48.5 -19t-13.5 -57h-63z" />
<glyph unicode="&#xd2;" d="M113 229v975q0 120 52 185t179 65t179 -65t52 -185v-975q0 -120 -52 -184.5t-179 -64.5t-179 64.5t-52 184.5zM195 1792h96l88 -256h-68zM211 229q0 -77 30 -119t103 -42t103 42t30 119v975q0 77 -30 119.5t-103 42.5t-103 -42.5t-30 -119.5v-975z" />
<glyph unicode="&#xd3;" d="M113 229v975q0 120 52 185t179 65t179 -65t52 -185v-975q0 -120 -52 -184.5t-179 -64.5t-179 64.5t-52 184.5zM211 229q0 -77 30 -119t103 -42t103 42t30 119v975q0 77 -30 119.5t-103 42.5t-103 -42.5t-30 -119.5v-975zM313 1536l88 256h97l-117 -256h-68z" />
<glyph unicode="&#xd4;" d="M113 229v975q0 120 52 185t179 65t179 -65t52 -185v-975q0 -120 -52 -184.5t-179 -64.5t-179 64.5t-52 184.5zM186 1536l113 256h86l115 -256h-72l-86 170l-86 -170h-70zM211 229q0 -77 30 -119t103 -42t103 42t30 119v975q0 77 -30 119.5t-103 42.5t-103 -42.5 t-30 -119.5v-975z" />
<glyph unicode="&#xd5;" d="M113 229v975q0 120 52 185t179 65t179 -65t52 -185v-975q0 -120 -52 -184.5t-179 -64.5t-179 64.5t-52 184.5zM125 1556q0 78 27 116t94 38q35 0 62.5 -15t42.5 -33t38 -33t49 -15q35 0 48.5 18.5t13.5 57.5h63q0 -79 -27.5 -116.5t-93.5 -37.5q-36 0 -64 15t-43 33 t-37 33t-48 15q-35 0 -48.5 -19t-13.5 -57h-63zM211 229q0 -77 30 -119t103 -42t103 42t30 119v975q0 77 -30 119.5t-103 42.5t-103 -42.5t-30 -119.5v-975z" />
<glyph unicode="&#xd6;" d="M113 229v975q0 120 52 185t179 65t179 -65t52 -185v-975q0 -120 -52 -184.5t-179 -64.5t-179 64.5t-52 184.5zM182 1536v135h107v-135h-107zM211 229q0 -77 30 -119t103 -42t103 42t30 119v975q0 77 -30 119.5t-103 42.5t-103 -42.5t-30 -119.5v-975zM399 1536v135h107 v-135h-107z" />
<glyph unicode="&#xd7;" horiz-adv-x="741" d="M113 367l204 206l-204 205l51 53l207 -206l204 206l54 -53l-207 -205l207 -206l-54 -52l-204 205l-207 -205z" />
<glyph unicode="&#xd8;" d="M113 229v975q0 120 52 185t179 65q30 0 76 -8l8 49h43l-8 -63q112 -49 112 -228v-975q0 -120 -52 -184.5t-179 -64.5q-32 0 -78 8l-6 -49h-43l8 61q-112 48 -112 229zM211 229q0 -76 29 -118l168 1243q-24 12 -64 12q-73 0 -103 -42.5t-30 -119.5v-975zM279 80 q24 -12 65 -12q73 0 103 42t30 119v975q0 80 -31 119z" />
<glyph unicode="&#xd9;" horiz-adv-x="704" d="M123 233v1201h98v-1201q0 -81 27.5 -123t103.5 -42t103.5 42t27.5 123v1201h99v-1201q0 -121 -51 -187t-179 -66q-68 0 -114.5 18t-71 54t-34 79t-9.5 102zM215 1792h96l88 -256h-67z" />
<glyph unicode="&#xda;" horiz-adv-x="704" d="M123 233v1201h98v-1201q0 -81 27.5 -123t103.5 -42t103.5 42t27.5 123v1201h99v-1201q0 -121 -51 -187t-179 -66q-68 0 -114.5 18t-71 54t-34 79t-9.5 102zM317 1536l89 256h96l-117 -256h-68z" />
<glyph unicode="&#xdb;" horiz-adv-x="704" d="M123 233v1201h98v-1201q0 -81 27.5 -123t103.5 -42t103.5 42t27.5 123v1201h99v-1201q0 -121 -51 -187t-179 -66q-68 0 -114.5 18t-71 54t-34 79t-9.5 102zM195 1536l112 256h86l115 -256h-72l-86 170l-86 -170h-69z" />
<glyph unicode="&#xdc;" horiz-adv-x="704" d="M123 233v1201h98v-1201q0 -81 27.5 -123t103.5 -42t103.5 42t27.5 123v1201h99v-1201q0 -121 -51 -187t-179 -66q-68 0 -114.5 18t-71 54t-34 79t-9.5 102zM190 1536v135h107v-135h-107zM408 1536v135h106v-135h-106z" />
<glyph unicode="&#xdd;" horiz-adv-x="612" d="M51 1434h103l151 -682l152 682h104l-207 -822v-612h-98v612zM279 1536l88 256h96l-117 -256h-67z" />
<glyph unicode="&#xde;" horiz-adv-x="667" d="M133 0v1434h98v-293h109q139 0 192.5 -63.5t53.5 -184.5v-318q0 -119 -55 -181t-195 -62h-105v-332h-98zM231 422h103q92 0 122.5 37.5t30.5 128.5v293q0 92 -29.5 129t-121.5 37h-105v-625z" />
<glyph unicode="&#xdf;" horiz-adv-x="643" d="M102 0v1249q0 114 49.5 170t163.5 56t164.5 -56t50.5 -170v-231q0 -81 -21.5 -127t-74.5 -70q59 -23 85 -69.5t26 -126.5v-418q0 -118 -46.5 -172.5t-166.5 -54.5q-24 0 -56 8v80q21 -7 54 -7q71 0 96 31.5t25 108.5v387q0 47 -3.5 75t-16 56.5t-40.5 41.5t-72 13h-8v90 q70 0 97.5 33.5t27.5 112.5v241q0 75 -29 108.5t-92 33.5q-64 0 -91 -34t-27 -108v-1251h-95z" />
<glyph unicode="&#xe0;" horiz-adv-x="632" d="M92 211v115q0 63 15.5 109.5t54 88t105 75.5t169.5 65v149q0 150 -121 150q-70 0 -95 -38t-25 -114v-49h-95v51q0 112 47.5 171.5t167.5 59.5q121 0 168 -59t47 -172v-813h-55l-26 70q-43 -90 -152 -90q-108 0 -156.5 56.5t-48.5 174.5zM186 211q0 -76 29 -113t96 -37 q63 0 94 41t31 109v379q-77 -24 -127 -51.5t-76.5 -61t-36.5 -68t-10 -81.5v-117zM193 1382h96l88 -256h-68z" />
<glyph unicode="&#xe1;" horiz-adv-x="632" d="M92 211v115q0 63 15.5 109.5t54 88t105 75.5t169.5 65v149q0 150 -121 150q-70 0 -95 -38t-25 -114v-49h-95v51q0 112 47.5 171.5t167.5 59.5q121 0 168 -59t47 -172v-813h-55l-26 70q-43 -90 -152 -90q-108 0 -156.5 56.5t-48.5 174.5zM186 211q0 -76 29 -113t96 -37 q63 0 94 41t31 109v379q-77 -24 -127 -51.5t-76.5 -61t-36.5 -68t-10 -81.5v-117zM281 1126l88 256h96l-117 -256h-67z" />
<glyph unicode="&#xe2;" horiz-adv-x="632" d="M92 211v115q0 63 15.5 109.5t54 88t105 75.5t169.5 65v149q0 150 -121 150q-70 0 -95 -38t-25 -114v-49h-95v51q0 112 47.5 171.5t167.5 59.5q121 0 168 -59t47 -172v-813h-55l-26 70q-43 -90 -152 -90q-108 0 -156.5 56.5t-48.5 174.5zM158 1126l112 256h86l115 -256 h-72l-86 170l-86 -170h-69zM186 211q0 -76 29 -113t96 -37q63 0 94 41t31 109v379q-77 -24 -127 -51.5t-76.5 -61t-36.5 -68t-10 -81.5v-117z" />
<glyph unicode="&#xe4;" horiz-adv-x="632" d="M92 211v115q0 63 15.5 109.5t54 88t105 75.5t169.5 65v149q0 150 -121 150q-70 0 -95 -38t-25 -114v-49h-95v51q0 112 47.5 171.5t167.5 59.5q121 0 168 -59t47 -172v-813h-55l-26 70q-43 -90 -152 -90q-108 0 -156.5 56.5t-48.5 174.5zM154 1198v133h106v-133h-106z M186 211q0 -76 29 -113t96 -37q63 0 94 41t31 109v379q-77 -24 -127 -51.5t-76.5 -61t-36.5 -68t-10 -81.5v-117zM371 1198v133h106v-133h-106z" />
<glyph unicode="&#xe5;" horiz-adv-x="632" d="M92 211v115q0 63 15.5 109.5t54 88t105 75.5t169.5 65v149q0 150 -121 150q-70 0 -95 -38t-25 -114v-49h-95v51q0 112 47.5 171.5t167.5 59.5q121 0 168 -59t47 -172v-813h-55l-26 70q-43 -90 -152 -90q-108 0 -156.5 56.5t-48.5 174.5zM178 1278q0 156 135 156 q70 0 104 -41.5t34 -114.5t-34 -113.5t-104 -40.5q-135 0 -135 154zM186 211q0 -76 29 -113t96 -37q63 0 94 41t31 109v379q-77 -24 -127 -51.5t-76.5 -61t-36.5 -68t-10 -81.5v-117zM244 1278q0 -96 69 -96q72 0 72 96q0 98 -72 98q-69 0 -69 -98z" />
<glyph unicode="&#xe6;" horiz-adv-x="978" d="M92 219v115q0 84 29 139.5t103.5 100.5t211.5 85v154q0 75 -27 112.5t-96 37.5q-66 0 -92 -38.5t-26 -113.5v-49h-95v51q0 112 46.5 171.5t162.5 59.5q131 0 176 -88q46 88 181 88q121 0 166 -60.5t45 -178.5v-285h-342v-301q0 -80 27.5 -119t96.5 -39t98 40t29 118v133 h91v-133q0 -117 -48 -178t-170 -61q-135 0 -174 90q-43 -90 -174 -90q-123 0 -171 61t-48 178zM186 219q0 -79 27.5 -118.5t97.5 -39.5q69 0 97 40t28 118v369q-78 -22 -128.5 -47.5t-76.5 -58t-35.5 -65.5t-9.5 -81v-117zM535 594h249v211q0 78 -28 118t-97 40 q-70 0 -97 -39.5t-27 -118.5v-211z" />
<glyph unicode="&#xe7;" horiz-adv-x="630" d="M102 219v586q0 115 50 177t170 62q121 0 169 -61t48 -178v-113h-93v113q0 78 -27.5 118t-96.5 40q-70 0 -97.5 -39.5t-27.5 -118.5v-586q0 -79 27.5 -118.5t97.5 -39.5q69 0 96.5 40t27.5 118v133h93v-133q0 -110 -42.5 -170t-148.5 -67l-16 -68q137 -14 137 -129 q0 -133 -176 -133h-90l16 63h70q54 0 77 18t23 54q0 37 -23.5 55.5t-78.5 18.5h-27l31 121q-106 7 -147.5 67t-41.5 170z" />
<glyph unicode="&#xe8;" horiz-adv-x="630" d="M98 219v586q0 116 49 177.5t170 61.5q122 0 171 -61.5t49 -177.5v-289h-344v-297q0 -80 28 -119t96 -39q69 0 97 40t28 118v133h95v-133q0 -116 -49 -177.5t-171 -61.5q-123 0 -171 61t-48 178zM193 594h249v186q0 94 -26 138.5t-99 44.5q-70 0 -97 -39.5t-27 -118.5 v-211zM221 1382h96l89 -256h-68z" />
<glyph unicode="&#xe9;" horiz-adv-x="630" d="M98 219v586q0 116 49 177.5t170 61.5q122 0 171 -61.5t49 -177.5v-289h-344v-297q0 -80 28 -119t96 -39q69 0 97 40t28 118v133h95v-133q0 -116 -49 -177.5t-171 -61.5q-123 0 -171 61t-48 178zM193 594h249v186q0 94 -26 138.5t-99 44.5q-70 0 -97 -39.5t-27 -118.5 v-211zM283 1126l88 256h96l-117 -256h-67z" />
<glyph unicode="&#xea;" horiz-adv-x="630" d="M98 219v586q0 116 49 177.5t170 61.5q122 0 171 -61.5t49 -177.5v-289h-344v-297q0 -80 28 -119t96 -39q69 0 97 40t28 118v133h95v-133q0 -116 -49 -177.5t-171 -61.5q-123 0 -171 61t-48 178zM158 1126l112 256h86l115 -256h-72l-86 170l-86 -170h-69zM193 594h249v186 q0 94 -26 138.5t-99 44.5q-70 0 -97 -39.5t-27 -118.5v-211z" />
<glyph unicode="&#xeb;" horiz-adv-x="630" d="M98 219v586q0 116 49 177.5t170 61.5q122 0 171 -61.5t49 -177.5v-289h-344v-297q0 -80 28 -119t96 -39q69 0 97 40t28 118v133h95v-133q0 -116 -49 -177.5t-171 -61.5q-123 0 -171 61t-48 178zM154 1198v133h106v-133h-106zM193 594h249v186q0 94 -26 138.5t-99 44.5 q-70 0 -97 -39.5t-27 -118.5v-211zM371 1198v133h106v-133h-106z" />
<glyph unicode="&#xec;" horiz-adv-x="325" d="M41 1382h96l88 -256h-67zM115 0v1024h94v-1024h-94z" />
<glyph unicode="&#xed;" horiz-adv-x="325" d="M115 0v1024h94v-1024h-94zM125 1126l88 256h96l-116 -256h-68z" />
<glyph unicode="&#xee;" horiz-adv-x="325" d="M6 1126l113 256h86l114 -256h-71l-86 170l-86 -170h-70zM115 0v1024h94v-1024h-94z" />
<glyph unicode="&#xef;" horiz-adv-x="325" d="M2 1198v133h107v-133h-107zM115 0v1024h94v-1024h-94zM219 1198v133h107v-133h-107z" />
<glyph unicode="&#xf0;" d="M113 229v369q0 122 47 181t157 59q93 0 160 -70q-3 216 -63 371l-101 -47l-28 61l102 47q-56 111 -160 234h111q96 -123 133 -197l104 49l29 -59l-104 -49q75 -174 75 -447v-502q0 -122 -52.5 -185.5t-178.5 -63.5t-178.5 63.5t-52.5 185.5zM211 229q0 -79 30 -120 t103 -41t103 41t30 120v424q-35 99 -137 99q-69 0 -99 -38.5t-30 -115.5v-369z" />
<glyph unicode="&#xf1;" horiz-adv-x="663" d="M111 1188q0 79 27 116t93 37q35 0 62.5 -15t43 -33t38.5 -33t49 -15q35 0 48 18.5t13 57.5h64q0 -79 -27.5 -116.5t-93.5 -37.5q-29 0 -52.5 10t-39 24.5t-29.5 28.5t-32 24t-39 10q-35 0 -48.5 -19t-13.5 -57h-63zM113 0v1024h55l27 -76q47 96 157 96q107 0 153 -56.5 t46 -176.5v-811h-94v811q0 152 -121 152q-129 0 -129 -154v-809h-94z" />
<glyph unicode="&#xf2;" horiz-adv-x="643" d="M102 219v586q0 115 50 177t170 62q119 0 169 -62t50 -177v-586q0 -117 -48 -178t-171 -61t-171.5 61t-48.5 178zM197 219q0 -79 27.5 -118.5t97.5 -39.5t97 39.5t27 118.5v586q0 79 -27 118.5t-97 39.5t-97.5 -39.5t-27.5 -118.5v-586zM205 1382h96l88 -256h-67z" />
<glyph unicode="&#xf3;" horiz-adv-x="643" d="M102 219v586q0 115 50 177t170 62q119 0 169 -62t50 -177v-586q0 -117 -48 -178t-171 -61t-171.5 61t-48.5 178zM197 219q0 -79 27.5 -118.5t97.5 -39.5t97 39.5t27 118.5v586q0 79 -27 118.5t-97 39.5t-97.5 -39.5t-27.5 -118.5v-586zM289 1126l88 256h96l-117 -256h-67 z" />
<glyph unicode="&#xf4;" horiz-adv-x="643" d="M102 219v586q0 115 50 177t170 62q119 0 169 -62t50 -177v-586q0 -117 -48 -178t-171 -61t-171.5 61t-48.5 178zM164 1126l112 256h86l115 -256h-71l-87 170l-86 -170h-69zM197 219q0 -79 27.5 -118.5t97.5 -39.5t97 39.5t27 118.5v586q0 79 -27 118.5t-97 39.5 t-97.5 -39.5t-27.5 -118.5v-586z" />
<glyph unicode="&#xf5;" horiz-adv-x="643" d="M100 1188q0 78 27 115.5t94 37.5q35 0 62.5 -15t43 -33t38.5 -33t49 -15q35 0 48 18.5t13 57.5h64q0 -79 -27.5 -116.5t-93.5 -37.5q-36 0 -64 15t-43 33.5t-37.5 33.5t-48.5 15q-35 0 -48 -19t-13 -57h-64zM102 219v586q0 115 50 177t170 62q119 0 169 -62t50 -177v-586 q0 -117 -48 -178t-171 -61t-171.5 61t-48.5 178zM197 219q0 -79 27.5 -118.5t97.5 -39.5t97 39.5t27 118.5v586q0 79 -27 118.5t-97 39.5t-97.5 -39.5t-27.5 -118.5v-586z" />
<glyph unicode="&#xf6;" horiz-adv-x="643" d="M102 219v586q0 115 50 177t170 62q119 0 169 -62t50 -177v-586q0 -117 -48 -178t-171 -61t-171.5 61t-48.5 178zM160 1198v133h106v-133h-106zM197 219q0 -79 27.5 -118.5t97.5 -39.5t97 39.5t27 118.5v586q0 79 -27 118.5t-97 39.5t-97.5 -39.5t-27.5 -118.5v-586z M377 1198v133h106v-133h-106z" />
<glyph unicode="&#xf7;" horiz-adv-x="819" d="M113 537v73h594v-73h-594zM352 250v135h115v-135h-115zM352 760v135h115v-135h-115z" />
<glyph unicode="&#xf8;" horiz-adv-x="643" d="M102 219v586q0 115 50 177t170 62q35 0 65 -6l8 47h47l-10 -61q109 -48 109 -219v-586q0 -117 -48 -178t-171 -61q-39 0 -66 6l-8 -47h-47l10 59q-109 45 -109 221zM197 219q0 -88 30 -123l146 858q-31 9 -51 9q-70 0 -97.5 -39.5t-27.5 -118.5v-586zM270 68q24 -7 52 -7 q70 0 97 39.5t27 118.5v586q0 85 -30 123z" />
<glyph unicode="&#xf9;" horiz-adv-x="663" d="M113 213v811h94v-811q0 -152 121 -152q129 0 129 154v809h94v-1024h-55l-27 76q-47 -96 -158 -96q-106 0 -152 56.5t-46 176.5zM238 1382h96l88 -256h-68z" />
<glyph unicode="&#xfa;" horiz-adv-x="663" d="M113 213v811h94v-811q0 -152 121 -152q129 0 129 154v809h94v-1024h-55l-27 76q-47 -96 -158 -96q-106 0 -152 56.5t-46 176.5zM295 1126l88 256h96l-117 -256h-67z" />
<glyph unicode="&#xfb;" horiz-adv-x="663" d="M113 213v811h94v-811q0 -152 121 -152q129 0 129 154v809h94v-1024h-55l-27 76q-47 -96 -158 -96q-106 0 -152 56.5t-46 176.5zM174 1126l113 256h86l114 -256h-71l-86 170l-86 -170h-70z" />
<glyph unicode="&#xfc;" horiz-adv-x="663" d="M113 213v811h94v-811q0 -152 121 -152q129 0 129 154v809h94v-1024h-55l-27 76q-47 -96 -158 -96q-106 0 -152 56.5t-46 176.5zM170 1198v133h106v-133h-106zM387 1198v133h107v-133h-107z" />
<glyph unicode="&#xfd;" horiz-adv-x="618" d="M41 -252q32 -14 74 -14q54 0 84.5 31.5t44.5 97.5l26 135l-209 1026h99l155 -852l154 852h98l-233 -1165q-22 -111 -70.5 -159t-148.5 -48q-47 0 -74 10v86zM285 1126l88 256h96l-117 -256h-67z" />
<glyph unicode="&#xfe;" horiz-adv-x="663" d="M113 -328v1782h94v-493q47 86 149 86q105 0 150 -57.5t45 -178.5v-596q0 -119 -48 -177t-147 -58q-102 0 -149 86v-394h-94zM207 270q0 -50 5 -84.5t18 -64.5t39.5 -45t66.5 -15q67 0 94 38t27 116v547q0 40 -2 67t-9 54.5t-20 44t-35.5 27t-54.5 10.5q-65 0 -97 -41.5 t-32 -114.5v-539z" />
<glyph unicode="&#xff;" horiz-adv-x="618" d="M41 -252q32 -14 74 -14q54 0 84.5 31.5t44.5 97.5l26 135l-209 1026h99l155 -852l154 852h98l-233 -1165q-22 -111 -70.5 -159t-148.5 -48q-47 0 -74 10v86zM152 1198v133h106v-133h-106zM369 1198v133h106v-133h-106z" />
<glyph unicode="&#x152;" horiz-adv-x="956" d="M113 229v975q0 120 52 185t179 65q47 0 113 -20h413v-95h-295v-571h254v-90h-254v-584h295v-94h-413q-66 -20 -113 -20q-127 0 -179 64.5t-52 184.5zM211 229q0 -77 30 -119t103 -42q68 0 99 36.5t34 104.5v995q0 77 -30 119.5t-103 42.5t-103 -42.5t-30 -119.5v-975z " />
<glyph unicode="&#x153;" horiz-adv-x="987" d="M102 219v586q0 115 50 177t170 62q119 0 172 -79q51 79 172 79q122 0 170.5 -61.5t48.5 -177.5v-289h-344v-297q0 -80 28.5 -119t96.5 -39q69 0 97 40t28 118v133h94v-133q0 -116 -48.5 -177.5t-170.5 -61.5q-118 0 -170 77q-49 -77 -174 -77q-123 0 -171.5 61t-48.5 178 zM197 219q0 -79 27.5 -118.5t97.5 -39.5t97 39.5t27 118.5v586q0 79 -27 118.5t-97 39.5t-97.5 -39.5t-27.5 -118.5v-586zM541 594h250v186q0 94 -26 138.5t-99 44.5q-70 0 -97.5 -39.5t-27.5 -118.5v-211z" />
<glyph unicode="&#x178;" horiz-adv-x="612" d="M51 1434h103l151 -682l152 682h104l-207 -822v-612h-98v612zM143 1536v135h107v-135h-107zM360 1536v135h107v-135h-107z" />
<glyph unicode="&#x2000;" horiz-adv-x="912" />
<glyph unicode="&#x2001;" horiz-adv-x="1825" />
<glyph unicode="&#x2002;" horiz-adv-x="912" />
<glyph unicode="&#x2003;" horiz-adv-x="1825" />
<glyph unicode="&#x2004;" horiz-adv-x="608" />
<glyph unicode="&#x2005;" horiz-adv-x="456" />
<glyph unicode="&#x2006;" horiz-adv-x="304" />
<glyph unicode="&#x2007;" horiz-adv-x="304" />
<glyph unicode="&#x2008;" horiz-adv-x="228" />
<glyph unicode="&#x2009;" horiz-adv-x="365" />
<glyph unicode="&#x200a;" horiz-adv-x="101" />
<glyph unicode="&#x2010;" horiz-adv-x="532" d="M92 537v73h348v-73h-348z" />
<glyph unicode="&#x2011;" horiz-adv-x="532" d="M92 537v73h348v-73h-348z" />
<glyph unicode="&#x2012;" horiz-adv-x="532" d="M92 537v73h348v-73h-348z" />
<glyph unicode="&#x2013;" horiz-adv-x="737" d="M92 537v73h553v-73h-553z" />
<glyph unicode="&#x2014;" horiz-adv-x="1064" d="M92 545v57h881v-57h-881z" />
<glyph unicode="&#x2018;" horiz-adv-x="301" d="M88 1454h121v-399h-57z" />
<glyph unicode="&#x2019;" horiz-adv-x="294" d="M92 1055v399h121l-63 -399h-58z" />
<glyph unicode="&#x201a;" horiz-adv-x="342" d="M113 -190v399h120l-63 -399h-57z" />
<glyph unicode="&#x201c;" horiz-adv-x="522" d="M92 1454h121v-399h-57zM309 1454h121v-399h-57z" />
<glyph unicode="&#x201d;" horiz-adv-x="522" d="M92 1055v399h121l-63 -399h-58zM309 1055v399h121l-63 -399h-58z" />
<glyph unicode="&#x201e;" horiz-adv-x="555" d="M109 -190v399h120l-63 -399h-57zM326 -190v399h120l-63 -399h-57z" />
<glyph unicode="&#x2022;" horiz-adv-x="532" d="M92 580q0 72 51 123t123 51t123 -51t51 -123t-51 -123t-123 -51t-123 51t-51 123z" />
<glyph unicode="&#x202f;" horiz-adv-x="365" />
<glyph unicode="&#x2039;" horiz-adv-x="501" d="M92 512l217 379h101l-215 -379l215 -379h-101z" />
<glyph unicode="&#x203a;" horiz-adv-x="501" d="M92 133l215 379l-215 379h101l217 -379l-217 -379h-101z" />
<glyph unicode="&#x205f;" horiz-adv-x="456" />
<glyph unicode="&#x20ac;" horiz-adv-x="768" d="M72 580v61h102v168h-102v61h102v334q0 120 52.5 185t179.5 65q124 0 176.5 -65.5t52.5 -184.5v-160h-96v160q0 162 -133 162q-73 0 -103.5 -42.5t-30.5 -119.5v-334h256l-14 -61h-242v-168h203q-5 -18 -14 -61h-189v-353q0 -77 29.5 -118t104.5 -41q72 0 102.5 41.5 t30.5 119.5v181h96v-181q0 -119 -52.5 -184t-176.5 -65q-127 0 -179.5 64.5t-52.5 184.5v351h-102z" />
<glyph unicode="&#x2122;" horiz-adv-x="720" d="M92 1393v41h201v-41h-78v-369h-43v369h-80zM352 1024v410h45l82 -244l84 244h45v-410h-43v307l-69 -211h-31l-70 211v-307h-43z" />
<glyph unicode="&#xe000;" horiz-adv-x="1024" d="M0 0v1024h1024v-1024h-1024z" />
</font>
</defs>
</svg>
