<?xml version="1.0" standalone="no"?>
<!DOCTYPE svg PUBLIC "-//W3C//DTD SVG 1.1//EN" "http://www.w3.org/Graphics/SVG/1.1/DTD/svg11.dtd" >
<svg xmlns="http://www.w3.org/2000/svg">
<metadata></metadata>
<defs>
<font id="heroic_condensedheavy" horiz-adv-x="735" >
<font-face units-per-em="2048" ascent="1638" descent="-410" />
<missing-glyph horiz-adv-x="348" />
<glyph horiz-adv-x="2048" />
<glyph horiz-adv-x="2048" />
<glyph unicode="&#xd;" horiz-adv-x="2048" />
<glyph unicode=" "  horiz-adv-x="348" />
<glyph unicode="&#x09;" horiz-adv-x="348" />
<glyph unicode="&#xa0;" horiz-adv-x="348" />
<glyph unicode="!" horiz-adv-x="432" d="M88 1434h258l-53 -983h-152zM113 0v233h209v-233h-209z" />
<glyph unicode="&#x22;" horiz-adv-x="618" d="M59 1454h222l-43 -461h-136zM315 1454h222l-43 -461h-136z" />
<glyph unicode="#" horiz-adv-x="710" d="M61 598v125h103l16 295h-98v125h104l17 291h139l-16 -291h88l16 291h139l-16 -291h96v-125h-102l-17 -295h99v-125h-107l-14 -291h-139l14 291h-88l-14 -291h-140l15 291h-95zM303 723h88l17 295h-89z" />
<glyph unicode="$" horiz-adv-x="714" d="M106 444v121h205v-123q0 -31 12 -43t35 -12q48 0 48 55v82q0 44 -16.5 78t-43 57t-58.5 44t-64 46t-58.5 56t-43 80t-16.5 112v35q0 211 191 236v166h129v-166q98 -14 141 -75t43 -163v-96h-204v100q0 58 -48 58q-47 0 -47 -56v-43q0 -41 16.5 -73.5t43 -55t58 -43.5 t63.5 -46t58.5 -55.5t43 -78.5t16.5 -109v-88q0 -102 -43 -160t-141 -73v-211h-129v209q-103 13 -147 71.5t-44 163.5z" />
<glyph unicode="%" horiz-adv-x="878" d="M61 1067v184q0 102 40 152.5t137 50.5t136.5 -50.5t39.5 -152.5v-184q0 -102 -39.5 -151.5t-136.5 -49.5t-137 49.5t-40 151.5zM82 0l573 1434h142l-574 -1434h-141zM201 1065q0 -33 8 -47t29 -14t28.5 13.5t7.5 47.5v188q0 34 -7.5 49t-28.5 15t-29 -15t-8 -49v-188z M465 182v185q0 102 39.5 151t136.5 49t136.5 -49t39.5 -151v-185q0 -102 -39.5 -152t-136.5 -50t-136.5 50t-39.5 152zM604 180q0 -34 8 -48.5t29 -14.5t29 14.5t8 48.5v189q0 33 -8 47t-29 14t-29 -14t-8 -47v-189z" />
<glyph unicode="&#x26;" horiz-adv-x="804" d="M111 233v332q0 102 94 164q-88 49 -88 164v303q0 125 58 191.5t210 66.5t210 -66.5t58 -191.5v-192h-215v192q0 59 -53 59t-53 -59v-324q0 -45 45 -45h358v-204h-82v-351q0 -59 52 -59h30v-213h-30q-99 0 -152 41q-53 -59 -170 -59q-272 0 -272 251zM332 240 q0 -60 51 -60t51 60v383h-57q-21 0 -33 -13t-12 -35v-335z" />
<glyph unicode="'" horiz-adv-x="337" d="M59 1454h222l-43 -461h-136z" />
<glyph unicode="(" horiz-adv-x="522" d="M90 715q0 392 186 780h158q-166 -393 -166 -780t166 -776h-158q-186 384 -186 776z" />
<glyph unicode=")" horiz-adv-x="522" d="M90 -61q166 389 166 776t-166 780h158q186 -388 186 -780t-186 -776h-158z" />
<glyph unicode="*" horiz-adv-x="702" d="M49 1163l57 183l224 -150q-35 115 -74 258h193q-43 -146 -74 -258l223 150l57 -183q-48 -3 -145 -6.5t-123 -5.5q27 -22 102 -79t109 -85l-156 -113q-14 39 -46 127t-44 123q-12 -35 -44 -123t-46 -127l-158 113q19 15 99.5 76.5t111.5 87.5q-26 2 -122.5 5.5t-143.5 6.5 z" />
<glyph unicode="+" horiz-adv-x="802" d="M100 496v155h219v219h156v-219h219v-155h-219v-220h-156v220h-219z" />
<glyph unicode="," horiz-adv-x="344" d="M70 -180v413h217l-90 -413h-127z" />
<glyph unicode="-" horiz-adv-x="485" d="M70 496v155h348v-155h-348z" />
<glyph unicode="." horiz-adv-x="342" d="M68 0v233h208v-233h-208z" />
<glyph unicode="/" horiz-adv-x="583" d="M49 -61l328 1556h160l-328 -1556h-160z" />
<glyph unicode="0" d="M90 240v954q0 123 63 191.5t216 68.5t215.5 -68.5t62.5 -191.5v-954q0 -123 -62.5 -191.5t-215.5 -68.5t-216 68.5t-63 191.5zM311 242q0 -64 58 -64q57 0 57 64v952q0 28 -14.5 44.5t-42.5 16.5t-43 -17t-15 -44v-952z" />
<glyph unicode="1" horiz-adv-x="587" d="M59 0v209h125v938h-116v153q77 0 115 37.5t38 96.5h185v-1225h124v-209h-471z" />
<glyph unicode="2" horiz-adv-x="688" d="M70 1024v172q0 60 12.5 104.5t42.5 80.5t85 54.5t134 18.5q153 0 216 -67.5t63 -190.5v-166q0 -88 -18 -159.5t-46.5 -120t-63 -91.5t-69 -84t-63 -86t-46.5 -110.5t-18 -145.5v-24h332v-209h-553v211q0 106 18 191.5t46.5 140.5t63 100.5t68.5 84t62.5 78.5t46.5 95.5 t18 124.5v170q0 59 -57 59t-57 -59v-172h-217z" />
<glyph unicode="3" horiz-adv-x="720" d="M80 238v192h217v-188q0 -64 57 -64q58 0 58 62v335q0 22 -12 35t-33 13h-86v204h86q45 0 45 45v324q0 27 -15 43t-43 16q-57 0 -57 -59v-172h-217v172q0 60 12.5 104.5t42.5 80.5t85 54.5t134 18.5t134 -18.5t85 -54.5t43 -80.5t13 -104.5v-303q0 -117 -97 -164 q101 -51 101 -164v-327q0 -123 -63 -190.5t-216 -67.5q-79 0 -134 18.5t-85 54.5t-42.5 80.5t-12.5 104.5z" />
<glyph unicode="4" horiz-adv-x="686" d="M39 285v223l213 926h313v-949h84v-200h-84v-285h-217v285h-309zM213 485h135v240q0 311 6 485z" />
<glyph unicode="5" horiz-adv-x="710" d="M80 238v192h217v-188q0 -64 57 -64q58 0 58 62v405q0 45 -45 45q-53 0 -93 -43h-180l39 787h479v-209h-286l-17 -373q51 22 99 22q116 0 170.5 -54t54.5 -173v-409q0 -123 -63 -190.5t-216 -67.5q-79 0 -134 18.5t-85 54.5t-42.5 80.5t-12.5 104.5z" />
<glyph unicode="6" d="M90 242v952q0 260 279 260q274 0 274 -260v-170h-217v172q0 31 -16 45t-39 14q-25 0 -42.5 -14t-17.5 -45v-387q49 29 117 29q219 0 219 -234v-362q0 -262 -278 -262q-279 0 -279 262zM311 238q0 -27 15 -43.5t43 -16.5t42.5 16.5t14.5 43.5v350q0 59 -57 59 q-28 0 -43 -16t-15 -43v-350z" />
<glyph unicode="7" horiz-adv-x="581" d="M39 1225v209h506v-172q-93 -354 -117.5 -572.5t-24.5 -689.5h-243q0 700 176 1225h-297z" />
<glyph unicode="8" d="M90 238v327q0 113 100 164q-51 25 -73.5 64t-22.5 100v303q0 60 13 104.5t43 80.5t85 54.5t134 18.5t134 -18.5t85 -54.5t42.5 -80.5t12.5 -104.5v-303q0 -61 -22.5 -100t-73.5 -64q100 -51 100 -164v-327q0 -123 -62.5 -190.5t-215.5 -67.5t-216 67.5t-63 190.5z M311 238q0 -27 15 -43.5t43 -16.5t42.5 16.5t14.5 43.5v337q0 27 -14.5 43.5t-42.5 16.5t-43 -16.5t-15 -43.5v-337zM311 877q0 -27 15 -43.5t43 -16.5t42.5 16.5t14.5 43.5v319q0 59 -57 59q-28 0 -43 -16t-15 -43v-319z" />
<glyph unicode="9" d="M90 240v190h221v-192q0 -31 16.5 -45.5t39.5 -14.5q25 0 42 14.5t17 45.5v407q-49 -29 -117 -29q-219 0 -219 234v342q0 262 279 262q278 0 278 -262v-952q0 -260 -278 -260q-279 0 -279 260zM311 866q0 -27 15 -43t43 -16q57 0 57 59v330q0 59 -57 59q-28 0 -43 -16 t-15 -43v-330z" />
<glyph unicode="&#x3c;" horiz-adv-x="634" d="M70 717l327 778h170l-327 -778l327 -778h-170z" />
<glyph unicode="=" horiz-adv-x="710" d="M90 340v156h533v-156h-533zM90 651v156h533v-156h-533z" />
<glyph unicode="&#x3e;" horiz-adv-x="634" d="M70 -61l327 778l-327 778h170l327 -778l-327 -778h-170z" />
<glyph unicode="?" horiz-adv-x="702" d="M78 1044v158q0 252 272 252q273 0 273 -252v-137q0 -93 -18 -153t-44.5 -94t-54 -71t-50.5 -110.5t-30 -185.5h-147q-18 96 -16 168.5t15.5 115t34.5 81.5t40.5 68t33.5 74.5t14 100.5v137q0 59 -51 59t-51 -59v-152h-221zM246 0v233h209v-233h-209z" />
<glyph unicode="@" horiz-adv-x="1062" d="M90 250v524q0 108 21.5 190.5t70.5 148.5t137 101t213 35q124 0 212 -35t137.5 -100.5t71.5 -148.5t22 -191v-524q0 -107 -21 -189t-70 -148.5t-137.5 -102t-214.5 -35.5q-102 0 -179.5 24t-126.5 65t-80 102.5t-43.5 130t-12.5 153.5zM231 250q0 -78 12 -134.5 t43.5 -105.5t93 -74.5t152.5 -25.5t152.5 25.5t93 74.5t44 106t12.5 134v524q0 61 -7 108t-26.5 92.5t-52.5 74.5t-87.5 47t-128.5 18q-92 0 -153.5 -25.5t-92.5 -75t-43 -106t-12 -133.5v-524zM338 254v166q0 98 44.5 146.5t180.5 90.5v117q0 39 -35 39q-34 0 -34 -39v-61 h-148v61q0 89 42 136.5t142 47.5q104 0 145.5 -47.5t41.5 -138.5v-674h-90q-5 5 -13.5 15.5t-13.5 15.5q-15 -22 -42 -37.5t-60 -15.5q-83 0 -121.5 44.5t-38.5 133.5zM492 258q0 -43 36 -43q20 0 27.5 10.5t7.5 32.5v281q-37 -19 -54 -46.5t-17 -72.5v-162z" />
<glyph unicode="A" horiz-adv-x="696" d="M39 0l168 1434h285l167 -1434h-223l-20 279h-133l-21 -279h-223zM303 483h92l-14 211q-26 371 -31 502h-2q-12 -234 -31 -502z" />
<glyph unicode="B" horiz-adv-x="745" d="M100 0v1434h303q75 0 124 -14t76 -44.5t37.5 -69.5t10.5 -98v-313q0 -114 -82 -166q88 -53 88 -172v-309q0 -122 -51.5 -185t-189.5 -63h-316zM322 209h77q37 0 37 41v325q0 26 -10 37t-35 11h-69v-414zM322 827h71q23 0 33 12t10 38v309q0 39 -39 39h-75v-398z" />
<glyph unicode="C" horiz-adv-x="720" d="M90 242v950q0 59 13.5 104.5t44.5 82t86.5 56t134.5 19.5t134 -19.5t85 -56t42.5 -81.5t12.5 -105v-188h-217v188q0 28 -14.5 45.5t-42.5 17.5t-43 -17.5t-15 -45.5v-948q0 -66 58 -66q57 0 57 66v207h217v-209q0 -60 -12.5 -105t-42.5 -81.5t-85 -56t-134 -19.5 t-134.5 19.5t-86.5 56t-44.5 82t-13.5 104.5z" />
<glyph unicode="D" horiz-adv-x="755" d="M100 0v1434h299q77 0 128 -16t79.5 -50.5t39.5 -79t11 -110.5v-922q0 -136 -52.5 -196t-198.5 -60h-306zM322 209h71q43 0 43 45v922q0 49 -47 49h-67v-1016z" />
<glyph unicode="E" horiz-adv-x="620" d="M100 0v1434h453v-209h-231v-398h202v-204h-202v-414h231v-209h-453z" />
<glyph unicode="F" horiz-adv-x="602" d="M100 0v1434h445v-209h-223v-398h190v-204h-190v-623h-222z" />
<glyph unicode="G" d="M90 242v950q0 59 13.5 104.5t44.5 82t86.5 56t134.5 19.5t134.5 -19.5t86 -56t44 -82t13.5 -104.5v-188h-221v192q0 59 -57 59q-28 0 -43 -16t-15 -43v-952q0 -66 58 -66q57 0 57 66v379h-57v204h278v-585q0 -59 -13.5 -104.5t-44 -82t-86 -56t-134.5 -19.5t-134.5 19.5 t-86.5 56t-44.5 82t-13.5 104.5z" />
<glyph unicode="H" horiz-adv-x="755" d="M100 0v1434h222v-607h114v607h221v-1434h-221v623h-114v-623h-222z" />
<glyph unicode="I" horiz-adv-x="419" d="M100 0v1434h222v-1434h-222z" />
<glyph unicode="J" horiz-adv-x="681" d="M49 242v209h217v-207q0 -66 53 -66q54 0 54 66v1190h221v-1192q0 -125 -60 -193.5t-212 -68.5t-212.5 68.5t-60.5 193.5z" />
<glyph unicode="K" horiz-adv-x="718" d="M100 0v1434h222l-5 -635l132 635h241l-196 -711l208 -723h-239l-146 651l5 -651h-222z" />
<glyph unicode="L" horiz-adv-x="542" d="M100 0v1434h222v-1225h184v-209h-406z" />
<glyph unicode="M" horiz-adv-x="1030" d="M94 0v1434h289l133 -1000l133 1000h289v-1434h-207l25 1069l-154 -1069h-172l-154 1069l25 -1069h-207z" />
<glyph unicode="N" horiz-adv-x="790" d="M90 0v1434h223l201 -904q-22 322 -22 652v252h210v-1434h-217l-206 922q22 -416 22 -715v-207h-211z" />
<glyph unicode="O" d="M90 242v948q0 59 13.5 105t44 83t86.5 56.5t135 19.5q152 0 215 -70t63 -194v-948q0 -59 -13.5 -104.5t-44 -82t-86 -56t-134.5 -19.5t-134.5 19.5t-86.5 56t-44.5 82t-13.5 104.5zM311 244q0 -66 58 -66q57 0 57 66v948q0 63 -57 63q-28 0 -43 -17t-15 -46v-948z" />
<glyph unicode="P" horiz-adv-x="710" d="M100 0v1434h314q72 0 120 -17t73.5 -51t35.5 -75.5t10 -100.5v-352q0 -126 -52.5 -184t-192.5 -58h-86v-596h-222zM322 801h71q43 0 43 45v330q0 49 -47 49h-67v-424z" />
<glyph unicode="Q" d="M90 242v950q0 59 13.5 104.5t44.5 82t86.5 56t134.5 19.5t134.5 -19.5t86 -56t44 -82t13.5 -104.5v-950q0 -226 -201 -256q8 -52 70 -52h76l-33 -122h-45q-112 0 -167.5 41t-61.5 133q-195 32 -195 256zM311 244q0 -66 58 -66q57 0 57 66v948q0 63 -57 63q-28 0 -43 -17 t-15 -46v-948z" />
<glyph unicode="R" horiz-adv-x="731" d="M100 0v1434h314q72 0 120 -17t73.5 -51t35.5 -75.5t10 -100.5v-356q0 -99 -23 -151.5t-89 -76.5l184 -606h-236l-155 598h-12v-598h-222zM322 801h71q43 0 43 45v330q0 49 -47 49h-67v-424z" />
<glyph unicode="S" horiz-adv-x="714" d="M80 238v213h221v-209q0 -64 57 -64q58 0 58 64v143q0 78 -18.5 135.5t-48 93t-65.5 64.5t-72 61t-65.5 71.5t-48 105.5t-18.5 155v125q0 119 65.5 188.5t212.5 69.5q146 0 212.5 -69.5t66.5 -188.5v-192h-221v190q0 61 -58 61q-57 0 -57 -61v-117q0 -67 18.5 -116 t48 -79.5t65.5 -58t72 -61t65.5 -77.5t48 -119.5t18.5 -176.5v-151q0 -119 -66.5 -188.5t-212.5 -69.5q-147 0 -212.5 69.5t-65.5 188.5z" />
<glyph unicode="T" horiz-adv-x="608" d="M39 1225v209h532v-209h-155v-1225h-221v1225h-156z" />
<glyph unicode="U" horiz-adv-x="755" d="M100 238v1196h222v-1194q0 -62 57 -62t57 62v1194h221v-1196q0 -123 -62.5 -190.5t-215.5 -67.5t-216 67.5t-63 190.5z" />
<glyph unicode="V" horiz-adv-x="686" d="M37 1434h227l47 -611l33 -522l33 522l47 611h227l-174 -1434h-268z" />
<glyph unicode="W" horiz-adv-x="1120" d="M49 1434h223l66 -1061l106 1061h234l106 -1061l66 1061h223l-149 -1434h-271l-92 1040l-92 -1040h-268z" />
<glyph unicode="X" horiz-adv-x="690" d="M29 0l196 745l-182 689h238l65 -412l66 412h237l-182 -689l197 -745h-238l-80 469l-80 -469h-237z" />
<glyph unicode="Y" horiz-adv-x="636" d="M29 1434h231l59 -576l60 576h231l-180 -908v-526h-221v526z" />
<glyph unicode="Z" horiz-adv-x="622" d="M70 1225v209h483v-144l-236 -1081h248v-209h-489v143l235 1082h-241z" />
<glyph unicode="[" horiz-adv-x="538" d="M131 -246v1741h320v-156h-142v-1429h142v-156h-320z" />
<glyph unicode="\" horiz-adv-x="583" d="M49 1495h160l328 -1556h-160z" />
<glyph unicode="]" horiz-adv-x="538" d="M90 -90h141v1429h-141v156h320v-1741h-320v156z" />
<glyph unicode="a" horiz-adv-x="649" d="M59 221v156q0 106 69.5 169.5t233.5 123.5v139q0 55 -45 55q-41 0 -41 -55v-80h-204v86q0 229 247 229q252 0 252 -237v-807h-116l-35 49q-27 -38 -61.5 -53.5t-94.5 -15.5q-106 0 -155.5 59t-49.5 182zM268 221q0 -61 45 -61q31 0 40 14t9 47v293q-29 -19 -40 -27 t-27 -24.5t-21.5 -35.5t-5.5 -46v-160z" />
<glyph unicode="b" horiz-adv-x="679" d="M90 0v1454h209v-450q20 18 51 29t60 11q107 0 149.5 -55t42.5 -180v-588q0 -124 -47.5 -182.5t-153.5 -58.5q-115 0 -159 69l-35 -49h-117zM299 215q0 -55 47 -55t47 55v592q0 57 -47 57t-47 -53v-596z" />
<glyph unicode="c" horiz-adv-x="653" d="M80 221v584q0 116 58 177.5t198 61.5q138 0 194 -61.5t56 -177.5v-133h-203v137q0 55 -47 55t-47 -55v-594q0 -55 47 -55t47 55v158h203v-152q0 -118 -54.5 -179.5t-195.5 -61.5q-143 0 -199.5 62t-56.5 179z" />
<glyph unicode="d" horiz-adv-x="669" d="M80 217v594q0 126 40.5 179.5t147.5 53.5q29 0 62.5 -11t52.5 -29v450h209v-1454h-117l-35 49q-44 -69 -164 -69q-106 0 -151 56t-45 181zM289 215q0 -55 47 -55t47 55v596q0 53 -47 53t-47 -57v-592z" />
<glyph unicode="e" horiz-adv-x="663" d="M80 225v576q0 116 58 179.5t198 63.5q138 0 194 -63t56 -180v-322h-297v-264q0 -55 47 -55t47 55v158h203v-148q0 -119 -54.5 -182t-195.5 -63q-143 0 -199.5 63.5t-56.5 181.5zM289 635h94v174q0 55 -47 55t-47 -55v-174z" />
<glyph unicode="f" horiz-adv-x="491" d="M29 840v184h90v201q0 127 58 188.5t204 61.5q45 0 94 -17v-180q-40 16 -86 16q-61 0 -61 -69v-201h125v-184h-125v-840h-209v840h-90z" />
<glyph unicode="g" horiz-adv-x="651" d="M47 -109q0 137 103 195q-52 32 -52 84q0 58 60 86q-95 54 -95 203v344q0 116 58 178.5t198 62.5q51 0 99 -10q42 123 149 123q40 0 58 -6v-156q-41 13 -74 13q-29 0 -51 -15q75 -61 75 -190v-344q0 -115 -58.5 -175.5t-197.5 -60.5q-67 0 -67 -51q0 -53 67 -53 q150 0 212.5 -59t62.5 -169v-6q0 -103 -65 -168t-207 -65q-144 0 -209.5 63.5t-65.5 169.5v6zM250 -80v-4q0 -38 20 -58t52 -20q69 0 69 78v4q0 36 -19 54t-50 18q-72 0 -72 -72zM272 436q0 -61 47 -61q48 0 48 61v369q0 32 -12 45.5t-36 13.5t-35.5 -13t-11.5 -46v-369z " />
<glyph unicode="h" horiz-adv-x="669" d="M80 0v1454h209v-450q43 40 110 40q108 0 150.5 -55t42.5 -180v-809h-209v807q0 57 -47 57t-47 -53v-811h-209z" />
<glyph unicode="i" horiz-adv-x="366" d="M80 0v1024h209v-1024h-209zM80 1130v234h209v-234h-209z" />
<glyph unicode="j" horiz-adv-x="366" d="M-68 -152q40 -16 86 -16q62 0 62 70v1122h209v-1122q0 -127 -58 -188.5t-204 -61.5q-49 0 -95 16v180zM80 1130v234h209v-234h-209z" />
<glyph unicode="k" horiz-adv-x="659" d="M90 0v1454h209v-852l107 422h227l-162 -498l182 -526h-229l-125 440v-440h-209z" />
<glyph unicode="l" horiz-adv-x="366" d="M80 0v1454h209v-1454h-209z" />
<glyph unicode="m" horiz-adv-x="972" d="M80 0v1024h117l34 -49q57 69 164 69q95 0 148 -59q59 59 151 59q107 0 154 -56.5t47 -180.5v-807h-209v809q0 55 -47 55t-47 -55v-809h-209v811q0 53 -47 53t-47 -53v-811h-209z" />
<glyph unicode="n" horiz-adv-x="690" d="M90 0v1024h117l35 -49q57 69 168 69q105 0 148.5 -56t43.5 -181v-807h-209v809q0 55 -47 55t-47 -55v-809h-209z" />
<glyph unicode="o" horiz-adv-x="669" d="M80 221v584q0 116 58 177.5t198 61.5t198 -61.5t58 -177.5v-584q0 -117 -56.5 -179t-199.5 -62t-199.5 62t-56.5 179zM289 215q0 -55 47 -55t47 55v594q0 55 -47 55t-47 -55v-594z" />
<glyph unicode="p" horiz-adv-x="690" d="M90 -328v1352h117l35 -49q44 69 159 69q106 0 153.5 -58.5t47.5 -182.5v-588q0 -125 -42.5 -180t-149.5 -55q-29 0 -60 11t-51 29v-348h-209zM299 213q0 -53 47 -53t47 57v592q0 55 -47 55t-47 -55v-596z" />
<glyph unicode="q" horiz-adv-x="679" d="M70 215v588q0 125 47 183t153 58q116 0 160 -69l35 49h117v-1352h-209v348q-20 -18 -51 -29t-60 -11q-107 0 -149.5 55t-42.5 180zM279 217q0 -57 47 -57t47 53v596q0 55 -47 55t-47 -55v-592z" />
<glyph unicode="r" horiz-adv-x="479" d="M80 0v1024h117l34 -49q36 44 80.5 64t120.5 20v-221q-21 3 -39 3q-47 0 -71 -22q-32 -30 -33 -98v-721h-209z" />
<glyph unicode="s" horiz-adv-x="630" d="M59 217v119h205v-121q0 -31 12 -43t35 -12t35 12t12 43v82q0 44 -16.5 78t-43 57t-58 44t-63.5 46t-58.5 56t-43 80t-16.5 112v35q0 118 59 178.5t193 60.5q136 0 194 -61t58 -180v-94h-205v98q0 57 -47 57t-47 -55v-43q0 -41 16.5 -73.5t43 -55t58 -43.5t63.5 -46 t58.5 -55.5t43 -78.5t16.5 -109v-88q0 -118 -58.5 -177.5t-195.5 -59.5t-193.5 59t-56.5 178z" />
<glyph unicode="t" horiz-adv-x="516" d="M29 840v184h104v260l209 57v-317h137v-184h-137v-621q0 -59 53 -59q36 0 84 18v-178q-15 -7 -45.5 -13.5t-50.5 -6.5q-143 0 -196.5 59t-53.5 180v621h-104z" />
<glyph unicode="u" horiz-adv-x="690" d="M90 217v807h209v-809q0 -55 47 -55t47 55v809h209v-1024h-117l-34 49q-44 -69 -164 -69q-106 0 -151.5 56t-45.5 181z" />
<glyph unicode="v" horiz-adv-x="636" d="M35 1024h217l67 -756l68 756h217l-168 -1024h-233z" />
<glyph unicode="w" horiz-adv-x="991" d="M29 1024h213l63 -766l84 766h213l84 -766l64 766h215l-150 -1024h-246l-73 705l-72 -705h-248z" />
<glyph unicode="x" horiz-adv-x="630" d="M18 0l193 516l-182 508h215l71 -287l72 287h217l-186 -508l196 -516h-217l-82 295l-82 -295h-215z" />
<glyph unicode="y" horiz-adv-x="612" d="M27 -150q50 -16 92 -16q31 0 49 19.5t25 66.5l12 80l-176 1024h215l63 -676l64 676h215l-187 -1108q-25 -147 -85.5 -205.5t-192.5 -58.5q-58 0 -94 16v182z" />
<glyph unicode="z" horiz-adv-x="530" d="M49 0v139l207 692h-203v193h424v-139l-203 -692h209v-193h-434z" />
<glyph unicode="{" horiz-adv-x="555" d="M90 547v155h72q46 0 67 18t21 56q0 80 -16.5 154.5t-36 122t-36 114t-16.5 133.5q0 102 66.5 148.5t198.5 46.5h57v-156h-55q-46 0 -64 -17.5t-18 -64.5q0 -72 33.5 -226.5t33.5 -242.5q0 -123 -75 -163q75 -44 75 -164q0 -89 -33.5 -244t-33.5 -225q0 -49 17.5 -65.5 t64.5 -16.5h55v-156h-57q-132 0 -198.5 46.5t-66.5 148.5q0 67 16.5 133.5t36 114t36 122t16.5 154.5q0 38 -21 56t-67 18h-72z" />
<glyph unicode="|" horiz-adv-x="419" d="M131 -246v1741h160v-1741h-160z" />
<glyph unicode="}" horiz-adv-x="555" d="M90 -90h55q47 0 64.5 16.5t17.5 65.5q0 70 -33.5 225t-33.5 244q0 120 76 164q-76 41 -76 163q0 88 33.5 242.5t33.5 226.5q0 47 -18 64.5t-64 17.5h-55v156h57q132 0 198.5 -46.5t66.5 -148.5q0 -67 -16.5 -133.5t-36 -114t-36 -122t-16.5 -154.5q0 -38 21 -56t67 -18 h72v-155h-72q-46 0 -67 -18t-21 -56q0 -80 16.5 -154.5t36 -122t36 -114t16.5 -133.5q0 -102 -66.5 -148.5t-198.5 -46.5h-57v156z" />
<glyph unicode="&#xa1;" horiz-adv-x="432" d="M88 -410l53 983h152l53 -983h-258zM113 791v233h209v-233h-209z" />
<glyph unicode="&#xa2;" horiz-adv-x="724" d="M111 446v584q0 101 43.5 161.5t146.5 74.5v168h129v-168q102 -14 144 -74.5t42 -161.5v-133h-202v137q0 30 -14 43t-33 13q-48 0 -48 -56v-594q0 -55 48 -55q47 0 47 55v158h202v-152q0 -104 -41 -164t-145 -73v-209h-129v209q-106 13 -148 73t-42 164z" />
<glyph unicode="&#xa3;" horiz-adv-x="772" d="M66 666v118h75v414q0 121 62.5 188.5t212.5 67.5q138 0 203 -69t65 -187v-154h-215v154q0 26 -14 41.5t-39 15.5q-26 0 -40 -16t-14 -41v-414h140v-118h-140v-396q0 -61 66 -61h256v-209h-264q-118 0 -174 68q-56 -68 -176 -68v209q39 0 55 14.5t16 46.5v396h-75z" />
<glyph unicode="&#xa4;" horiz-adv-x="663" d="M59 0l86 332q-47 58 -47 172v471q0 110 47 168l-75 291h200l47 -215q6 0 18.5 1t18.5 1t18 -1t17 -1l49 215h201l-78 -291q49 -60 49 -168v-471q0 -114 -47 -172l86 -332h-200l-58 258q-12 -2 -37 -2q-27 0 -39 2l-55 -258h-201zM307 492q0 -56 47 -56t47 56v493 q0 55 -47 55t-47 -55v-493z" />
<glyph unicode="&#xa5;" horiz-adv-x="712" d="M70 1434h231q10 -93 27.5 -282.5t27.5 -285.5l56 568h233q-17 -86 -81 -399t-97 -484h137v-111h-137v-100h137v-111h-137v-229h-221v229h-133v111h133v100h-133v111h133q-159 794 -176 883z" />
<glyph unicode="&#xa6;" horiz-adv-x="419" d="M131 -246v774h160v-774h-160zM131 721v774h160v-774h-160z" />
<glyph unicode="&#xa7;" horiz-adv-x="700" d="M80 41h221v-133q0 -58 49 -58t49 58v84q0 61 -17.5 102t-45.5 62.5t-62 38.5t-68.5 39.5t-62.5 56.5t-45.5 99.5t-17.5 158.5v96q0 135 92 209q-92 101 -92 264v72q0 264 270 264q271 0 271 -264v-125h-222v133q0 57 -49 57t-49 -57v-84q0 -61 17.5 -102t46 -62.5 t62.5 -38.5t68 -39.5t62.5 -56.5t46 -99.5t17.5 -158.5v-96q0 -136 -91 -209q91 -99 91 -264v-72q0 -264 -271 -264q-270 0 -270 264v125zM301 563q0 -148 76 -205q22 33 22 99v80q0 147 -75 204q-23 -35 -23 -98v-80z" />
<glyph unicode="&#xa9;" horiz-adv-x="1087" d="M102 455v524q0 108 21.5 190.5t71 148.5t137.5 101t213 35q100 0 176.5 -23.5t126 -64.5t81.5 -102t45 -130t13 -155v-524q0 -107 -21 -189t-69.5 -148.5t-137 -102t-214.5 -35.5q-102 0 -179.5 24t-127 65t-80.5 102.5t-43.5 130t-12.5 153.5zM244 455q0 -78 12 -134.5 t43.5 -105.5t93 -74.5t152.5 -25.5t152 25.5t92.5 74.5t44 105.5t12.5 134.5v524q0 77 -12 133.5t-43 106t-92.5 75t-153.5 25.5t-153.5 -25.5t-92.5 -75t-43 -106t-12 -133.5v-524zM362 465v504q0 92 41 141t146 49q102 0 142 -48.5t40 -139.5v-113h-145v127q0 41 -37 41 t-37 -41v-536q0 -41 37 -41t37 43v147h145v-135q0 -91 -40 -140t-142 -49q-105 0 -146 49.5t-41 141.5z" />
<glyph unicode="&#xaa;" horiz-adv-x="561" d="M94 750v165q0 98 44.5 147t180.5 91v117q0 39 -34 39q-35 0 -35 -39v-62h-154v62q0 88 44 136t145 48q104 0 146 -48t42 -138v-674h-90q-5 5 -13.5 15.5t-13.5 15.5q-15 -22 -42 -38t-60 -16q-83 0 -121.5 44.5t-38.5 134.5zM111 377v125h362v-125h-362zM248 754 q0 -43 37 -43q20 0 27 10.5t7 32.5v280q-37 -19 -54 -46.5t-17 -72.5v-161z" />
<glyph unicode="&#xab;" horiz-adv-x="847" d="M70 512l215 379h194l-209 -379l209 -379h-194zM371 512l215 379h194l-209 -379l209 -379h-194z" />
<glyph unicode="&#xac;" horiz-adv-x="710" d="M90 590v155h533v-344h-154v189h-379z" />
<glyph unicode="&#xad;" horiz-adv-x="485" d="M70 496v155h348v-155h-348z" />
<glyph unicode="&#xae;" horiz-adv-x="1087" d="M102 455v524q0 108 21.5 190.5t71 148.5t137.5 101t213 35q100 0 176.5 -23.5t126 -64.5t81.5 -102t45 -130t13 -155v-524q0 -107 -21 -189t-69.5 -148.5t-137 -102t-214.5 -35.5q-102 0 -179.5 24t-127 65t-80.5 102.5t-43.5 130t-12.5 153.5zM244 455q0 -78 12 -134.5 t43.5 -105.5t93 -74.5t152.5 -25.5t152 25.5t92.5 74.5t44 105.5t12.5 134.5v524q0 77 -12 133.5t-43 106t-92.5 75t-153.5 25.5t-153.5 -25.5t-92.5 -75t-43 -106t-12 -133.5v-524zM362 289v860h201q95 0 131.5 -44t36.5 -128v-186q0 -125 -82 -148l137 -354h-155l-119 344 h-4v-344h-146zM508 758h49q18 0 25.5 8t7.5 27v178q0 20 -7 28.5t-26 8.5h-49v-250z" />
<glyph unicode="&#xb0;" horiz-adv-x="477" d="M70 1233q0 108 41 164.5t149 56.5t149.5 -56.5t41.5 -164.5t-41.5 -164.5t-149.5 -56.5t-149 56.5t-41 164.5zM199 1233q0 -48 13 -74t48 -26q62 0 62 100t-62 100q-35 0 -48 -26t-13 -74z" />
<glyph unicode="&#xb1;" horiz-adv-x="802" d="M100 184v156h594v-156h-594zM100 614v156h219v219h156v-219h219v-156h-219v-219h-156v219h-219z" />
<glyph unicode="&#xb6;" horiz-adv-x="794" d="M90 633v553q0 121 53.5 184.5t192.5 63.5h350v-1762h-221v717h-125q-139 0 -194.5 62t-55.5 182z" />
<glyph unicode="&#xb7;" horiz-adv-x="382" d="M88 457v233h209v-233h-209z" />
<glyph unicode="&#xba;" horiz-adv-x="550" d="M96 758v512q0 88 44 136t145 48t144.5 -48.5t43.5 -137.5v-512q0 -89 -43.5 -137t-144.5 -48q-189 0 -189 187zM106 377v125h357v-125h-357zM250 756q0 -39 35 -39q34 0 34 39v514q0 39 -34 39q-35 0 -35 -39v-514z" />
<glyph unicode="&#xbb;" horiz-adv-x="847" d="M70 133l209 379l-209 379h194l215 -379l-215 -379h-194zM371 133l209 379l-209 379h194l215 -379l-215 -379h-194z" />
<glyph unicode="&#xbf;" horiz-adv-x="702" d="M78 -41q0 79 13 135t32.5 84.5t43.5 62.5t45.5 67.5t38.5 101.5t23 163h148q16 -101 16 -159q0 -66 -14.5 -118t-35 -86.5t-40.5 -67t-34.5 -77t-14.5 -100.5v-137q0 -59 51 -59t51 59v152h222v-158q0 -252 -273 -252q-272 0 -272 252v137zM246 791v233h209v-233h-209z " />
<glyph unicode="&#xc0;" horiz-adv-x="696" d="M39 0l168 1434h285l167 -1434h-223l-20 279h-133l-21 -279h-223zM180 1812h199l41 -276h-123zM303 483h92l-14 211q-26 371 -31 502h-2q-12 -234 -31 -502z" />
<glyph unicode="&#xc1;" horiz-adv-x="696" d="M39 0l168 1434h285l167 -1434h-223l-20 279h-133l-21 -279h-223zM276 1536l41 276h199l-117 -276h-123zM303 483h92l-14 211q-26 371 -31 502h-2q-12 -234 -31 -502z" />
<glyph unicode="&#xc2;" horiz-adv-x="696" d="M39 0l168 1434h285l167 -1434h-223l-20 279h-133l-21 -279h-223zM152 1536l110 276h168l113 -276h-148l-49 100l-49 -100h-145zM303 483h92l-14 211q-26 371 -31 502h-2q-12 -234 -31 -502z" />
<glyph unicode="&#xc4;" horiz-adv-x="696" d="M39 0l168 1434h285l167 -1434h-223l-20 279h-133l-21 -279h-223zM145 1536v217h172v-217h-172zM303 483h92l-14 211q-26 371 -31 502h-2q-12 -234 -31 -502zM379 1536v217h172v-217h-172z" />
<glyph unicode="&#xc5;" horiz-adv-x="696" d="M39 0l168 1434h285l167 -1434h-223l-20 279h-133l-21 -279h-223zM195 1675q0 160 151 160q79 0 116.5 -42.5t37.5 -117.5q0 -157 -154 -157q-151 0 -151 157zM303 483h92l-14 211q-26 371 -31 502h-2q-12 -234 -31 -502zM313 1675q0 -47 33 -47q35 0 35 47q0 49 -35 49 q-33 0 -33 -49z" />
<glyph unicode="&#xc6;" horiz-adv-x="993" d="M39 0l287 1434h594v-209h-226v-398h197v-204h-197v-414h226v-209h-447v279h-158l-47 -279h-229zM352 483h121v744q-21 -121 -60 -372t-61 -372z" />
<glyph unicode="&#xc7;" horiz-adv-x="720" d="M90 242v950q0 59 13.5 104.5t44.5 82t86.5 56t134.5 19.5t134 -19.5t85 -56t42.5 -81.5t12.5 -105v-188h-217v188q0 28 -14.5 45.5t-42.5 17.5t-43 -17.5t-15 -45.5v-948q0 -66 58 -66q57 0 57 66v207h217v-209q0 -115 -52.5 -182.5t-180.5 -77.5l-15 -62 q58 -11 86.5 -41t28.5 -86q0 -68 -38.5 -104.5t-139.5 -36.5h-119l33 125h59q22 0 30.5 6.5t8.5 21.5q0 29 -39 29h-41l41 150q-215 23 -215 258z" />
<glyph unicode="&#xc8;" horiz-adv-x="620" d="M100 0v1434h453v-209h-231v-398h202v-204h-202v-414h231v-209h-453zM190 1812h199l41 -276h-123z" />
<glyph unicode="&#xc9;" horiz-adv-x="620" d="M100 0v1434h453v-209h-231v-398h202v-204h-202v-414h231v-209h-453zM248 1536l41 276h198l-116 -276h-123z" />
<glyph unicode="&#xca;" horiz-adv-x="620" d="M100 0v1434h453v-209h-231v-398h202v-204h-202v-414h231v-209h-453zM125 1536l111 276h167l113 -276h-147l-50 100l-49 -100h-145z" />
<glyph unicode="&#xcb;" horiz-adv-x="620" d="M100 0v1434h453v-209h-231v-398h202v-204h-202v-414h231v-209h-453zM123 1536v217h172v-217h-172zM356 1536v217h172v-217h-172z" />
<glyph unicode="&#xcc;" horiz-adv-x="419" d="M41 1812h199l41 -276h-123zM100 0v1434h222v-1434h-222z" />
<glyph unicode="&#xcd;" horiz-adv-x="419" d="M100 0v1434h222v-1434h-222zM147 1536l41 276h199l-117 -276h-123z" />
<glyph unicode="&#xce;" horiz-adv-x="419" d="M14 1536l111 276h168l113 -276h-148l-49 100l-49 -100h-146zM100 0v1434h222v-1434h-222z" />
<glyph unicode="&#xcf;" horiz-adv-x="419" d="M8 1536v217h172v-217h-172zM100 0v1434h222v-1434h-222zM242 1536v217h172v-217h-172z" />
<glyph unicode="&#xd0;" horiz-adv-x="755" d="M45 647v156h55v631h299q77 0 128 -16t79.5 -50.5t39.5 -79t11 -110.5v-922q0 -136 -52.5 -196t-198.5 -60h-306v647h-55zM322 209h71q43 0 43 45v922q0 49 -47 49h-67v-422h57v-156h-57v-438z" />
<glyph unicode="&#xd1;" horiz-adv-x="790" d="M90 0v1434h223l201 -904q-22 322 -22 652v252h210v-1434h-217l-206 922q22 -416 22 -715v-207h-211zM162 1552q0 112 25 158.5t110 46.5q34 0 61.5 -10.5t43 -23t35.5 -23t40 -10.5q35 0 35 49h117q0 -110 -27 -157.5t-108 -47.5q-44 0 -76 17t-56.5 34t-48.5 17 q-34 0 -34 -50h-117z" />
<glyph unicode="&#xd2;" d="M90 242v948q0 59 13.5 105t44 83t86.5 56.5t135 19.5q152 0 215 -70t63 -194v-948q0 -59 -13.5 -104.5t-44 -82t-86 -56t-134.5 -19.5t-134.5 19.5t-86.5 56t-44.5 82t-13.5 104.5zM188 1812h199l41 -276h-123zM311 244q0 -66 58 -66q57 0 57 66v948q0 63 -57 63 q-28 0 -43 -17t-15 -46v-948z" />
<glyph unicode="&#xd3;" d="M90 242v948q0 59 13.5 105t44 83t86.5 56.5t135 19.5q152 0 215 -70t63 -194v-948q0 -59 -13.5 -104.5t-44 -82t-86 -56t-134.5 -19.5t-134.5 19.5t-86.5 56t-44.5 82t-13.5 104.5zM309 1536l41 276h199l-117 -276h-123zM311 244q0 -66 58 -66q57 0 57 66v948 q0 63 -57 63q-28 0 -43 -17t-15 -46v-948z" />
<glyph unicode="&#xd4;" d="M90 242v948q0 59 13.5 105t44 83t86.5 56.5t135 19.5q152 0 215 -70t63 -194v-948q0 -59 -13.5 -104.5t-44 -82t-86 -56t-134.5 -19.5t-134.5 19.5t-86.5 56t-44.5 82t-13.5 104.5zM172 1536l111 276h168l112 -276h-147l-49 100l-50 -100h-145zM311 244q0 -66 58 -66 q57 0 57 66v948q0 63 -57 63q-28 0 -43 -17t-15 -46v-948z" />
<glyph unicode="&#xd5;" d="M90 242v948q0 59 13.5 105t44 83t86.5 56.5t135 19.5q152 0 215 -70t63 -194v-948q0 -59 -13.5 -104.5t-44 -82t-86 -56t-134.5 -19.5t-134.5 19.5t-86.5 56t-44.5 82t-13.5 104.5zM133 1552q0 112 25 158.5t110 46.5q34 0 62 -10.5t43.5 -23t35.5 -23t40 -10.5 q34 0 34 49h117q0 -110 -27 -157.5t-108 -47.5q-34 0 -62 10.5t-43.5 23.5t-35 23.5t-39.5 10.5q-35 0 -35 -50h-117zM311 244q0 -66 58 -66q57 0 57 66v948q0 63 -57 63q-28 0 -43 -17t-15 -46v-948z" />
<glyph unicode="&#xd6;" d="M90 242v948q0 59 13.5 105t44 83t86.5 56.5t135 19.5q152 0 215 -70t63 -194v-948q0 -59 -13.5 -104.5t-44 -82t-86 -56t-134.5 -19.5t-134.5 19.5t-86.5 56t-44.5 82t-13.5 104.5zM164 1536v217h172v-217h-172zM311 244q0 -66 58 -66q57 0 57 66v948q0 63 -57 63 q-28 0 -43 -17t-15 -46v-948zM397 1536v217h172v-217h-172z" />
<glyph unicode="&#xd7;" horiz-adv-x="751" d="M90 389l182 184l-182 183l103 104l184 -184l182 184l105 -104l-185 -183l185 -184l-105 -102l-182 182l-184 -182z" />
<glyph unicode="&#xd8;" d="M90 242v948q0 59 13.5 105t44 83t86.5 56.5t135 19.5q39 0 73 -6l11 47h159l-24 -115q59 -64 59 -190v-948q0 -59 -13.5 -104.5t-44 -82t-86 -56t-134.5 -19.5q-41 0 -76 6l-8 -47h-160l25 114q-60 66 -60 189zM311 244q0 -66 58 -66q57 0 57 66v948q0 63 -57 63 q-28 0 -43 -17t-15 -46v-948z" />
<glyph unicode="&#xd9;" horiz-adv-x="755" d="M100 238v1196h222v-1194q0 -62 57 -62t57 62v1194h221v-1196q0 -123 -62.5 -190.5t-215.5 -67.5t-216 67.5t-63 190.5zM193 1812h198l41 -276h-123z" />
<glyph unicode="&#xda;" horiz-adv-x="755" d="M100 238v1196h222v-1194q0 -62 57 -62t57 62v1194h221v-1196q0 -123 -62.5 -190.5t-215.5 -67.5t-216 67.5t-63 190.5zM319 1536l41 276h199l-117 -276h-123z" />
<glyph unicode="&#xdb;" horiz-adv-x="755" d="M100 238v1196h222v-1194q0 -62 57 -62t57 62v1194h221v-1196q0 -123 -62.5 -190.5t-215.5 -67.5t-216 67.5t-63 190.5zM182 1536l111 276h168l112 -276h-147l-49 100l-49 -100h-146z" />
<glyph unicode="&#xdc;" horiz-adv-x="755" d="M100 238v1196h222v-1194q0 -62 57 -62t57 62v1194h221v-1196q0 -123 -62.5 -190.5t-215.5 -67.5t-216 67.5t-63 190.5zM174 1536v217h172v-217h-172zM408 1536v217h172v-217h-172z" />
<glyph unicode="&#xdd;" horiz-adv-x="636" d="M29 1434h231l59 -576l60 576h231l-180 -908v-526h-221v526zM258 1536l41 276h199l-117 -276h-123z" />
<glyph unicode="&#xde;" horiz-adv-x="722" d="M100 0v1434h222v-289h92q72 0 120 -17t73.5 -51t35.5 -75.5t10 -100.5v-352q0 -126 -52.5 -184t-192.5 -58h-86v-307h-222zM322 512h71q43 0 43 45v330q0 49 -47 49h-67v-424z" />
<glyph unicode="&#xdf;" horiz-adv-x="684" d="M80 0v1217q0 61 11 104.5t38.5 80t80.5 55t132 18.5t132 -18.5t80.5 -55t38.5 -80t11 -104.5v-234q0 -61 -22.5 -100t-73.5 -64q108 -43 108 -164v-417q0 -67 -10.5 -112t-38 -79.5t-78.5 -50.5t-129 -16q-14 0 -34 4v198q12 -4 30 -4q29 0 40.5 14.5t11.5 47.5v426 q0 22 -12 34.5t-34 12.5h-32v205h24q45 0 45 45v254q0 59 -57 59t-57 -59v-1217h-205z" />
<glyph unicode="&#xe0;" horiz-adv-x="649" d="M59 221v156q0 106 69.5 169.5t233.5 123.5v139q0 55 -45 55q-41 0 -41 -55v-80h-204v86q0 229 247 229q252 0 252 -237v-807h-116l-35 49q-27 -38 -61.5 -53.5t-94.5 -15.5q-106 0 -155.5 59t-49.5 182zM143 1403h199l41 -277h-123zM268 221q0 -61 45 -61q31 0 40 14 t9 47v293q-29 -19 -40 -27t-27 -24.5t-21.5 -35.5t-5.5 -46v-160z" />
<glyph unicode="&#xe1;" horiz-adv-x="649" d="M59 221v156q0 106 69.5 169.5t233.5 123.5v139q0 55 -45 55q-41 0 -41 -55v-80h-204v86q0 229 247 229q252 0 252 -237v-807h-116l-35 49q-27 -38 -61.5 -53.5t-94.5 -15.5q-106 0 -155.5 59t-49.5 182zM246 1126l41 277h198l-116 -277h-123zM268 221q0 -61 45 -61 q31 0 40 14t9 47v293q-29 -19 -40 -27t-27 -24.5t-21.5 -35.5t-5.5 -46v-160z" />
<glyph unicode="&#xe2;" horiz-adv-x="649" d="M59 221v156q0 106 69.5 169.5t233.5 123.5v139q0 55 -45 55q-41 0 -41 -55v-80h-204v86q0 229 247 229q252 0 252 -237v-807h-116l-35 49q-27 -38 -61.5 -53.5t-94.5 -15.5q-106 0 -155.5 59t-49.5 182zM129 1130l111 277h168l112 -277h-147l-49 101l-50 -101h-145z M268 221q0 -61 45 -61q31 0 40 14t9 47v293q-29 -19 -40 -27t-27 -24.5t-21.5 -35.5t-5.5 -46v-160z" />
<glyph unicode="&#xe4;" horiz-adv-x="649" d="M59 221v156q0 106 69.5 169.5t233.5 123.5v139q0 55 -45 55q-41 0 -41 -55v-80h-204v86q0 229 247 229q252 0 252 -237v-807h-116l-35 49q-27 -38 -61.5 -53.5t-94.5 -15.5q-106 0 -155.5 59t-49.5 182zM121 1130v218h172v-218h-172zM268 221q0 -61 45 -61q31 0 40 14 t9 47v293q-29 -19 -40 -27t-27 -24.5t-21.5 -35.5t-5.5 -46v-160zM354 1130v218h172v-218h-172z" />
<glyph unicode="&#xe5;" horiz-adv-x="649" d="M59 221v156q0 106 69.5 169.5t233.5 123.5v139q0 55 -45 55q-41 0 -41 -55v-80h-204v86q0 229 247 229q252 0 252 -237v-807h-116l-35 49q-27 -38 -61.5 -53.5t-94.5 -15.5q-106 0 -155.5 59t-49.5 182zM172 1260q0 159 152 159q153 0 153 -159q0 -158 -153 -158 q-152 0 -152 158zM268 221q0 -61 45 -61q31 0 40 14t9 47v293q-29 -19 -40 -27t-27 -24.5t-21.5 -35.5t-5.5 -46v-160zM291 1260q0 -48 33 -48q34 0 34 48q0 49 -34 49q-33 0 -33 -49z" />
<glyph unicode="&#xe6;" horiz-adv-x="944" d="M59 225v152q0 106 69.5 169.5t233.5 123.5v139q0 55 -47 55q-43 0 -43 -55v-80h-204v86q0 229 249 229q97 0 150 -38q53 38 154 38q137 0 191 -62.5t54 -180.5v-322h-293v-264q0 -55 48 -55q47 0 47 55v158h198v-148q0 -58 -10.5 -99.5t-36.5 -76t-75.5 -52t-122.5 -17.5 q-100 0 -156 38q-56 -38 -156 -38q-141 0 -195.5 63t-54.5 182zM268 221q0 -61 45 -61q31 0 40 14t9 47v293q-29 -19 -40 -27t-27 -24.5t-21.5 -35.5t-5.5 -46v-160zM573 635h95v174q0 55 -47 55q-48 0 -48 -55v-174z" />
<glyph unicode="&#xe7;" horiz-adv-x="653" d="M80 221v584q0 116 58 177.5t198 61.5q138 0 194 -61.5t56 -177.5v-133h-203v137q0 55 -47 55t-47 -55v-594q0 -55 47 -55t47 55v158h203v-152q0 -109 -46.5 -170t-164.5 -69l-15 -62q58 -11 86.5 -41t28.5 -86q0 -68 -38.5 -104.5t-139.5 -36.5h-119l33 125h59 q22 0 30.5 6.5t8.5 21.5q0 29 -39 29h-41l41 150q-106 13 -148 73t-42 164z" />
<glyph unicode="&#xe8;" horiz-adv-x="663" d="M80 225v576q0 116 58 179.5t198 63.5q138 0 194 -63t56 -180v-322h-297v-264q0 -55 47 -55t47 55v158h203v-148q0 -119 -54.5 -182t-195.5 -63q-143 0 -199.5 63.5t-56.5 181.5zM164 1403h198l41 -277h-122zM289 635h94v174q0 55 -47 55t-47 -55v-174z" />
<glyph unicode="&#xe9;" horiz-adv-x="663" d="M80 225v576q0 116 58 179.5t198 63.5q138 0 194 -63t56 -180v-322h-297v-264q0 -55 47 -55t47 55v158h203v-148q0 -119 -54.5 -182t-195.5 -63q-143 0 -199.5 63.5t-56.5 181.5zM266 1126l41 277h199l-117 -277h-123zM289 635h94v174q0 55 -47 55t-47 -55v-174z" />
<glyph unicode="&#xea;" horiz-adv-x="663" d="M80 225v576q0 116 58 179.5t198 63.5q138 0 194 -63t56 -180v-322h-297v-264q0 -55 47 -55t47 55v158h203v-148q0 -119 -54.5 -182t-195.5 -63q-143 0 -199.5 63.5t-56.5 181.5zM135 1130l111 277h168l112 -277h-147l-49 101l-49 -101h-146zM289 635h94v174q0 55 -47 55 t-47 -55v-174z" />
<glyph unicode="&#xeb;" horiz-adv-x="663" d="M80 225v576q0 116 58 179.5t198 63.5q138 0 194 -63t56 -180v-322h-297v-264q0 -55 47 -55t47 55v158h203v-148q0 -119 -54.5 -182t-195.5 -63q-143 0 -199.5 63.5t-56.5 181.5zM129 1130v218h172v-218h-172zM289 635h94v174q0 55 -47 55t-47 -55v-174zM362 1130v218h173 v-218h-173z" />
<glyph unicode="&#xec;" horiz-adv-x="366" d="M0 1403h199l41 -277h-123zM80 0v1024h209v-1024h-209z" />
<glyph unicode="&#xed;" horiz-adv-x="366" d="M80 0v1024h209v-1024h-209zM127 1126l41 277h199l-117 -277h-123z" />
<glyph unicode="&#xee;" horiz-adv-x="366" d="M-12 1130l110 277h168l113 -277h-148l-49 101l-49 -101h-145zM80 0v1024h209v-1024h-209z" />
<glyph unicode="&#xef;" horiz-adv-x="366" d="M-18 1130v218h172v-218h-172zM80 0v1024h209v-1024h-209zM215 1130v218h172v-218h-172z" />
<glyph unicode="&#xf0;" horiz-adv-x="720" d="M102 233v385q0 117 47 178.5t152 61.5q60 0 113 -29q-6 142 -39 248l-94 -41l-56 129l97 41q-57 109 -158 228h225q60 -71 109 -152l100 45l57 -129l-96 -41q64 -166 64 -409v-515q0 -123 -62.5 -188t-198.5 -65t-198 65t-62 188zM311 233q0 -59 51 -59q52 0 52 59v375 q0 60 -54 60q-49 0 -49 -60v-375z" />
<glyph unicode="&#xf1;" horiz-adv-x="690" d="M90 0v1024h117l35 -49q57 69 168 69q105 0 148.5 -56t43.5 -181v-807h-209v809q0 55 -47 55t-47 -55v-809h-209zM111 1143q0 112 25 158.5t110 46.5q34 0 61.5 -10.5t43 -23.5t35.5 -23.5t40 -10.5q35 0 35 49h117q0 -110 -27 -157.5t-109 -47.5q-34 0 -62 10.5 t-43.5 23.5t-35 23.5t-39.5 10.5q-35 0 -35 -49h-116z" />
<glyph unicode="&#xf2;" horiz-adv-x="669" d="M80 221v584q0 116 58 177.5t198 61.5t198 -61.5t58 -177.5v-584q0 -117 -56.5 -179t-199.5 -62t-199.5 62t-56.5 179zM150 1403h198l41 -277h-123zM289 215q0 -55 47 -55t47 55v594q0 55 -47 55t-47 -55v-594z" />
<glyph unicode="&#xf3;" horiz-adv-x="669" d="M80 221v584q0 116 58 177.5t198 61.5t198 -61.5t58 -177.5v-584q0 -117 -56.5 -179t-199.5 -62t-199.5 62t-56.5 179zM270 1126l41 277h199l-117 -277h-123zM289 215q0 -55 47 -55t47 55v594q0 55 -47 55t-47 -55v-594z" />
<glyph unicode="&#xf4;" horiz-adv-x="669" d="M80 221v584q0 116 58 177.5t198 61.5t198 -61.5t58 -177.5v-584q0 -117 -56.5 -179t-199.5 -62t-199.5 62t-56.5 179zM139 1130l111 277h168l112 -277h-147l-49 101l-49 -101h-146zM289 215q0 -55 47 -55t47 55v594q0 55 -47 55t-47 -55v-594z" />
<glyph unicode="&#xf5;" horiz-adv-x="669" d="M80 221v584q0 116 58 177.5t198 61.5t198 -61.5t58 -177.5v-584q0 -117 -56.5 -179t-199.5 -62t-199.5 62t-56.5 179zM100 1143q0 112 25.5 158.5t110.5 46.5q34 0 61.5 -10.5t43 -23.5t35.5 -23.5t40 -10.5q35 0 35 49h116q0 -110 -27 -157.5t-108 -47.5q-34 0 -62 10.5 t-43.5 23.5t-35 23.5t-39.5 10.5q-35 0 -35 -49h-117zM289 215q0 -55 47 -55t47 55v594q0 55 -47 55t-47 -55v-594z" />
<glyph unicode="&#xf6;" horiz-adv-x="669" d="M80 221v584q0 116 58 177.5t198 61.5t198 -61.5t58 -177.5v-584q0 -117 -56.5 -179t-199.5 -62t-199.5 62t-56.5 179zM131 1130v218h172v-218h-172zM289 215q0 -55 47 -55t47 55v594q0 55 -47 55t-47 -55v-594zM365 1130v218h172v-218h-172z" />
<glyph unicode="&#xf7;" horiz-adv-x="772" d="M90 496v155h594v-155h-594zM295 213v205h184v-205h-184zM295 729v205h184v-205h-184z" />
<glyph unicode="&#xf8;" horiz-adv-x="669" d="M80 221v584q0 116 58 177.5t198 61.5q40 0 70 -6l14 47h160l-35 -116q47 -58 47 -164v-584q0 -117 -56.5 -179t-199.5 -62q-26 0 -72 4l-12 -45h-160l33 114q-45 55 -45 168zM289 215q0 -55 47 -55t47 55v594q0 55 -47 55t-47 -55v-594z" />
<glyph unicode="&#xf9;" horiz-adv-x="690" d="M90 217v807h209v-809q0 -55 47 -55t47 55v809h209v-1024h-117l-34 49q-44 -69 -164 -69q-106 0 -151.5 56t-45.5 181zM180 1403h199l41 -277h-123z" />
<glyph unicode="&#xfa;" horiz-adv-x="690" d="M90 217v807h209v-809q0 -55 47 -55t47 55v809h209v-1024h-117l-34 49q-44 -69 -164 -69q-106 0 -151.5 56t-45.5 181zM274 1126l41 277h199l-117 -277h-123z" />
<glyph unicode="&#xfb;" horiz-adv-x="690" d="M90 217v807h209v-809q0 -55 47 -55t47 55v809h209v-1024h-117l-34 49q-44 -69 -164 -69q-106 0 -151.5 56t-45.5 181zM150 1130l110 277h168l113 -277h-148l-49 101l-49 -101h-145z" />
<glyph unicode="&#xfc;" horiz-adv-x="690" d="M90 217v807h209v-809q0 -55 47 -55t47 55v809h209v-1024h-117l-34 49q-44 -69 -164 -69q-106 0 -151.5 56t-45.5 181zM141 1130v218h172v-218h-172zM375 1130v218h172v-218h-172z" />
<glyph unicode="&#xfd;" horiz-adv-x="612" d="M27 -150q50 -16 92 -16q31 0 49 19.5t25 66.5l12 80l-176 1024h215l63 -676l64 676h215l-187 -1108q-25 -147 -85.5 -205.5t-192.5 -58.5q-58 0 -94 16v182zM242 1126l41 277h198l-116 -277h-123z" />
<glyph unicode="&#xfe;" horiz-adv-x="690" d="M90 -328v1782h209v-450q20 18 51 29t60 11q107 0 149.5 -55t42.5 -180v-594q0 -125 -42.5 -180t-149.5 -55q-29 0 -60 11t-51 29v-348h-209zM299 213q0 -53 47 -53t47 57v590q0 57 -47 57t-47 -53v-598z" />
<glyph unicode="&#xff;" horiz-adv-x="612" d="M27 -150q50 -16 92 -16q31 0 49 19.5t25 66.5l12 80l-176 1024h215l63 -676l64 676h215l-187 -1108q-25 -147 -85.5 -205.5t-192.5 -58.5q-58 0 -94 16v182zM102 1130v218h172v-218h-172zM336 1130v218h172v-218h-172z" />
<glyph unicode="&#x152;" horiz-adv-x="925" d="M90 242v948q0 59 13.5 105t44 83t86.5 56.5t135 19.5q65 0 120 -20h390v-209h-232v-398h203v-204h-203v-414h232v-209h-387q-55 -20 -123 -20q-79 0 -134.5 19.5t-86.5 56t-44.5 82t-13.5 104.5zM311 244q0 -66 58 -66q57 0 57 66v948q0 63 -57 63q-28 0 -43 -17t-15 -46 v-948z" />
<glyph unicode="&#x153;" horiz-adv-x="966" d="M80 221v584q0 116 58 177.5t198 61.5q95 0 151 -32q59 32 152 32q138 0 194 -63t56 -180v-322h-297v-264q0 -55 47 -55t47 55v137h203v-127q0 -119 -54.5 -182t-195.5 -63q-90 0 -152 30q-58 -30 -151 -30q-143 0 -199.5 62t-56.5 179zM289 215q0 -55 47 -55t47 55v594 q0 55 -47 55t-47 -55v-594zM592 635h94v174q0 55 -47 55t-47 -55v-174z" />
<glyph unicode="&#x178;" horiz-adv-x="636" d="M29 1434h231l59 -576l60 576h231l-180 -908v-526h-221v526zM115 1536v217h172v-217h-172zM348 1536v217h172v-217h-172z" />
<glyph unicode="&#x2000;" horiz-adv-x="917" />
<glyph unicode="&#x2001;" horiz-adv-x="1835" />
<glyph unicode="&#x2002;" horiz-adv-x="917" />
<glyph unicode="&#x2003;" horiz-adv-x="1835" />
<glyph unicode="&#x2004;" horiz-adv-x="611" />
<glyph unicode="&#x2005;" horiz-adv-x="458" />
<glyph unicode="&#x2006;" horiz-adv-x="305" />
<glyph unicode="&#x2007;" horiz-adv-x="305" />
<glyph unicode="&#x2008;" horiz-adv-x="229" />
<glyph unicode="&#x2009;" horiz-adv-x="367" />
<glyph unicode="&#x200a;" horiz-adv-x="101" />
<glyph unicode="&#x2010;" horiz-adv-x="485" d="M70 496v155h348v-155h-348z" />
<glyph unicode="&#x2011;" horiz-adv-x="485" d="M70 496v155h348v-155h-348z" />
<glyph unicode="&#x2012;" horiz-adv-x="485" d="M70 496v155h348v-155h-348z" />
<glyph unicode="&#x2013;" horiz-adv-x="690" d="M70 496v155h553v-155h-553z" />
<glyph unicode="&#x2014;" horiz-adv-x="1017" d="M70 520v107h880v-107h-880z" />
<glyph unicode="&#x2018;" horiz-adv-x="348" d="M66 1454h215v-461h-123z" />
<glyph unicode="&#x2019;" horiz-adv-x="342" d="M70 993v461h215l-92 -461h-123z" />
<glyph unicode="&#x201a;" horiz-adv-x="389" d="M90 -221v461h215l-92 -461h-123z" />
<glyph unicode="&#x201c;" horiz-adv-x="598" d="M70 1454h215v-461h-123zM315 1454h215v-461h-122z" />
<glyph unicode="&#x201d;" horiz-adv-x="598" d="M70 993v461h215l-92 -461h-123zM315 993v461h215l-92 -461h-123z" />
<glyph unicode="&#x201e;" horiz-adv-x="630" d="M86 -221v461h215l-92 -461h-123zM332 -221v461h215l-92 -461h-123z" />
<glyph unicode="&#x2022;" horiz-adv-x="485" d="M70 580q0 72 51 123t123 51t123 -51t51 -123t-51 -123t-123 -51t-123 51t-51 123z" />
<glyph unicode="&#x202f;" horiz-adv-x="367" />
<glyph unicode="&#x2039;" horiz-adv-x="546" d="M70 512l215 379h194l-209 -379l209 -379h-194z" />
<glyph unicode="&#x203a;" horiz-adv-x="546" d="M70 133l209 379l-209 379h194l215 -379l-215 -379h-194z" />
<glyph unicode="&#x205f;" horiz-adv-x="458" />
<glyph unicode="&#x20ac;" horiz-adv-x="798" d="M78 565v111h67v94h-67v111h67v311q0 59 13.5 104.5t44.5 82t86.5 56t134.5 19.5t134 -19.5t85 -56t42.5 -81.5t12.5 -105v-188h-217v188q0 28 -14.5 45.5t-42.5 17.5t-42.5 -17.5t-14.5 -45.5v-311h180l-27 -111h-153v-94h133l-23 -111h-110v-321q0 -66 57 -66t57 66v207 h217v-209q0 -60 -12.5 -105t-42.5 -81.5t-85 -56t-134 -19.5t-134.5 19.5t-86.5 56t-44.5 82t-13.5 104.5v323h-67z" />
<glyph unicode="&#x2122;" horiz-adv-x="681" d="M59 1370v64h205v-64h-69v-346h-64v346h-72zM319 1024v410h68l70 -220l69 220h68v-410h-62v262l-59 -188h-33l-59 188v-262h-62z" />
<glyph unicode="&#xe000;" horiz-adv-x="1024" d="M0 0v1024h1024v-1024h-1024z" />
</font>
</defs>
</svg>
